<?xml version="1.0" encoding="UTF-8" standalone="no"?>
<svg
   xmlns:dc="http://purl.org/dc/elements/1.1/"
   xmlns:cc="http://creativecommons.org/ns#"
   xmlns:rdf="http://www.w3.org/1999/02/22-rdf-syntax-ns#"
   xmlns:svg="http://www.w3.org/2000/svg"
   xmlns="http://www.w3.org/2000/svg"
   xml:space="preserve"
   enable-background="new 0 0 566.929 66.041"
   viewBox="0 0 49.18241 550.51056"
   height="550.51056"
   width="49.182411"
   y="0px"
   x="0px"
   id="svg2"
   version="1.1"><metadata
     id="metadata18"><rdf:RDF><cc:Work
         rdf:about=""><dc:format>image/svg+xml</dc:format><dc:type
           rdf:resource="http://purl.org/dc/dcmitype/StillImage" /><dc:title></dc:title></cc:Work></rdf:RDF></metadata><defs
     id="defs16" /><g
     transform="matrix(0,-1,1,0,-8.2186461,558.882)"
     id="g4143"><path
       id="path12"
       d="m 313.027,16.557 -8.318,0 -19.605,33.009 23.342,0 0,-7.318 -9.514,0 9.514,-17.063 13.789,24.42 10.631,0 0,-0.076 16.6,0 c 14.367,0 21.57,-5.547 21.57,-16.523 0,-1.888 -0.23,-3.66 -0.732,-5.316 l 13.25,21.84 6.355,0 19.066,-32.932 -10.092,0 -11.903,21.566 -12.557,-21.568 -10.861,0 3.004,4.93 c -3.504,-3.313 -8.551,-4.93 -15.137,-4.93 l -21.84,0 0,27.384 -16.562,-27.423 0,0 z m 25.961,7.471 12.52,0 c 6.508,0 9.82,2.851 9.82,8.551 0,3.429 -1.039,5.932 -3.004,7.241 -1.887,1.348 -5.469,2.003 -10.477,2.003 l -8.82,0 0,-17.795 -0.039,0 z"
       style="fill:#1f00cc;fill-opacity:1" /><polygon
       id="polygon14"
       points="405.007,49.488 418.488,49.488 418.488,42.131 409.052,42.131 418.412,25.146 432.201,49.565 442.947,49.565 442.947,49.488 448.416,49.488 448.416,29.575 473.337,49.488 479.808,49.488 479.808,16.557 471.179,16.557 471.179,36.238 446.027,16.557 439.595,16.557 439.595,43.941 423.033,16.557 414.675,16.557 395.146,49.565 405.007,49.565 "
       style="fill:#1f00cc;fill-opacity:1" /><path
       id="path16"
       d="m 484.738,18.404 c -1.348,1.195 -2.041,3.352 -2.041,6.434 l 0,16.33 c 0,3.159 0.693,5.316 2.002,6.51 1.271,1.195 3.582,1.811 6.973,1.811 l 19.373,0 c 3.352,0 5.777,-0.616 7.049,-1.811 1.271,-1.193 2.004,-3.351 2.004,-6.51 l 0,-4.583 -9.514,-0.154 0,5.085 -18.412,0 0,-17.295 18.412,0 0,4.507 9.514,0 0,-3.89 c 0,-3.236 -0.732,-5.393 -2.004,-6.434 -1.271,-1.271 -3.504,-1.887 -7.049,-1.887 l -19.373,0 c -3.352,0.04 -5.663,0.618 -6.934,1.887 l 0,0 z"
       style="fill:#1f00cc;fill-opacity:1" /><polygon
       id="polygon18"
       points="523.255,16.557 523.255,49.488 558.882,49.488 558.882,41.862 532.769,41.862 532.769,36.008 547.83,36.008 547.83,28.766 532.769,28.766 532.769,24.028 558.458,24.028 558.458,16.557 "
       style="fill:#1f00cc;fill-opacity:1" /><path
       id="path20"
       d="M 50.841,10.354 C 40.519,6.619 30.542,7.813 20.99,13.706 11.554,19.483 7.433,28.304 8.55,39.82 c 0.307,3.352 1.578,6.433 3.736,9.129 2.156,2.696 4.93,4.621 8.242,6.123 3.35,1.503 6.895,2.08 10.631,1.888 4.121,-0.231 7.857,-1.425 11.516,-3.429 l 0.385,-0.23 -1.424,3.158 10.014,0 6.434,-13.981 11.092,0 2.465,13.981 16.41,0 8.396,-26.191 5.393,26.191 6.508,0 12.557,-29.041 1.271,29.041 9.592,0 -1.965,-46.914 -11.673,0 -10.938,25.652 -4.699,-25.652 -9.592,0 -12.362,37.939 -6.356,-37.939 -11.824,0 -18.104,40.944 2.619,-17.141 -17.873,0 -1.348,8.821 7.473,0 -0.732,4.698 -7.857,0.54 c -3.158,-0.809 -5.393,-2.465 -6.895,-5.085 -1.271,-2.465 -1.887,-5.007 -1.578,-7.856 0.385,-3.968 2.311,-7.55 5.969,-10.785 3.313,-2.928 7.551,-4.584 12.635,-5.238 4.854,-0.732 9.129,-0.231 12.711,1.348 l 1.462,-9.437 0,0 z m 16.91,22.957 -5.931,0 4.121,-9.051 1.81,9.051 z"
       style="fill:#1f00cc;fill-opacity:1" /><polygon
       id="polygon22"
       points="161.193,46.484 144.246,46.484 145.593,38.087 160.269,38.087 161.847,27.996 147.019,27.996 148.291,19.6 165.199,19.6 166.779,9.508 140.085,9.508 132.576,56.46 159.46,56.46 "
       style="fill:#1f00cc;fill-opacity:1" /><polygon
       id="polygon24"
       points="247.087,9.508 258.564,34.273 254.945,56.46 264.689,56.46 267.617,36.894 284.949,9.508 273.74,9.508 264.15,24.875 258.179,9.508 "
       style="fill:#1f00cc;fill-opacity:1" /><path
       id="path26"
       d="m 237.88,9.97 c -5.469,-1.271 -10.477,0 -15.33,3.736 -4.852,3.582 -8.012,8.743 -9.668,15.253 -1.424,6.432 -0.73,12.518 1.889,17.871 2.773,5.547 6.74,8.898 12.209,10.092 5.393,1.271 10.4,0 15.254,-3.659 4.854,-3.736 8.088,-8.897 9.59,-15.407 1.502,-6.432 0.811,-12.44 -1.887,-17.871 -2.697,-5.47 -6.74,-8.821 -12.057,-10.015 l 0,0 z m -0.808,9.359 c 2.619,1.04 4.275,3.429 5.162,6.972 0.885,3.582 0.693,7.318 -0.617,11.285 -1.271,3.891 -3.35,6.818 -6.047,8.667 -2.773,2.003 -5.393,2.388 -7.857,1.271 -2.619,-1.04 -4.352,-3.429 -5.238,-6.972 -0.963,-3.659 -0.617,-7.396 0.654,-11.285 1.271,-3.813 3.352,-6.818 6.047,-8.821 2.657,-1.887 5.355,-2.311 7.896,-1.117 l 0,0 z"
       style="fill:#1f00cc;fill-opacity:1" /><path
       id="path28"
       d="m 205.025,11.626 c -1.887,-1.194 -3.736,-1.81 -5.545,-1.81 l -17.949,0 -7.396,46.644 21.57,0 c 2.311,0 4.699,-0.731 7.203,-2.233 2.465,-1.503 4.352,-3.352 5.854,-5.624 1.58,-2.618 2.156,-5.161 1.889,-7.856 -0.309,-2.928 -1.889,-5.701 -4.623,-8.32 5.469,-5.623 6.74,-10.939 3.891,-16.023 -1.234,-1.889 -2.775,-3.508 -4.894,-4.778 z m -16.678,16.755 1.502,-8.666 6.279,0 c 1.58,0 2.773,0.461 3.582,1.348 0.693,0.809 0.963,1.811 0.809,3.004 -0.154,1.195 -0.73,2.157 -1.656,3.005 -1.039,0.886 -2.311,1.349 -3.813,1.349 l -6.703,0 10.861,11.092 c 0.887,0.887 1.35,2.042 1.271,3.313 -0.076,1.271 -0.693,2.312 -1.811,3.236 -1.115,0.885 -2.695,1.425 -4.852,1.425 l -8.475,0 1.502,-9.437 8.088,0 c 1.811,0 3.236,0.539 4.275,1.502 l -10.859,-11.171 0,0 z"
       style="fill:#1f00cc;fill-opacity:1" /><path
       id="path30"
       d="m 276.437,52.262 c 0,-1.349 -0.539,-2.389 -1.35,-3.275 -0.885,-0.885 -2.002,-1.424 -3.311,-1.424 -1.271,0 -2.389,0.539 -3.275,1.424 -0.885,0.887 -1.348,1.965 -1.348,3.275 0,1.271 0.463,2.311 1.348,3.234 0.887,0.887 2.004,1.426 3.275,1.426 1.27,0 2.387,-0.539 3.311,-1.426 0.811,-0.924 1.35,-1.963 1.35,-3.234 z m -1.889,-2.774 c 0.693,0.693 1.117,1.656 1.117,2.773 0,1.04 -0.461,1.965 -1.117,2.773 -0.654,0.654 -1.656,1.04 -2.771,1.04 -1.117,0 -2.08,-0.386 -2.773,-1.04 -0.811,-0.809 -1.195,-1.732 -1.195,-2.773 0,-1.117 0.387,-2.08 1.195,-2.773 0.654,-0.809 1.656,-1.194 2.773,-1.194 1.154,0 2.117,0.347 2.771,1.194 z"
       style="fill:#1f00cc;fill-opacity:1" /><path
       id="path32"
       d="m 273.433,49.873 -1.271,-0.308 -2.234,0 0,5.238 0.732,0 0,-2.388 1.039,0 1.426,2.388 0.809,0 -1.58,-2.388 c 1.041,0 1.656,-0.462 1.656,-1.502 0.038,-0.462 -0.116,-0.886 -0.577,-1.04 z m -0.154,1.041 c 0,0.616 -0.617,0.885 -1.734,0.885 l -0.885,0 0,-1.656 1.424,0 c 0.847,0 1.195,0.308 1.195,0.771 l 0,0 z"
       style="fill:#1f00cc;fill-opacity:1" /></g></svg>