<?xml version="1.0" encoding="UTF-8" standalone="no"?>
<!-- Generator: Adobe Illustrator 18.0.0, SVG Export Plug-In . SVG Version: 6.00 Build 0)  -->

<svg
   xmlns:dc="http://purl.org/dc/elements/1.1/"
   xmlns:cc="http://creativecommons.org/ns#"
   xmlns:rdf="http://www.w3.org/1999/02/22-rdf-syntax-ns#"
   xmlns:svg="http://www.w3.org/2000/svg"
   xmlns="http://www.w3.org/2000/svg"
   xmlns:sodipodi="http://sodipodi.sourceforge.net/DTD/sodipodi-0.dtd"
   xmlns:inkscape="http://www.inkscape.org/namespaces/inkscape"
   version="1.1"
   id="Layer_1"
   x="0px"
   y="0px"
   viewBox="0 0 356.64288 46.912476"
   enable-background="new 0 0 467 62"
   xml:space="preserve"
   inkscape:version="0.91 r13725"
   sodipodi:docname="logo-mega.svg"
   width="356.64288"
   height="46.912476"><metadata
     id="metadata4175"><rdf:RDF><cc:Work
         rdf:about=""><dc:format>image/svg+xml</dc:format><dc:type
           rdf:resource="http://purl.org/dc/dcmitype/StillImage" /><dc:title></dc:title></cc:Work></rdf:RDF></metadata><defs
     id="defs4173" /><sodipodi:namedview
     pagecolor="#ffffff"
     bordercolor="#666666"
     borderopacity="1"
     objecttolerance="10"
     gridtolerance="10"
     guidetolerance="10"
     inkscape:pageopacity="0"
     inkscape:pageshadow="2"
     inkscape:window-width="640"
     inkscape:window-height="480"
     id="namedview4171"
     showgrid="false"
     fit-margin-top="0"
     fit-margin-left="0"
     fit-margin-right="0"
     fit-margin-bottom="0"
     inkscape:zoom="1.9614561"
     inkscape:cx="161.48698"
     inkscape:cy="33.39289"
     inkscape:current-layer="Layer_1" /><g
     id="g4137"
     transform="translate(-98.4,-7.9451608)"><path
       d="m 126.8,14.7 c 1.4,-2.1 3.5,-4.2 6.2,-4.1 5.1,-0.1 10.3,0 15.4,0 0,1.7 -0.1,3.4 -0.1,5.2 2.1,-2.3 4.3,-5.2 7.8,-5.1 7.1,-0.1 14.2,0 21.3,0 0,13.9 0,27.8 0,41.7 -4.8,0 -9.6,0 -14.4,0 0,-9.9 0,-19.9 0,-29.8 -2.7,-0.2 -4,2.3 -5.2,4.3 -5.2,8.5 -10.7,16.9 -15.7,25.5 -5.1,0.1 -10.1,0.1 -15.1,0 6.1,-10.2 12.6,-20.2 18.8,-30.3 -3.2,0.2 -7.3,-0.9 -9.6,1.9 -6,9.4 -11.8,19 -17.8,28.4 -5.1,0 -10.2,0 -15.2,0 7.7,-12.7 15.6,-25.2 23.6,-37.7 z"
       id="path4139"
       inkscape:connector-curvature="0"
       style="fill:#fefffe" /><path
       d="m 185.7,16.6 c 1.9,-2.5 3.6,-6.4 7.3,-6 10.6,0 21.3,0 31.9,0 0,3.1 0,6.2 -0.1,9.3 -7.9,0.2 -15.9,-0.1 -23.8,0.2 -2.9,1.1 -3.5,4.8 -5.4,7 9.9,0.1 19.9,0 29.8,0 -2,2.7 -3.8,5.4 -5.7,8.2 -8.1,0.1 -16.2,-0.1 -24.2,0.1 0,2.6 0.1,5.2 0.1,7.8 9.8,0 19.6,0 29.4,0 0,3 0,6.1 0,9.1 -14.8,0.1 -29.6,0 -44.4,0 0,-8.5 0,-17 0,-25.5 -0.4,-4.1 3,-7 5.1,-10.2 z"
       id="path4141"
       inkscape:connector-curvature="0"
       style="fill:#fefffe" /><path
       d="m 233.7,14.7 c 1.3,-1.8 2.8,-4.2 5.4,-4.1 11.4,-0.1 22.9,0 34.3,0 0,3.1 0,6.2 -0.1,9.4 -7.4,0 -14.9,-0.1 -22.3,0 -5.1,-0.3 -7.1,5.3 -8.7,9.2 -0.4,4.6 -0.9,9.5 0.7,13.9 6.5,0.8 13.2,0.5 19.7,0.3 0.5,-2.2 0.2,-4.5 0.3,-6.7 -3.2,-1 -6.5,-0.5 -9.8,-0.5 1.7,-3 3.4,-6 5.1,-9 6,0 11.9,0 17.9,0.1 0,6.9 0,13.8 0,20.8 0,1.5 -0.6,2.8 -1,4.2 -13.7,0.6 -27.4,0.1 -41,0.2 -3.6,0.6 -6,-3.2 -5.7,-6.4 0.1,-7.6 -0.2,-15.2 0.1,-22.7 1.3,-3.3 3.3,-5.9 5.1,-8.7 z"
       id="path4143"
       inkscape:connector-curvature="0"
       style="fill:#fefffe" /><g
       id="g4145"><path
         d="m 280,10.6 c 7.7,-0.1 15.4,0 23.1,-0.1 4.1,-0.4 7.1,3.1 9.1,6.2 7.3,11.9 14.9,23.6 22.1,35.6 -5.3,0 -10.5,0 -15.8,0 -2,-2.7 -3.5,-5.9 -6.3,-7.9 -4.6,-0.2 -9.3,0 -13.9,0 -1.4,-2.2 -2.8,-4.4 -4.1,-6.7 0.1,4.8 0.1,9.7 0.1,14.5 -4.8,0 -9.6,0 -14.4,0 0,-13.8 0,-27.7 0.1,-41.6 z m 14.6,9 c -0.1,5.2 0,10.4 -0.1,15.7 4.2,0.1 8.4,0 12.6,0.1 -2.7,-4.2 -5,-8.7 -7.7,-12.9 -1.1,-1.7 -2.9,-2.4 -4.8,-2.9 z"
         id="path4147"
         inkscape:connector-curvature="0"
         style="fill:#fefffe" /></g><path
       d="m 353.6,13.5 c 1.2,-1.8 3.2,-3.2 5.4,-2.9 12.4,0 24.8,0 37.3,0 0,3.1 0,6.1 0,9.2 -9.1,0.1 -18.2,-0.1 -27.3,0.1 -3,0 -4.4,3 -5.8,5.1 -1.4,2.4 -3.8,5.1 -1.8,7.9 2.2,3.5 4.1,8.4 8.8,9.3 8.7,0.3 17.5,0 26.2,0.1 0,3.3 0,6.7 0,10 -12.1,0 -24.2,0 -36.3,0 -4.9,0 -7.1,-5.3 -9.5,-8.8 -2,-3.9 -5.8,-7 -5.9,-11.6 -0.2,-2.5 0.3,-5.2 1.8,-7.3 2.4,-3.7 4.6,-7.5 7.1,-11.1 z"
       id="path4149"
       inkscape:connector-curvature="0"
       style="fill:#fefffe" /><g
       id="g4151"><path
         d="m 400.1,10.6 c 12.3,0 24.5,-0.1 36.8,0 2.7,-0.2 5.1,1.6 6.4,3.9 2.9,4.7 6.2,9.1 8.9,13.9 1,2.8 1,6.3 -1.1,8.7 -2.9,4.2 -5.4,8.6 -8.4,12.7 -1.5,2.2 -4.4,2.6 -6.9,2.5 -12,0 -23.9,0.1 -35.9,-0.1 0.3,-13.8 0.2,-27.7 0.2,-41.6 z m 15.7,9.3 c 0,7.8 0,15.5 0,23.3 4.4,0 8.8,0 13.1,0 1.4,-0.1 3.3,0.2 4.1,-1.3 2.4,-3.2 4.6,-6.6 6.6,-10.1 -0.8,-3 -3,-5.4 -4.6,-8 -1.3,-1.6 -2.5,-4 -4.9,-3.9 -4.8,0 -9.6,0.1 -14.3,0 z"
         id="path4153"
         inkscape:connector-curvature="0"
         style="fill:#fefffe" /></g><path
       d="m 327.1,27 c 4.5,0 8.9,0 13.4,0 0,3 0,5.9 0,8.9 -4.5,0.2 -8.9,0.1 -13.4,0.1 0,-3.1 0,-6 0,-9 z"
       id="path4155"
       inkscape:connector-curvature="0"
       style="fill:#fefffe" /></g><g
     id="g4157"
     transform="translate(-98.4,-7.9451608)"><g
       id="g4159"><path
         d="m 123.7,14.5 c 2,-3.3 5.1,-6.7 9.3,-6.5 15.5,0 31,0 46.5,0 0,4.2 -0.1,8.3 0.1,12.5 3,-3.7 5.2,-8.2 8.9,-11.3 1.5,-1.4 3.7,-1.2 5.6,-1.2 11,0.1 22,0 32.9,0 0,4 0,8.1 0,12.1 3.2,-4.1 5,-10 10.2,-12 22,-0.3 43.9,0 65.9,-0.1 4.2,-0.5 7.9,2.5 10.2,5.7 4.1,5.9 7.4,12.5 11.8,18.2 0,-2.3 0,-4.6 0,-6.8 5.9,0 11.8,-0.1 17.7,0.1 3,-4.2 5.6,-8.6 8.5,-12.9 1.8,-2.4 4.5,-4.5 7.6,-4.2 26.1,0 52.1,0 78.2,0 3.4,-0.2 6.4,1.9 8.2,4.6 2.8,4.2 5.6,8.5 8.4,12.8 1.6,2.1 1.3,5 1.3,7.5 0.5,4.6 -3.5,7.8 -5.4,11.6 -2.7,3.7 -4.6,9.2 -9.7,10 -26.3,0.2 -52.6,0 -78.9,0.1 -2.1,0 -4.7,0.3 -6.3,-1.5 -5,-4.4 -7.7,-10.7 -11.5,-16 -0.3,0.3 -0.8,0.8 -1.1,1 -4.4,0.4 -8.9,0 -13.3,0.2 3.4,5.5 6.9,10.8 10.1,16.4 -7.2,-0.1 -14.4,0.3 -21.6,-0.2 -2.4,-2.2 -4,-5.2 -6.1,-7.7 -4.9,0.1 -9.8,-0.1 -14.8,0.1 0,2.5 0,5 0.1,7.6 -45.3,0.1 -90.7,0.2 -136,0 0.1,-9 0.2,-17.9 0,-26.9 -5.6,8.4 -10.7,17.1 -16.1,25.6 -0.8,1.7 -2.8,1.3 -4.3,1.4 -6,-0.1 -11.9,0.1 -17.9,-0.1 6.2,-10.1 12.6,-20.1 18.7,-30.3 -1.2,0.5 -2.6,0.9 -3.2,2.1 -6.2,9.3 -11.5,19.1 -17.9,28.3 -7.2,-0.1 -14.3,0 -21.4,-0.1 8.4,-13.4 16.8,-26.8 25.3,-40.1 z m 3.1,0.2 c -7.9,12.5 -15.8,25 -23.8,37.5 5.1,0 10.2,0 15.2,0 5.9,-9.5 11.8,-19 17.8,-28.4 2.4,-2.8 6.4,-1.7 9.6,-1.9 -6.2,10.1 -12.7,20.1 -18.8,30.3 5.1,0.1 10.1,0.1 15.1,0 5,-8.7 10.5,-17 15.7,-25.5 1.2,-1.9 2.5,-4.5 5.2,-4.3 0,9.9 0,19.9 0,29.8 4.8,0 9.6,0 14.4,0 0,-13.9 0,-27.8 0,-41.7 -7.1,0 -14.2,-0.1 -21.3,0 -3.5,-0.1 -5.7,2.8 -7.8,5.1 0.1,-1.7 0.1,-3.4 0.1,-5.2 -5.1,0 -10.3,-0.1 -15.4,0 -2.6,0.1 -4.7,2.2 -6,4.3 z m 58.9,1.9 c -2,3.2 -5.4,6.1 -5.1,10.3 0,8.5 0,17 0,25.5 14.8,0 29.6,0 44.4,0 -0.1,-3 -0.1,-6 0,-9.1 -9.8,-0.1 -19.6,0 -29.4,0 0,-2.6 0,-5.2 -0.1,-7.8 8.1,-0.2 16.1,0 24.2,-0.1 1.9,-2.8 3.7,-5.5 5.7,-8.2 -9.9,-0.1 -19.9,0 -29.8,0 1.9,-2.2 2.5,-5.9 5.4,-7 7.9,-0.3 15.9,0.1 23.8,-0.2 0.1,-3.1 0.1,-6.2 0.1,-9.3 -10.6,0 -21.3,0 -31.9,0 -3.8,-0.5 -5.4,3.4 -7.3,5.9 z m 48,-1.9 c -1.8,2.8 -3.8,5.5 -5.2,8.5 -0.3,7.6 0,15.1 -0.1,22.7 -0.3,3.2 2.1,7 5.7,6.4 13.7,-0.1 27.4,0.3 41,-0.2 0.4,-1.4 1.1,-2.7 1,-4.2 0,-6.9 0,-13.8 0,-20.8 -6,-0.1 -11.9,0 -17.9,-0.1 -1.7,3 -3.3,6 -5.1,9 3.3,0.1 6.6,-0.4 9.8,0.5 -0.1,2.2 0.2,4.5 -0.3,6.7 -6.6,0.3 -13.2,0.6 -19.7,-0.3 -1.6,-4.4 -1,-9.3 -0.7,-14 1.6,-3.9 3.6,-9.5 8.7,-9.2 7.4,-0.1 14.8,0 22.3,0 0.1,-3.1 0.2,-6.2 0.1,-9.4 -11.4,0 -22.9,0 -34.3,0 -2.5,0.1 -4,2.5 -5.3,4.4 z M 280,10.6 c 0,13.9 0,27.8 0,41.6 4.8,0.1 9.6,0 14.4,0 0,-4.8 0,-9.7 -0.1,-14.5 1.3,2.3 2.7,4.5 4.1,6.7 4.6,0 9.3,-0.1 13.9,0 2.8,2 4.3,5.2 6.3,7.9 5.3,0 10.5,0 15.8,0 -7.2,-12 -14.8,-23.7 -22.1,-35.6 -2,-3.1 -5,-6.6 -9.1,-6.2 -7.8,0.1 -15.6,0 -23.2,0.1 z m 73.6,2.9 c -2.5,3.6 -4.7,7.3 -7.2,11 -1.6,2.1 -2,4.8 -1.8,7.3 0.2,4.6 4,7.8 5.9,11.6 2.4,3.5 4.5,8.8 9.5,8.8 12.1,0 24.2,0 36.3,0 0,-3.3 0,-6.7 0,-10 -8.7,-0.1 -17.5,0.1 -26.2,-0.1 -4.6,-0.9 -6.5,-5.7 -8.8,-9.3 -2,-2.8 0.4,-5.6 1.8,-7.9 1.5,-2.1 2.9,-5 5.8,-5.1 9.1,-0.2 18.2,0 27.3,-0.1 0,-3.1 0,-6.1 0,-9.2 -12.4,0 -24.8,0 -37.3,0 -2.1,-0.1 -4.1,1.3 -5.3,3 z m 46.5,-2.9 c 0,13.9 0,27.8 0,41.7 12,0.2 23.9,0 35.9,0.1 2.5,0.1 5.3,-0.3 6.9,-2.5 3,-4.1 5.4,-8.6 8.4,-12.7 2,-2.4 2.1,-5.9 1.1,-8.7 -2.7,-4.8 -6,-9.2 -8.9,-13.9 -1.3,-2.3 -3.6,-4.1 -6.4,-3.9 -12.4,-0.2 -24.7,-0.1 -37,-0.1 z M 199.9,24.5 c 8.5,0.4 17.1,0.2 25.7,0.1 0.2,-0.5 0.5,-1.4 0.7,-1.9 -8.1,-0.1 -16.3,-0.2 -24.4,0 -0.4,0.4 -1.5,1.3 -2,1.8 z M 248,23.8 c -2.3,3.2 -4.2,6.9 -3.7,11 0.3,2 -0.9,5.2 1.6,6.2 4.9,0.3 9.7,0 14.6,0.1 0,-0.9 0,-1.8 0,-2.7 -2.7,-0.1 -5.3,0.2 -8,-0.2 -1.1,-0.8 -2.1,-1.9 -1.5,-3.3 1.7,-3.6 3.5,-7.3 6.1,-10.3 6.9,0.1 13.7,0.1 20.5,0 0,-0.5 0,-1.5 0,-2 -8.5,0 -17.1,0 -25.6,0 -1.3,0.2 -3.2,-0.2 -4,1.2 z m 115,6.3 c 2.1,3.5 3.7,8.6 8.1,9.6 8.9,0.2 17.7,0 26.6,0.1 0,-5.8 -0.1,-11.5 0,-17.3 -9.9,0.1 -19.8,-0.3 -29.7,0.2 -1.8,2.4 -3.3,5 -5,7.4 z M 327.1,27 c 0,3 0,6 0,9 4.5,0 8.9,0.1 13.4,-0.1 0,-3 0,-5.9 0,-8.9 -4.5,0 -8.9,0 -13.4,0 z M 220.7,37.6 c -7.6,0.3 -15.2,0 -22.8,0.1 0,0.7 0,2.2 0,2.9 9.3,0.1 18.6,0 28,0.1 0,-3.3 0,-6.6 0,-9.9 -1.6,2.3 -2.6,5.4 -5.2,6.8 z"
         id="path4161"
         inkscape:connector-curvature="0"
         style="fill:#000000;fill-opacity:1" /></g><g
       id="g4163"><path
         d="m 294.6,19.6 c 1.9,0.5 3.7,1.2 4.9,2.9 2.8,4.2 5,8.7 7.7,12.9 -4.2,-0.1 -8.4,0 -12.6,-0.1 0,-5.3 -0.1,-10.5 0,-15.7 z m 2.4,13.3 c 1.9,0 3.8,0 5.7,0 -2.1,-3 -3.8,-6.3 -5.7,-9.5 -0.1,3.2 0,6.4 0,9.5 z"
         id="path4165"
         inkscape:connector-curvature="0" /></g><g
       id="g4167"><path
         d="m 415.8,19.9 c 4.8,0 9.5,-0.1 14.3,0 2.4,-0.1 3.6,2.3 4.9,3.9 1.6,2.6 3.8,5 4.6,8 -2,3.5 -4.2,6.8 -6.6,10.1 -0.8,1.6 -2.7,1.2 -4.1,1.3 -4.4,0 -8.8,0 -13.1,0 0,-7.8 0,-15.5 0,-23.3 z m 2.4,2.6 c 0,6 0,12.1 0,18.1 4.3,-0.3 8.8,0.7 12.9,-0.7 2.1,-2.7 3.7,-5.7 5.6,-8.5 -1.9,-2.9 -3.6,-6 -5.8,-8.7 -4.2,-0.5 -8.5,-0.1 -12.7,-0.2 z"
         id="path4169"
         inkscape:connector-curvature="0" /></g></g></svg>