<?xml version="1.0" encoding="utf-8"?>
<!-- Generator: Adobe Illustrator 18.0.0, SVG Export Plug-In . SVG Version: 6.00 Build 0)  -->
<!DOCTYPE svg PUBLIC "-//W3C//DTD SVG 1.1//EN" "http://www.w3.org/Graphics/SVG/1.1/DTD/svg11.dtd">
<svg version="1.1" id="Layer_1" xmlns="http://www.w3.org/2000/svg" xmlns:xlink="http://www.w3.org/1999/xlink" x="0px" y="0px"
	 viewBox="0 0 467 62" enable-background="new 0 0 467 62" xml:space="preserve">
<g>
	<path fill="#FEFFFE" d="M126.8,14.7c1.4-2.1,3.5-4.2,6.2-4.1c5.1-0.1,10.3,0,15.4,0c0,1.7-0.1,3.4-0.1,5.2c2.1-2.3,4.3-5.2,7.8-5.1
		c7.1-0.1,14.2,0,21.3,0c0,13.9,0,27.8,0,41.7c-4.8,0-9.6,0-14.4,0c0-9.9,0-19.9,0-29.8c-2.7-0.2-4,2.3-5.2,4.3
		c-5.2,8.5-10.7,16.9-15.7,25.5c-5.1,0.1-10.1,0.1-15.1,0c6.1-10.2,12.6-20.2,18.8-30.3c-3.2,0.2-7.3-0.9-9.6,1.9
		c-6,9.4-11.8,19-17.8,28.4c-5.1,0-10.2,0-15.2,0C110.9,39.7,118.8,27.2,126.8,14.7z"/>
	<path fill="#FEFFFE" d="M185.7,16.6c1.9-2.5,3.6-6.4,7.3-6c10.6,0,21.3,0,31.9,0c0,3.1,0,6.2-0.1,9.3c-7.9,0.2-15.9-0.1-23.8,0.2
		c-2.9,1.1-3.5,4.8-5.4,7c9.9,0.1,19.9,0,29.8,0c-2,2.7-3.8,5.4-5.7,8.2c-8.1,0.1-16.2-0.1-24.2,0.1c0,2.6,0.1,5.2,0.1,7.8
		c9.8,0,19.6,0,29.4,0c0,3,0,6.1,0,9.1c-14.8,0.1-29.6,0-44.4,0c0-8.5,0-17,0-25.5C180.2,22.7,183.6,19.8,185.7,16.6z"/>
	<path fill="#FEFFFE" d="M233.7,14.7c1.3-1.8,2.8-4.2,5.4-4.1c11.4-0.1,22.9,0,34.3,0c0,3.1,0,6.2-0.1,9.4c-7.4,0-14.9-0.1-22.3,0
		c-5.1-0.3-7.1,5.3-8.7,9.2c-0.4,4.6-0.9,9.5,0.7,13.9c6.5,0.8,13.2,0.5,19.7,0.3c0.5-2.2,0.2-4.5,0.3-6.7c-3.2-1-6.5-0.5-9.8-0.5
		c1.7-3,3.4-6,5.1-9c6,0,11.9,0,17.9,0.1c0,6.9,0,13.8,0,20.8c0,1.5-0.6,2.8-1,4.2c-13.7,0.6-27.4,0.1-41,0.2
		c-3.6,0.6-6-3.2-5.7-6.4c0.1-7.6-0.2-15.2,0.1-22.7C229.9,20.1,231.9,17.5,233.7,14.7z"/>
	<g>
		<path fill="#FEFFFE" d="M280,10.6c7.7-0.1,15.4,0,23.1-0.1c4.1-0.4,7.1,3.1,9.1,6.2c7.3,11.9,14.9,23.6,22.1,35.6
			c-5.3,0-10.5,0-15.8,0c-2-2.7-3.5-5.9-6.3-7.9c-4.6-0.2-9.3,0-13.9,0c-1.4-2.2-2.8-4.4-4.1-6.7c0.1,4.8,0.1,9.7,0.1,14.5
			c-4.8,0-9.6,0-14.4,0C279.9,38.4,279.9,24.5,280,10.6z M294.6,19.6c-0.1,5.2,0,10.4-0.1,15.7c4.2,0.1,8.4,0,12.6,0.1
			c-2.7-4.2-5-8.7-7.7-12.9C298.3,20.8,296.5,20.1,294.6,19.6z"/>
	</g>
	<path fill="#FEFFFE" d="M353.6,13.5c1.2-1.8,3.2-3.2,5.4-2.9c12.4,0,24.8,0,37.3,0c0,3.1,0,6.1,0,9.2c-9.1,0.1-18.2-0.1-27.3,0.1
		c-3,0-4.4,3-5.8,5.1c-1.4,2.4-3.8,5.1-1.8,7.9c2.2,3.5,4.1,8.4,8.8,9.3c8.7,0.3,17.5,0,26.2,0.1c0,3.3,0,6.7,0,10
		c-12.1,0-24.2,0-36.3,0c-4.9,0-7.1-5.3-9.5-8.8c-2-3.9-5.8-7-5.9-11.6c-0.2-2.5,0.3-5.2,1.8-7.3C348.9,20.9,351.1,17.1,353.6,13.5z
		"/>
	<g>
		<path fill="#FEFFFE" d="M400.1,10.6c12.3,0,24.5-0.1,36.8,0c2.7-0.2,5.1,1.6,6.4,3.9c2.9,4.7,6.2,9.1,8.9,13.9
			c1,2.8,1,6.3-1.1,8.7c-2.9,4.2-5.4,8.6-8.4,12.7c-1.5,2.2-4.4,2.6-6.9,2.5c-12,0-23.9,0.1-35.9-0.1
			C400.2,38.4,400.1,24.5,400.1,10.6z M415.8,19.9c0,7.8,0,15.5,0,23.3c4.4,0,8.8,0,13.1,0c1.4-0.1,3.3,0.2,4.1-1.3
			c2.4-3.2,4.6-6.6,6.6-10.1c-0.8-3-3-5.4-4.6-8c-1.3-1.6-2.5-4-4.9-3.9C425.3,19.9,420.5,20,415.8,19.9z"/>
	</g>
	<path fill="#FEFFFE" d="M327.1,27c4.5,0,8.9,0,13.4,0c0,3,0,5.9,0,8.9c-4.5,0.2-8.9,0.1-13.4,0.1C327.1,32.9,327.1,30,327.1,27z"/>
</g>
<g>
	<g>
		<path d="M123.7,14.5c2-3.3,5.1-6.7,9.3-6.5c15.5,0,31,0,46.5,0c0,4.2-0.1,8.3,0.1,12.5c3-3.7,5.2-8.2,8.9-11.3
			c1.5-1.4,3.7-1.2,5.6-1.2c11,0.1,22,0,32.9,0c0,4,0,8.1,0,12.1c3.2-4.1,5-10,10.2-12c22-0.3,43.9,0,65.9-0.1
			c4.2-0.5,7.9,2.5,10.2,5.7c4.1,5.9,7.4,12.5,11.8,18.2c0-2.3,0-4.6,0-6.8c5.9,0,11.8-0.1,17.7,0.1c3-4.2,5.6-8.6,8.5-12.9
			c1.8-2.4,4.5-4.5,7.6-4.2c26.1,0,52.1,0,78.2,0c3.4-0.2,6.4,1.9,8.2,4.6c2.8,4.2,5.6,8.5,8.4,12.8c1.6,2.1,1.3,5,1.3,7.5
			c0.5,4.6-3.5,7.8-5.4,11.6c-2.7,3.7-4.6,9.2-9.7,10c-26.3,0.2-52.6,0-78.9,0.1c-2.1,0-4.7,0.3-6.3-1.5c-5-4.4-7.7-10.7-11.5-16
			c-0.3,0.3-0.8,0.8-1.1,1c-4.4,0.4-8.9,0-13.3,0.2c3.4,5.5,6.9,10.8,10.1,16.4c-7.2-0.1-14.4,0.3-21.6-0.2c-2.4-2.2-4-5.2-6.1-7.7
			c-4.9,0.1-9.8-0.1-14.8,0.1c0,2.5,0,5,0.1,7.6c-45.3,0.1-90.7,0.2-136,0c0.1-9,0.2-17.9,0-26.9c-5.6,8.4-10.7,17.1-16.1,25.6
			c-0.8,1.7-2.8,1.3-4.3,1.4c-6-0.1-11.9,0.1-17.9-0.1c6.2-10.1,12.6-20.1,18.7-30.3c-1.2,0.5-2.6,0.9-3.2,2.1
			c-6.2,9.3-11.5,19.1-17.9,28.3c-7.2-0.1-14.3,0-21.4-0.1C106.8,41.2,115.2,27.8,123.7,14.5z M126.8,14.7
			c-7.9,12.5-15.8,25-23.8,37.5c5.1,0,10.2,0,15.2,0c5.9-9.5,11.8-19,17.8-28.4c2.4-2.8,6.4-1.7,9.6-1.9
			c-6.2,10.1-12.7,20.1-18.8,30.3c5.1,0.1,10.1,0.1,15.1,0c5-8.7,10.5-17,15.7-25.5c1.2-1.9,2.5-4.5,5.2-4.3c0,9.9,0,19.9,0,29.8
			c4.8,0,9.6,0,14.4,0c0-13.9,0-27.8,0-41.7c-7.1,0-14.2-0.1-21.3,0c-3.5-0.1-5.7,2.8-7.8,5.1c0.1-1.7,0.1-3.4,0.1-5.2
			c-5.1,0-10.3-0.1-15.4,0C130.2,10.5,128.1,12.6,126.8,14.7z M185.7,16.6c-2,3.2-5.4,6.1-5.1,10.3c0,8.5,0,17,0,25.5
			c14.8,0,29.6,0,44.4,0c-0.1-3-0.1-6,0-9.1c-9.8-0.1-19.6,0-29.4,0c0-2.6,0-5.2-0.1-7.8c8.1-0.2,16.1,0,24.2-0.1
			c1.9-2.8,3.7-5.5,5.7-8.2c-9.9-0.1-19.9,0-29.8,0c1.9-2.2,2.5-5.9,5.4-7c7.9-0.3,15.9,0.1,23.8-0.2c0.1-3.1,0.1-6.2,0.1-9.3
			c-10.6,0-21.3,0-31.9,0C189.2,10.2,187.6,14.1,185.7,16.6z M233.7,14.7c-1.8,2.8-3.8,5.5-5.2,8.5c-0.3,7.6,0,15.1-0.1,22.7
			c-0.3,3.2,2.1,7,5.7,6.4c13.7-0.1,27.4,0.3,41-0.2c0.4-1.4,1.1-2.7,1-4.2c0-6.9,0-13.8,0-20.8c-6-0.1-11.9,0-17.9-0.1
			c-1.7,3-3.3,6-5.1,9c3.3,0.1,6.6-0.4,9.8,0.5c-0.1,2.2,0.2,4.5-0.3,6.7c-6.6,0.3-13.2,0.6-19.7-0.3c-1.6-4.4-1-9.3-0.7-14
			c1.6-3.9,3.6-9.5,8.7-9.2c7.4-0.1,14.8,0,22.3,0c0.1-3.1,0.2-6.2,0.1-9.4c-11.4,0-22.9,0-34.3,0C236.5,10.4,235,12.8,233.7,14.7z
			 M280,10.6c0,13.9,0,27.8,0,41.6c4.8,0.1,9.6,0,14.4,0c0-4.8,0-9.7-0.1-14.5c1.3,2.3,2.7,4.5,4.1,6.7c4.6,0,9.3-0.1,13.9,0
			c2.8,2,4.3,5.2,6.3,7.9c5.3,0,10.5,0,15.8,0c-7.2-12-14.8-23.7-22.1-35.6c-2-3.1-5-6.6-9.1-6.2C295.4,10.6,287.6,10.5,280,10.6z
			 M353.6,13.5c-2.5,3.6-4.7,7.3-7.2,11c-1.6,2.1-2,4.8-1.8,7.3c0.2,4.6,4,7.8,5.9,11.6c2.4,3.5,4.5,8.8,9.5,8.8
			c12.1,0,24.2,0,36.3,0c0-3.3,0-6.7,0-10c-8.7-0.1-17.5,0.1-26.2-0.1c-4.6-0.9-6.5-5.7-8.8-9.3c-2-2.8,0.4-5.6,1.8-7.9
			c1.5-2.1,2.9-5,5.8-5.1c9.1-0.2,18.2,0,27.3-0.1c0-3.1,0-6.1,0-9.2c-12.4,0-24.8,0-37.3,0C356.8,10.4,354.8,11.8,353.6,13.5z
			 M400.1,10.6c0,13.9,0,27.8,0,41.7c12,0.2,23.9,0,35.9,0.1c2.5,0.1,5.3-0.3,6.9-2.5c3-4.1,5.4-8.6,8.4-12.7c2-2.4,2.1-5.9,1.1-8.7
			c-2.7-4.8-6-9.2-8.9-13.9c-1.3-2.3-3.6-4.1-6.4-3.9C424.7,10.5,412.4,10.6,400.1,10.6z M199.9,24.5c8.5,0.4,17.1,0.2,25.7,0.1
			c0.2-0.5,0.5-1.4,0.7-1.9c-8.1-0.1-16.3-0.2-24.4,0C201.5,23.1,200.4,24,199.9,24.5z M248,23.8c-2.3,3.2-4.2,6.9-3.7,11
			c0.3,2-0.9,5.2,1.6,6.2c4.9,0.3,9.7,0,14.6,0.1c0-0.9,0-1.8,0-2.7c-2.7-0.1-5.3,0.2-8-0.2c-1.1-0.8-2.1-1.9-1.5-3.3
			c1.7-3.6,3.5-7.3,6.1-10.3c6.9,0.1,13.7,0.1,20.5,0c0-0.5,0-1.5,0-2c-8.5,0-17.1,0-25.6,0C250.7,22.8,248.8,22.4,248,23.8z
			 M363,30.1c2.1,3.5,3.7,8.6,8.1,9.6c8.9,0.2,17.7,0,26.6,0.1c0-5.8-0.1-11.5,0-17.3c-9.9,0.1-19.8-0.3-29.7,0.2
			C366.2,25.1,364.7,27.7,363,30.1z M327.1,27c0,3,0,6,0,9c4.5,0,8.9,0.1,13.4-0.1c0-3,0-5.9,0-8.9C336,27,331.6,27,327.1,27z
			 M220.7,37.6c-7.6,0.3-15.2,0-22.8,0.1c0,0.7,0,2.2,0,2.9c9.3,0.1,18.6,0,28,0.1c0-3.3,0-6.6,0-9.9
			C224.3,33.1,223.3,36.2,220.7,37.6z"/>
	</g>
	<g>
		<path d="M294.6,19.6c1.9,0.5,3.7,1.2,4.9,2.9c2.8,4.2,5,8.7,7.7,12.9c-4.2-0.1-8.4,0-12.6-0.1C294.6,30,294.5,24.8,294.6,19.6z
			 M297,32.9c1.9,0,3.8,0,5.7,0c-2.1-3-3.8-6.3-5.7-9.5C296.9,26.6,297,29.8,297,32.9z"/>
	</g>
	<g>
		<path d="M415.8,19.9c4.8,0,9.5-0.1,14.3,0c2.4-0.1,3.6,2.3,4.9,3.9c1.6,2.6,3.8,5,4.6,8c-2,3.5-4.2,6.8-6.6,10.1
			c-0.8,1.6-2.7,1.2-4.1,1.3c-4.4,0-8.8,0-13.1,0C415.8,35.4,415.8,27.7,415.8,19.9z M418.2,22.5c0,6,0,12.1,0,18.1
			c4.3-0.3,8.8,0.7,12.9-0.7c2.1-2.7,3.7-5.7,5.6-8.5c-1.9-2.9-3.6-6-5.8-8.7C426.7,22.2,422.4,22.6,418.2,22.5z"/>
	</g>
</g>
</svg>
