<?xml version="1.0" encoding="UTF-8" standalone="no"?>
<svg
   xmlns:dc="http://purl.org/dc/elements/1.1/"
   xmlns:cc="http://creativecommons.org/ns#"
   xmlns:rdf="http://www.w3.org/1999/02/22-rdf-syntax-ns#"
   xmlns:svg="http://www.w3.org/2000/svg"
   xmlns="http://www.w3.org/2000/svg"
   xml:space="preserve"
   enable-background="new 0 0 566.929 128.211"
   viewBox="0 0 128.21099 566.93"
   height="566.92999"
   width="128.211"
   y="0px"
   x="0px"
   id="Ebene_1"
   version="1.1"><metadata
     id="metadata162"><rdf:RDF><cc:Work
         rdf:about=""><dc:format>image/svg+xml</dc:format><dc:type
           rdf:resource="http://purl.org/dc/dcmitype/StillImage" /><dc:title></dc:title></cc:Work></rdf:RDF></metadata><defs
     id="defs160" /><g
     transform="matrix(0,-1,1,0,-347.5705,347.5705)"
     id="Ebene_2" /><g
     transform="matrix(0,-1,1,0,0,566.93)"
     id="Layer_1"><g
       id="g5"><g
         id="g7"><g
           id="g9"><g
             id="g11"
             enable-background="new    "><g
               id="g13"
               enable-background="new    "><g
                 id="g15"><g
                   id="g17"><g
                     id="g19"><path
                       d="m 252.629,61.838 3.529,5.3 c -0.273,-0.412 -0.726,-0.676 -1.179,-0.676 -0.478,0 -0.955,0.295 -1.221,1.027 l -3.529,-5.299 c 0.267,-0.732 0.743,-1.029 1.222,-1.029 0.452,0 0.903,0.266 1.178,0.677 z"
                       id="SVGID_1_" /></g></g></g></g><g
               id="g22"
               enable-background="new    "><g
                 id="g24"><g
                   id="g26"><g
                     id="g28"><path
                       d="m 311.432,60.064 3.53,5.3 c -0.172,-0.258 -0.422,-0.391 -0.687,-0.391 -0.353,0 -0.724,0.236 -0.964,0.721 l -3.527,-5.299 c 0.239,-0.483 0.613,-0.72 0.965,-0.72 0.262,-10e-4 0.512,0.132 0.683,0.389 z"
                       id="SVGID_3_" /></g></g></g></g><g
               id="g31"><path
                 id="path33"
                 d="m 314.466,41.153 29.807,0.189 c 0.568,0 4.659,0.663 -0.453,1.999 -4.084,1.063 -7.429,0.661 -8.764,5.979 l -16.086,64.575 c -1.336,5.768 3.152,10.742 8.955,12.301 1.313,0.32 1.393,1.714 -0.157,1.799 l -19.586,-0.723 -23.796,0.804 c -1.728,0 -1.795,-1.794 0.085,-2.125 5.562,-0.567 10.478,-5.151 11.548,-8.913 l 15.643,-56.077 c 0.002,-0.846 -0.435,-1.287 -0.914,-1.287 -0.35,0 -0.724,0.236 -0.965,0.719 l -44.044,63.917 c -1.22,1.967 -3.14,3.271 -4.838,3.271 -1.835,0 -3.412,-1.521 -3.578,-5.375 L 252.89,62.618 c -0.048,-0.826 -0.744,-1.454 -1.438,-1.454 -0.478,0 -0.956,0.297 -1.222,1.029 l -15.107,47.273 c -1.237,3.592 -1.325,7.104 0.147,9.645 1.463,2.611 5.229,5.803 9.64,6.701 1.714,0.412 1.628,2.125 -0.004,2.209 l -15.824,-0.662 -13.293,0.498 c -1.561,-0.084 -1.393,-1.631 0.004,-1.883 4.578,-0.979 9.826,-5.637 12.205,-12.266 l 19.571,-62.897 c 0.821,-2.376 -0.476,-5.236 -2.852,-5.804 l -6.055,-1.229 c -1.063,-0.082 -1.215,-1.632 0.002,-1.632 l 34.736,-0.282 3.482,54.755 2.548,-3.099 33.147,-49.173 c 0.407,-0.664 1.391,-2.213 1.889,-3.194 z" /></g></g></g></g><g
         id="g35"><g
           id="g37"><g
             id="g39"
             enable-background="new    "><g
               id="g41"><path
                 id="path43"
                 d="m 359.425,40.928 40.013,0.331 c 1.882,0 2.765,3.332 -1,3.664 -4.021,0.354 -8.226,3.215 -9.214,6.641 l -18.747,64.8 c -0.905,3.439 1.593,9.183 8.05,9.669 1.063,0.247 1.061,1.877 0.079,1.877 l -23.63,-0.906 -22.697,0.685 c -1.232,0 -0.896,-1.629 0.154,-1.795 3.111,-0.567 12.154,-4.076 13.88,-9.633 l 20.901,-64.692 c 1.309,-4.656 -3.016,-6.949 -7.922,-8.095 -1.062,-0.17 -0.845,-2.463 0.133,-2.546 z" /></g></g></g></g><g
         id="g45"><g
           id="g47"><g
             id="g49"
             enable-background="new    "><g
               id="g51"><path
                 id="path53"
                 d="m 464.128,36.898 c 4.105,0 8.133,0.34 12.004,1.062 2.461,0.496 5.475,1.62 4.738,3.746 l -5.906,15.057 c -0.467,1.534 -1.244,2.462 -2.031,2.462 -1.094,0 -2.207,-1.792 -2.551,-6.244 -0.195,-2.436 0.197,-11.205 -3.146,-11.393 -0.85,-0.046 -1.695,-0.067 -2.543,-0.067 -5.363,0 -10.688,0.885 -15.43,2.396 -18.068,5.767 -29.525,15.623 -37.079,32.453 -7.386,16.191 -3.739,33.693 1.478,39.662 3.557,4.066 11.865,6.874 18.252,6.874 3.75,0 6.836,-0.97 7.904,-3.224 3.457,-8.307 5.133,-18.494 4.809,-23.151 0.014,-5.647 -2.201,-6.086 -6.41,-6.866 -2.951,-0.313 -3.896,-2.227 1.615,-2.227 0.293,0 0.604,0.006 0.936,0.019 1.77,-0.011 3.492,-0.017 5.188,-0.017 3.881,0 7.602,0.021 11.299,0.039 3.473,0.018 6.924,0.035 10.473,0.035 3.246,0 6.576,-0.017 10.072,-0.06 0.98,0.483 0.896,0.897 -0.088,1.384 -5.973,0.897 -8.352,2.043 -8.924,4.254 -2.309,7.85 -4.383,16.438 -8.123,24.488 -1.33,2.883 -7.604,5.626 -9.648,6.204 -6.354,2.263 -16.916,4.063 -26.975,4.063 -8.072,0 -15.821,-1.16 -20.812,-4.183 C 384.517,112.226 381.151,90.537 388.792,76.236 400.123,54.96 434.261,36.898 464.128,36.898 Z" /></g></g></g></g><g
         style="opacity:0.77999998"
         id="g55"
         enable-background="new    "><path
           id="path57"
           d="m 558.181,127.465 0,-4.979 -1.861,0 0,-0.667 4.477,0 0,0.667 -1.867,0 0,4.979 -0.749,0 z" /><path
           id="path59"
           d="m 561.539,127.465 0,-5.646 1.125,0 1.338,4 c 0.123,0.371 0.213,0.65 0.271,0.836 0.063,-0.206 0.164,-0.508 0.299,-0.906 l 1.352,-3.93 1.006,0 0,5.646 -0.719,0 0,-4.727 -1.643,4.727 -0.674,0 -1.633,-4.808 0,4.808 -0.722,0 z" /></g><g
         id="Tick"><g
           id="g62"><linearGradient
             gradientTransform="translate(8.3501,-1207.1035)"
             y2="1266.4971"
             x2="54.548801"
             y1="1333.5625"
             x1="54.548801"
             gradientUnits="userSpaceOnUse"
             id="SVGID_2_"><stop
               id="stop65"
               style="stop-color:#53B848"
               offset="0.0604" /><stop
               id="stop67"
               style="stop-color:#65CCEC"
               offset="0.5549" /><stop
               id="stop69"
               style="stop-color:#61C3E7"
               offset="0.5832" /><stop
               id="stop71"
               style="stop-color:#55A7D8"
               offset="0.6882" /><stop
               id="stop73"
               style="stop-color:#4D92CD"
               offset="0.7933" /><stop
               id="stop75"
               style="stop-color:#4886C6"
               offset="0.8976" /><stop
               id="stop77"
               style="stop-color:#4682C4"
               offset="1" /></linearGradient><polygon
             style="fill:url(#SVGID_2_)"
             id="polygon79"
             points="28.491,59.393 52.378,59.393 97.306,126.459 73.637,126.459 " /><linearGradient
             gradientTransform="translate(8.3501,-1207.1035)"
             y2="1206.6292"
             x2="173.01289"
             y1="1333.5"
             x1="66.555702"
             gradientUnits="userSpaceOnUse"
             id="SVGID_4_"><stop
               id="stop82"
               style="stop-color:#6EBE44"
               offset="0" /><stop
               id="stop84"
               style="stop-color:#6EBE44"
               offset="0.0011" /><stop
               id="stop86"
               style="stop-color:#BCDA20"
               offset="0.2454" /><stop
               id="stop88"
               style="stop-color:#ECEB09"
               offset="0.4194" /><stop
               id="stop90"
               style="stop-color:#FFF200"
               offset="0.5055" /><stop
               id="stop92"
               style="stop-color:#FBCA08"
               offset="0.5783" /><stop
               id="stop94"
               style="stop-color:#F79A11"
               offset="0.6794" /><stop
               id="stop96"
               style="stop-color:#F47419"
               offset="0.7753" /><stop
               id="stop98"
               style="stop-color:#F1581F"
               offset="0.8635" /><stop
               id="stop100"
               style="stop-color:#F04822"
               offset="0.9411" /><stop
               id="stop102"
               style="stop-color:#EF4223"
               offset="1" /></linearGradient><polygon
             style="fill:url(#SVGID_4_)"
             id="polygon104"
             points="158.261,0.001 181.93,0.001 97.553,126.459 74.98,126.459 " /></g><g
           id="g106"><linearGradient
             gradientTransform="translate(8.3501,-1207.1035)"
             y2="1266.4971"
             x2="26.0576"
             y1="1333.5615"
             x1="26.0576"
             gradientUnits="userSpaceOnUse"
             id="SVGID_5_"><stop
               id="stop109"
               style="stop-color:#53B848"
               offset="0.0604" /><stop
               id="stop111"
               style="stop-color:#65CCEC"
               offset="0.5549" /><stop
               id="stop113"
               style="stop-color:#61C3E7"
               offset="0.5832" /><stop
               id="stop115"
               style="stop-color:#55A7D8"
               offset="0.6882" /><stop
               id="stop117"
               style="stop-color:#4D92CD"
               offset="0.7933" /><stop
               id="stop119"
               style="stop-color:#4886C6"
               offset="0.8976" /><stop
               id="stop121"
               style="stop-color:#4682C4"
               offset="1" /></linearGradient><polygon
             style="fill:url(#SVGID_5_)"
             id="polygon123"
             points="0,59.393 23.889,59.393 68.816,126.458 45.147,126.458 " /><linearGradient
             gradientTransform="translate(8.3501,-1207.1035)"
             y2="1206.6272"
             x2="144.5208"
             y1="1333.498"
             x1="38.063499"
             gradientUnits="userSpaceOnUse"
             id="SVGID_6_"><stop
               id="stop126"
               style="stop-color:#6EBE44"
               offset="0" /><stop
               id="stop128"
               style="stop-color:#6EBE44"
               offset="0.0011" /><stop
               id="stop130"
               style="stop-color:#BCDA20"
               offset="0.2454" /><stop
               id="stop132"
               style="stop-color:#ECEB09"
               offset="0.4194" /><stop
               id="stop134"
               style="stop-color:#FFF200"
               offset="0.5055" /><stop
               id="stop136"
               style="stop-color:#FBCA08"
               offset="0.5783" /><stop
               id="stop138"
               style="stop-color:#F79A11"
               offset="0.6794" /><stop
               id="stop140"
               style="stop-color:#F47419"
               offset="0.7753" /><stop
               id="stop142"
               style="stop-color:#F1581F"
               offset="0.8635" /><stop
               id="stop144"
               style="stop-color:#F04822"
               offset="0.9411" /><stop
               id="stop146"
               style="stop-color:#EF4223"
               offset="1" /></linearGradient><polygon
             style="fill:url(#SVGID_6_)"
             id="polygon148"
             points="129.769,0 153.438,0 69.063,126.458 46.489,126.458 " /></g></g><g
         id="g150"><path
           id="path152"
           d="m 154.313,97.063 -11.644,16.51 c -3.452,5.4 3.078,11.04 10.279,12.354 0.66,0.512 0.548,2.163 -0.415,2.163 -0.105,0 -0.219,-0.02 -0.345,-0.062 -0.144,-0.063 -2.86,-1.195 -9.034,-1.772 -1.652,-0.157 -4.623,-0.663 -8.245,-0.663 -1.248,0 -2.571,0.061 -3.947,0.213 l -13.024,1.834 c -1.232,-0.082 -1.229,-1.55 0.002,-1.881 6.293,-0.814 13.835,-5.482 18.259,-11.771 l 52.979,-73.901 c 0.875,-1.269 2.745,-2.007 4.565,-2.007 2.279,0 4.474,1.158 4.517,3.887 l 1.745,73.983 c 0.566,6.205 4.724,8.829 9.962,10.294 0.732,0.495 0.411,1.477 -0.086,1.645 -0.34,-0.007 -6.801,-0.106 -14.522,-1.254 -1.807,-0.267 -3.22,-0.421 -4.946,-0.421 -1.493,0 -3.221,0.116 -5.64,0.373 -3.029,0.32 -1.598,0.366 -13.862,0.91 -0.466,0.022 -0.919,-0.099 -1.017,-0.888 0.109,-0.91 1.48,-1.348 1.918,-1.465 4.9,-1.358 7.317,-3.816 8.392,-9.846 1.16,-6.631 0.85,-12.268 0.694,-18.072 m -7.505,-4.485 c 2.696,0 5.234,0.015 7.125,0.056 L 179.816,62 c -0.133,-0.4 -0.313,-0.605 -0.519,-0.605 -0.169,0 -0.357,0.145 -0.546,0.439 -6.558,9.313 -15.59,20.729 -22.065,29.972 -0.415,0.73 -0.001,0.979 0.98,0.979 0.157,0.015 0.688,0.019 1.498,0.019 1.393,0 3.607,-0.015 6.142,-0.026 2.534,-0.019 5.39,-0.037 8.087,-0.037" /></g><g
         id="g154"><path
           id="path156"
           d="m 551.406,126.374 c 0.732,0.482 0.398,1.464 -0.086,1.632 -0.34,-0.006 -6.801,-0.106 -14.521,-1.239 -1.834,-0.271 -3.254,-0.429 -5.002,-0.429 -1.479,0 -3.189,0.113 -5.584,0.366 -3.041,0.318 -1.598,0.365 -13.877,0.91 -0.457,0.021 -0.904,-0.098 -1.002,-0.887 0.107,-0.909 1.48,-1.338 1.906,-1.467 4.908,-1.348 7.326,-3.815 8.404,-9.845 1.158,-6.618 0.838,-12.256 0.684,-18.069 l -26.588,-0.153 -11.645,16.512 c -3.439,5.392 3.09,11.024 10.289,12.338 0.662,0.521 0.539,2.168 -0.422,2.168 -0.107,0 -0.223,-0.021 -0.352,-0.063 -0.145,-0.06 -2.859,-1.183 -9.021,-1.773 -1.65,-0.156 -4.625,-0.662 -8.246,-0.662 -1.248,0 -2.57,0.059 -3.945,0.213 l -13.035,1.834 c -1.221,-0.084 -1.219,-1.551 0.004,-1.881 6.305,-0.814 13.834,-5.472 18.27,-11.771 l 52.98,-73.886 c 0.875,-1.274 2.744,-2.013 4.563,-2.013 2.281,0 4.479,1.163 4.52,3.891 l 1.744,73.972 c 0.556,6.211 4.725,8.824 9.962,10.302 z M 514.792,92.873 c 2.705,0 5.256,0.015 7.152,0.056 l -0.689,-30.812 c -0.137,-0.4 -0.318,-0.605 -0.521,-0.605 -0.172,0 -0.355,0.144 -0.539,0.44 -6.568,9.325 -15.592,20.74 -22.078,29.97 -0.404,0.732 -0.002,0.98 0.979,0.98 0.191,0.018 0.945,0.022 2.078,0.022 1.377,0 3.32,-0.012 5.516,-0.022 2.528,-0.014 5.393,-0.029 8.102,-0.029" /></g></g></g></svg>