<?xml version="1.0" encoding="UTF-8" standalone="no"?>
<svg
   xmlns:dc="http://purl.org/dc/elements/1.1/"
   xmlns:cc="http://creativecommons.org/ns#"
   xmlns:rdf="http://www.w3.org/1999/02/22-rdf-syntax-ns#"
   xmlns:svg="http://www.w3.org/2000/svg"
   xmlns="http://www.w3.org/2000/svg"
   xml:space="preserve"
   enable-background="new 0 0 566.927 124.854"
   viewBox="0 0 124.854 566.92702"
   height="566.927"
   width="124.854"
   y="0px"
   x="0px"
   id="Ebene_3"
   version="1.1"><metadata
     id="metadata45"><rdf:RDF><cc:Work
         rdf:about=""><dc:format>image/svg+xml</dc:format><dc:type
           rdf:resource="http://purl.org/dc/dcmitype/StillImage" /><dc:title></dc:title></cc:Work></rdf:RDF></metadata><defs
     id="defs43" /><g
     transform="matrix(0,-1,1,0,0,566.927)"
     id="g3"><g
       id="g5"><path
         style="fill:#1d1d1b"
         id="path7"
         d="m 33.98,108.929 -0.068,-41.587 5.384,0 0,49.797 -5.384,0 -28.663,-41.924 0.135,41.924 -5.384,0 0,-49.797 5.652,0 28.328,41.587 z" /><path
         style="fill:#1d1d1b"
         id="path9"
         d="m 45.31,67.342 26.419,0 0,4.912 -20.902,0 0,17.294 20.767,0 0,4.912 -20.767,0 0,17.767 20.902,0 0,4.912 -26.419,0 0,-49.797 z" /><path
         style="fill:#1d1d1b"
         id="path11"
         d="m 74.242,92.375 c 0,-15.341 11.911,-25.908 25.976,-25.908 14.602,0 25.975,11.171 25.975,25.773 0,14.604 -11.305,25.774 -25.975,25.774 -14.738,0 -25.976,-11.373 -25.976,-25.572 l 0,-0.067 z m 5.585,-0.135 c 0,11.709 8.815,20.861 20.458,20.861 11.776,0 20.39,-9.486 20.39,-20.861 0,-11.373 -8.613,-20.861 -20.457,-20.861 -11.709,0 -20.391,9.286 -20.391,20.792 l 0,0.069 z" /><path
         style="fill:#1d1d1b"
         id="path13"
         d="m 172.16,80.262 c -1.548,-2.153 -3.433,-3.97 -5.586,-5.383 -3.23,-2.221 -7.133,-3.5 -11.574,-3.5 -10.902,0 -20.39,8.344 -20.39,20.792 0,12.652 9.556,20.996 20.457,20.996 5.249,0 9.892,-1.815 13.324,-4.508 3.5,-2.76 5.922,-6.527 6.73,-10.432 l -27.104,0 0,-4.576 33.564,0 c -0.067,2.895 -0.74,6.527 -2.221,9.624 -4.307,9.354 -14.267,14.804 -24.293,14.804 -14.535,0 -26.042,-11.17 -26.042,-25.908 0,-14.938 11.709,-25.706 26.109,-25.706 10.094,0 19.448,5.653 23.351,13.795 l -6.325,0 0,0.002 z" /><path
         style="fill:#1d1d1b"
         id="path15"
         d="m 184.25,67.342 27.59,0 0,4.912 -22.071,0 0,17.294 21.937,0 0,4.912 -21.937,0 0,17.767 22.071,0 0,4.912 -27.59,0 0,-49.797 z" /><path
         style="fill:#1d1d1b"
         id="path17"
         d="m 214.061,92.375 c 0,-15.341 11.911,-25.908 25.975,-25.908 14.603,0 25.975,11.171 25.975,25.773 0,14.604 -11.305,25.774 -25.975,25.774 -14.737,0 -25.975,-11.373 -25.975,-25.572 l 0,-0.067 z m 5.585,-0.135 c 0,11.709 8.815,20.861 20.457,20.861 11.777,0 20.39,-9.486 20.39,-20.861 0,-11.373 -8.613,-20.861 -20.457,-20.861 -11.709,0 -20.39,9.286 -20.39,20.792 l 0,0.069 0,0 z" /></g><g
       id="g19"><path
         style="fill:#1d1d1b"
         id="path21"
         d="m 327.466,92.375 c 0,-15.341 11.91,-25.908 25.976,-25.908 14.603,0 25.976,11.171 25.976,25.773 0,14.604 -11.305,25.774 -25.976,25.774 -14.737,0 -25.976,-11.373 -25.976,-25.572 l 0,-0.067 z m 5.584,-0.135 c 0,11.709 8.816,20.861 20.459,20.861 11.777,0 20.391,-9.486 20.391,-20.861 0,-11.373 -8.613,-20.861 -20.458,-20.861 -11.708,0 -20.392,9.286 -20.392,20.792 l 0,0.069 z" /><path
         style="fill:#1d1d1b"
         id="path23"
         d="m 435.001,103.748 c -3.229,7.672 -11.91,14.268 -22.879,14.268 -14.736,0 -25.975,-11.373 -25.975,-25.773 0,-14.2 10.969,-25.774 25.906,-25.774 12.314,0 20.053,8.21 22.947,14.535 l -5.99,0 c -1.684,-2.96 -7.334,-9.623 -16.957,-9.623 -11.641,0 -20.389,9.219 -20.389,20.793 0,11.777 8.813,20.929 20.389,20.929 10.432,0 15.746,-7.47 16.957,-9.354 l 5.991,0 z" /><path
         style="fill:#1d1d1b"
         id="path25"
         d="m 489.644,67.342 27.592,0 0,4.912 -22.072,0 0,17.294 21.936,0 0,4.912 -21.936,0 0,17.767 22.072,0 0,4.912 -27.592,0 0,-49.797 0,0 z" /><path
         style="fill:#1d1d1b"
         id="path27"
         d="m 545.228,72.254 -16.047,0 0,-4.912 37.746,0 0,4.912 -16.113,0 0,44.885 -5.586,0 0,-44.885 z" /></g><path
       style="fill:#1d1d1b"
       id="path29"
       d="m 475.574,117.139 6.932,0 -25.871,-24.968 23.783,-24.83 -6.055,0 -26.105,26.998 0,-6.396 0,-20.601 -5.518,0 0,49.797 5.518,0 0,-16.228 5.08,-5.306 22.236,21.534 z" /><path
       style="fill:none"
       id="path31"
       d="m 302.794,120.945 c -10.838,-21.554 -21.646,-43.05 -32.461,-64.561 0.06,-0.042 0.108,-0.083 0.163,-0.11 2.697,-1.38 5.395,-2.76 8.091,-4.138 3.812,-1.946 7.625,-3.883 11.433,-5.839 4.003,-2.056 8.21,-3.293 12.751,-3.146 3.091,0.1 5.925,0.999 8.411,2.895 2.194,1.674 3.747,3.848 4.937,6.306 1.129,2.332 1.933,4.759 1.979,7.377 0.063,3.636 -1.036,6.924 -2.985,9.977 -1.306,2.042 -2.796,3.921 -4.544,5.584 -1.204,1.146 -2.491,2.204 -3.739,3.299 -4.57,-3.241 -9.041,-6.41 -13.531,-9.593 0.852,-3.113 1.693,-6.198 2.539,-9.291 4.361,0 8.662,0 12.94,0 0,-3.277 0,-6.527 0,-9.823 -6.682,0.064 -13.29,0.127 -19.897,0.193 -2.408,6.801 -4.803,13.565 -7.201,20.342 7.736,6.398 15.445,12.774 23.16,19.157 3.066,-1.169 5.974,-2.609 8.712,-4.387 4.364,-2.835 8,-6.396 10.671,-10.881 2.482,-4.169 3.727,-8.71 3.796,-13.559 0.042,-3.005 -0.414,-5.943 -1.298,-8.823 -1.172,-3.816 -2.987,-7.27 -5.754,-10.165 -5.19,-5.433 -11.553,-8.353 -19.082,-8.621 -4.45,-0.158 -8.66,0.847 -12.631,2.842 -1.789,0.9 -3.541,1.872 -5.342,2.744 -4.01,1.939 -8.04,3.837 -12.062,5.748 -3.547,1.686 -7.095,3.366 -10.642,5.047 -1.199,0.569 -2.399,1.14 -3.6,1.71 12.046,24.561 24.078,49.093 36.104,73.624 3.05,-1.312 6.036,-2.598 9.082,-3.908 z" /><path
       style="fill:#f10000"
       id="path33"
       d="m 302.794,120.945 c -3.047,1.311 -6.032,2.596 -9.086,3.909 -12.025,-24.53 -24.058,-49.063 -36.104,-73.624 1.201,-0.57 2.4,-1.141 3.6,-1.71 3.547,-1.682 7.095,-3.362 10.642,-5.047 4.022,-1.911 8.052,-3.809 12.062,-5.748 1.801,-0.872 3.553,-1.844 5.342,-2.744 3.971,-1.996 8.181,-3 12.631,-2.842 7.529,0.268 13.892,3.188 19.082,8.621 2.767,2.895 4.582,6.348 5.754,10.165 0.884,2.879 1.34,5.818 1.298,8.823 -0.069,4.849 -1.313,9.39 -3.796,13.559 -2.672,4.484 -6.307,8.045 -10.672,10.881 -2.737,1.776 -5.645,3.217 -8.711,4.386 -7.715,-6.382 -15.424,-12.758 -23.16,-19.156 2.398,-6.777 4.793,-13.541 7.201,-20.342 6.607,-0.065 13.217,-0.129 19.897,-0.193 0,3.296 0,6.546 0,9.823 -4.278,0 -8.579,0 -12.94,0 -0.846,3.093 -1.688,6.178 -2.539,9.291 4.49,3.183 8.961,6.352 13.531,9.593 1.248,-1.095 2.535,-2.153 3.739,-3.299 1.748,-1.663 3.238,-3.542 4.543,-5.584 1.95,-3.053 3.05,-6.341 2.986,-9.977 -0.048,-2.618 -0.851,-5.045 -1.979,-7.377 -1.188,-2.458 -2.742,-4.632 -4.937,-6.306 -2.486,-1.896 -5.32,-2.794 -8.411,-2.895 -4.541,-0.147 -8.748,1.089 -12.751,3.146 -3.806,1.956 -7.621,3.893 -11.433,5.839 -2.697,1.378 -5.395,2.758 -8.091,4.138 -0.055,0.028 -0.104,0.069 -0.163,0.11 10.82,21.51 21.628,43.006 32.465,64.56 z" /><path
       style="fill:#f10000"
       id="path35"
       d="m 310.439,26.526 c -2.162,-0.445 -4.264,-0.879 -6.423,-1.324 1.257,-8.395 2.514,-16.788 3.774,-25.202 3.935,0.574 7.832,1.145 11.791,1.724 -3.055,8.288 -6.093,16.529 -9.142,24.802 z" /><path
       style="fill:#f10000"
       id="path37"
       d="m 345.539,19.679 c 2.088,3.381 4.147,6.72 6.241,10.112 -6.819,4.222 -13.635,8.44 -20.472,12.671 -1.434,-2.14 -2.84,-4.241 -4.278,-6.391 6.165,-5.459 12.317,-10.908 18.509,-16.392 z" /><path
       style="fill:#f10000"
       id="path39"
       d="m 329.069,6.482 c 3.017,2.085 5.979,4.134 8.954,6.19 -5.377,6.412 -10.738,12.805 -16.136,19.239 -1.888,-1.165 -3.759,-2.319 -5.683,-3.507 4.271,-7.275 8.549,-14.567 12.865,-21.922 z" /></g></svg>