<?xml version="1.0" encoding="UTF-8" standalone="no"?>
<svg
   xmlns:dc="http://purl.org/dc/elements/1.1/"
   xmlns:cc="http://creativecommons.org/ns#"
   xmlns:rdf="http://www.w3.org/1999/02/22-rdf-syntax-ns#"
   xmlns:svg="http://www.w3.org/2000/svg"
   xmlns="http://www.w3.org/2000/svg"
   xml:space="preserve"
   enable-background="new 0 0 566.929 67.639"
   viewBox="0 0 67.639486 566.92706"
   height="566.92706"
   width="67.639488"
   y="0px"
   x="0px"
   id="Layer_1"
   version="1.1"><metadata
     id="metadata24"><rdf:RDF><cc:Work
         rdf:about=""><dc:format>image/svg+xml</dc:format><dc:type
           rdf:resource="http://purl.org/dc/dcmitype/StillImage" /><dc:title></dc:title></cc:Work></rdf:RDF></metadata><defs
     id="defs22" /><g
     transform="matrix(0,-1,1,0,1.7463618e-4,566.928)"
     style="fill:#ffffff;fill-opacity:1"
     id="g3"><g
       style="fill:#ffffff;fill-opacity:1"
       id="g5"><path
         style="fill:#ffffff;fill-opacity:1"
         d="m 213.297,56.3 c -4.779,6.492 -9.51,8.334 -11.58,9.33 -2.068,0.998 -5.201,1.779 -7.941,1.779 -7.689,0 -13.688,-2.507 -18,-7.5 -4.314,-5.016 -6.469,-12.047 -6.469,-21.165 0,-10.782 2.719,-19.923 8.182,-27.471 C 182.948,3.75 190.19,0 199.214,0 c 6.846,0 12.445,1.922 16.828,5.789 4.383,3.844 6.564,9.891 6.564,18.117 l -13.244,0 c 0,-3.938 -0.867,-6.703 -2.604,-8.297 -1.732,-1.57 -4.219,-2.367 -7.477,-2.367 -5.32,0 -9.422,2.601 -12.352,7.781 -2.906,5.204 -4.385,11.109 -4.385,17.742 0,4.524 0.963,8.229 2.838,11.086 1.898,2.885 4.732,4.313 8.508,4.313 3.938,0 6.984,-1.125 9.188,-3.353 2.18,-2.202 3.797,-5.063 4.828,-8.556 l -12.33,0 1.996,-12 24.045,0 -2.039,11.625 c 0.003,0.005 -1.521,7.928 -6.281,14.42 l 0,0 z"
         id="path5" /><polygon
         style="fill:#ffffff;fill-opacity:1"
         points="294.299,65.84 284.809,65.84 280.426,16.127 273.508,65.84 261.792,65.84 272.5,1.666 288.934,1.666 292.614,46.855 311.083,1.547 327.629,1.666 316.872,65.84 305.293,65.84 314.411,16.104 "
         id="polygon9" /><polygon
         style="fill:#ffffff;fill-opacity:1"
         points="335.481,52.62 356.831,52.62 354.725,65.84 321.067,65.84 331.708,1.594 364.965,1.594 362.928,14.907 341.997,14.907 339.887,26.509 358.803,26.509 356.831,38.956 337.918,38.956 "
         id="polygon11" /><path
         style="fill:#ffffff;fill-opacity:1"
         d="m 239.081,1.547 -25.875,64.293 12.609,0 4.617,-12.541 16.5,0 1.078,12.541 12.211,0 -7.313,-64.292 -13.827,0 z m -4.641,40.784 9.377,-25.571 2.178,25.571 -11.555,0 z"
         id="path13" /></g><g
       style="fill:#ffffff;fill-opacity:1"
       id="g11"><path
         style="fill:#ffffff;fill-opacity:1"
         d="m 430.284,56.3 c -4.781,6.492 -9.51,8.334 -11.58,9.331 -2.068,0.997 -5.201,1.779 -7.941,1.779 -7.688,0 -13.688,-2.508 -18,-7.5 -4.314,-5.016 -6.471,-12.046 -6.471,-21.164 0,-10.782 2.721,-19.923 8.182,-27.471 5.461,-7.523 12.703,-11.273 21.727,-11.273 6.844,0 12.445,1.922 16.828,5.789 4.385,3.845 6.563,9.893 6.563,18.118 l -13.24,0 c 0,-3.938 -0.867,-6.703 -2.604,-8.297 -1.732,-1.569 -4.219,-2.367 -7.477,-2.367 -5.32,0 -9.422,2.601 -12.352,7.781 -2.908,5.204 -4.383,11.109 -4.383,17.743 0,4.523 0.961,8.228 2.834,11.085 1.9,2.885 4.734,4.313 8.51,4.313 3.938,0 6.984,-1.125 9.188,-3.352 2.18,-2.203 3.797,-5.063 4.83,-8.556 l -12.33,0 1.992,-12 24.047,0 -2.039,11.625 c -10e-4,10e-4 -1.526,7.924 -6.284,14.416 l 0,0 z"
         id="path5_1_" /><polygon
         style="fill:#ffffff;fill-opacity:1"
         points="450.561,52.62 471.936,52.62 469.827,65.862 436.168,65.862 446.809,1.594 480.069,1.594 478.03,14.906 457.098,14.906 454.991,26.532 473.879,26.532 471.936,38.956 453.02,38.956 "
         id="polygon15" /><path
         style="fill:#ffffff;fill-opacity:1"
         d="m 496.801,1.572 -25.875,64.292 12.635,0 4.592,-12.54 16.525,0 1.076,12.54 12.189,0 -7.314,-64.292 -13.828,0 z m -4.617,40.758 9.354,-25.572 2.203,25.572 -11.557,0 z"
         id="path17" /><path
         style="fill:#ffffff;fill-opacity:1"
         d="m 537.491,29.836 2.813,-15.819 6.75,0 c 2.484,0 4.336,0.444 5.578,1.336 1.242,0.914 1.852,2.718 1.852,5.437 0,3.047 -1.008,5.297 -3,6.798 -2.018,1.5 -4.57,2.249 -7.664,2.249 l -6.329,0 0,-0.001 z m -7.617,-28.242 -10.641,64.268 12.303,0 4.127,-24.493 5.695,0 9.516,24.493 14.109,0 -10.547,-27.118 c 3.68,-1.875 6.844,-4.993 9.047,-8.25 2.297,-3.352 3.445,-7.266 3.445,-11.743 0,-6.07 -1.359,-10.43 -4.102,-13.125 -2.719,-2.694 -6.588,-4.031 -11.555,-4.031 l -21.397,0 0,-10e-4 z"
         id="path19" /></g><path
       style="fill:#ffffff;fill-opacity:1"
       d="M 10.274,26.281 C 21.131,8.071 36.077,-3.295 43.657,0.855 51.221,5.023 48.555,23.163 37.678,41.361 26.819,59.572 11.875,70.936 4.313,66.784 -3.269,62.619 -0.587,44.477 10.274,26.281 Z"
       id="path21" /><path
       style="fill:#ffffff;fill-opacity:1"
       d="M 58.846,26.281 C 69.704,8.071 84.649,-3.295 92.227,0.855 99.791,5.023 97.125,23.163 86.248,41.361 75.391,59.572 60.446,70.936 52.883,66.784 45.303,62.619 47.985,44.477 58.846,26.281 Z"
       id="path21_2_" /><path
       style="fill:#ffffff;fill-opacity:1"
       d="M 107.418,26.281 C 118.273,8.07 133.221,-3.295 140.799,0.854 c 7.564,4.168 4.898,22.308 -5.979,40.506 -10.859,18.211 -25.801,29.575 -33.365,25.423 -7.581,-4.164 -4.898,-22.306 5.963,-40.502 z"
       id="path21_3_" /></g></svg>