<?xml version="1.0" encoding="UTF-8" standalone="no"?>
<svg
   xmlns:dc="http://purl.org/dc/elements/1.1/"
   xmlns:cc="http://creativecommons.org/ns#"
   xmlns:rdf="http://www.w3.org/1999/02/22-rdf-syntax-ns#"
   xmlns:svg="http://www.w3.org/2000/svg"
   xmlns="http://www.w3.org/2000/svg"
   xml:space="preserve"
   enable-background="new 0 0 566.929 70.521"
   viewBox="0 0 70.522001 566.92795"
   height="566.92798"
   width="70.522003"
   y="0px"
   x="0px"
   id="Layer_1"
   version="1.1"><metadata
     id="metadata11"><rdf:RDF><cc:Work
         rdf:about=""><dc:format>image/svg+xml</dc:format><dc:type
           rdf:resource="http://purl.org/dc/dcmitype/StillImage" /><dc:title></dc:title></cc:Work></rdf:RDF></metadata><defs
     id="defs9" /><g
     transform="matrix(0,-1,1,0,0,566.928)"
     id="g3"><path
       id="path5"
       d="m 215.935,24.467 c -2.663,0 -4.929,0.934 -6.792,2.797 -1.864,1.863 -2.794,4.127 -2.794,6.79 0,2.624 0.93,4.869 2.794,6.733 1.863,1.862 4.129,2.796 6.792,2.796 2.62,0 4.869,-0.934 6.729,-2.796 1.866,-1.864 2.799,-4.109 2.799,-6.733 0,-2.663 -0.933,-4.927 -2.799,-6.79 -1.86,-1.863 -4.109,-2.797 -6.729,-2.797 z M 398.414,1.085 c -9.875,-0.395 -18.195,2.721 -24.957,9.348 -6.766,6.628 -10.148,14.906 -10.148,24.836 0,8.848 2.601,16.494 7.802,22.939 6.582,8.156 15.899,12.232 27.946,12.232 12.013,0 21.31,-4.272 27.894,-12.824 4.97,-6.445 7.454,-13.911 7.454,-22.396 0,-9.931 -3.332,-18.201 -9.997,-24.812 -6.667,-6.61 -15.33,-9.718 -25.994,-9.323 z m 15.722,53.094 c -1.606,4.621 -3.859,7.982 -6.754,10.085 -2.268,1.646 -5.09,2.466 -8.476,2.466 -5.027,0 -8.938,-1.907 -11.73,-5.721 -4.01,-5.457 -6.015,-13.891 -6.015,-25.299 0,-9.602 1.297,-16.965 3.895,-22.093 3.188,-6.248 7.838,-9.373 13.95,-9.373 3.317,0 6.249,0.906 8.799,2.713 2.545,1.81 4.64,4.907 6.282,9.295 1.642,4.391 2.466,11.007 2.466,19.851 0,7.432 -0.807,13.457 -2.417,18.076 z m -111.768,-13.28 -32.546,0 0,1.736 1.724,0 c 1.606,0 2.976,0.318 4.105,0.948 1.135,0.63 1.879,1.336 2.24,2.115 0.36,0.78 0.541,2.499 0.541,5.153 l 0,13.935 c -1.77,0.659 -3.498,1.161 -5.187,1.504 -1.689,0.348 -3.337,0.52 -4.942,0.52 -4.622,0 -8.613,-1.136 -11.975,-3.405 -3.36,-2.268 -5.792,-5.821 -7.302,-10.655 -1.509,-4.834 -2.261,-10.458 -2.261,-16.872 0,-5.296 0.692,-10.457 2.076,-15.49 1.381,-5.031 3.739,-8.954 7.064,-11.765 3.327,-2.812 7.492,-4.219 12.5,-4.219 5.236,0 10.06,1.678 14.473,5.036 4.416,3.357 7.725,8.263 9.934,14.713 l 1.736,0 0,-23.621 -1.736,0 c -0.659,1.899 -1.386,3.191 -2.176,3.873 -0.791,0.684 -1.646,1.025 -2.569,1.025 -0.591,0 -2.513,-0.618 -5.758,-1.854 -3.247,-1.238 -5.591,-1.988 -7.041,-2.252 -2.671,-0.526 -5.667,-0.791 -8.995,-0.791 -10.741,0 -19.651,3.468 -26.734,10.401 -7.085,6.933 -10.624,15.427 -10.624,25.481 0,5.617 1.151,10.696 3.455,15.231 1.807,3.514 4.315,6.676 7.524,9.487 3.206,2.809 6.91,5.077 11.103,6.802 4.194,1.724 9.469,2.586 15.818,2.586 4.967,0 9.761,-0.482 14.382,-1.443 4.622,-0.966 9.072,-2.394 13.351,-4.291 l 0,-13.935 c 0,-2.456 0.149,-3.999 0.444,-4.632 0.523,-1.194 1.268,-2.048 2.235,-2.563 0.969,-0.513 2.683,-0.853 5.141,-1.021 l 0,-1.737 z M 166.569,1.085 c -9.876,-0.395 -18.196,2.721 -24.958,9.348 -6.766,6.628 -10.145,14.906 -10.145,24.836 0,8.848 2.597,16.494 7.8,22.939 6.582,8.156 15.897,12.232 27.942,12.232 12.015,0 21.313,-4.272 27.897,-12.824 4.968,-6.445 7.456,-13.911 7.456,-22.396 0,-9.931 -3.333,-18.201 -9.998,-24.812 -6.666,-6.61 -15.331,-9.718 -25.994,-9.323 z m 15.722,53.094 c -1.61,4.621 -3.86,7.982 -6.752,10.085 -2.268,1.646 -5.093,2.466 -8.476,2.466 -5.031,0 -8.94,-1.907 -11.731,-5.721 -4.011,-5.457 -6.015,-13.891 -6.015,-25.299 0,-9.602 1.295,-16.965 3.893,-22.093 3.189,-6.248 7.838,-9.373 13.949,-9.373 3.319,0 6.25,0.906 8.799,2.713 2.548,1.81 4.639,4.907 6.283,9.295 1.645,4.391 2.466,11.007 2.466,19.851 0.001,7.432 -0.806,13.457 -2.416,18.076 z m 168.337,6.789 c -3.766,2.893 -8.773,4.34 -15.019,4.34 l -3.998,0 c -1.907,0 -3.289,-0.261 -4.144,-0.79 -0.854,-0.526 -1.439,-1.202 -1.751,-2.022 -0.313,-0.822 -0.466,-3.079 -0.466,-6.765 l 0,-18.86 c 3.189,0 5.626,0.421 7.305,1.259 1.681,0.84 3.153,2.479 4.419,4.916 1.268,2.437 2.098,5.567 2.493,9.386 l 1.896,0 0,-35.075 -1.896,0 c -0.526,5.202 -1.743,9.136 -3.653,11.801 -1.909,2.666 -4.986,3.999 -9.23,3.999 l -1.333,0 0,-27.253 6.872,0 c 5.066,0 8.525,0.297 10.368,0.889 3.158,0.989 5.603,2.538 7.329,4.646 1.73,2.107 3.07,5.583 4.026,10.424 l 1.896,0 0,-19.83 -56.01,0 0,1.737 2.215,0 c 2.167,0 3.873,0.466 5.118,1.395 0.887,0.633 1.494,1.529 1.823,2.692 0.162,0.698 0.248,2.574 0.248,5.631 l 0,44.079 c 0,3.392 -0.185,5.48 -0.547,6.277 -0.455,1.13 -1.111,1.928 -1.969,2.394 -1.181,0.698 -2.738,1.046 -4.674,1.046 l -2.215,0 0,1.737 57.817,0 3.009,-21.279 -1.82,0 c -1.637,5.925 -4.344,10.334 -8.109,13.226 z m -231.842,0 c -3.767,2.893 -8.774,4.34 -15.021,4.34 l -3.996,0 c -1.907,0 -3.288,-0.261 -4.144,-0.79 -0.856,-0.526 -1.438,-1.202 -1.751,-2.022 -0.312,-0.822 -0.469,-3.079 -0.469,-6.765 l 0,-18.86 c 3.192,0 5.631,0.421 7.308,1.259 1.679,0.84 3.153,2.479 4.419,4.916 1.265,2.437 2.098,5.567 2.496,9.386 l 1.894,0 0,-35.075 -1.894,0 c -0.53,5.202 -1.747,9.136 -3.655,11.801 -1.912,2.666 -4.988,3.999 -9.233,3.999 l -1.334,0 0,-27.253 6.874,0 c 5.07,0 8.523,0.297 10.367,0.889 3.163,0.989 5.604,2.538 7.334,4.646 1.728,2.107 3.068,5.583 4.022,10.424 l 1.896,0 0,-19.83 -76.977,0 0,1.737 c 3.734,-0.065 6.395,0.863 7.984,2.783 1.155,1.424 1.733,4.158 1.733,8.198 l 0,28.722 -32.901,-41.44 -23.735,0 0,1.737 c 2.042,0.069 3.606,0.388 4.691,0.958 1.085,0.57 2.335,1.763 3.752,3.575 l 1.428,1.773 0,47.254 c 0,3.603 -0.723,6.152 -2.173,7.652 C 6.254,66.484 3.686,67.25 0,67.284 l 0,1.737 23.778,0 0,-1.737 -1.581,0 c -2.271,0 -4.286,-0.682 -6.047,-2.049 -1.761,-1.368 -2.64,-4.005 -2.64,-7.905 l 0,-42.62 45.096,55.812 1.668,0 0,-55.77 c 0,-3.179 0.271,-5.423 0.812,-6.731 0.544,-1.309 1.299,-2.253 2.266,-2.832 0.971,-0.58 2.868,-1.052 5.69,-1.417 l 1.063,0 c 2.165,0 3.873,0.466 5.119,1.395 0.889,0.633 1.496,1.529 1.822,2.692 0.163,0.698 0.246,2.574 0.246,5.631 l 0,44.079 c 0,3.392 -0.182,5.48 -0.54,6.277 -0.461,1.13 -1.117,1.928 -1.971,2.394 -1.18,0.698 -2.741,1.046 -4.676,1.046 l -2.212,0 0,1.737 57.815,0 3.01,-21.279 -1.818,0 c -1.647,5.923 -4.353,10.332 -8.114,13.224 z M 536.658,7.374 C 534.492,6.437 530.897,5.985 525.875,6.015 l 0,49.376 c 0,2.538 0.12,4.095 0.362,4.668 0.238,0.574 0.645,1.014 1.217,1.313 0.813,0.453 1.984,0.678 3.52,0.678 5.021,0 8.854,-1.719 11.504,-5.162 3.607,-4.653 5.413,-12.488 5.413,-22.277 0,-7.884 -1.235,-14.182 -3.699,-18.893 -1.957,-3.686 -4.468,-7.016 -7.534,-8.344 z m 3.706,47.875 c -2.14,2.782 -5.208,4.131 -9.391,4.131 -1.492,0 -2.074,-0.261 -2.217,-0.342 -0.021,-0.011 -0.026,-0.015 -0.04,-0.021 -0.049,-0.288 -0.169,-1.196 -0.169,-3.625 l 0,-46.666 c 3.969,0.141 6.014,0.653 7.046,1.1 2.518,1.092 4.558,3.981 6.238,7.144 2.243,4.293 3.383,10.233 3.383,17.641 0,9.137 -1.63,16.489 -4.85,20.638 z M 562.349,16.192 C 559.256,10.762 554.668,5.833 548.706,3.161 543.915,1.021 537.601,0.007 529.933,0.007 L 502.274,0 l -6.741,0 -0.316,2.309 c -0.18,1.304 -0.521,1.729 -0.621,1.83 -0.223,0.223 -0.391,0.273 -0.597,0.277 C 493.848,4.398 492.917,4.249 489.652,2.977 484.563,1.001 479.642,0 475.02,0 c -6.285,0 -12.3,1.574 -17.88,4.681 -5.603,3.12 -10.113,7.563 -13.403,13.207 -3.289,5.636 -4.957,11.692 -4.957,17.997 0,5.989 1.509,11.712 4.483,17.01 3.004,5.355 7.333,9.521 12.864,12.377 5.441,2.811 11.724,4.233 18.665,4.233 5.319,0 10.067,-0.889 14.114,-2.645 4.032,-1.75 7.939,-4.583 11.613,-8.424 l 0.74,-0.775 0,-13.579 -4.699,5.467 c -3.318,3.86 -6.465,6.589 -9.356,8.112 -2.802,1.478 -5.943,2.225 -9.338,2.225 -4.063,0 -7.371,-0.974 -9.822,-2.894 -2.499,-1.951 -4.38,-4.949 -5.595,-8.904 -1.299,-4.229 -1.956,-9.012 -1.956,-14.213 0,-5.199 0.887,-9.967 2.639,-14.175 1.285,-3.107 3.265,-5.548 6.045,-7.469 2.76,-1.903 5.705,-2.83 9.003,-2.83 3.973,0 7.435,1.255 10.584,3.839 3.132,2.569 5.318,6.385 6.498,11.342 l 0.489,2.054 6.522,0 0,-19.758 2.242,0 c 1.522,0 2.323,0.283 2.727,0.521 0.674,0.398 0.85,0.699 0.891,0.793 0.049,0.162 0.297,2.604 0.297,6.357 l 0,40.408 c 0,3.365 -0.156,4.448 -0.219,4.744 -0.19,0.389 -0.51,0.739 -0.979,1.018 -0.295,0.178 -1.041,0.473 -2.717,0.473 l -4.703,0 0,6.938 30.12,0 c 4.158,0 7.167,-0.195 9.199,-0.592 4.365,-0.826 8.151,-2.023 11.235,-3.562 3.151,-1.567 5.972,-3.683 8.382,-6.276 2.426,-2.611 4.418,-5.935 5.922,-9.882 1.498,-3.924 2.258,-8.874 2.258,-13.5 10e-4,-6.691 -1.539,-12.789 -4.579,-18.126 z m -62.748,7.771 -1.736,0 C 496.539,18.4 494.071,14.137 490.46,11.174 486.848,8.21 482.754,6.728 478.181,6.728 c -3.822,0 -7.33,1.101 -10.52,3.302 -3.19,2.203 -5.522,5.083 -6.998,8.643 -1.896,4.556 -2.844,9.621 -2.844,15.201 0,5.49 0.692,10.489 2.076,14.999 1.384,4.509 3.552,7.916 6.502,10.225 2.949,2.31 6.773,3.46 11.47,3.46 3.85,0 7.377,-0.843 10.585,-2.531 3.205,-1.69 6.583,-4.602 10.137,-8.735 l 0,5.297 c -3.438,3.594 -7.021,6.199 -10.745,7.819 -3.723,1.614 -8.074,2.424 -13.051,2.424 -6.545,0 -12.357,-1.313 -17.438,-3.936 -5.082,-2.625 -9.003,-6.395 -11.761,-11.313 -2.761,-4.916 -4.139,-10.148 -4.139,-15.699 0,-5.852 1.528,-11.402 4.59,-16.651 3.062,-5.248 7.191,-9.319 12.395,-12.217 5.203,-2.895 10.728,-4.344 16.581,-4.344 4.311,0 8.864,0.933 13.661,2.795 2.775,1.082 4.538,1.623 5.293,1.623 0.964,0 1.802,-0.353 2.509,-1.059 0.71,-0.707 1.169,-1.825 1.382,-3.359 l 1.736,0 0,21.291 z m 62.572,22.903 c -1.387,3.639 -3.179,6.643 -5.381,9.013 -2.201,2.369 -4.741,4.272 -7.618,5.704 -2.88,1.435 -6.4,2.545 -10.557,3.33 -1.844,0.361 -4.736,0.542 -8.685,0.542 l -27.447,0 0,-1.591 2.03,0 c 1.773,0 3.135,-0.282 4.082,-0.847 0.946,-0.563 1.646,-1.333 2.098,-2.307 0.271,-0.638 0.406,-2.558 0.406,-5.754 l 0,-40.408 c 0,-3.165 -0.165,-6.583 -0.495,-7.375 -0.331,-0.792 -1,-1.484 -2.009,-2.078 -1.006,-0.594 -2.367,-0.891 -4.082,-0.891 l -2.03,0 0,-1.593 27.447,0 c 7.326,0 13.22,0.997 17.68,2.989 5.457,2.445 9.594,6.965 12.414,11.917 2.819,4.951 4.228,10.551 4.228,16.8 0,4.317 -0.691,8.911 -2.081,12.549 z" /></g></svg>