<?xml version="1.0" encoding="UTF-8" standalone="no"?>
<svg
   xmlns:dc="http://purl.org/dc/elements/1.1/"
   xmlns:cc="http://creativecommons.org/ns#"
   xmlns:rdf="http://www.w3.org/1999/02/22-rdf-syntax-ns#"
   xmlns:svg="http://www.w3.org/2000/svg"
   xmlns="http://www.w3.org/2000/svg"
   xml:space="preserve"
   enable-background="new 0 -13.883 566.929 170.079"
   viewBox="0 -13.883 142.31375 566.92903"
   height="566.92902"
   width="142.31375"
   y="0px"
   x="0px"
   id="Ebene_1"
   version="1.1"><metadata
     id="metadata21"><rdf:RDF><cc:Work
         rdf:about=""><dc:format>image/svg+xml</dc:format><dc:type
           rdf:resource="http://purl.org/dc/dcmitype/StillImage" /><dc:title></dc:title></cc:Work></rdf:RDF></metadata><defs
     id="defs19" /><g
     transform="matrix(0,-1,1,0,0,553.046)"
     id="g4139"><path
       d="m 240.575,77.262 c -14.877,14.885 -14.877,39.008 0,53.894 14.885,14.877 39.008,14.877 53.893,0 12.871,-12.871 14.605,-32.655 5.219,-47.392 l -20.5,20.5 c -0.016,2.971 -1.151,5.934 -3.414,8.194 -4.557,4.55 -11.945,4.55 -16.502,0 -4.55,-4.557 -4.55,-11.942 0,-16.501 4.557,-4.55 11.945,-4.55 16.502,0 l 0.35,0.372 18.705,-18.703 -0.356,-0.364 c -14.889,-14.877 -39.012,-14.877 -53.897,0 z"
       id="path3"
       style="fill:#ffffff;fill-opacity:1" /><path
       d="m 92.1,142.16 92.101,-104.839 -38.433,0 -58.87,59.936 c -1.797,1.827 -4.713,1.827 -6.509,0 -1.796,-1.826 -1.796,-4.798 0,-6.634 L 132.75,37.322 0,37.322 92.1,142.16 Z"
       id="path5"
       style="fill:#ffffff;fill-opacity:1" /><path
       d="m 503.134,104.037 -31.893,37.501 26.061,0 24.832,-25.282 c 1.439,-1.463 3.771,-1.463 5.211,0 1.438,1.462 1.438,3.834 0,5.306 l -19.621,19.979 59.205,0 -31.893,-37.501 31.893,-37.499 -26.061,0 -24.832,25.282 c -1.439,1.47 -3.771,1.47 -5.211,0 -1.439,-1.462 -1.439,-3.833 0,-5.304 l 19.621,-19.979 -59.205,0 31.893,37.497 z"
       id="path7"
       style="fill:#ffffff;fill-opacity:1" /><path
       d="m 356.339,66.539 0,75 23.938,0 0,-48.746 18.15,0 22.326,-26.254 -26.061,0 -24.839,25.282 c -1.431,1.47 -3.765,1.47 -5.202,0 -1.439,-1.462 -1.439,-3.833 0,-5.304 l 19.62,-19.979 -27.932,0.001 0,0 z"
       id="path9"
       style="fill:#ffffff;fill-opacity:1" /><path
       d="m 338.494,66.857 14.465,0 23.892,-24.691 -38.354,0 0,-42.166 -58.35,66.857 25.518,0 17.473,-16.23 c 1.439,-1.462 3.773,-1.462 5.203,0 1.438,1.472 1.438,3.842 0,5.306 l -13.781,14.036 0,71.57 23.938,0 0,-74.682 -0.004,0 z"
       id="path11"
       style="fill:#ffffff;fill-opacity:1" /><path
       d="m 158.919,77.262 c -14.877,14.885 -14.877,39.008 0,53.894 14.885,14.877 39.008,14.877 53.893,0 12.871,-12.871 14.605,-32.655 5.218,-47.392 l -20.5,20.5 c -0.016,2.971 -1.151,5.934 -3.414,8.194 -3.741,3.733 -9.379,4.401 -13.796,2.017 l 34.747,-34.747 c -0.599,-0.715 -4.425,-4.512 -5.576,-5.42 -14.954,-11.852 -36.753,-10.865 -50.572,2.954 z m 16.175,31.442 c -1.765,-4.229 -0.925,-9.301 2.52,-12.745 3.445,-3.444 8.516,-4.286 12.746,-2.521 l -15.266,15.266 z"
       id="path13"
       style="fill:#ffffff;fill-opacity:1" /><path
       d="m 418.664,77.262 c -14.877,14.885 -14.877,39.008 0,53.894 14.887,14.877 39.01,14.877 53.895,0 12.871,-12.871 14.605,-32.655 5.221,-47.392 l -20.5,20.5 c -0.018,2.971 -1.15,5.934 -3.414,8.194 -3.74,3.733 -9.379,4.401 -13.795,2.017 l 34.746,-34.747 c -0.602,-0.715 -4.428,-4.512 -5.576,-5.42 -14.958,-11.852 -36.757,-10.865 -50.577,2.954 z m 16.175,31.442 c -1.766,-4.229 -0.926,-9.301 2.52,-12.745 3.446,-3.444 8.518,-4.286 12.746,-2.521 l -15.266,15.266 z"
       id="path15"
       style="fill:#ffffff;fill-opacity:1" /></g></svg>