<?xml version="1.0" encoding="UTF-8" standalone="no"?>
<svg
   xmlns:dc="http://purl.org/dc/elements/1.1/"
   xmlns:cc="http://creativecommons.org/ns#"
   xmlns:rdf="http://www.w3.org/1999/02/22-rdf-syntax-ns#"
   xmlns:svg="http://www.w3.org/2000/svg"
   xmlns="http://www.w3.org/2000/svg"
   version="1.1"
   id="svg4139"
   height="1924.6875"
   width="277.25568">
  <defs
     id="defs3" />
  <metadata
     id="metadata4">
    <rdf:RDF>
      <cc:Work
         rdf:about="">
        <dc:format>image/svg+xml</dc:format>
        <dc:type
           rdf:resource="http://purl.org/dc/dcmitype/StillImage" />
        <dc:title></dc:title>
      </cc:Work>
    </rdf:RDF>
  </metadata>
  <g
     transform="translate(-828.09946,51.221546)"
     id="layer1">
    <g
       transform="matrix(0,-1,1,0,55.60513,1877.8495)"
       id="g4140">
      <path
         id="path6759"
         style="font-style:normal;font-variant:normal;font-weight:normal;font-stretch:normal;font-size:40px;line-height:125%;font-family:'Zeroes One';-inkscape-font-specification:'Zeroes One';text-align:center;letter-spacing:0px;word-spacing:0px;writing-mode:lr-tb;text-anchor:middle;fill:#ffffff;fill-opacity:1;stroke:#ffffff;stroke-opacity:1"
         d="m 262.07419,994.08607 c -2.9e-4,16.49013 -5.00379,29.80603 -15.01052,39.94953 -10.00728,10.1436 -23.52809,15.2144 -40.56247,15.2144 l -197.1485418,0 0,-55.16393 197.1485418,0 0,-55.1771 -146.849351,0 c -16.225879,0 -29.410368,-5.1377 -39.553511,-15.41312 C 9.9551116,913.22146 4.8835201,899.97051 4.8835455,883.74506 l 0,-55.5858 c -2.54e-5,-7.84043 1.4876134,-15.14032 4.4629233,-21.89965 2.9752492,-6.75934 6.9636082,-12.57349 11.9650912,-17.44346 5.001398,-4.86896 10.815778,-8.72376 17.443158,-11.56237 6.627261,-2.83964 13.592963,-4.25844 20.897131,-4.25945 l 183.765961,0 0,55.16493 -183.765961,0 0,55.5858 146.849351,0 c 7.84032,0 15.14233,1.4188 21.90608,4.25843 6.76326,2.83862 12.64573,6.69139 17.64743,11.55629 5.00118,4.86591 8.92144,10.68006 11.76082,17.44346 2.83883,6.76339 4.25837,14.0653 4.25866,21.90573 z" />
      <path
         id="path6761"
         style="font-style:normal;font-variant:normal;font-weight:normal;font-stretch:normal;font-size:40px;line-height:125%;font-family:'Zeroes One';-inkscape-font-specification:'Zeroes One';text-align:center;letter-spacing:0px;word-spacing:0px;writing-mode:lr-tb;text-anchor:middle;fill:#ffffff;fill-opacity:1;stroke:#ffffff;stroke-opacity:1"
         d="m 582.56283,1049.25 -221.07873,0 c -36.7846,0 -55.17686,-18.3876 -55.17683,-55.16393 l 0,-165.92681 c -3e-5,-7.84043 1.48761,-15.14032 4.46292,-21.89965 2.97526,-6.75934 6.96568,-12.57349 11.97128,-17.44346 5.00552,-4.86896 10.8199,-8.72376 17.44316,-11.56237 6.62314,-2.83964 13.72295,-4.25844 21.29947,-4.25945 l 211.75672,0 0,55.16493 -211.75672,0 0,165.92681 165.50575,0 0,-55.1771 -109.93276,0 0,-55.16391 165.50574,0 z" />
      <path
         id="path6763"
         style="font-style:normal;font-variant:normal;font-weight:normal;font-stretch:normal;font-size:40px;line-height:125%;font-family:'Zeroes One';-inkscape-font-specification:'Zeroes One';text-align:center;letter-spacing:0px;word-spacing:0px;writing-mode:lr-tb;text-anchor:middle;fill:#ffffff;fill-opacity:1;stroke:#ffffff;stroke-opacity:1"
         d="m 790.12279,938.90897 -165.51811,0 0,-55.16391 165.51811,0 z" />
      <path
         id="path6765"
         style="font-style:normal;font-variant:normal;font-weight:normal;font-stretch:normal;font-size:40px;line-height:125%;font-family:'Zeroes One';-inkscape-font-specification:'Zeroes One';text-align:center;letter-spacing:0px;word-spacing:0px;writing-mode:lr-tb;text-anchor:middle;fill:#ffffff;fill-opacity:1;stroke:#ffffff;stroke-opacity:1"
         d="m 982.26993,1049.25 -165.51815,0 0,-55.16393 55.57298,0 0,-165.92681 -55.57298,0 0,-55.16493 110.74982,0 0,221.09174 54.76833,0 z" />
      <path
         style="font-style:normal;font-variant:normal;font-weight:normal;font-stretch:normal;font-size:40px;line-height:125%;font-family:'Zeroes One';-inkscape-font-specification:'Zeroes One';text-align:center;letter-spacing:0px;word-spacing:0px;writing-mode:lr-tb;text-anchor:middle;fill:#ffffff;fill-opacity:1;stroke:#ffffff;stroke-opacity:1"
         d="m 1069.6562,0.5 c -7.2959,0.00101 -14.2476,1.41036 -20.875,4.25 -6.6272,2.83861 -12.436,6.69354 -17.4374,11.5625 -5.0015,4.86997 -8.9935,10.67816 -11.9688,17.4375 -2.9752,6.75933 -4.4688,14.06582 -4.4688,21.90625 l 0,165.9375 c 0,36.77633 18.2462,55.15625 54.75,55.15625 l 165.5313,0 c 36.776,0 55.156,-18.37992 55.1563,-55.15625 l 0,-165.9375 c -4e-4,-7.56762 -1.4112,-14.70941 -4.25,-21.46875 -2.8394,-6.75934 -6.7489,-12.65038 -11.75,-17.65625 -5.0018,-5.00485 -10.893,-8.94264 -17.6563,-11.78125 -6.7637,-2.83964 -13.9321,-4.249 -21.5,-4.25 l -165.5313,0 z m 0,55.15625 165.5313,0 0,165.9375 -165.5313,0 0,-165.9375 z"
         id="path4499"
         transform="translate(4.3835455,772.49433)" />
      <path
         style="font-style:normal;font-variant:normal;font-weight:normal;font-stretch:normal;font-size:40px;line-height:125%;font-family:'Zeroes One';-inkscape-font-specification:'Zeroes One';text-align:center;letter-spacing:0px;word-spacing:0px;writing-mode:lr-tb;text-anchor:middle;fill:#ffffff;fill-opacity:1;stroke:#ffffff;stroke-opacity:1"
         d="m 1386.5938,0.5 c -7.296,0.00101 -14.2477,1.41036 -20.875,4.25 -6.6273,2.83861 -12.4361,6.69354 -17.4376,11.5625 -5.0013,4.86997 -8.9934,10.67816 -11.9687,17.4375 -2.9753,6.75933 -4.4687,14.06582 -4.4687,21.90625 l 0,165.9375 c 0,36.77633 18.246,55.15625 54.75,55.15625 l 165.5312,0 c 36.7761,0 55.156,-18.37992 55.1562,-55.15625 l 0,-165.9375 c -2e-4,-7.56762 -1.4112,-14.70941 -4.25,-21.46875 -2.8393,-6.75934 -6.78,-12.65038 -11.7812,-17.65625 C 1586.2483,11.5264 1580.3571,7.58861 1573.5938,4.75 1566.8301,1.91036 1559.6929,0.501 1552.125,0.5 l -165.5312,0 z m 0,55.15625 165.5312,0 0,165.9375 -165.5312,0 0,-165.9375 z"
         transform="translate(4.3835455,772.49433)"
         id="path4503" />
      <path
         style="font-style:normal;font-variant:normal;font-weight:normal;font-stretch:normal;font-size:40px;line-height:125%;font-family:'Zeroes One';-inkscape-font-specification:'Zeroes One';text-align:center;letter-spacing:0px;word-spacing:0px;writing-mode:lr-tb;text-anchor:middle;fill:#ffffff;fill-opacity:1;stroke:#ffffff;stroke-opacity:1"
         d="m 1703.5312,0.5 c -7.2959,0.00101 -14.2789,1.41036 -20.9062,4.25 -6.6273,2.83861 -12.4361,6.69354 -17.4375,11.5625 -5.0014,4.86997 -8.9934,10.67816 -11.9687,17.4375 -2.9753,6.75933 -4.4688,14.06582 -4.4688,21.90625 l 0,165.9375 c 0,36.77633 18.2774,55.15625 54.7812,55.15625 l 165.5,0 c 36.776,0 55.156,-18.37992 55.1563,-55.15625 l 0,-165.9375 c -3e-4,-7.56762 -1.4111,-14.70941 -4.25,-21.46875 -2.8393,-6.75934 -6.7488,-12.65038 -11.75,-17.65625 -5.0017,-5.00485 -10.8929,-8.94264 -17.6563,-11.78125 -6.7636,-2.83964 -13.932,-4.249 -21.5,-4.25 l -165.5,0 z m 0,55.15625 165.5,0 0,165.9375 -165.5,0 0,-165.9375 z"
         transform="translate(4.3835455,772.49433)"
         id="path4507" />
    </g>
  </g>
</svg>
