<?xml version="1.0" encoding="UTF-8" standalone="no"?>
<svg
   xmlns:dc="http://purl.org/dc/elements/1.1/"
   xmlns:cc="http://creativecommons.org/ns#"
   xmlns:rdf="http://www.w3.org/1999/02/22-rdf-syntax-ns#"
   xmlns:svg="http://www.w3.org/2000/svg"
   xmlns="http://www.w3.org/2000/svg"
   xml:space="preserve"
   enable-background="new 0 0 566.926 121.783"
   viewBox="0 0 121.78399 566.92702"
   height="566.927"
   width="121.784"
   y="0px"
   x="0px"
   id="Ebene_1"
   version="1.1"><metadata
     id="metadata37"><rdf:RDF><cc:Work
         rdf:about=""><dc:format>image/svg+xml</dc:format><dc:type
           rdf:resource="http://purl.org/dc/dcmitype/StillImage" /><dc:title></dc:title></cc:Work></rdf:RDF></metadata><defs
     id="defs35" /><g
     transform="matrix(0,-1,1,0,0,566.927)"
     id="g3"><polygon
       id="polygon5"
       points="19.862,120.425 9.929,120.425 9.929,8.264 0,8.264 0,0 28.081,0 28.081,8.264 19.862,8.264 " /><path
       id="path7"
       d="m 53.519,112.216 10.961,0 0,-78.582 9.587,0 0,78.582 c 0,5.086 -4.622,8.688 -9.36,8.688 l -11.188,0 c -5.007,0 -9.474,-4.074 -9.474,-8.791 l 0,-78.479 9.474,0 0,78.582 z" /><path
       id="path9"
       d="m 259.674,52.827 14.642,0 0,68.154 -20.632,0 c -4.412,0 -9.846,-3.377 -9.846,-8.5 l 0,-103.024 c 0,-4.328 4.535,-8.937 9.629,-8.937 l 11.259,0 c 4.994,0 9.525,4.567 9.525,8.836 l 0,24.407 -9.868,0 0,-24.067 -11.213,0 0,102.862 11.472,0 0,-51.39 -4.968,0 0,-8.341 z" /><path
       id="path11"
       d="m 401.255,79.153 0,41.311 -9.244,0 0,-79.119 c 0,-3.574 3.553,-7.468 8.047,-7.468 l 15.24,0 0,7.626 -14.043,0 0,29.232 11.561,0 0,8.457 -11.561,-0.039 z" /><path
       id="path13"
       d="m 434.045,33.899 9.703,0 0,31.512 5.479,5.509 5.363,-5.356 0,-31.665 9.586,0 0,29.982 c 0,3.661 -9.47,13.306 -9.47,13.306 0,0 9.586,9.64 9.586,13.547 l 0,29.904 -9.017,0 0,-31.134 -5.822,-5.887 -5.821,5.81 0,31.213 -9.587,0 0,-29.834 c 0,-3.668 10.155,-13.695 10.155,-13.695 0,0 -10.155,-9.537 -10.155,-13.381 l 0,-29.831 z" /><path
       id="path15"
       d="m 115.616,79.349 c 3.253,0 7.578,-3.888 7.578,-9.092 l 0,-28.437 c 0,-4.092 -4.667,-7.902 -9.975,-7.902 l -19.691,0 0,86.894 9.076,0 0,-40.825 3.425,0 10.101,40.671 8.904,0 -9.418,-41.309 z m -1.796,-8.496 -10.874,0 0,-28.516 10.874,0 0,28.516 z" /><path
       id="path17"
       d="m 316.457,79.122 c 3.254,0 7.581,-3.895 7.581,-9.096 l 0,-28.436 c 0,-4.091 -4.67,-7.905 -9.975,-7.905 l -19.69,0 0,86.9 9.069,0 0,-40.83 3.428,0 10.104,40.669 8.901,0 -9.418,-41.302 z m -1.928,-8.594 -10.867,0 0,-28.514 10.867,0 0,28.514 z" /><path
       id="path19"
       d="m 171.712,81.397 c -0.042,-3.894 -4.107,-6.357 -4.107,-6.357 0,0 4.107,-2.658 4.107,-6.354 l 0,-26.526 c 0,-5.007 -4.408,-8.264 -8.901,-8.264 l -20.719,0 0,86.744 20.719,0 c 4.195,0 8.901,-2.621 8.901,-8.262 0,0 0.046,-27.091 0,-30.981 z m -9.331,30.743 -10.871,0 0,-32.332 10.871,0 0,32.332 z m 0,-41.308 -10.871,0 0,-28.514 10.871,0 0,28.514 z" /><path
       id="path21"
       d="m 211.392,33.255 -5.479,0 -5.308,0 c -5.437,0 -9.396,4.648 -9.396,8.183 l 0,70.448 c 0,4.553 5.072,8.682 9.354,8.682 l 11.728,0 c 4.58,0 9.16,-4.729 9.16,-8.5 l 0,-70.869 c 0,-3.176 -4.325,-7.944 -10.059,-7.944 z m 0.342,78.359 -10.502,0 0,-69.778 10.502,0 0,69.778 z" /><path
       id="path23"
       d="m 363.691,33.876 -11.979,0 c -5.396,0 -8.563,4.447 -8.563,7.944 l 0,78.644 9.074,0 0,-41.311 11.47,0 0,41.311 9.075,0 0,-78.169 c -10e-4,-5.188 -3.591,-8.419 -9.077,-8.419 z m -0.259,36.7 -10.866,0 0,-27.96 10.866,0 0,27.96 z" /><g
       id="g25"><g
         id="g27"><rect
           id="rect29"
           height="10.479"
           width="28.094"
           y="79.942001"
           x="518.90198" /><path
           id="path31"
           d="m 522.37,32.673 c -24.607,0 -44.551,19.946 -44.551,44.553 0,24.607 19.942,44.558 44.551,44.558 24.605,0 44.557,-19.949 44.557,-44.558 C 566.926,52.62 546.976,32.673 522.37,32.673 Z m -15.163,62.86 -14.128,0 0,-4.949 4.554,0 0,-26.146 -4.47,0 0,-5.113 9.58,0 0,31.175 4.464,0 0,5.033 0,0 z m 44.66,-26.71 -4.541,0 0,-4.547 -28.67,0 0,10.879 30.617,0 2.594,2.602 0,14.374 -3.247,3.247 -31.341,0 -3.248,-3.247 0,-29.64 3.008,-3.005 32.072,0 2.756,2.759 0,6.578 z" /></g></g></g></svg>