<?xml version="1.0" encoding="UTF-8" standalone="no"?>
<svg
   xmlns:dc="http://purl.org/dc/elements/1.1/"
   xmlns:cc="http://creativecommons.org/ns#"
   xmlns:rdf="http://www.w3.org/1999/02/22-rdf-syntax-ns#"
   xmlns:svg="http://www.w3.org/2000/svg"
   xmlns="http://www.w3.org/2000/svg"
   xml:space="preserve"
   enable-background="new 0 0 566.929 87.964"
   viewBox="0 0 87.964994 566.92904"
   height="566.92902"
   width="87.964996"
   y="0px"
   x="0px"
   id="Ebene_1"
   version="1.1"><metadata
     id="metadata61"><rdf:RDF><cc:Work
         rdf:about=""><dc:format>image/svg+xml</dc:format><dc:type
           rdf:resource="http://purl.org/dc/dcmitype/StillImage" /><dc:title></dc:title></cc:Work></rdf:RDF></metadata><defs
     id="defs59" /><g
     transform="matrix(0,-1,1,0,0,566.929)"
     id="g3"><path
       id="path5"
       d="m 0.566,52.343 0,-7.735 60.565,0 0,-8.827 -60.565,0 -0.381,-23.82 68.81,0 0,7.714 -60.566,0 0.381,8.394 60.564,0 0,24.276 -68.808,0 0,-0.002 z" /><path
       id="path7"
       d="m 74.357,52.343 0,-40.23 8.244,0 0,40.23 -8.244,0 0,0 z" /><path
       id="path9"
       d="m 87.026,52.343 0,-40.23 68.81,0 0,40.23 -8.244,0 0,-32.517 -52.323,0 0,32.52 -8.243,-0.003 0,0 0,0 z" /><path
       id="path11"
       d="m 160.237,52.343 0,-40.23 68.86,0 0,7.714 -60.564,0 0,24.782 60.564,0 0,7.739 -68.86,0 0,-0.005 z" /><path
       id="path13"
       d="m 234.583,52.343 0,-52.343 8.246,0 0,52.345 -8.246,0 0,-0.002 z" /><path
       id="path15"
       d="m 320.994,52.343 0,-40.23 8.295,0 0,40.23 -8.295,0 0,0 z" /><path
       id="path17"
       d="m 334.271,52.343 0,-40.23 68.807,0 0,7.714 -60.563,0 0,32.521 -8.244,0 0,-0.005 0,0 z" /><path
       id="path19"
       d="m 247.228,12.113 0,7.714 60.564,0 0,8.824 -60.564,0 0,23.694 68.861,0 0,-40.232 -68.861,0 z m 60.564,32.496 -52.271,0 0,-8.827 52.271,0 0,8.827 z" /><path
       id="path21"
       d="m 74.357,7.739 0,-7.739 8.244,0 0,7.739 -8.244,0 0,0 z" /><path
       id="path23"
       d="m 320.994,7.739 0,-7.739 8.295,0 0,7.739 -8.295,0 0,0 z" /><g
       id="g25"><path
         id="path27"
         d="m 0,80.22 9.688,-11.586 -8.928,0 0,-3.336 14.215,0 0,3.136 -9.688,11.586 9.941,0 0,3.338 -15.228,0 0,-3.138 0,0 z" /><path
         id="path29"
         d="m 21.985,73.897 -5.819,-8.601 4.604,0 3.542,5.768 3.668,-5.768 4.351,0 -5.792,8.625 6.298,9.436 -4.73,0 -3.947,-6.247 -4.022,6.247 -4.479,0 6.326,-9.46 z" /><path
         id="path31"
         d="m 44.172,77.365 c 0,2.402 1.871,3.338 3.996,3.338 1.393,0 3.519,-0.404 3.519,-2.252 0,-1.947 -2.707,-2.275 -5.363,-2.984 -2.681,-0.709 -5.388,-1.745 -5.388,-5.137 0,-3.693 3.491,-5.463 6.754,-5.463 3.769,0 7.235,1.643 7.235,5.818 l -3.845,0 c -0.126,-2.176 -1.67,-2.73 -3.566,-2.73 -1.266,0 -2.732,0.531 -2.732,2.049 0,1.393 0.861,1.567 5.389,2.731 1.315,0.329 5.362,1.163 5.362,5.261 0,3.313 -2.605,5.793 -7.513,5.793 -3.997,0 -7.741,-1.974 -7.69,-6.424 l 3.842,0 0,0 z" /><path
         id="path33"
         d="m 57.503,70.281 3.416,0 0,1.67 0.052,0 c 0.858,-1.391 2.275,-2.023 3.895,-2.023 4.099,0 5.944,3.313 5.944,7.031 0,3.492 -1.922,6.754 -5.742,6.754 -1.569,0 -3.061,-0.684 -3.921,-1.973 l -0.051,0 0,6.225 -3.593,0 0,-17.684 0,0 z m 9.715,6.576 c 0,-2.074 -0.835,-4.225 -3.138,-4.225 -2.353,0 -3.11,2.101 -3.11,4.225 0,2.125 0.809,4.148 3.137,4.148 2.351,0 3.111,-2.022 3.111,-4.148 z" /><path
         id="path35"
         d="m 75.922,77.691 c 0.101,2.277 1.214,3.314 3.212,3.314 1.441,0 2.605,-0.885 2.833,-1.694 l 3.161,0 c -1.012,3.085 -3.161,4.399 -6.121,4.399 -4.124,0 -6.678,-2.832 -6.678,-6.881 0,-3.922 2.708,-6.906 6.678,-6.906 4.451,0 6.603,3.746 6.35,7.767 l -9.435,0.001 0,0 z m 5.842,-2.275 c -0.328,-1.822 -1.113,-2.781 -2.858,-2.781 -2.277,0 -2.935,1.769 -2.985,2.781 l 5.843,0 z" /><path
         id="path37"
         d="m 96.387,74.884 c -0.229,-1.467 -1.164,-2.25 -2.657,-2.25 -2.302,0 -3.062,2.326 -3.062,4.248 0,1.873 0.733,4.123 2.985,4.123 1.669,0 2.63,-1.062 2.858,-2.653 l 3.464,0 c -0.455,3.464 -2.858,5.36 -6.298,5.36 -3.946,0 -6.604,-2.781 -6.604,-6.703 0,-4.072 2.428,-7.084 6.678,-7.084 3.088,0 5.92,1.619 6.147,4.961 l -3.511,-0.002 0,0 z" /><path
         id="path39"
         d="m 106.558,70.281 2.63,0 0,2.403 -2.63,0 0,6.476 c 0,1.215 0.303,1.52 1.517,1.52 0.38,0 0.734,-0.025 1.113,-0.104 l 0,2.807 c -0.606,0.104 -1.391,0.129 -2.099,0.129 -2.201,0 -4.123,-0.508 -4.123,-3.112 l 0,-7.714 -2.177,0 0,-2.404 2.177,0 0,-3.922 3.592,0 0,3.921 0,0 z" /><path
         id="path41"
         d="m 110.909,70.281 3.415,0 0,2.43 0.051,0 c 0.657,-1.646 2.429,-2.783 4.175,-2.783 0.253,0 0.556,0.05 0.784,0.129 l 0,3.337 c -0.33,-0.075 -0.859,-0.126 -1.29,-0.126 -2.63,0 -3.542,1.896 -3.542,4.197 l 0,5.895 -3.592,0 -10e-4,-13.079 0,0 z" /><path
         id="path43"
         d="m 133.018,83.358 -3.416,0 0,-1.821 -0.076,0 c -0.911,1.467 -2.479,2.176 -3.997,2.176 -3.82,0 -4.782,-2.148 -4.782,-5.387 l 0,-8.045 3.594,0 0,7.387 c 0,2.149 0.632,3.213 2.301,3.213 1.949,0 2.783,-1.088 2.783,-3.744 l 0,-6.855 3.592,0 0.001,13.076 0,0 z" /><path
         id="path45"
         d="m 135.852,70.281 3.391,0 0,1.771 0.05,0 c 0.937,-1.344 2.302,-2.127 3.997,-2.127 1.645,0 3.111,0.607 3.82,2.178 0.759,-1.141 2.125,-2.178 3.946,-2.178 2.783,0 4.782,1.289 4.782,4.681 l 0,8.752 -3.593,0 0,-7.412 c 0,-1.743 -0.15,-3.187 -2.2,-3.187 -2.024,0 -2.404,1.67 -2.404,3.313 l 0,7.286 -3.592,0 0,-7.335 c 0,-1.52 0.101,-3.264 -2.177,-3.264 -0.708,0 -2.428,0.455 -2.428,3.011 l 0,7.588 -3.592,0 0,-13.077 0,0 z" /></g><g
       id="g47"><polygon
         style="fill:#ca2825"
         id="polygon49"
         points="429.958,2.173 369.855,62.285 404.062,62.285 464.167,2.173 " /><polygon
         style="fill:#fdc601"
         id="polygon51"
         points="464.244,2.173 404.138,62.285 438.347,62.285 498.451,2.173 " /><polygon
         style="fill:#009c37"
         id="polygon53"
         points="498.501,2.173 438.398,62.285 472.605,62.285 532.71,2.173 " /><polygon
         style="fill:#02559c"
         id="polygon55"
         points="532.722,2.173 472.617,62.285 506.826,62.285 566.929,2.173 " /></g></g></svg>