<?xml version="1.0" encoding="UTF-8" standalone="no"?>
<!-- Generator: Adobe Illustrator 16.0.3, SVG Export Plug-In . SVG Version: 6.00 Build 0)  -->

<svg
   xmlns:dc="http://purl.org/dc/elements/1.1/"
   xmlns:cc="http://creativecommons.org/ns#"
   xmlns:rdf="http://www.w3.org/1999/02/22-rdf-syntax-ns#"
   xmlns:svg="http://www.w3.org/2000/svg"
   xmlns="http://www.w3.org/2000/svg"
   xmlns:sodipodi="http://sodipodi.sourceforge.net/DTD/sodipodi-0.dtd"
   xmlns:inkscape="http://www.inkscape.org/namespaces/inkscape"
   id="svg2"
   version="1.1"
   xml:space="preserve"
   viewBox="0 0 566.54692 101.34872"
   height="101.34893"
   width="566.55188"
   enable-background="new 0 0 566.929 98.574"
   y="0px"
   x="0px"
   inkscape:version="0.91 r13725"
   sodipodi:docname="logo.svg"><defs
     id="defs14" /><sodipodi:namedview
     pagecolor="#ffffff"
     bordercolor="#666666"
     borderopacity="1"
     objecttolerance="10"
     gridtolerance="10"
     guidetolerance="10"
     inkscape:pageopacity="0"
     inkscape:pageshadow="2"
     inkscape:window-width="640"
     inkscape:window-height="480"
     id="namedview12"
     showgrid="false"
     fit-margin-top="0"
     fit-margin-left="0"
     fit-margin-right="0"
     fit-margin-bottom="0"
     inkscape:zoom="0.93660704"
     inkscape:cx="177.03067"
     inkscape:cy="76.342155"
     inkscape:current-layer="g4" /><metadata
     id="metadata15"><rdf:RDF><cc:Work
         rdf:about=""><dc:format>image/svg+xml</dc:format><dc:type
           rdf:resource="http://purl.org/dc/dcmitype/StillImage" /><dc:title></dc:title></cc:Work></rdf:RDF></metadata><g
     id="g4"
     transform="matrix(0.00291826,-0.99999562,0.99999586,0.00291826,233.85028,333.34963)"
     inkscape:transform-center-x="3.7039887"
     inkscape:transform-center-y="-1.134715"
     style="fill:#ffffff"><polygon
       id="_43443024"
       points="532.22,54.913 526.59,97.041 504.34,97.041 510.86,48.973 488.61,0.917 512.64,0.917 524.51,28.215 542.31,0.917 566.93,0.917 "
       transform="matrix(0.00957947,0.99995376,-0.99995448,0.00957947,329.57935,-235.18611)" /><polygon
       id="_43441624"
       points="280.95,75.671 283.03,59.066 312.39,59.066 315.36,37.706 286.29,37.706 288.37,22.276 322.18,22.276 325.45,0.917 269.38,0.917 256.03,97.041 311.8,97.041 314.77,75.671 "
       transform="matrix(0.00957947,0.99995376,-0.99995448,0.00957947,329.57935,-235.18611)" /><path
       id="_43775888"
       d="m 281.09094,-122.56649 19.94414,7.22528 -19.85034,2.56527 -0.0938,-9.78955 z m -19.06286,-7.82774 0.19323,20.17107 -28.44457,3.83566 0.34954,36.486308 52.37261,16.409045 -52.13103,8.808789 0.18472,19.282108 55.3811,20.8294266 -55.14238,4.0894209 0.20461,21.3580125 96.05778,-6.854495 -0.24441,-25.51282 -50.91513,-19.393143 50.65079,-8.200581 -0.21882,-22.840944 -79.15848,-25.347857 78.81462,-10.546483 -0.27283,-28.478687 -80.10045,-30.97809 31.18737,3.85542 -0.36949,-38.56922 -19.01173,-2.48999 0.16201,16.91122 -6.53709,-1.12543 c -1.80634,-2.94983 -2.16967,-9.76866 -2.19525,-12.43853 -0.0256,-2.66988 1.56295,-22.561 22.93149,-21.87667 21.36548,0.67736 41.5134,28.96564 30.86186,62.88822 l 20.50036,3.06976 c 7.49565,-22.62084 2.61257,-81.79475 -50.38197,-87.33635 -31.18167,-3.26044 -45.74217,25.36034 -45.26532,44.34164 -0.48882,10.98218 3.78536,23.4028 6.20187,27.82886 l -4.46499,-1.4393 0.21599,22.54596 28.58385,10.70367 z"
       inkscape:connector-curvature="0" /><path
       id="_44102912"
       d="m 334.00178,229.37268 c 0.44618,-15.43298 -8.66656,-37.59669 -44.63396,-44.66847 -35.96341,-7.07181 -50.30936,12.94153 -52.50605,31.35641 -2.19667,18.41788 9.61904,44.11486 44.07594,48.53099 34.45793,4.42011 52.38902,-12.67244 53.06406,-35.21993 z m -20.49177,-2.1738 c 0.0597,6.22871 -3.96626,19.61689 -28.9134,16.59173 -24.95011,-3.02313 -28.06475,-18.41999 -27.52478,-24.06342 0.53997,-5.64243 4.28296,-17.24882 27.15819,-14.20381 22.87128,3.05104 29.51447,15.14796 29.28004,21.6805 z"
       inkscape:connector-curvature="0" /><path
       id="_44104296"
       d="m 295.42742,135.98795 0.11937,12.46042 c 0.0881,9.19658 6.03888,10.91965 8.41259,11.19092 2.37774,0.27424 7.09897,-2.43911 7.0535,-7.18489 l -0.13925,-14.53633 -15.44613,-1.92212 z m -38.02042,-4.97601 0.162,16.91122 c 0.0881,9.19457 7.22665,11.20228 9.60337,11.47452 2.37575,0.27626 7.09496,-2.43907 7.0495,-7.18485 l -0.18188,-18.98513 -16.63295,-2.21076 z m -21.59866,-24.70422 96.24151,12.42862 0.39217,40.93611 c 0.0938,9.79254 -11.04328,24.13788 -26.18864,22.50389 -15.14635,-1.63398 -16.08179,-6.37323 -18.48595,-9.61435 -4.39847,5.08737 -11.47084,10.19835 -24.84012,8.25033 -13.3713,-1.95 -26.52686,-12.80147 -26.71158,-32.08357 l -0.40736,-42.41803 z"
       inkscape:connector-curvature="0" /><path
       id="_44106160"
       d="m 252.2448,304.19927 c -0.0351,-3.65983 -3.01423,-6.58642 -6.65607,-6.55153 -3.68083,0.0353 -6.60441,3.0164 -6.56933,6.67823 0.0349,3.64083 3.01502,6.56342 6.69585,6.52816 3.64283,-0.0349 6.56444,-3.01303 6.52957,-6.65286 l 0.90696,-0.009 c 0.0397,4.14981 -3.29402,7.5299 -7.42783,7.5695 -4.17181,0.04 -7.56973,-3.27563 -7.60949,-7.42544 -0.039,-4.17382 3.29363,-7.5709 7.46544,-7.61086 4.13481,-0.0396 7.53089,3.29301 7.57088,7.46681 l -0.90596,0.009 z"
       inkscape:connector-curvature="0" /><path
       id="_42975192"
       d="m 249.08789,302.44943 0.023,2.40189 c 0.01,1.04496 -0.13609,2.18341 -1.43603,2.19586 -1.71092,0.0164 -1.53344,-1.81339 -1.54477,-2.99534 l -0.0141,-1.57394 -0.80797,0.008 0.0181,1.89091 -3.85482,2.43904 0.0117,1.21894 3.8535,-2.57603 c 0.0523,1.49556 0.67442,2.64966 2.32734,2.63382 0.70997,-0.007 1.45394,-0.32694 1.80387,-0.96232 0.36797,-0.63055 0.40016,-1.3419 0.39337,-2.05086 l -0.035,-3.65783 -8.40362,0.0805 0.01,1.02096 7.65565,-0.0734 1e-4,0.01 z"
       inkscape:connector-curvature="0" /></g></svg>