<?xml version="1.0" encoding="UTF-8" standalone="no"?>
<!-- Generator: Adobe Illustrator 16.0.3, SVG Export Plug-In . SVG Version: 6.00 Build 0)  -->

<svg
   xmlns:dc="http://purl.org/dc/elements/1.1/"
   xmlns:cc="http://creativecommons.org/ns#"
   xmlns:rdf="http://www.w3.org/1999/02/22-rdf-syntax-ns#"
   xmlns:svg="http://www.w3.org/2000/svg"
   xmlns="http://www.w3.org/2000/svg"
   xmlns:sodipodi="http://sodipodi.sourceforge.net/DTD/sodipodi-0.dtd"
   xmlns:inkscape="http://www.inkscape.org/namespaces/inkscape"
   id="svg2"
   enable-background="new 0 0 566.929 98.574"
   xml:space="preserve"
   viewBox="0 0 98.572619 566.93605"
   height="566.93604"
   width="98.572792"
   version="1.1"
   y="0px"
   x="0px"
   inkscape:version="0.91 r"
   sodipodi:docname="system-vertical.svg"><defs
     id="defs14" /><sodipodi:namedview
     pagecolor="#ffffff"
     bordercolor="#666666"
     borderopacity="1"
     objecttolerance="10"
     gridtolerance="10"
     guidetolerance="10"
     inkscape:pageopacity="0"
     inkscape:pageshadow="2"
     inkscape:window-width="722"
     inkscape:window-height="480"
     id="namedview12"
     showgrid="false"
     inkscape:zoom="0.47272151"
     inkscape:cx="49.288927"
     inkscape:cy="283.46806"
     inkscape:window-x="0"
     inkscape:window-y="0"
     inkscape:window-maximized="0"
     inkscape:current-layer="svg2"
     fit-margin-top="0"
     fit-margin-left="0"
     fit-margin-right="0"
     fit-margin-bottom="0" /><metadata
     id="metadata4163"><rdf:RDF><cc:Work
         rdf:about=""><dc:format>image/svg+xml</dc:format><dc:type
           rdf:resource="http://purl.org/dc/dcmitype/StillImage" /><dc:title></dc:title></cc:Work></rdf:RDF></metadata><g
     id="g4152"
     transform="matrix(0,-1,1,0,-0.00112915,566.93)"
     style="fill:#2e3192"><polygon
       id="_43443024"
       points="566.93,0.917 532.22,54.913 526.59,97.041 504.34,97.041 510.86,48.973 488.61,0.917 512.64,0.917 524.51,28.215 542.31,0.917 " /><polygon
       id="_43441624"
       points="312.39,59.066 315.36,37.706 286.29,37.706 288.37,22.276 322.18,22.276 325.45,0.917 269.38,0.917 256.03,97.041 311.8,97.041 314.77,75.671 280.95,75.671 283.03,59.066 " /><path
       id="_43775888"
       d="m 112.15,49.565 7.416,-19.874 2.375,19.874 -9.79,0 z m -8.01,18.987 20.172,0 3.563,28.48 36.488,0 16.91,-52.213 8.309,52.213 19.283,0 21.359,-55.179 3.561,55.179 21.359,0 -5.934,-96.119 -25.514,0 -19.88,50.727 -7.715,-50.727 -22.842,0 -26.105,78.912 -9.791,-78.912 -28.48,0 -31.744,79.8 4.154,-31.149 -38.571,0 -2.672,18.987 16.912,0 -1.188,6.526 c -2.967,1.778 -9.789,2.076 -12.459,2.076 -2.67,0 -22.545,-1.779 -21.656,-23.14 C 22.548,32.655 51.028,12.779 84.847,23.755 L 88.113,3.285 C 65.565,-4.427 6.347,-0.111 0.298,52.828 -3.261,83.977 25.219,98.811 44.204,98.516 55.181,99.11 67.642,94.955 72.091,92.581 l -1.482,4.451 22.547,0 10.977,-28.48 z"
       inkscape:connector-curvature="0" /><path
       id="_44102912"
       d="m 464.58,0.028 c -15.428,-0.594 -37.678,8.306 -45.094,44.204 -7.416,35.894 12.459,50.431 30.852,52.804 18.396,2.373 44.205,-9.196 48.951,-43.609 4.75,-34.414 -12.17,-52.508 -34.71,-53.399 z m -2.37,20.47 c 6.229,0 19.578,4.154 16.314,29.071 -3.262,24.92 -18.688,27.887 -24.326,27.293 -5.637,-0.594 -17.207,-4.448 -13.943,-27.293 3.27,-22.841 15.43,-29.368 21.96,-29.071 z"
       inkscape:connector-curvature="0" /><path
       id="_44104296"
       d="m 370.83,37.706 12.461,0 c 9.197,0 10.977,-5.934 11.271,-8.305 0.297,-2.375 -2.371,-7.122 -7.117,-7.122 l -14.537,0 -2.07,15.427 z m -5.34,37.971 16.912,0 c 9.195,0 11.271,-7.119 11.566,-9.493 0.299,-2.373 -2.371,-7.118 -7.117,-7.118 l -18.986,0 -2.37,16.611 z m -24.91,21.361 13.35,-96.118 40.938,0 c 9.793,0 24.031,11.274 22.252,26.403 -1.779,15.13 -6.527,16.02 -9.791,18.393 5.045,4.447 10.088,11.568 8.012,24.918 -2.078,13.352 -13.055,26.403 -32.338,26.403 l -42.42,10e-4 z"
       inkscape:connector-curvature="0" /><path
       id="_44106160"
       d="m 538.62,82.498 c -3.66,0 -6.615,2.951 -6.615,6.593 0,3.681 2.953,6.633 6.615,6.633 3.641,0 6.592,-2.952 6.592,-6.633 0,-3.643 -2.95,-6.593 -6.59,-6.593 l 0,-0.907 c 4.15,0 7.498,3.366 7.498,7.5 0,4.172 -3.348,7.538 -7.498,7.538 -4.174,-0.001 -7.539,-3.366 -7.539,-7.538 0,-4.135 3.365,-7.499 7.539,-7.499 l 0,0.906 z"
       inkscape:connector-curvature="0" /><path
       id="_42975192"
       d="m 536.84,85.638 2.402,0 c 1.045,0 2.182,0.157 2.182,1.457 0,1.711 -1.828,1.516 -3.01,1.516 l -1.574,-0.001 0,0.808 1.891,0 2.402,3.878 1.219,0 -2.539,-3.878 c 1.496,-0.038 2.656,-0.649 2.656,-2.302 0,-0.71 -0.313,-1.457 -0.945,-1.813 -0.627,-0.374 -1.338,-0.413 -2.047,-0.413 l -3.658,0 0,8.404 1.021,0 0,-7.656 0.01,0 z"
       inkscape:connector-curvature="0" /></g></svg>