<?xml version="1.0" encoding="UTF-8" standalone="no"?>
<svg
   xmlns:dc="http://purl.org/dc/elements/1.1/"
   xmlns:cc="http://creativecommons.org/ns#"
   xmlns:rdf="http://www.w3.org/1999/02/22-rdf-syntax-ns#"
   xmlns:svg="http://www.w3.org/2000/svg"
   xmlns="http://www.w3.org/2000/svg"
   xml:space="preserve"
   enable-background="new 0 0 566.93 118.865"
   viewBox="0 0 118.863 566.92933"
   height="566.92932"
   width="118.863"
   y="0px"
   x="0px"
   id="svg2"
   version="1.1"><metadata
     id="metadata45"><rdf:RDF><cc:Work
         rdf:about=""><dc:format>image/svg+xml</dc:format><dc:type
           rdf:resource="http://purl.org/dc/dcmitype/StillImage" /><dc:title></dc:title></cc:Work></rdf:RDF></metadata><defs
     id="defs43" /><g
     transform="matrix(0,-1,1,0,-342.89784,342.89716)"
     id="layer1" /><g
     transform="matrix(0,-1,1,0,-342.89784,342.89716)"
     id="layer5" /><g
     transform="matrix(0,-1,1,0,-0.001,566.929)"
     id="g5"><path
       id="path7"
       d="m 177.639,103.668 c 0,-1.56 1.428,-1.949 4.808,-2.339 4.161,-0.391 4.418,-2.209 4.418,-8.188 0,-14.036 -0.907,-39.771 -1.428,-53.677 -0.13,-1.949 -0.13,-2.6 -0.65,-2.6 -0.52,0 -0.651,0.781 -1.171,1.95 -2.47,6.5 -6.497,19.235 -16.505,51.208 -3.64,12.086 -3.25,14.557 -5.719,14.557 -1.56,0 -1.949,-1.041 -3.25,-6.5 -4.288,-16.115 -14.296,-48.998 -17.546,-59.135 -0.391,-1.17 -0.649,-1.82 -1.301,-1.82 -0.518,0 -0.518,1.04 -0.777,2.859 -0.91,12.215 -1.688,33.142 -1.688,44.449 0,8.578 -0.133,16.246 4.288,16.896 2.339,0.391 5.719,0.52 5.719,2.34 0,1.039 -0.779,1.82 -2.602,1.82 -2.598,0 -4.676,-0.521 -9.617,-0.521 -4.548,0 -7.146,0.521 -8.966,0.521 -1.302,0 -2.079,-0.261 -2.079,-1.82 0,-1.949 1.949,-1.69 4.158,-2.209 3.77,-0.781 4.289,-3.77 4.678,-10.139 0.78,-13.906 2.209,-44.319 2.209,-55.107 0.13,-7.018 0,-8.317 -4.418,-8.968 -2.209,-0.259 -4.288,-0.519 -4.288,-2.079 0,-1.82 1.688,-1.949 3.509,-1.95 2.729,0 6.368,0.39 9.229,0.39 2.209,0 5.587,-0.39 7.668,-0.389 1.429,0 1.949,0.389 2.6,2.339 4.81,15.855 9.62,31.711 14.298,47.438 1.038,3.77 1.819,6.76 2.729,6.76 0.778,0 1.429,-1.82 2.597,-5.592 4.941,-15.854 9.88,-31.71 14.818,-47.438 0.776,-2.469 1.559,-3.509 2.989,-3.51 1.948,0 5.198,0.39 7.668,0.39 2.6,0 6.366,-0.39 9.097,-0.389 1.432,0 2.729,0.519 2.729,1.819 0,1.69 -1.688,2.081 -5.459,2.339 -2.339,0.26 -2.988,1.95 -2.988,7.798 0,12.867 1.561,43.279 1.95,59.266 0,4.809 1.168,6.629 3.769,6.889 3.25,0.779 4.679,1.041 4.679,2.47 0,1.429 -1.169,1.69 -2.986,1.69 -2.729,0 -5.851,-0.521 -11.828,-0.521 -5.199,0 -9.487,0.521 -12.348,0.521 -1.69,0 -2.988,-0.521 -2.988,-1.69 l 0,-0.127 -0.005,0 z" /><path
       id="path9"
       d="m 239.633,57.01 c 0,-6.108 -1.432,-8.579 -5.459,-8.579 -6.239,0 -9.097,4.68 -11.179,11.048 -0.91,2.729 -2.469,4.938 -4.418,6.238 -1.431,1.04 -3.25,1.819 -5.198,1.819 -2.47,0 -3.38,-1.041 -3.38,-3.379 0,-7.537 11.179,-19.364 27.294,-19.364 4.81,0 8.579,0.649 10.785,2.6 2.212,1.69 2.732,4.159 2.732,8.188 l 0,37.17 c 0,3.25 1.038,5.589 3.638,5.589 2.081,0 3.25,-1.169 3.9,-2.339 0.521,-1.17 1.038,-2.469 1.817,-2.469 0.78,0 1.041,0.648 1.041,2.209 0,2.858 -4.418,10.526 -11.959,10.526 -5.459,0 -7.018,-4.419 -8.059,-7.019 -0.391,-1.04 -0.777,-1.819 -1.428,-1.819 -1.041,0 -3.12,2.47 -6.37,4.81 -2.989,2.34 -7.019,4.418 -12.217,4.418 -6.108,0 -10.918,-4.157 -10.918,-11.697 0,-6.887 4.81,-11.567 15.336,-18.064 4.161,-2.73 7.277,-4.549 9.619,-6.109 3.509,-2.078 4.419,-3.25 4.419,-6.237 l 0,-7.54 0.004,0 z m -17.679,35.61 c 0,4.81 2.732,7.279 6.5,7.279 2.859,0 5.589,-1.69 8.06,-4.16 2.339,-2.338 3.119,-4.158 3.119,-7.407 l 0,-13.257 c 0,-1.561 -0.261,-1.95 -0.91,-1.95 -0.647,0 -1.299,0.26 -2.989,1.301 -2.729,1.819 -5.329,3.897 -7.538,6.108 -3.638,3.379 -6.24,7.277 -6.24,11.957 l -0.002,0.129 0,0 z" /><path
       id="path11"
       d="m 259.776,77.675 c 0,-18.975 12.347,-32.882 28.073,-32.882 3.51,0 8.188,0.649 11.178,2.469 2.729,1.56 2.989,2.079 3.12,5.199 l 0,4.68 c 0,1.169 -0.131,3.118 -0.392,4.288 -0.261,2.34 -1.171,3.12 -2.858,3.12 -2.34,0 -2.99,-3.378 -5.459,-8.837 -1.819,-4.29 -3.511,-6.499 -7.278,-6.499 -7.537,0 -14.167,9.877 -14.167,23.782 0,18.457 7.021,26.645 15.726,26.645 4.683,0 8.188,-1.949 10.788,-5.719 1.56,-2.339 2.601,-5.587 3.642,-5.587 0.776,0 1.298,0.778 1.298,1.819 0,6.108 -6.497,16.506 -19.624,16.506 -14.428,0 -24.045,-11.827 -24.045,-28.854 l -0.002,-0.13 0,0 z" /><path
       id="path13"
       d="m 312.414,60.778 c 0,-4.158 -0.91,-5.199 -4.94,-5.849 -1.559,-0.26 -2.206,-0.649 -2.206,-1.56 0,-1.17 1.168,-1.689 4.158,-2.598 4.156,-1.172 7.798,-3.121 10.526,-4.681 1.298,-0.778 2.079,-1.3 2.601,-1.3 0.776,0 1.037,0.521 1.037,1.949 l 0,6.109 0,41.852 c 0,4.42 -0.042,6.641 1.637,7.147 2.295,0.696 3.25,0.781 3.25,2.081 0,1.169 -0.521,1.561 -2.079,1.561 -2.729,0 -2.677,-0.521 -8.395,-0.521 -6.238,0 -6.057,0.521 -8.524,0.521 -1.041,0 -1.952,-0.521 -1.952,-1.561 0,-1.3 0.911,-1.695 2.603,-2.081 2.067,-0.471 2.286,-1.56 2.286,-6.759 l -0.002,-34.31 0,0 z m 5.589,-24.173 c -3.382,0 -6.499,-2.731 -6.499,-7.669 0,-4.808 2.859,-7.798 6.63,-7.798 3.638,0 6.497,2.859 6.497,7.668 0,5.068 -2.859,7.799 -6.497,7.799 l -0.131,0 z" /><path
       id="path15"
       d="m 338.926,60.778 c 0,-4.418 -0.521,-4.938 -3.768,-5.328 -2.339,-0.26 -3.12,-0.391 -3.12,-1.431 0,-1.3 1.299,-1.56 4.028,-2.469 4.678,-1.69 8.32,-3.769 10.267,-5.329 1.171,-0.909 1.821,-1.43 2.474,-1.43 0.776,0 1.038,1.04 1.038,2.209 l 0,5.2 c 0,1.819 0.13,2.209 0.521,2.209 1.171,0 3.249,-2.209 6.106,-4.418 2.991,-2.209 7.02,-4.549 11.827,-4.549 4.419,0 8.579,1.43 11.565,4.549 2.732,2.859 4.291,7.019 4.291,12.476 l 0,33.143 c 0,4.549 1.154,5.979 4.146,6.367 0,0 1.924,0.651 1.924,1.951 0,1.169 -0.911,1.561 -2.34,1.561 -1.562,0 -3.339,-0.521 -9.447,-0.521 -5.848,0 -6.474,0.521 -8.551,0.521 -1.433,0 -2.079,-0.391 -2.079,-1.69 0,-0.909 0.927,-1.354 2.209,-1.69 1.2,-0.314 2.962,-1.688 2.962,-5.328 l 0,-33.013 c 0,-3.12 -0.647,-5.849 -2.209,-7.929 -1.819,-2.338 -4.549,-3.639 -7.798,-3.639 -3.382,0 -6.628,1.301 -9.098,3.51 -2.339,2.209 -3.641,4.809 -3.641,7.928 l 0,33.142 c 0,3.379 0.632,4.78 3.771,5.328 0.549,0.096 1.148,0.375 1.148,1.543 0,1.301 -0.91,1.69 -1.951,1.69 -1.559,0 -1.147,-0.375 -8.813,-0.375 -6.63,0 -6.735,0.521 -8.814,0.521 -1.559,0 -2.47,-0.521 -2.47,-1.69 0,-1.169 1.044,-1.785 2.34,-1.95 2.813,-0.355 3.482,-2.079 3.482,-7.277 l 0,-33.792 0,0 z" /><path
       id="path17"
       d="m 407.782,92.362 c 0,5.067 1.431,7.276 4.551,7.276 2.47,0 4.028,-1.69 5.068,-3.249 1.169,-1.561 1.949,-3.12 2.99,-3.12 0.776,0 1.298,0.39 1.298,1.3 0,1.95 -3.51,12.088 -13.647,12.088 -3.768,0 -6.627,-1.039 -8.575,-3.119 -2.078,-2.34 -2.859,-5.459 -2.859,-10.398 l 0,-40.03 c 0,-1.431 -0.65,-1.951 -1.562,-2.08 -0.907,-0.131 -2.079,-0.131 -3.116,-0.131 -1.172,0 -2.213,-0.129 -2.213,-1.56 0,-0.91 0.78,-1.819 2.473,-3.379 4.027,-3.12 7.408,-6.628 11.826,-14.426 1.171,-2.209 1.559,-2.99 2.469,-2.99 0.908,0 1.299,0.521 1.299,2.729 l 0,12.348 c 0,1.95 0.65,2.729 2.604,2.729 l 7.017,0 c 2.209,0 2.729,0.52 2.729,2.34 0,2.08 -0.521,2.729 -2.989,2.729 -2.209,0 -4.548,-0.131 -6.757,-0.131 -2.082,0 -2.604,0.521 -2.604,2.859 l -0.002,38.215 0,0 z" /><path
       id="path19"
       d="m 446.125,106.657 c -15.076,0 -25.477,-14.037 -25.477,-30.934 0,-16.636 10.008,-30.932 25.605,-30.932 15.856,0 25.604,14.427 25.604,30.803 0,17.025 -10.397,31.063 -25.604,31.063 l -0.128,0 z m 0.518,-3.638 c 8.969,0 13.127,-13.646 13.127,-25.994 0,-14.428 -4.549,-28.594 -13.777,-28.594 -8.967,0 -13.255,12.997 -13.255,25.995 0,14.425 4.679,28.593 13.775,28.593 l 0.13,0 z" /><path
       id="path21"
       d="m 472.887,61.298 c 0,-10.917 9.487,-16.505 20.665,-16.505 4.157,0 8.84,0.778 11.309,2.079 0.647,0.39 0.911,1.3 1.038,3.119 0.131,1.17 0.131,2.6 0.131,4.55 l 0,3.379 c -0.131,2.08 -0.388,3.25 -1.56,3.25 -1.688,0 -1.948,-2.47 -4.03,-6.89 -1.559,-3.379 -3.769,-5.979 -7.926,-5.979 -5.07,0 -9.103,3.51 -9.103,8.318 0,6.238 6.24,9.228 12.74,12.996 6.369,3.77 12.996,8.318 12.996,17.677 0,12.606 -10.138,19.364 -22.354,19.364 -3.9,0 -7.668,-0.649 -10.27,-1.56 -0.908,-0.26 -1.818,-0.519 -2.471,-1.04 -0.646,-0.39 -1.168,-1.04 -1.298,-3.639 -0.13,-1.82 -0.13,-4.288 -0.13,-7.669 0,-5.199 0.388,-6.627 1.688,-6.627 1.82,0 1.947,2.079 3.899,7.538 1.948,5.068 4.938,9.357 10.269,9.357 5.849,0 10.007,-3.898 10.007,-9.748 0,-7.668 -6.109,-11.048 -12.089,-14.687 -6.497,-3.64 -13.516,-7.798 -13.516,-17.156 l 0,-0.13 0.005,0 z" /><path
       id="path23"
       d="m 514.162,27.766 c 0,-3.769 -0.518,-4.678 -4.028,-5.069 -2.209,-0.52 -2.988,-0.65 -2.988,-1.82 0,-1.3 0.911,-1.43 3.641,-2.209 5.198,-1.56 8.448,-2.729 10.527,-3.899 1.688,-0.781 2.469,-1.17 3.25,-1.17 0.776,0 0.906,0.519 0.906,2.339 l 0,36.912 c 0,0.779 0.262,1.169 0.781,1.169 0.521,0 1.168,-0.391 1.688,-0.91 3.25,-2.988 8.317,-7.668 15.855,-7.668 9.747,0 15.466,6.627 15.727,16.896 l 0,33.272 c 0,4.42 1.172,6.108 4.291,6.498 2.079,0.26 3.117,0.65 3.117,1.82 0,1.169 -0.908,1.561 -1.949,1.561 -1.168,0 -5.068,-0.521 -10.784,-0.521 -6.24,0 -8.579,0.521 -10.4,0.521 -1.429,0 -2.209,-0.521 -2.209,-1.69 0,-1.169 0.91,-1.431 2.339,-1.69 3.25,-0.519 4.291,-1.688 4.291,-5.328 l 0,-33.012 c 0,-3.25 -0.521,-6.108 -2.078,-8.058 -1.821,-2.469 -4.552,-3.641 -8.063,-3.641 -3.377,0 -6.627,1.301 -9.096,3.51 -2.34,2.21 -3.512,4.81 -3.512,8.06 l 0,32.752 c 0,3.378 1.172,5.069 5.069,5.718 1.951,0.393 2.469,0.65 2.469,1.82 0,1.169 -0.907,1.561 -1.947,1.561 -1.56,0 -3.512,-0.521 -11.438,-0.521 -6.367,0 -8.446,0.521 -10.658,0.521 -1.168,0 -2.078,-0.391 -2.078,-1.69 0,-1.169 1.172,-1.819 2.47,-1.95 4.157,-0.389 4.809,-1.949 4.809,-7.277 l -0.002,-66.807 0,0 z" /><g
       id="g25"><path
         style="fill:#008000"
         id="path27"
         d="M 66.344,21.192 C 70.774,16.333 73.079,9.51 73.399,0.334 L 73.41,0.001 73.086,0.067 C 57.533,3.249 49.5,12.996 49.213,29.038 l -0.006,0.312 0.307,-0.048 c 7.408,-1.161 12.914,-3.814 16.83,-8.11 z" /><path
         style="fill:#0000ff"
         id="path29"
         d="m 12.824,103.702 0.285,0.412 c 2.572,3.707 5.52,7.315 8.761,10.725 2.47,2.595 6.403,4.025 11.076,4.025 3.424,0 6.976,-0.808 9.269,-2.103 4.738,-2.681 7.252,-2.687 9.084,-2.688 0.371,0 0.715,-0.002 1.043,-0.021 l 0.303,-0.021 c 0.396,-0.024 0.806,-0.051 1.268,-0.051 1.625,0 4.057,0.318 8.471,2.813 3.082,1.29 6.068,1.944 8.881,1.944 l 0,0 c 7.658,0 14.371,-4.789 20.521,-14.633 l 0.252,-0.402 -79.214,0 0,0 z" /><path
         style="fill:#008000"
         id="path31"
         d="m 92.947,42.269 c 1.023,-1.02 2.126,-2.024 3.313,-3.015 l 0.197,-0.165 -0.164,-0.201 C 90.524,31.77 82.621,27.93 73.441,27.786 l -0.42,-0.003 c -4.651,0 -8.764,0.872 -11.896,2.521 -4.059,2.138 -7.079,2.613 -7.108,2.617 -0.051,0.007 -0.383,0.02 -1.295,0.02 -1.104,0 -2.061,-0.018 -2.176,-0.035 L 50.474,32.898 C 49.173,32.729 45.853,32.184 43.165,30.75 39.509,28.801 35.436,27.771 31.39,27.771 l -0.267,10e-4 C 20.42,27.893 11.471,33.108 5.908,42.269 l 87.039,0 z" /><path
         style="fill:#ffff00"
         id="path33"
         d="m 83.973,57.487 c 1.052,-5.094 3.895,-10.039 8.531,-14.771 l 0.438,-0.447 -87.033,0 -0.075,0.127 c -2.668,4.426 -4.435,9.545 -5.273,15.09 l 83.412,0 0,0.001 z" /><path
         style="fill:#ff6600"
         id="path35"
         d="M 86.01,72.52 C 83.906,68.197 82.874,63.201 83.92,57.8 l 0.059,-0.313 -83.41,0 -0.033,0.226 C -0.17,62.52 -0.17,67.495 0.483,72.52 l 85.527,0 0,0 z" /><path
         style="fill:#ff0000"
         id="path37"
         d="m 4.58,88.291 95.323,0 0.558,-1.206 -0.23,-0.115 C 95.668,84.711 89.553,79.767 86.072,72.667 L 86,72.521 l -85.522,0 0.042,0.297 c 0.58,4.348 1.771,9.632 4.06,15.473 z" /><path
         style="fill:#800080"
         id="path39"
         d="m 12.827,103.702 79.201,0 c 3.026,-4.899 5.517,-10.297 7.707,-15.039 l 0.172,-0.373 -95.313,0 0.144,0.361 c 2.085,5.205 4.789,10.233 8.089,15.051 z" /></g></g></svg>