<?xml version="1.0" encoding="UTF-8" standalone="no"?>
<svg
   xmlns:dc="http://purl.org/dc/elements/1.1/"
   xmlns:cc="http://creativecommons.org/ns#"
   xmlns:rdf="http://www.w3.org/1999/02/22-rdf-syntax-ns#"
   xmlns:svg="http://www.w3.org/2000/svg"
   xmlns="http://www.w3.org/2000/svg"
   xml:space="preserve"
   enable-background="new 0 0 340.154 126.123"
   viewBox="0 0 126.122 340.15301"
   height="340.15302"
   width="126.122"
   y="0px"
   x="0px"
   id="Ebene_1"
   version="1.1"><metadata
     id="metadata54"><rdf:RDF><cc:Work
         rdf:about=""><dc:format>image/svg+xml</dc:format><dc:type
           rdf:resource="http://purl.org/dc/dcmitype/StillImage" /><dc:title></dc:title></cc:Work></rdf:RDF></metadata><defs
     id="defs52" /><g
     transform="matrix(0,-1,1,0,0,340.153)"
     style="fill:#ffffff;fill-opacity:1"
     id="g3"><path
       style="fill:#ffffff;fill-opacity:1"
       id="path5"
       d="m 277.724,70.452 -215.148,0 C 43.153,70.452 27.348,54.649 27.348,35.225 27.348,15.801 43.154,0 62.576,0 l 215.146,0 c 19.426,0 35.229,15.802 35.229,35.226 -0.001,19.423 -15.802,35.226 -35.227,35.226 z M 62.576,8.333 c -14.829,0 -26.895,12.064 -26.895,26.895 0,14.828 12.065,26.894 26.895,26.894 l 215.146,0 c 14.827,0 26.896,-12.065 26.896,-26.894 0,-14.83 -12.067,-26.895 -26.896,-26.895 l -215.146,0 z" /><path
       style="fill:#ffffff;fill-opacity:1"
       id="path7"
       d="m 90.208,51.562 0,-32.515 -9.779,0 0,22.735 -14.423,-22.735 -10.512,0 0,32.515 9.779,0 0,-23.469 15.155,23.469 9.78,0 z" /><path
       style="fill:#ffffff;fill-opacity:1"
       id="path9"
       d="m 106.099,51.562 0,-22.002 -9.778,0 0,22.002 9.778,0 z" /><path
       style="fill:#ffffff;fill-opacity:1"
       id="path11"
       d="m 106.099,24.914 0,-5.867 -9.778,0 0,5.867 9.778,0 z" /><path
       style="fill:#ffffff;fill-opacity:1"
       d="m 140.324,51.562 0,-15.159 c 0,-3.178 -6.112,-7.578 -9.289,-7.578 l -2.935,0 c -2.199,0 -4.645,1.956 -6.845,2.934 l 0,-2.199 -9.779,0 0,22.002 9.779,0 0,-15.159 c 0,-1.467 3.422,-3.178 4.89,-3.178 1.467,0 4.155,1.711 4.155,3.178 l 0,15.158 10.024,0 z"
       id="_x33_162" /><path
       style="fill:#ffffff;fill-opacity:1"
       d="m 222.143,52.319 0,-15.157 c 0,-3.179 -6.109,-7.578 -9.292,-7.578 l -2.932,0 c -2.201,0 -4.646,1.956 -6.848,2.933 l 0,-2.199 -9.777,0 0,22.002 9.777,0 0,-15.158 c 0,-1.466 3.424,-3.179 4.891,-3.179 1.466,0 4.154,1.713 4.154,3.179 l 0,15.157 10.027,0 z"
       id="_x33_162_1_" /><path
       style="fill:#ffffff;fill-opacity:1"
       id="path15"
       d="m 156.215,51.562 0,-22.002 5.134,0 0,-2.934 -5.134,0 0,-4.645 -10.021,0 0,4.645 -5.135,0 0,2.934 5.135,0 0,22.002 10.021,0 z" /><path
       style="fill:#ffffff;fill-opacity:1"
       id="path17"
       d="m 175.038,28.826 c -7.822,0 -14.422,5.378 -14.422,11.979 0,6.846 6.6,12.223 14.422,12.223 6.846,0 12.469,-3.911 13.936,-9.045 l -10.022,0 0,2.934 c 0,2.445 -1.709,3.18 -3.91,3.18 -2.2,0 -3.668,-0.734 -3.668,-3.18 l 0,-6.111 18.093,0 c -0.003,-6.601 -6.359,-11.98 -14.429,-11.98 z m 0,2.2 c 2.201,0 3.912,1.467 3.912,3.912 l 0,2.199 -7.578,0 0,-2.199 c 0,-2.445 1.467,-3.912 3.666,-3.912 z" /><path
       style="fill:#ffffff;fill-opacity:1"
       id="path19"
       d="m 271.364,28.826 c -8.069,0 -14.426,5.378 -14.426,11.979 0,6.846 6.354,12.223 14.426,12.223 7.819,0 14.422,-5.377 14.422,-12.223 -0.004,-6.6 -6.603,-11.979 -14.422,-11.979 z m 0,2.2 c 2.196,0 3.666,1.467 3.666,3.912 l 0,11.978 c 0,2.444 -1.47,3.179 -3.666,3.179 -2.444,0 -3.914,-0.734 -3.914,-3.179 l 0,-11.978 c -0.002,-2.445 1.467,-3.912 3.914,-3.912 z" /><path
       style="fill:#ffffff;fill-opacity:1"
       id="path21"
       d="m 243.247,19.047 0,11.979 c 0,0 -2.936,-2.2 -6.848,-2.2 -6.111,0 -11.244,5.378 -11.244,11.246 0,6.112 5.135,12.224 11.244,12.224 3.912,0 6.848,-1.467 6.848,-1.467 l 0,0.732 9.779,0 0,-32.514 -9.779,0 z m -3.668,13.446 c 2.199,0 3.668,1.712 3.668,3.912 l 0,9.045 c 0,2.201 -1.469,2.934 -3.668,2.934 -2.443,0 -3.912,-0.732 -3.912,-2.934 l 0,-9.045 c 0,-2.2 1.469,-3.912 3.912,-3.912 z" /><g
       style="fill:#ffffff;fill-opacity:1"
       id="g23"><path
         style="fill:#ffffff;fill-opacity:1"
         id="path25"
         d="m 287.006,29.216 c -2.775,0 -5.036,-2.258 -5.036,-5.035 0,-2.959 2.213,-5.28 5.036,-5.28 2.729,0 5.036,2.417 5.036,5.28 0,2.681 -2.35,5.035 -5.036,5.035 z m 0,-9.533 c -2.427,0 -4.253,1.934 -4.253,4.5 0,2.344 1.908,4.254 4.253,4.254 2.229,0 4.254,-2.028 4.254,-4.254 0,-2.399 -1.984,-4.5 -4.254,-4.5 z m 0.884,6.647 -0.864,-1.515 -1.095,0 0,1.321 -0.78,0 0,-4.546 2.104,0 c 0.979,0 1.488,0.813 1.488,1.613 0,0.615 -0.303,1.238 -0.885,1.492 l 0.711,1.248 -0.679,0.387 z m -1.959,-2.294 1.321,0 c 0.219,0 0.395,-0.079 0.521,-0.235 0.118,-0.149 0.188,-0.368 0.188,-0.597 0,-0.311 -0.151,-0.832 -0.709,-0.832 l -1.321,0 0,1.664 0,0 z" /></g><path
       style="fill:#ffffff;fill-opacity:1"
       d="m 51.827,99.231 0,-14.18 c 0,-2.688 -2.689,-5.379 -5.378,-5.379 l -20.535,0 0,19.559 6.357,0 0,-13.199 c 0,-0.979 0.732,-1.957 1.711,-1.957 l 9.777,0 c 0.979,0 1.957,0.979 1.957,1.957 l 0,13.199 6.111,0 z"
       id="_x32_399" /><path
       style="fill:#ffffff;fill-opacity:1"
       d="m 221.469,99.231 0,-14.18 c 0,-2.688 -2.688,-5.379 -5.376,-5.379 l -20.536,0 0,19.559 6.354,0 0,-13.199 c 0,-0.979 0.736,-1.957 1.713,-1.957 l 9.779,0 c 0.979,0 1.953,0.979 1.953,1.957 l 0,13.199 6.113,0 z"
       id="_x32_399_1_" /><path
       style="fill:#ffffff;fill-opacity:1"
       d="m 314.327,99.231 0,-14.18 c 0,-2.688 -2.688,-5.379 -5.379,-5.379 l -20.535,0 0,19.559 6.354,0 0,-13.199 c 0,-0.979 0.732,-1.957 1.714,-1.957 l 9.776,0 c 0.979,0 1.955,0.979 1.955,1.957 l 0,13.199 6.115,0 z"
       id="_x32_399_2_" /><path
       style="fill:#ffffff;fill-opacity:1"
       d="m 258.892,99.231 0,-14.18 c 0,-2.688 -2.688,-5.379 -5.379,-5.379 l -27.625,0 0,19.559 6.357,0 0,-13.199 c 0,-0.979 0.731,-1.957 1.709,-1.957 l 3.668,0 c 0.734,0 1.712,0.979 1.712,1.957 l 0,13.199 6.358,0 0,-13.199 c 0,-0.979 0.731,-1.957 1.709,-1.957 l 3.668,0 c 0.733,0 1.711,0.979 1.711,1.957 l 0,13.199 6.112,0 z"
       id="_x33_177" /><path
       style="fill:#ffffff;fill-opacity:1"
       d="m 21.514,99.231 -16.135,0 C 2.691,99.231 0,97.521 0,94.833 l 0,-15.4 21.513,0 0,4.645 -14.424,0 c -0.732,0 -1.711,0.734 -1.711,1.712 0,0.979 0.979,1.712 1.711,1.712 l 13.446,0 0,3.911 -13.446,0 c -0.732,0 -1.711,0.979 -1.711,1.712 0,0.979 0.979,1.955 1.711,1.955 l 14.424,0 10e-4,4.151 0,0 z"
       id="_x33_181" /><path
       style="fill:#ffffff;fill-opacity:1"
       d="m 100.979,99.478 -16.136,0 c -2.688,0 -5.379,-1.711 -5.379,-4.398 l 0,-15.403 21.515,0 0,4.645 -14.426,0 c -0.731,0 -1.71,0.734 -1.71,1.714 0,0.98 0.979,1.711 1.71,1.711 l 13.446,0 0,3.91 -13.446,0 c -0.731,0 -1.71,0.979 -1.71,1.714 0,0.979 0.979,1.954 1.71,1.954 l 14.426,0 0,4.153 0,0 z"
       id="_x33_181_1_" /><path
       style="fill:#ffffff;fill-opacity:1"
       d="m 284.907,99.231 -16.137,0 c -2.688,0 -5.381,-1.711 -5.381,-4.398 l 0,-15.4 21.516,0 0,4.645 -14.424,0 c -0.732,0 -1.714,0.734 -1.714,1.712 0,0.979 0.979,1.712 1.714,1.712 l 13.443,0 0,3.911 -13.443,0 c -0.732,0 -1.714,0.979 -1.714,1.712 0,0.979 0.979,1.955 1.714,1.955 l 14.424,0 0,4.154 0.002,0 0,-0.003 z"
       id="_x33_181_2_" /><path
       style="fill:#ffffff;fill-opacity:1"
       d="m 54.517,79.675 0,4.4 6.355,0 c 1.712,0 1.712,0 1.712,1.957 l 0,13.199 6.111,0 0,-13.199 c 0,-1.957 0,-1.957 1.956,-1.957 l 6.111,0 0,-4.4 -22.245,0 z"
       id="_x32_391" /><path
       style="fill:#ffffff;fill-opacity:1"
       d="m 132.197,79.675 0,4.4 6.355,0 c 1.71,0 1.71,0 1.71,1.957 l 0,13.199 6.112,0 0,-13.199 c 0,-1.957 0,-1.957 1.957,-1.957 l 6.112,0 0,-4.4 -22.246,0 z"
       id="_x32_391_1_" /><path
       style="fill:#ffffff;fill-opacity:1"
       d="m 317.909,79.675 0,4.4 6.355,0 c 1.713,0 1.713,0 1.713,1.957 l 0,13.199 6.11,0 0,-13.199 c 0,-1.957 0,-1.957 1.955,-1.957 l 6.111,0 0,-4.4 -22.244,0 z"
       id="_x32_391_2_" /><path
       style="fill:#ffffff;fill-opacity:1"
       id="path37"
       d="m 105.366,79.675 0,19.559 6.356,0 0,-3.42 c 0,-0.979 0.733,-1.959 1.711,-1.959 l 8.068,0 c 0.979,0 1.711,0.979 1.711,1.959 l 0,3.42 5.379,0 0,-5.379 c 0,-0.731 -0.732,-1.709 -0.732,-2.688 0,-0.731 1.711,-2.442 1.711,-4.397 l 0,-1.713 c 0,-1.713 -2.689,-5.38 -4.4,-5.38 l -19.804,-0.002 0,0 z m 8.067,4.4 8.068,0 c 0.979,0 1.71,0.979 1.71,1.957 l 0,1.71 c 0,0.979 -0.732,1.713 -1.71,1.713 l -8.068,0 c -0.978,0 -1.711,-0.733 -1.711,-1.713 l 0,-1.71 c 0.001,-0.976 0.733,-1.957 1.711,-1.957 z" /><path
       style="fill:#ffffff;fill-opacity:1"
       id="path39"
       d="m 161.594,79.675 c -1.712,0 -4.399,3.667 -4.399,5.381 l 0,14.178 6.354,0 0,-5.379 11.489,0 0,5.379 6.355,0 0,-14.178 c 0,-1.714 -2.688,-5.381 -4.645,-5.381 l -15.154,0 z m 3.667,4.4 8.066,0 c 0.731,0 1.711,0.979 1.711,1.957 l 0,3.422 -11.489,0 0,-3.422 c 0,-0.976 0.734,-1.957 1.712,-1.957 z" /><path
       style="fill:#ffffff;fill-opacity:1"
       id="path41"
       d="m 191.907,99.231 0,-19.558 -6.11,0 0,19.559 6.11,0 z" /><path
       style="fill:#ffffff;fill-opacity:1"
       d="m 250.86,126.021 0,-14.18 c 0,-2.688 -2.689,-5.379 -5.381,-5.379 l -27.623,0 0,19.559 6.354,0 0,-13.201 c 0,-0.979 0.732,-1.957 1.71,-1.957 l 3.667,0 c 0.734,0 1.714,0.979 1.714,1.957 l 0,13.199 6.354,0 0,-13.199 c 0,-0.979 0.731,-1.957 1.709,-1.957 l 3.668,0 c 0.733,0 1.715,0.979 1.715,1.957 l 0,13.199 6.111,0 0.002,0.002 0,0 z"
       id="_x33_177_1_" /><path
       style="fill:#ffffff;fill-opacity:1"
       d="m 213.479,126.021 -16.136,0 c -2.688,0 -5.377,-1.713 -5.377,-4.398 l 0,-15.403 21.511,0 0,4.646 -14.422,0 c -0.732,0 -1.712,0.733 -1.712,1.711 0,0.979 0.979,1.712 1.712,1.712 l 13.444,0 0,3.911 -13.444,0 c -0.732,0 -1.712,0.979 -1.712,1.713 0,0.979 0.979,1.954 1.712,1.954 l 14.422,0 0.002,4.154 0,0 z"
       id="_x33_181_3_" /><path
       style="fill:#ffffff;fill-opacity:1"
       d="m 167.017,106.462 0,4.398 6.355,0 c 1.711,0 1.711,0 1.711,1.957 l 0,13.199 6.111,0 0,-13.199 c 0,-1.957 0,-1.957 1.959,-1.957 l 6.109,0 0,-4.398 -22.245,0 z"
       id="_x32_391_3_" /><path
       style="fill:#ffffff;fill-opacity:1"
       d="m 94.611,106.565 c -1.712,0 -5.379,2.69 -5.379,4.398 l 0,2.691 c 0,1.712 3.667,4.4 5.379,4.4 l 10.756,0 c 0.978,0 1.956,0.979 1.956,1.711 0,0.977 -0.979,1.954 -1.956,1.954 l -16.135,0 0,4.399 18.09,0 c 1.712,0 5.134,-2.688 5.134,-4.399 l 0,-2.688 c 0,-1.957 -3.422,-4.646 -5.134,-4.646 l -10.756,0 c -0.979,0 -1.955,-0.733 -1.955,-1.713 0,-0.978 0.977,-1.713 1.955,-1.713 l 15.89,0 0,-4.397 -17.845,0 0,0.003 z"
       id="_x33_187" /><path
       style="fill:#ffffff;fill-opacity:1"
       d="m 146.397,106.565 c -1.713,0 -5.38,2.69 -5.38,4.398 l 0,2.691 c 0,1.712 3.667,4.4 5.38,4.4 l 10.756,0 c 0.978,0 1.956,0.979 1.956,1.711 0,0.977 -0.979,1.954 -1.956,1.954 l -16.136,0 0,4.399 18.091,0 c 1.712,0 5.134,-2.688 5.134,-4.399 l 0,-2.688 c 0,-1.957 -3.422,-4.646 -5.134,-4.646 l -10.757,0 c -0.978,0 -1.955,-0.733 -1.955,-1.713 0,-0.978 0.978,-1.713 1.955,-1.713 l 15.891,0 0,-4.397 -17.845,0 0,0.003 0,0 z"
       id="_x33_187_1_" /><path
       style="fill:#ffffff;fill-opacity:1"
       id="path48"
       d="m 114.412,106.565 0,8.804 c 0,1.71 2.688,4.399 4.4,4.399 l 4.398,0 0,6.354 6.357,0 0,-6.354 4.4,0 c 1.71,0 4.4,-2.689 4.4,-4.399 l 0,-8.804 -6.112,0 0,7.092 c 0,0.732 -0.978,1.712 -1.956,1.712 l -7.822,0 c -0.979,0 -1.956,-0.979 -1.956,-1.712 l 0,-7.092 -6.109,0 z" /></g></svg>