<?xml version="1.0" encoding="UTF-8" standalone="no"?>
<svg
   xmlns:dc="http://purl.org/dc/elements/1.1/"
   xmlns:cc="http://creativecommons.org/ns#"
   xmlns:rdf="http://www.w3.org/1999/02/22-rdf-syntax-ns#"
   xmlns:svg="http://www.w3.org/2000/svg"
   xmlns="http://www.w3.org/2000/svg"
   xml:space="preserve"
   enable-background="new -1 -1 568.929 116.145"
   viewBox="-1 -1 93.401563 458.09508"
   height="458.09506"
   width="93.401566"
   y="0px"
   x="0px"
   id="Layer_2"
   version="1.1"><metadata
     id="metadata95"><rdf:RDF><cc:Work
         rdf:about=""><dc:format>image/svg+xml</dc:format><dc:type
           rdf:resource="http://purl.org/dc/dcmitype/StillImage" /><dc:title></dc:title></cc:Work></rdf:RDF></metadata><defs
     id="defs93" /><g
     transform="matrix(0,-1,1,0,-11.7067,523.86954)"
     id="g4175"><g
       id="g5"><g
         id="g7"><path
           style="fill:#dbbd3b"
           d="m 110.903,77.172 c -3.131,-4.412 1.85,-7.685 6.831,-12.381 4.98,-4.697 5.977,-19.497 -3.558,-26.755 -9.535,-7.258 -31.024,-8.397 -39.421,-7.4 -8.396,0.996 -8.396,6.689 -7.685,14.089 0.712,7.4 0.657,20.912 -0.285,50.094 -0.285,8.823 5.266,6.974 11.243,7.116 5.977,0.142 7.542,-1.566 7.685,-5.55 0.142,-3.985 1.281,-9.82 5.55,-10.104 4.269,-0.285 6.689,5.407 8.823,10.673 2.135,5.266 5.266,4.981 17.505,4.554 12.24,-0.428 -3.557,-19.925 -6.688,-24.336 z M 91.691,65.218 c -7.685,-0.285 -7.827,-6.405 -7.685,-8.824 0.142,-2.419 2.704,-8.823 7.116,-8.681 4.27,0 6.974,1.281 8.396,5.692 1.423,4.412 -0.142,12.097 -7.827,11.813 z"
           id="path9" /></g></g><g
       id="g11"><g
         id="g13"><path
           style="fill:#dbbd3b"
           d="m 163.559,84.003 c -2.277,-3.559 -8.112,-1.708 -16.224,1.281 -3.843,1.28 -5.978,1.992 -6.832,0.427 -0.853,-1.565 3.558,-3.273 10.105,-5.267 6.546,-1.992 13.662,-5.834 14.374,-11.953 0.711,-6.12 -5.265,-14.374 -19.924,-14.943 -14.658,-0.569 -20.778,11.527 -23.055,18.216 -2.276,6.688 0.427,19.64 8.54,25.617 8.112,5.977 17.931,3.415 27.039,-1.139 9.108,-4.554 8.254,-8.681 5.977,-12.239 z M 138.37,73.045 c -2.277,-3.842 0,-7.4 2.703,-9.108 2.704,-1.708 7.828,-1.423 9.251,1.565 1.422,2.989 0,6.547 -3.131,7.97 -3.131,1.423 -7.685,1.423 -8.823,-0.427 z"
           id="path15" /></g></g><path
       style="fill:#dbbd3b"
       d="m 195.438,69.061 c 4.82,3.686 10.531,4.554 11.955,2.419 1.423,-2.135 2.846,-7.97 -2.135,-11.955 -4.98,-3.985 -15.369,-5.977 -23.909,-3.131 -8.539,2.847 -12.523,10.104 -10.815,16.082 1.707,5.977 10.962,8.671 13.946,10.104 3.558,1.707 5.124,2.988 4.27,4.27 -0.854,1.28 -4.127,-0.285 -7.259,-1.708 -3.13,-1.424 -8.112,-3.7 -10.104,-0.996 -1.992,2.704 -3.7,8.538 3.415,12.666 7.116,4.126 16.793,5.977 25.048,2.276 8.254,-3.7 9.108,-10.674 7.257,-15.37 -1.85,-4.696 -8.254,-7.826 -12.239,-10.246 -3.984,-2.42 -7.116,-3.416 -6.404,-5.123 0.712,-1.708 4.554,-1.139 6.974,0.712 z"
       id="path17" /><path
       style="fill:#dbbd3b"
       d="m 213.226,65.645 c -0.854,-3.273 1.851,-7.828 6.832,-8.255 4.98,-0.427 8.823,3.131 8.538,7.116 -0.284,3.985 -1.85,12.809 -1.85,18.643 0,5.835 1.708,10.816 1.565,13.805 -0.143,2.989 -3.559,5.408 -7.97,5.408 -4.412,0 -7.97,-0.143 -8.254,-5.692 -0.285,-5.551 1.281,-14.089 1.565,-18.786 0.286,-4.697 -0.283,-9.393 -0.426,-12.239 z"
       id="path19" /><ellipse
       style="fill:#dbbd3b"
       cx="221.125"
       cy="45.862999"
       rx="8.7519999"
       ry="8.1120005"
       id="ellipse21" /><g
       id="g23"><g
         id="g25"><path
           style="fill:#dbbd3b"
           d="m 274.279,71.764 c 0.143,-8.823 2.135,-21.632 2.135,-30.74 0,-9.108 -4.98,-10.673 -9.393,-10.247 -4.412,0.427 -5.551,5.408 -4.696,11.812 0,9.82 -2.419,8.396 -5.266,8.539 -19.497,1.281 -22.913,11.669 -25.331,20.92 -2.42,9.25 0.853,18.073 6.403,24.336 5.55,6.261 21.063,5.977 22.201,4.695 1.138,-1.281 2.419,-3.131 4.127,-1.139 1.708,1.993 5.266,2.277 7.827,0.712 2.561,-1.565 3.7,-5.692 2.846,-8.396 -0.853,-2.703 -0.996,-11.669 -0.853,-20.492 z m -21.916,13.662 c -4.087,0 -7.4,-4.078 -7.4,-9.107 0,-5.031 3.313,-9.108 7.4,-9.108 4.087,0 7.4,4.077 7.4,9.108 0,5.029 -3.313,9.107 -7.4,9.107 z"
           id="path27" /></g></g><path
       style="fill:#dbbd3b"
       d="m 279.403,84.146 c 0.284,-21.489 0.284,-21.063 0.284,-23.767 0,-2.705 4.411,-7.827 8.823,-8.254 4.411,-0.427 8.539,-0.854 8.539,5.692 0,6.546 -0.285,19.355 -0.285,21.774 0,2.42 4.127,5.835 4.554,0.284 0.428,-5.55 0.428,-18.927 0.569,-22.627 0.143,-3.7 3.842,-5.265 7.685,-5.408 3.843,-0.142 9.393,1.423 8.396,7.827 -0.996,6.404 -0.996,12.666 -0.996,18.073 0,5.408 1.992,12.809 1.565,17.506 -0.427,4.695 -3.7,6.973 -7.115,6.83 -3.416,-0.142 -5.835,-1.992 -7.115,-2.419 -1.281,-0.427 -8.966,4.839 -16.081,0.142 -7.116,-4.695 -9.108,-10.531 -8.823,-15.653 z"
       id="path29" /><g
       id="g31"><g
         id="g33"><path
           style="fill:#dbbd3b"
           d="m 360.378,88.557 c -1.52,-9.115 -0.854,-15.085 -0.285,-21.631 0.569,-6.547 -2.277,-10.675 -8.254,-12.951 -5.978,-2.277 -18.358,-0.142 -22.771,5.266 -4.411,5.408 -7.542,16.082 -6.688,22.771 0.854,6.688 1.281,15.37 12.238,19.069 10.959,3.7 11.955,-2.419 14.374,-2.562 2.42,-0.143 3.7,3.131 6.546,3.273 2.847,0.143 5.979,-2.847 6.689,-5.835 0.713,-2.988 -1.422,-4.839 -1.849,-7.4 z M 342.02,85.995 c -3.853,0 -6.974,-4.174 -6.974,-9.321 0,-5.148 3.121,-9.321 6.974,-9.321 3.851,0 6.973,4.173 6.973,9.321 0,5.148 -3.122,9.321 -6.973,9.321 z"
           id="path35" /></g></g><path
       style="fill:#9a5f1b"
       d="m 385.853,30.493 c -3.132,-8.824 8.396,-17.22 13.804,-5.978 5.408,11.243 21.347,41.699 23.624,45.115 2.277,3.415 4.98,2.987 4.554,-4.555 -0.427,-7.543 0.427,-43.264 0.427,-46.537 0,-3.273 3.131,-7.685 8.682,-7.827 5.55,-0.143 8.682,3.273 7.97,11.385 -0.712,8.112 -2.135,54.222 -2.847,65.892 -0.712,11.669 -14.517,25.758 -25.475,6.261 C 405.634,74.753 388.414,36.613 385.853,30.493 Z"
       id="path37" /><path
       style="fill:#9a5f1b"
       d="m 450.605,34.763 c -1.139,-9.678 2.419,-13.378 6.119,-13.805 3.7,-0.427 17.505,14.374 25.189,27.182 4.412,6.404 5.55,8.396 6.831,-1.708 1.281,-10.104 5.692,-24.051 7.827,-28.463 2.135,-4.412 12.239,-10.389 14.516,2.846 2.277,13.236 11.813,50.665 12.809,57.21 0.996,6.547 2.277,13.235 -2.135,14.801 -4.412,1.566 -11.67,3.985 -13.805,-5.123 -2.134,-9.108 -4.554,-32.875 -5.407,-34.583 -0.854,-1.708 -2.135,-0.711 -2.562,3.7 -0.428,4.412 -1.993,20.778 -2.563,23.909 -0.57,3.131 -7.685,10.246 -13.377,-0.569 -5.692,-10.815 -10.957,-19.781 -12.237,-21.205 -1.281,-1.423 -1.851,0.854 -1.424,3.985 0.427,3.131 3.559,16.081 6.546,23.197 2.989,7.115 2.704,15.654 -3.272,17.22 -5.978,1.565 -10.389,2.135 -13.235,-13.521 -2.847,-15.652 -8.824,-46.819 -9.82,-55.073 z"
       id="path39" /><path
       style="fill:#dbbd3b"
       d="m 364.173,40.313 c 0,-4.649 2.751,-7.306 7.21,-7.211 4.46,0.096 11.292,0.475 10.911,6.927 -0.38,6.451 -1.233,30.265 -1.043,39.279 0.189,9.014 0.379,15.37 0.379,17.837 0,2.466 -2.087,4.174 -6.641,4.174 -4.554,0 -9.108,1.328 -9.583,-4.839 -0.475,-6.166 0.285,-23.813 0.285,-31.024 0.001,-7.212 -1.612,-20.685 -1.518,-25.143 z"
       id="path41" /><path
       style="fill:#fff8b6"
       d="M 68.431,52.027 C 67.7,44.869 67.782,38.485 69.243,35.873 c 1.46,-2.612 5.112,-5.61 16.556,-4.353 11.444,1.257 20.127,2.708 28.162,6.771 -11.281,-3.771 -29.542,-4.933 -36.197,-4.353 -6.655,0.581 -8.846,2.419 -9.333,18.089 z"
       id="path43" /><path
       style="fill:#f9d84b"
       d="m 100.538,57.343 c -0.782,4.412 -2.134,7.258 -5.337,8.254 -3.202,0.996 -8.183,-0.214 -9.606,-1.779 2.206,3.06 7.756,3.345 11.101,2.419 3.345,-0.925 3.7,-7.4 3.842,-8.894 z"
       id="path45" /><path
       style="fill:#fff8b6"
       d="m 123.806,69.155 c 5.479,-9.464 9.251,-12.453 13.52,-13.876 4.27,-1.422 8.112,-1.422 15.725,0.214 -8.254,-0.64 -14.942,0.142 -18.216,2.206 -3.272,2.063 -9.606,9.321 -11.029,11.456 z"
       id="path47" /><path
       style="fill:#fff8b6"
       d="m 151.344,69.368 c -0.854,3.131 -4.625,6.973 -12.239,5.052 6.902,3.558 12.097,-0.498 12.239,-5.052 z"
       id="path49" /><path
       style="fill:#fff8b6"
       d="m 140.813,86.801 c 0.925,0.854 3.273,0.569 6.119,-0.498 2.847,-1.067 8.396,-3.628 11.813,-3.416 -2.704,0.285 -4.057,1.21 -6.262,2.136 -2.206,0.925 -8.326,4.341 -11.67,1.778 z"
       id="path51" /><path
       style="fill:#fff8b6"
       d="m 171.126,69.012 c 1.637,-9.463 11.385,-13.875 21.276,-13.235 -7.045,-0.427 -18.573,4.483 -21.276,13.235 z"
       id="path53" /><path
       style="fill:#fff8b6"
       d="m 170.201,89.79 c 0.783,-4.483 2.064,-7.97 8.041,-5.408 -2.99,-1.067 -6.547,-0.214 -8.041,5.408 z"
       id="path55" /><path
       style="fill:#fff8b6"
       d="m 223.852,58.552 c -3.201,-1.566 -10.887,0.356 -9.819,8.681 0.64,-7.471 6.334,-9.677 9.819,-8.681 z"
       id="path57" /><path
       style="fill:#fff8b6"
       d="m 212.965,47.096 c -0.07,-4.483 4.198,-10.816 11.741,-7.827 -5.478,-1.494 -11.313,2.419 -11.741,7.827 z"
       id="path59" /><path
       style="fill:#fff8b6"
       d="m 233.458,68.656 c 6.334,-13.519 11.67,-16.224 24.977,-16.865 -12.31,1.496 -19.781,7.473 -24.977,16.865 z"
       id="path61" /><path
       style="fill:#fff8b6"
       d="m 247.761,84.097 c 4.697,4.341 10.887,1.139 12.097,-4.197 -0.854,8.04 -9.25,8.894 -12.097,4.197 z"
       id="path63" /><path
       style="fill:#fff8b6"
       d="m 269.464,31.512 c -2.562,-0.569 -6.404,0.854 -6.476,7.543 0.997,-5.835 4.056,-7.329 6.476,-7.543 z"
       id="path65" /><path
       style="fill:#fff8b6"
       d="m 280.351,65.668 c 0.428,-10.673 5.052,-12.738 10.959,-12.88 -5.551,0.427 -10.033,4.341 -10.959,12.88 z"
       id="path67" /><path
       style="fill:#fff8b6"
       d="m 297.571,82.817 c 1.851,1.707 4.483,1.139 4.839,-4.91 0.498,6.688 -3.131,8.041 -4.839,4.91 z"
       id="path69" /><path
       style="fill:#fff8b6"
       d="m 302.481,60.26 c 0,-6.261 3.558,-7.969 6.831,-7.685 -3.06,0.285 -6.404,3.273 -6.831,7.685 z"
       id="path71" /><path
       style="fill:#fff8b6"
       d="m 324.326,70.507 c 4.697,-11.528 8.824,-15.797 21.489,-16.651 -7.97,1.209 -14.587,3.558 -21.489,16.651 z"
       id="path73" /><path
       style="fill:#fff8b6"
       d="m 336.992,84.382 c 3.487,3.345 9.393,3.486 11.741,-2.49 -0.783,5.55 -6.974,8.112 -11.741,2.49 z"
       id="path75" /><path
       style="fill:#fff8b6"
       d="m 365.027,45.459 c -0.212,-7.471 0.285,-12.666 9.892,-11.456 -4.768,-0.284 -9.536,0.498 -9.892,11.456 z"
       id="path77" /><path
       style="fill:#e08a34"
       d="m 386.232,27.385 c 0.427,-5.408 4.839,-9.393 10.389,-6.12 -3.842,-1.279 -8.325,-0.426 -10.389,6.12 z"
       id="path79" /><path
       style="fill:#e08a34"
       d="m 428.571,24.255 c 0.355,-8.468 2.775,-12.381 8.04,-12.808 -4.554,0.996 -7.329,6.759 -8.04,12.808 z"
       id="path81" /><path
       style="fill:#e08a34"
       d="m 451.483,28.24 c 1.922,-5.977 4.696,-8.396 9.962,-3.344 -4.721,-3.938 -7.613,-1.78 -9.962,3.344 z"
       id="path83" /><path
       style="fill:#e08a34"
       d="m 490.904,38.273 c 5.621,-19.354 6.902,-22.059 10.318,-23.695 3.414,-1.637 6.403,0.711 6.403,0.711 -3.201,-1.565 -6.617,-0.569 -8.681,2.917 -2.064,3.487 -7.685,18.643 -8.04,20.067 z"
       id="path85" /><path
       style="fill:#e08a34"
       d="m 484.855,53.784 c 1.708,1.068 3.559,0.711 4.697,-5.55 -0.64,5.195 -0.926,8.183 -4.697,5.55 z"
       id="path87" /><path
       style="fill:#e08a34"
       d="m 423.234,71.288 c 2.988,2.277 5.337,2.207 5.764,-6.19 1.138,9.18 -2.562,10.104 -5.764,6.19 z"
       id="path89" /></g></svg>