<?xml version="1.0" encoding="UTF-8" standalone="no"?>
<svg
   xmlns:dc="http://purl.org/dc/elements/1.1/"
   xmlns:cc="http://creativecommons.org/ns#"
   xmlns:rdf="http://www.w3.org/1999/02/22-rdf-syntax-ns#"
   xmlns:svg="http://www.w3.org/2000/svg"
   xmlns="http://www.w3.org/2000/svg"
   xml:space="preserve"
   enable-background="new 0 0 566.929 86.457"
   viewBox="0 0 86.456998 566.93103"
   height="566.93103"
   width="86.457001"
   y="0px"
   x="0px"
   id="svg2"
   version="1.1"><metadata
     id="metadata24"><rdf:RDF><cc:Work
         rdf:about=""><dc:format>image/svg+xml</dc:format><dc:type
           rdf:resource="http://purl.org/dc/dcmitype/StillImage" /><dc:title></dc:title></cc:Work></rdf:RDF></metadata><defs
     id="defs22" /><g
     transform="translate(-240.237,240.237)"
     id="g3"><g
       transform="matrix(0,-1,1,0,240.237,326.694)"
       id="g4148"><g
         id="g4387"
         style="fill:#ffffff;fill-opacity:1"><path
           id="path1922"
           d="m 56.324,24.657 36.038,0 -15.777,16.452 -20.261,0 0,-16.452 z"
           style="fill:#ffffff;fill-opacity:1" /><path
           id="path3805"
           d="m 56.29,61.805 36.037,0 -15.778,-16.451 -20.259,0 0,16.451 z"
           style="fill:#ffffff;fill-opacity:1" /><path
           id="path4382"
           d="m 55.539,1.699 0,20.725 c -3.683,-2.28 -7.78,-3.405 -12.293,-3.405 -4.307,0 -8.306,1.08 -11.987,3.255 -3.688,2.159 -6.585,5.113 -8.704,8.858 -2.118,3.724 -3.18,7.739 -3.18,12.004 0,4.313 1.063,8.299 3.18,11.981 2.118,3.671 5.027,6.586 8.731,8.738 3.699,2.146 7.683,3.231 11.958,3.231 4.474,0 8.576,-1.092 12.294,-3.255 l 0,20.819 c -3.994,1.206 -8.093,1.807 -12.294,1.807 -7.71,0 -14.907,-1.945 -21.573,-5.836 C 15.01,76.731 9.724,71.439 5.834,64.779 1.943,58.119 0,50.899 0,43.137 0,37.387 1.125,31.848 3.382,26.527 5.639,21.212 8.772,16.56 12.789,12.577 16.795,8.595 21.399,5.507 26.576,3.308 31.764,1.103 37.317,0 43.244,0 47.342,0.002 51.44,0.579 55.539,1.699"
           style="fill:#ffffff;fill-opacity:1" /></g><g
         id="g4407"
         style="fill:#ffffff;fill-opacity:1"><path
           id="path4040"
           d="m 566.28,28.599 c 0.324,0.341 0.463,0.753 0.555,1.645 0.047,0.425 0.096,1.266 0.096,1.898 0,2.058 -0.141,3.005 -0.604,3.498 -0.508,0.522 -1.432,0.685 -3.975,0.685 -2.217,0 -3.65,-0.083 -4.297,-0.217 -0.693,-0.144 -1.201,-0.67 -1.34,-1.345 -0.141,-0.545 -0.186,-1.332 -0.186,-2.672 0,-2.246 0.186,-3.127 0.785,-3.6 0.416,-0.324 0.877,-0.434 1.986,-0.508 0.51,-0.023 1.939,-0.055 2.635,-0.055 2.868,10e-4 3.792,0.139 4.345,0.671 m -8.78,3.428 c 0,1.932 0.047,2.556 0.371,2.898 0.275,0.285 0.646,0.383 1.523,0.438 l 2.402,0.06 c 1.342,0 2.727,-0.063 3.145,-0.171 0.414,-0.101 0.738,-0.442 0.877,-0.872 0.092,-0.459 0.139,-1.304 0.139,-2.334 0,-1.803 -0.092,-2.458 -0.416,-2.783 -0.416,-0.407 -0.924,-0.462 -4.205,-0.462 -3.789,0.001 -3.836,0.084 -3.836,3.226 m 0.973,-2.338 3.834,0 c 1.803,0 1.803,0 2.127,0.188 0.416,0.236 0.555,0.564 0.555,1.396 0,1.021 -0.186,1.274 -0.926,1.377 0.508,0.083 0.693,0.176 0.787,0.452 0.045,0.177 0.092,0.287 0.092,0.953 l 0,0.518 -1.664,0 0,-0.323 c 0,-0.887 0,-0.887 -0.971,-0.905 l -2.125,0 0,1.229 -1.709,0 0,-4.885 z m 3.834,2.358 c 1.018,-0.02 1.018,-0.02 1.018,-0.537 0,-0.504 0,-0.504 -1.018,-0.518 l -2.125,0 0,1.053 2.125,0 0,0.002 z"
           style="fill:#ffffff;fill-opacity:1" /><path
           id="path4340"
           d="m 151.471,46.328 c -0.183,5.143 -0.824,7.355 -2.838,9.372 -2.93,2.976 -6.686,3.763 -18.78,3.763 -9.417,0 -13.377,-0.654 -16.427,-2.865 -2.989,-2.074 -3.964,-5.394 -3.964,-13.513 0,-7.403 0.911,-10.653 3.635,-12.854 2.92,-2.404 6.95,-3.113 17.337,-3.113 10.188,0 14.673,0.774 17.604,3.177 2.472,1.946 3.296,4.354 3.479,10.128 l -11.67,0 c -0.389,-3.498 -2.655,-4.675 -9.413,-4.675 -7.989,0 -9.477,1.231 -9.477,7.659 0,4.031 0.649,5.591 2.729,6.438 1.36,0.588 3.828,0.907 6.877,0.907 6.753,0 8.703,-0.907 9.221,-4.422 l 11.687,-0.002 0,0 z"
           style="fill:#ffffff;fill-opacity:1" /><path
           id="path4342"
           d="m 193.407,29.969 c 3.113,2.271 3.983,5.059 3.983,12.791 0,8.444 -0.779,11.311 -3.571,13.642 -2.93,2.407 -6.774,3.062 -18.129,3.062 -11.492,0 -15.337,-0.654 -18.222,-3.062 -2.884,-2.331 -3.617,-5.196 -3.617,-14.099 0,-7.201 0.916,-10.123 3.983,-12.333 2.838,-2.079 7.324,-2.797 17.809,-2.797 10.485,-10e-4 14.926,0.717 17.764,2.796 m -28.064,13.574 c 0,4.09 0.549,5.454 2.608,6.301 1.42,0.646 4.029,0.972 7.737,0.972 8.698,0 10.209,-1.108 10.209,-7.606 0,-4.152 -0.687,-5.645 -2.792,-6.482 -1.465,-0.586 -4.167,-0.916 -7.417,-0.916 -8.788,-10e-4 -10.345,1.167 -10.345,7.731"
           style="fill:#ffffff;fill-opacity:1" /><path
           id="path4344"
           d="m 210.53,27.959 0,4.606 0.596,0 c 1.693,-3.695 5.585,-5.393 12.406,-5.393 7.418,0 11.492,1.886 13.965,6.437 1.969,-4.615 5.723,-6.437 13.23,-6.437 6.363,0 10.164,1.176 12.818,3.964 2.654,2.725 3.25,5.261 3.25,13.174 l 0,14.365 -11.492,0 0,-14.364 c -0.091,-5.121 -0.229,-5.702 -1.328,-6.811 -1.145,-1.167 -3.113,-1.689 -6.455,-1.689 -3.479,0 -5.631,0.587 -6.82,1.951 -1.328,1.428 -1.694,3.246 -1.694,8.241 l 0,12.673 -11.492,0 0,-14.365 c 0,-4.795 -0.137,-5.644 -1.235,-6.811 -1.054,-1.167 -3.068,-1.689 -6.365,-1.689 -3.479,0 -5.723,0.587 -7.004,1.882 -1.327,1.3 -1.693,3.25 -1.693,8.311 l 0,12.673 -11.491,0 0,-30.718 10.804,0 z"
           style="fill:#ffffff;fill-opacity:1" /><path
           id="path4346"
           d="m 280.301,27.959 0,4.606 0.549,0 c 1.694,-3.695 5.586,-5.393 12.408,-5.393 7.417,0 11.492,1.886 13.964,6.437 1.97,-4.615 5.724,-6.437 13.277,-6.437 6.364,0 10.118,1.176 12.772,3.964 2.655,2.725 3.25,5.261 3.25,13.174 l 0,14.365 -11.49,0 0,-14.364 c -0.047,-5.121 -0.184,-5.702 -1.282,-6.811 -1.19,-1.167 -3.114,-1.689 -6.502,-1.689 -3.433,0 -5.585,0.587 -6.821,1.951 -1.327,1.428 -1.693,3.246 -1.693,8.241 l 0,12.673 -11.492,0 0,-14.365 c 0,-4.795 -0.137,-5.644 -1.235,-6.811 -1.054,-1.167 -3.067,-1.689 -6.365,-1.689 -3.434,0 -5.723,0.587 -7.005,1.882 -1.326,1.3 -1.693,3.25 -1.693,8.311 l 0,12.673 -11.49,0 0,-30.718 10.848,0 z"
           style="fill:#ffffff;fill-opacity:1" /><path
           id="path4348"
           d="m 378.553,29.969 c 3.111,2.271 3.936,5.059 3.936,12.791 0,8.444 -0.777,11.311 -3.57,13.642 -2.93,2.407 -6.729,3.062 -18.129,3.062 -11.492,0 -15.292,-0.654 -18.221,-3.062 -2.84,-2.331 -3.572,-5.196 -3.572,-14.099 0,-7.201 0.914,-10.123 3.982,-12.333 2.838,-2.079 7.325,-2.797 17.764,-2.797 10.531,-10e-4 14.925,0.717 17.81,2.796 m -28.066,13.574 c 0,4.09 0.504,5.454 2.609,6.301 1.42,0.646 4.029,0.972 7.691,0.972 8.744,0 10.209,-1.108 10.209,-7.606 0,-4.152 -0.641,-5.645 -2.793,-6.482 -1.42,-0.586 -4.166,-0.916 -7.416,-0.916 -8.743,-10e-4 -10.3,1.167 -10.3,7.731"
           style="fill:#ffffff;fill-opacity:1" /><path
           id="path4350"
           d="m 428.317,58.676 -10.805,0 0,-4.028 -0.596,0 c -2.197,3.704 -5.264,4.815 -13.596,4.815 -8.289,0 -12.27,-0.852 -14.926,-3.25 -2.52,-2.34 -3.297,-5.463 -3.297,-13.128 0,-7.797 1.236,-11.491 4.484,-13.629 2.795,-1.827 5.953,-2.339 13.873,-2.339 8.059,0 10.713,1.035 12.912,4.936 l 0.457,0 0,-16.698 11.49,0 0,43.32 0.004,0 z M 396.588,42.957 c 0,6.749 1.283,7.793 9.938,7.793 4.211,0 7.324,-0.517 8.652,-1.428 1.281,-0.852 1.738,-2.479 1.738,-6.049 0,-6.35 -1.512,-7.527 -9.705,-7.527 -9.064,0 -10.623,1.044 -10.623,7.211"
           style="fill:#ffffff;fill-opacity:1" /><path
           id="path4352"
           d="m 469.934,29.969 c 3.111,2.271 3.98,5.059 3.98,12.791 0,8.444 -0.775,11.311 -3.57,13.642 -2.93,2.407 -6.775,3.062 -18.129,3.062 -11.492,0 -15.293,-0.654 -18.223,-3.062 -2.883,-2.331 -3.57,-5.196 -3.57,-14.099 0,-7.201 0.916,-10.123 3.938,-12.333 2.885,-2.079 7.371,-2.797 17.811,-2.797 10.529,-10e-4 14.923,0.717 17.763,2.796 m -28.021,13.574 c 0,4.09 0.506,5.454 2.611,6.301 1.373,0.646 3.98,0.972 7.689,0.972 8.697,0 10.211,-1.108 10.211,-7.606 0,-4.152 -0.643,-5.645 -2.795,-6.482 -1.418,-0.586 -4.164,-0.916 -7.416,-0.916 -8.742,-10e-4 -10.3,1.167 -10.3,7.731"
           style="fill:#ffffff;fill-opacity:1" /><path
           id="path4354"
           d="m 487.1,27.959 0,4.606 0.598,0 c 2.105,-3.901 5.355,-5.393 11.813,-5.393 9.246,0 12.359,3.122 12.359,12.343 l 0,2.078 -10.805,0 c 0,-4.551 -1.328,-5.783 -6.043,-5.783 -2.609,0 -4.762,0.783 -5.861,2.212 -1.098,1.493 -1.418,3.182 -1.418,7.922 l 0,12.731 -11.493,0 0,-30.716 10.85,0 z"
           style="fill:#ffffff;fill-opacity:1" /><path
           id="path4356"
           d="m 555.086,48.869 c -0.869,8.51 -5.082,10.594 -21.518,10.594 -8.881,0 -13.094,-0.787 -15.887,-2.865 -3.021,-2.271 -3.891,-5.334 -3.891,-13.191 0,-8.245 0.867,-11.299 4.119,-13.565 3.021,-2.079 6.822,-2.724 16.848,-2.724 10.348,0 14.01,0.646 16.803,2.912 2.701,2.275 3.756,5.718 3.756,12.667 0,0.389 0,1.812 -0.047,3.11 l -30.033,0 c 0,3.123 0.367,4.156 1.465,5.009 1.236,0.911 3.617,1.305 7.783,1.305 7.324,0 8.697,-0.522 9.156,-3.25 l 11.446,-0.002 0,0 z M 543.78,39.514 c -0.094,-2.403 -0.229,-2.984 -0.918,-3.703 -1.053,-1.108 -3.387,-1.558 -7.918,-1.558 -7.738,0 -9.568,0.976 -9.707,5.261 l 18.543,0 z"
           style="fill:#ffffff;fill-opacity:1" /></g></g></g></svg>