<?xml version="1.0" encoding="UTF-8" standalone="no"?>
<svg
   xmlns:dc="http://purl.org/dc/elements/1.1/"
   xmlns:cc="http://creativecommons.org/ns#"
   xmlns:rdf="http://www.w3.org/1999/02/22-rdf-syntax-ns#"
   xmlns:svg="http://www.w3.org/2000/svg"
   xmlns="http://www.w3.org/2000/svg"
   xml:space="preserve"
   enable-background="new 0 0 566.929 194.629"
   viewBox="0 0 182.95605 496.75471"
   height="496.7547"
   width="182.95605"
   y="0px"
   x="0px"
   id="Ebene_1"
   version="1.1"><metadata
     id="metadata35"><rdf:RDF><cc:Work
         rdf:about=""><dc:format>image/svg+xml</dc:format><dc:type
           rdf:resource="http://purl.org/dc/dcmitype/StillImage" /><dc:title></dc:title></cc:Work></rdf:RDF></metadata><defs
     id="defs33" /><g
     transform="translate(-192.12905,145.22632)"
     id="g3"><g
       transform="matrix(0,-1,1,0,180.45605,386.7581)"
       id="g4145"><path
         d="m 235.634,28.608 c 0,4.249 0.023,8.497 -0.009,12.745 -0.019,2.431 -0.391,2.779 -2.778,2.858 -0.754,0.026 -1.518,-0.061 -2.264,0.017 -2.171,0.227 -3.76,-0.682 -5.208,-2.246 -6.147,-6.639 -12.359,-13.217 -18.548,-19.817 -0.257,-0.274 -0.495,-0.577 -0.79,-0.804 -0.486,-0.375 -0.897,-0.287 -0.966,0.373 -0.067,0.654 -0.04,1.319 -0.04,1.98 -0.002,5.758 0.011,11.517 -0.006,17.275 -0.009,2.93 -0.293,3.187 -3.268,3.227 -4.516,0.061 -4.517,0.061 -4.518,-4.532 0,-7.741 0,-15.482 0,-23.223 0,-0.661 -0.005,-1.322 0.017,-1.982 0.032,-0.984 0.5,-1.656 1.527,-1.675 2.169,-0.042 4.353,-0.145 6.503,0.06 0.811,0.078 1.664,0.822 2.295,1.463 3.109,3.157 6.175,6.356 9.207,9.588 3.223,3.436 6.38,6.934 9.595,10.378 0.351,0.376 0.886,0.58 1.336,0.863 0.084,-0.536 0.24,-1.071 0.242,-1.607 0.018,-5.569 0.01,-11.139 0.011,-16.709 0,-0.661 -0.042,-1.326 0.02,-1.981 0.143,-1.522 0.592,-2.055 2.105,-2.082 6.506,-0.114 5.488,-0.327 5.532,5.069 0.029,3.588 0.006,7.175 0.005,10.762 z"
         id="path7" /><path
         d="m 65.123,26.365 c 2.169,0 4.339,0 6.509,0 1.274,0 1.906,0.631 1.905,1.909 -0.003,3.773 0.002,7.546 0,11.32 -0.001,1.461 -0.741,2.063 -2.176,2.492 -1.435,0.43 -5.864,1.337 -10.829,1.771 -4.965,0.434 -8.795,-0.173 -13.031,-1.387 -1.953,-0.56 -3.82,-1.573 -5.58,-2.627 -8.726,-5.224 -9.135,-17.327 0.058,-23.458 3.592,-2.396 7.572,-3.568 11.829,-4.267 4.734,-0.778 9.369,-0.271 14.04,0.189 0.834,0.082 1.672,0.29 2.47,0.553 1.539,0.508 1.9,1.057 1.962,2.696 0.087,2.319 -0.571,2.805 -2.866,2.175 -5.256,-1.444 -10.581,-1.705 -15.907,-0.562 -2.693,0.578 -5.141,1.815 -7.147,3.8 -4.566,4.518 -3.834,12.207 1.559,15.691 2.246,1.451 4.702,2.139 7.446,2.298 2.74,0.159 3.197,0.159 5.942,-0.029 0.926,-0.063 1.845,-0.294 2.772,-0.412 1.285,-0.165 1.706,-0.907 1.688,-2.147 -0.095,-6.195 0.709,-5.074 -4.998,-5.188 -0.754,-0.015 -1.516,0.054 -2.262,-0.029 C 56.6,30.942 55.643,29.12 56.481,27.4 c 0.444,-0.911 1.242,-1.051 2.134,-1.046 2.17,0.01 4.339,0.003 6.509,0.003 -10e-4,0.002 -10e-4,0.005 -10e-4,0.008 z"
         id="path9" /><path
         d="m 122.558,28.121 c 0,-3.966 -0.01,-7.934 0.002,-11.9 0.011,-3.258 0.193,-3.458 3.31,-3.466 6.233,-0.015 12.467,-0.024 18.7,0.006 2.303,0.011 2.605,0.328 2.651,2.308 0.05,2.187 -0.32,2.604 -2.616,2.626 -3.777,0.037 -7.556,-0.004 -11.333,0.016 -2.562,0.015 -2.569,0.037 -2.611,2.475 -0.02,1.133 -0.029,2.268 0.003,3.4 0.059,2.092 0.118,2.17 2.323,2.19 3.494,0.031 6.989,-0.02 10.483,0.02 2.348,0.026 3.42,1.852 2.432,4.017 -0.45,0.984 -1.341,0.917 -2.181,0.921 -2.928,0.016 -5.856,0.008 -8.784,0.008 -0.661,0 -1.323,-0.015 -1.983,0.003 -2.185,0.06 -2.239,0.101 -2.291,2.228 -0.033,1.321 -0.033,2.645 0,3.966 0.047,1.953 0.064,1.988 2.133,2.003 3.778,0.027 7.555,0.007 11.333,0.007 0.566,0 1.134,-0.024 1.7,0.007 2.029,0.11 2.5,0.595 2.523,2.552 0.024,2.124 -0.446,2.68 -2.658,2.692 -6.705,0.039 -13.411,0.038 -20.117,10e-4 -2.406,-0.013 -2.986,-0.614 -3.009,-3.048 -0.039,-4.342 -0.01,-8.687 -0.01,-13.032 z"
         id="path11" /><path
         d="m 287.481,28.15 c 0,-4.155 -0.024,-8.312 0.009,-12.467 0.021,-2.555 0.391,-2.916 2.992,-2.925 6.327,-0.023 12.655,-0.027 18.982,0.003 2.414,0.011 3.455,1.711 2.521,3.959 -0.416,1.003 -1.293,0.979 -2.144,0.979 -3.399,0.012 -6.801,0.002 -10.2,0.008 -4.527,0.009 -4.046,-0.385 -4.056,4.15 -0.013,4.318 -0.354,3.917 3.994,3.927 3.021,0.006 6.045,-0.006 9.065,0.009 0.841,0.004 1.933,-0.103 2.126,0.934 0.2,1.065 0.168,2.264 -0.143,3.29 -0.121,0.4 -1.27,0.672 -1.959,0.69 -2.83,0.077 -5.666,0.034 -8.498,0.035 -0.565,0 -1.135,-0.004 -1.699,0 -2.861,0.022 -2.866,0.022 -2.893,2.767 -0.011,1.228 -0.035,2.457 0.008,3.684 0.062,1.665 0.093,1.728 1.817,1.744 3.966,0.037 7.933,0.011 11.899,0.013 0.66,0 1.328,-0.048 1.98,0.029 1.607,0.189 2.038,0.825 1.985,2.784 -0.047,1.728 -0.478,2.309 -2.063,2.419 -1.41,0.099 -2.832,0.033 -4.248,0.033 -5.385,0.002 -10.769,0.019 -16.149,-0.007 -2.78,-0.014 -3.31,-0.542 -3.326,-3.308 -0.023,-4.25 0,-8.5 0,-12.75 z"
         id="path13" /><path
         d="m 393.19,15.429 c -0.035,1.989 -0.528,2.503 -2.38,1.932 -3.604,-1.113 -7.264,-1.025 -10.928,-0.752 -1.278,0.096 -2.611,0.471 -3.762,1.039 -2.391,1.181 -2.479,3.761 -0.176,5.097 1.455,0.844 3.072,1.413 4.639,2.056 3.131,1.287 6.299,2.48 9.396,3.839 1.102,0.483 2.172,1.199 3.023,2.043 3.231,3.204 2.752,7.135 -0.559,9.75 -2.615,2.067 -5.75,2.756 -8.929,3.191 -4.485,0.613 -8.968,0.356 -13.418,-0.442 -0.646,-0.116 -1.286,-0.284 -1.911,-0.484 -1.85,-0.594 -2.701,-2.418 -1.904,-4.204 0.152,-0.342 0.688,-0.723 1.043,-0.722 0.731,0.002 1.469,0.225 2.192,0.402 4.229,1.037 8.474,1.774 12.825,0.777 0.184,-0.042 0.382,-0.021 0.563,-0.071 1.754,-0.486 3.744,-0.982 4.022,-3.043 0.26,-1.925 -1.351,-2.988 -2.954,-3.692 -1.713,-0.753 -3.462,-1.444 -5.24,-2.028 -3.227,-1.061 -6.482,-2.104 -9.229,-4.14 -1.237,-0.917 -2.362,-2.23 -3.037,-3.609 -1.118,-2.285 -0.118,-5.136 2.003,-6.81 2.116,-1.67 4.554,-2.7 7.172,-3.167 5.036,-0.897 10.099,-0.987 15.155,-0.08 1.974,0.353 2.433,0.938 2.394,3.118 z"
         id="path15" /><path
         d="m 529.982,15.429 c -0.035,1.989 -0.527,2.503 -2.381,1.932 -3.602,-1.113 -7.262,-1.025 -10.928,-0.752 -1.277,0.096 -2.609,0.471 -3.76,1.039 -2.391,1.181 -2.48,3.761 -0.176,5.097 1.455,0.844 3.07,1.413 4.639,2.056 3.129,1.287 6.299,2.48 9.395,3.839 1.102,0.483 2.174,1.199 3.023,2.043 3.232,3.204 2.754,7.135 -0.557,9.75 -2.617,2.067 -5.75,2.756 -8.93,3.191 -4.484,0.613 -8.969,0.356 -13.418,-0.442 -0.646,-0.116 -1.285,-0.284 -1.91,-0.484 -1.85,-0.594 -2.701,-2.418 -1.904,-4.204 0.15,-0.342 0.686,-0.723 1.043,-0.722 0.73,0.002 1.469,0.225 2.191,0.402 4.229,1.037 8.475,1.774 12.826,0.777 0.184,-0.042 0.381,-0.021 0.561,-0.071 1.754,-0.486 3.746,-0.982 4.023,-3.043 0.262,-1.925 -1.352,-2.988 -2.953,-3.692 -1.713,-0.753 -3.463,-1.444 -5.24,-2.028 -3.229,-1.061 -6.484,-2.104 -9.229,-4.14 -1.238,-0.917 -2.363,-2.23 -3.037,-3.609 -1.117,-2.285 -0.119,-5.136 2.002,-6.81 2.117,-1.67 4.555,-2.7 7.172,-3.167 5.037,-0.897 10.1,-0.987 15.158,-0.08 1.97,0.353 2.429,0.938 2.39,3.118 z"
         id="path17" /><path
         d="m 452.875,12.766 c 1.98,0 3.965,-0.065 5.941,0.021 1.416,0.062 1.756,0.533 1.813,1.979 0.064,1.616 -0.291,2.097 -1.73,2.355 -2.326,0.417 -2.35,0.417 -2.355,2.749 -0.012,5.754 -0.012,11.509 0.002,17.263 0.004,2.036 0.029,2.036 2.035,2.396 1.652,0.296 2.09,0.818 2.047,2.443 -0.041,1.567 -0.561,2.187 -2.264,2.216 -3.771,0.066 -7.547,0.065 -11.318,-0.008 -1.545,-0.03 -2.039,-0.634 -2.129,-2.062 -0.102,-1.636 0.328,-2.223 1.898,-2.584 2.02,-0.464 2.051,-0.464 2.057,-2.468 0.018,-5.849 0.018,-11.697 0,-17.546 -0.008,-2.004 -0.043,-2.004 -2.146,-2.396 -1.533,-0.286 -1.852,-0.682 -1.811,-2.281 0.037,-1.568 0.396,-2.007 2.018,-2.067 1.98,-0.072 3.965,-0.017 5.943,-0.017 -10e-4,0.003 -10e-4,0.005 -10e-4,0.007 z"
         id="path19" /><path
         style="fill:#0084e2"
         d="m 341.373,193.968 c -2.26,-2.385 -8.34,-2.6 -9.285,-2.6 -42.588,0 -85.174,-0.002 -127.765,0.002 -4.329,0 -5.108,0.532 -4.578,-4.957 0.868,-8.979 4.167,-17.322 10.688,-23.765 1.249,-1.271 1.666,-1.7 4.52,-4.287 12.092,-10.957 36.182,-19.743 36.182,-19.743 0,0 20.159,-7.443 31.479,-11.898 5.085,-2 10.05,-4.309 14.578,-7.444 16.42,-12.944 7.894,-25.789 -13.755,-28.782 -15.163,-2.17 -28.978,1.533 -41.748,9.677 -1.667,1.064 -3.074,2.125 -4.684,3.281 -2.856,2.414 -5.307,5.229 -5.836,8.34 -0.286,1.68 -0.013,2.838 0.021,3.112 0.108,0.871 0.375,2.251 -0.272,2.884 -0.778,0.76 -2.394,-0.002 -3.111,-0.681 -6.58,-6.219 -13.172,-12.424 -19.759,-18.636 -0.412,-0.389 -1.173,-1.221 -1.173,-1.221 0,0 -0.72,-0.834 -0.745,-1.406 -0.029,-0.644 0.604,-1.249 1.36,-1.485 3.589,-0.661 5.245,-0.873 7.399,-2.448 5.797,-4.237 11.855,-8.025 18.325,-11.18 8.651,-4.219 17.747,-6.726 27.272,-8.01 7.325,-0.988 28.84,-4.338 53.973,6.837 6.629,2.907 12.313,7.024 16.597,12.831 2.536,3.437 12.095,22.281 -7.382,37.333 -6.963,5.588 -15.275,9.039 -23.674,11.972 -7.188,2.51 -12.465,4.396 -24.227,7.794 -8.931,2.658 -15.342,4.736 -25.563,9.585 -8.129,3.856 -13.465,8.543 -13.465,8.543 0,0 -2.662,2.053 -2.147,3.659 0.446,1.394 2.668,1.254 3.975,1.257 31.445,0.02 62.892,0.014 94.337,0.016 3.254,0 6.408,-0.229 8.893,-2.784 0.361,-0.373 1.318,-0.574 1.75,-0.357 0.414,0.207 0.703,1.061 0.707,1.633 0.049,7.365 0.051,14.893 0.008,22.258 -0.006,0.715 -0.241,0.971 -0.596,1.178 -0.538,0.313 -1.678,0.147 -2.299,-0.508 z"
         id="path21" /><path
         style="fill:#0084e2"
         d="m 107.1,193.042 c -5.159,-0.315 -10.332,-0.979 -15.427,-1.879 -20.739,-3.656 -30.385,-8.554 -36.174,-10.826 -2.766,-1.086 -5.47,-2.114 -8.476,-1.012 -0.343,0.127 -0.745,0.12 -1.121,0.127 -1.911,0.021 -2.496,-0.722 -1.666,-2.427 0.989,-2.032 2.148,-3.985 3.317,-5.926 3.167,-5.252 6.376,-10.479 9.57,-15.717 0.147,-0.24 0.315,-0.471 0.46,-0.715 0.651,-1.09 1.366,-2.1 2.858,-1.891 1.403,0.197 1.706,1.354 2,2.451 0.642,2.387 2.099,4.166 4.016,5.647 4.536,3.511 9.659,5.873 15.033,7.748 6.969,2.431 14.143,3.953 21.429,5.097 8.627,1.354 17.299,1.526 25.961,1.024 7.342,-0.427 14.576,-1.752 21.498,-4.457 4.213,-1.646 7.409,-4.552 9.968,-8.103 3.395,-4.711 2.004,-11.188 -2.622,-14.871 -6.284,-5.002 -13.592,-6.979 -21.333,-8.309 -6.96,-1.193 -13.912,-1.065 -20.879,-0.975 -3.271,0.043 -11.09,0.354 -14.087,3.135 -1.104,0.972 -1.979,1.045 -2.504,0.572 -0.525,-0.476 -0.548,-1.228 -0.554,-1.886 -0.059,-6.8 -0.066,-13.603 -0.021,-20.401 0.015,-2.227 1.054,-2.902 2.78,-1.693 2.18,1.527 4.599,2.195 7.125,2.519 4.196,0.539 17.892,0.063 20.69,-0.303 7.481,-0.978 6.828,-0.86 11.194,-2.03 4.673,-1.251 9.131,-4.531 11.458,-7.242 0.038,-0.043 0.076,-0.088 0.113,-0.133 3.244,-3.908 2.154,-8.406 -0.864,-11.626 -2.898,-3.091 -6.541,-5.07 -10.597,-6.267 -6.647,-1.96 -13.456,-3.032 -20.365,-2.707 -12.507,0.588 -24.774,2.497 -36.083,8.316 -2.589,1.332 -5.016,3.008 -7.407,4.686 -2.042,1.432 -3.07,3.531 -3.128,6.056 -0.03,1.313 0.18,2.815 -1.379,3.388 -1.573,0.578 -2.388,-0.791 -3.285,-1.701 -5.76,-5.852 -11.496,-11.727 -17.238,-17.598 -0.33,-0.337 -0.698,-0.658 -0.942,-1.053 -0.694,-1.123 -0.267,-2.054 1.063,-2.208 1.488,-0.172 3.082,0.063 4.464,-0.387 2.042,-0.665 3.952,-1.753 5.895,-2.707 5.165,-2.533 10.195,-5.386 15.502,-7.57 8.405,-3.458 17.25,-5.316 26.285,-6.437 8.648,-1.073 23.906,-1.519 34.944,0.111 7.378,1.115 14.691,2.597 21.539,5.649 6.041,2.692 11.94,5.698 16.45,10.779 3.26,3.672 5.449,7.775 6.183,12.751 0.704,4.77 -0.081,9.127 -2.12,13.406 -1.404,2.947 -3.504,4.856 -6.393,6.588 -5.668,3.399 -9.024,4.248 -9.741,4.685 -1.14,0.694 -1.19,1.618 -0.027,2.284 1.046,0.599 2.248,0.953 3.413,1.316 6.821,2.129 12.679,5.873 17.563,11.002 3.567,3.745 5.68,8.231 6.39,13.536 0.726,5.433 -0.549,10.236 -2.896,14.957 -1.827,3.675 -4.856,6.261 -8.043,8.605 -6.444,4.744 -13.622,7.955 -21.316,10.232 -5.727,1.693 -11.531,2.842 -17.409,3.619 -20.096,2.197 -30.361,1.059 -35.064,0.771 z"
         id="path23" /><path
         style="fill:#e50000"
         d="m 383.914,72.788 c 6.705,0 13.41,0 20.116,0.001 0.66,0 1.328,-0.05 1.981,0.028 1.494,0.178 1.725,0.81 0.787,2.032 -1.676,2.182 -1.662,2.417 0.246,4.435 0.063,0.069 0.133,0.134 0.199,0.201 9.356,9.465 18.715,18.931 28.074,28.396 0.465,0.47 0.902,0.98 1.438,1.361 0.939,0.676 1.945,0.69 2.869,-0.054 0.514,-0.412 0.969,-0.899 1.434,-1.369 9.24,-9.319 18.48,-18.64 27.719,-27.962 0.334,-0.335 0.682,-0.659 0.977,-1.026 1.232,-1.531 1.203,-2.073 0.053,-3.714 -1.035,-1.398 -1.035,-2.249 1.076,-2.302 0.461,-0.012 0.939,-0.026 1.412,-0.026 13.6,0 27.199,-0.003 40.799,0.005 0.844,0 1.711,-0.01 2.525,0.169 0.348,0.076 0.771,0.6 0.83,0.971 0.057,0.367 -0.199,1.01 -0.504,1.162 -0.918,0.461 -1.902,0.855 -2.906,1.075 -3.807,0.832 -6.908,2.712 -9.66,5.516 -11.838,12.063 -23.799,24.005 -35.695,36.012 -2.984,3.016 -5.918,6.092 -8.842,9.17 -1.85,1.946 -1.855,2.863 0.021,4.782 3.295,3.36 6.68,6.632 9.959,10.007 2.43,2.5 4.688,5.17 7.137,7.648 6.508,6.582 13.096,13.082 19.613,19.653 4.387,4.422 8.736,8.881 13.047,13.377 2.482,2.593 5.373,4.401 8.861,5.293 1.271,0.322 2.514,0.806 3.715,1.338 0.326,0.146 0.666,0.763 0.617,1.109 -0.051,0.356 -0.516,0.813 -0.891,0.932 -0.613,0.193 -1.301,0.195 -1.955,0.195 -13.883,0.01 -27.766,0.008 -41.648,0.002 -0.563,0 -1.15,0.012 -1.684,-0.14 -0.883,-0.252 -1.217,-0.784 -0.67,-1.7 0.459,-0.771 1.186,-1.648 1.102,-2.402 -0.092,-0.801 -0.914,-1.588 -1.559,-2.243 -10.768,-10.99 -21.557,-21.96 -32.342,-32.933 -0.396,-0.404 -0.795,-0.808 -1.203,-1.201 -2.383,-2.303 -3.256,-2.332 -5.643,0.043 -6.896,6.858 -13.799,13.715 -20.631,20.64 -4.438,4.498 -8.764,9.108 -13.129,13.679 -1.646,1.722 -1.645,1.831 -0.396,4.114 0.713,1.305 0.445,1.879 -1.045,2.092 -0.646,0.094 -1.316,0.057 -1.979,0.057 -13.41,0.002 -26.82,0.018 -40.23,-0.023 -1.205,-0.004 -3.222,0.324 -3.326,-1.143 -0.211,-1.533 1.641,-1.611 2.729,-1.867 4.883,-1.143 8.612,-3.928 12.065,-7.471 11.008,-11.291 22.199,-22.398 33.279,-33.619 3.439,-3.484 6.729,-7.119 10.127,-10.645 1.311,-1.355 2.764,-2.568 4.104,-3.896 2.799,-2.778 2.81,-3.517 0.117,-6.237 -8.166,-8.259 -16.348,-16.498 -24.508,-24.761 -6.633,-6.715 -13.291,-13.408 -19.84,-20.205 -2.521,-2.617 -5.482,-4.244 -8.967,-5.059 -0.643,-0.15 -1.273,-0.349 -1.904,-0.544 -0.896,-0.277 -2.004,-0.489 -1.881,-1.71 0.125,-1.243 1.217,-1.243 2.188,-1.241 0.568,10e-4 1.135,-0.002 1.701,-0.002 6.708,0 13.415,0 20.121,0 z"
         id="path25" /><polygon
         style="fill:#ffffff"
         points="522.324,37.567 522.201,37.697 522.242,37.74 "
         id="polygon27" /><polygon
         style="fill:#ffffff"
         points="522.06,37.822 522.242,37.74 522.201,37.697 "
         id="polygon29" /></g></g></svg>