<?xml version="1.0" encoding="UTF-8" standalone="no"?>
<svg
   xmlns:dc="http://purl.org/dc/elements/1.1/"
   xmlns:cc="http://creativecommons.org/ns#"
   xmlns:rdf="http://www.w3.org/1999/02/22-rdf-syntax-ns#"
   xmlns:svg="http://www.w3.org/2000/svg"
   xmlns="http://www.w3.org/2000/svg"
   xml:space="preserve"
   enable-background="new 0 0 567.429 113.032"
   viewBox="0 0 113.03199 567.42897"
   height="567.42896"
   width="113.032"
   y="0px"
   x="0px"
   id="svg2"
   version="1.1"><metadata
     id="metadata18"><rdf:RDF><cc:Work
         rdf:about=""><dc:format>image/svg+xml</dc:format><dc:type
           rdf:resource="http://purl.org/dc/dcmitype/StillImage" /><dc:title></dc:title></cc:Work></rdf:RDF></metadata><defs
     id="defs16" /><g
     transform="matrix(0,-1,1,0,0,567.679)"
     style="fill:#ffffff;fill-opacity:1"
     id="g3"><path
       style="fill:#ffffff;fill-opacity:1"
       d="m 165.884,28.918 0,28.77 0,28.769 5.039,0 5.039,0 0,-25.681 0,-25.681 6.186,0 c 4.461,0 6.475,0.12 7.233,0.437 1.496,0.625 3.036,2.529 3.667,4.521 0.331,1.047 0.604,3.313 0.701,5.831 0.2,5.154 -0.398,8.356 -1.971,10.433 -1.641,2.168 -2.645,2.51 -7.284,2.51 l -3.982,0 0,3.119 0,3.127 6.257,-0.121 6.258,-0.122 2.214,-1.046 c 4.045,-1.908 6.982,-5.811 8.167,-10.84 0.662,-2.808 0.652,-9.086 -0.021,-12.099 -0.646,-2.896 -1.991,-5.813 -3.504,-7.579 -0.633,-0.738 -1.857,-1.797 -2.712,-2.347 -2.933,-1.882 -4.062,-2.001 -18.356,-2.001 l -12.931,0 z m 44.535,0 0,28.77 0,28.769 5.038,0 5.039,0 0,-28.769 0,-28.77 -5.039,0 -5.038,0 z m 126.372,0 c -4.514,0.001 -9.158,0.16 -10.321,0.346 -2.622,0.418 -5.682,1.805 -7.415,3.372 -1.748,1.579 -3.238,3.949 -4.044,6.44 -0.501,1.548 -0.659,2.959 -0.68,5.933 -0.028,4.103 0.317,5.851 1.728,8.614 0.916,1.798 3.361,4.393 5.039,5.363 1.948,1.129 4.44,1.727 8.725,2.072 3.26,0.264 4.02,0.426 5.08,1.129 0.834,0.551 1.566,1.453 2.184,2.711 0.87,1.771 0.919,2.141 0.915,5.953 -0.004,3.801 -0.058,4.176 -0.896,5.771 -0.567,1.083 -1.385,2.032 -2.244,2.601 l -1.352,0.895 -8.563,0.102 -8.553,0.092 0,3.077 0,3.068 9.73,0 c 5.92,0 10.412,-0.146 11.459,-0.366 3.984,-0.839 7.299,-3.421 8.908,-6.938 1.357,-2.963 1.834,-6.008 1.656,-10.576 -0.186,-4.817 -0.9,-7.441 -2.824,-10.32 -2.389,-3.576 -5.063,-4.802 -11.854,-5.424 -2.513,-0.23 -5.086,-0.635 -5.72,-0.904 -1.397,-0.592 -2.704,-2.082 -3.28,-3.738 -0.57,-1.633 -0.561,-6.361 0.02,-8.359 0.572,-1.973 2.306,-3.79 4.135,-4.338 0.884,-0.266 3.852,-0.396 8.848,-0.396 l 7.528,0 0,-3.09 0,-3.088 -8.209,0 0,-0.002 z m 115.806,0 0,4.227 0,4.226 5.039,0 5.039,0 0,-4.226 0,-4.227 -5.039,0 -5.039,0 z m -96.902,6.502 0.104,20.723 c 0.09,20.399 0.104,20.754 0.803,22.604 0.389,1.033 1.225,2.58 1.857,3.443 1.293,1.76 2.973,2.994 5.1,3.738 1.023,0.359 2.76,0.498 6.064,0.51 l 4.633,0.02 0,-3.088 0,-3.088 -3.027,0 c -2.881,0 -3.072,-0.039 -3.891,-0.895 -0.508,-0.529 -1.006,-1.563 -1.207,-2.52 -0.221,-1.032 -0.313,-6.405 -0.256,-14.791 l 0.092,-13.164 5.445,-0.092 5.445,-0.092 0,-3.076 0,-3.08 -5.527,0 -5.525,0 0,-3.576 0,-3.576 -5.049,0 -5.061,0 0,0 z m 69.596,0 0,20.469 c 0,19.797 0.023,20.54 0.672,22.512 0.77,2.347 2.338,4.672 4.043,5.973 0.65,0.497 1.939,1.165 2.863,1.482 1.289,0.445 2.73,0.582 6.156,0.59 l 4.469,0.01 0,-3.088 0,-3.088 -2.885,0 c -2.41,0 -3.02,-0.104 -3.727,-0.662 -0.467,-0.365 -0.996,-1.205 -1.18,-1.868 -0.205,-0.739 -0.336,-6.584 -0.336,-15.106 l 0,-13.896 5.537,0 5.537,0 -0.092,-3.007 -0.092,-3.008 -5.445,-0.09 -5.443,-0.093 0,-3.565 0,-3.565 -5.039,0 -5.038,0 0,0 z m -8.889,7.069 -10.758,0.174 c -11.568,0.178 -12.766,0.32 -16.162,2.042 -3.799,1.925 -6.447,5.663 -7.648,10.788 -0.502,2.138 -0.59,3.979 -0.59,12.109 0,9.231 0.027,9.661 0.742,11.428 1.441,3.561 3.586,5.759 6.674,6.826 1.361,0.471 2.781,0.58 7.457,0.588 l 5.771,0.011 0,-3.089 0,-3.088 -4.043,0 c -3.828,0 -4.088,-0.047 -4.998,-0.813 -0.602,-0.505 -1.092,-1.35 -1.32,-2.255 -0.453,-1.794 -0.475,-15.937 -0.031,-19.362 0.631,-4.865 1.727,-7.146 4.014,-8.371 0.787,-0.42 2.145,-0.57 5.973,-0.67 l 4.957,-0.132 0,18.896 0,18.885 5.203,0 5.201,0 0,-12.141 c 0,-6.674 -0.105,-16.567 -0.225,-21.982 l -0.217,-9.844 z M 263.73,42.5 252.922,42.662 c -11.746,0.181 -13.433,0.396 -16.64,2.113 -3.725,1.994 -6.385,5.936 -7.508,11.123 -0.713,3.295 -1.047,16.791 -0.498,20.053 0.48,2.847 1.811,5.713 3.404,7.334 1.172,1.193 3.117,2.369 4.743,2.865 0.447,0.137 3.481,0.258 6.745,0.273 l 5.932,0.031 0,-3.088 0,-3.086 -4.154,0 c -4.686,0 -5.303,-0.221 -6.186,-2.235 -0.395,-0.897 -0.549,-2.662 -0.65,-7.416 -0.146,-6.756 0.324,-14.086 1.056,-16.519 0.657,-2.185 1.881,-3.863 3.321,-4.57 1.052,-0.516 2.019,-0.613 6.125,-0.62 l 4.875,-0.011 0.082,18.773 0.082,18.772 5.039,0 5.039,0 0,-21.981 0,-21.973 0.001,0 z m 10.85,0.071 c -2.928,0 -5.319,0.037 -5.313,0.082 0.004,0.045 3.346,9.857 7.426,21.811 l 7.416,21.738 -4.176,10.769 c -2.295,5.927 -4.175,10.819 -4.175,10.869 0,0.05 1.993,0.05 4.429,0 l 4.43,-0.091 12.951,-32.508 c 7.127,-17.879 12.963,-32.543 12.963,-32.588 0.002,-0.045 -2.102,-0.082 -4.684,-0.082 -3.404,0 -4.765,0.113 -4.947,0.408 -0.137,0.223 -2.627,6.543 -5.525,14.049 -2.898,7.504 -5.398,13.688 -5.566,13.744 -0.17,0.057 -2.471,-6.265 -5.109,-14.049 l -4.795,-14.152 -5.325,0 z m 178.017,0 0,21.942 0,21.942 5.039,0 5.039,0 0,-21.942 0,-21.942 -5.039,0 -5.039,0 z m 60.951,0.162 -0.094,21.861 0.012,0 -0.092,21.861 5.211,0 5.201,0 0,-18.884 0,-18.895 4.957,0.133 c 5.262,0.137 6.141,0.356 7.619,1.939 1.16,1.24 1.988,3.499 2.357,6.439 0.191,1.539 0.346,8.603 0.346,16.01 l 0,13.258 5.039,0 5.037,0 -0.01,-12.922 c -0.002,-13.704 -0.242,-16.956 -1.564,-20.672 -1.795,-5.053 -5.102,-8.049 -10.482,-9.508 -1.779,-0.483 -3.68,-0.567 -12.811,-0.59 l -10.726,-0.03 0,0 z m -25.478,0.092 c -2.842,0 -5.674,0.357 -7.709,1.057 -2.709,0.932 -4.41,2.023 -6.117,3.921 -1.852,2.06 -3.193,4.849 -3.98,8.259 -0.482,2.09 -0.596,3.844 -0.568,8.939 0.027,5.359 0.133,6.729 0.711,8.848 0.979,3.596 2.26,6.016 4.205,7.985 1.916,1.938 4.748,3.423 7.936,4.146 1.434,0.324 3.422,0.426 6.461,0.344 5.238,-0.139 7.73,-0.813 10.787,-2.904 2.563,-1.752 4.5,-4.516 5.598,-7.995 1.57,-4.968 1.846,-13.157 0.641,-19.2 -0.586,-2.936 -2.01,-6.119 -3.598,-8.056 -1.492,-1.821 -3.936,-3.418 -6.551,-4.287 -2.113,-0.7 -4.974,-1.057 -7.816,-1.057 l 0,0 z m 0.123,6.054 c 1.475,0 2.953,0.285 4.113,0.873 1.514,0.768 2.465,2.104 3.291,4.632 0.541,1.653 0.676,3.158 0.803,8.625 0.166,7.14 -0.162,10.505 -1.27,13.043 -0.781,1.792 -2.045,3.185 -3.434,3.779 -0.592,0.253 -2.156,0.446 -3.605,0.446 -2.055,0 -2.844,-0.145 -3.992,-0.75 -0.902,-0.478 -1.773,-1.295 -2.336,-2.205 -1.469,-2.371 -1.953,-5.48 -1.973,-12.484 -0.016,-6.667 0.328,-9.348 1.557,-12.059 0.416,-0.92 1.256,-2.043 1.879,-2.52 1.184,-0.903 3.07,-1.38 4.967,-1.38 l 0,0 z"
       id="path2998" /><path
       style="fill:#ffffff;fill-opacity:1"
       d="m 559.435,83.912 0.77,0 0,-2.835 1.756,0 c 0.48,0 0.795,0.078 0.938,0.232 0.139,0.148 0.229,0.493 0.268,1.032 l 0.068,0.836 c 0.012,0.159 0.029,0.292 0.055,0.399 0.023,0.115 0.063,0.228 0.117,0.335 l 0.807,0 0,-0.21 c -0.064,-0.057 -0.107,-0.125 -0.135,-0.204 -0.037,-0.095 -0.063,-0.212 -0.072,-0.351 l -0.07,-0.972 c -0.047,-0.472 -0.109,-0.796 -0.189,-0.972 -0.117,-0.264 -0.322,-0.422 -0.611,-0.477 0.309,-0.07 0.555,-0.244 0.742,-0.525 0.189,-0.285 0.283,-0.633 0.283,-1.039 0,-0.334 -0.068,-0.625 -0.207,-0.871 -0.145,-0.275 -0.352,-0.487 -0.617,-0.635 -0.217,-0.12 -0.477,-0.198 -0.777,-0.234 -0.201,-0.023 -0.508,-0.036 -0.914,-0.036 l -2.209,0 0,6.527 -0.003,0 z m 0.772,-3.537 0,-2.288 1.557,0 c 0.303,0 0.523,0.008 0.662,0.022 0.205,0.033 0.369,0.092 0.488,0.174 0.146,0.097 0.256,0.219 0.328,0.369 0.08,0.158 0.121,0.334 0.121,0.526 0,0.433 -0.121,0.739 -0.367,0.921 -0.246,0.184 -0.648,0.274 -1.207,0.274 l -1.582,0.002 0,0 z"
       id="path3775" /><path
       style="fill:#ffffff;fill-opacity:1;stroke:#000000;stroke-miterlimit:10"
       d="m 567.179,80.649 c 0,2.957 -2.398,5.356 -5.355,5.356 -2.959,0 -5.355,-2.397 -5.355,-5.356 0,-2.959 2.396,-5.356 5.355,-5.356 2.957,-0.001 5.355,2.397 5.355,5.356 z"
       stroke-miterlimit="10"
       id="path3004" /><g
       style="fill:#ffffff;fill-opacity:1"
       transform="translate(-61.6856,-312.868)"
       id="g8"><path
         style="fill:#ffffff;fill-opacity:1"
         d="m 142.207,336.374 -0.099,89.525 -23.986,-7.801 0,-105.23 30.618,8.096 c 19.599,5.267 31.592,15.507 31.398,33.45 -0.195,20.873 -9.849,29.258 -28.667,23.797 l 0,-41.155 c -0.002,-4.976 -9.264,-5.267 -9.264,-0.682 l 0,0 z"
         id="path7" /><path
         style="fill:#ffffff;fill-opacity:1"
         d="m 107.102,400.738 -11.311,3.804 c -7.314,2.537 -13.554,-3.412 -6.826,-5.853 l 5.46,-1.948 -20.575,-6.536 c -6.338,2.148 -12.288,6.73 -11.896,13.168 0.39,6.533 15.309,8.095 26.815,9.947 10.726,1.754 20.477,0.779 29.351,-2.342 l 0,-6.73 -11.018,-3.51 0,0 z m 35.2,25.162 20.965,-7.313 -21.16,-6.729 0,13.557 0.195,0.485 0,0 z"
         id="path9" /><path
         style="fill:#ffffff;fill-opacity:1"
         d="m 198.08,406.299 0.389,-0.099 c 9.167,-3.217 13.067,-7.707 12.092,-11.898 -1.56,-7.021 -12.773,-10.826 -30.033,-12.093 -12.384,-0.878 -24.572,1.853 -36.468,5.947 l -1.95,0.685 21.355,6.633 12.48,-4.197 c 13.067,-2.436 18.333,1.854 5.755,5.854 l -6.242,2.146 22.622,7.022 0,0 z m -79.958,-31.012 -9.459,3.217 9.459,2.925 0,-6.142 0,0 z"
         id="path11" /><path
         style="fill:#ffffff;fill-opacity:1"
         d="m 163.268,418.585 34.812,-12.286 -22.624,-7.022 -33.348,11.41 0,1.17 21.16,6.728 0,0 z m -45.146,-21.552 -11.019,3.705 11.019,3.512 0,-7.217 0,0 z m 23.985,5.756 0,-13.946 21.355,6.631 -21.355,7.315 0,0 z m -47.682,-6.047 23.696,-8.486 0,-6.826 -9.459,-2.926 -34.324,11.605 c -0.097,0 -0.292,0.096 -0.487,0.096 l 20.574,6.537 0,0 z"
         id="path13" /></g></g></svg>