<?xml version="1.0" encoding="UTF-8" standalone="no"?>
<!-- Created with Inkscape (http://www.inkscape.org/) -->

<svg
   xmlns:dc="http://purl.org/dc/elements/1.1/"
   xmlns:cc="http://creativecommons.org/ns#"
   xmlns:rdf="http://www.w3.org/1999/02/22-rdf-syntax-ns#"
   xmlns:svg="http://www.w3.org/2000/svg"
   xmlns="http://www.w3.org/2000/svg"
   xmlns:sodipodi="http://sodipodi.sourceforge.net/DTD/sodipodi-0.dtd"
   xmlns:inkscape="http://www.inkscape.org/namespaces/inkscape"
   width="267.17368mm"
   height="62.039669mm"
   viewBox="0 0 946.67838 219.8256"
   id="svg4159"
   version="1.1"
   inkscape:version="0.91 r13725"
   sodipodi:docname="retropie.svg">
  <defs
     id="defs4161" />
  <sodipodi:namedview
     id="base"
     pagecolor="#ffffff"
     bordercolor="#666666"
     borderopacity="1.0"
     inkscape:pageopacity="0.0"
     inkscape:pageshadow="2"
     inkscape:zoom="2"
     inkscape:cx="742.1957"
     inkscape:cy="181.31782"
     inkscape:document-units="px"
     inkscape:current-layer="layer1"
     showgrid="false"
     fit-margin-top="0"
     fit-margin-left="0"
     fit-margin-right="0"
     fit-margin-bottom="0" />
  <metadata
     id="metadata4164">
    <rdf:RDF>
      <cc:Work
         rdf:about="">
        <dc:format>image/svg+xml</dc:format>
        <dc:type
           rdf:resource="http://purl.org/dc/dcmitype/StillImage" />
        <dc:title></dc:title>
      </cc:Work>
    </rdf:RDF>
  </metadata>
  <g
     inkscape:label="Layer 1"
     inkscape:groupmode="layer"
     id="layer1"
     transform="translate(46.044646,-284.8401)">
    <g
       id="g4838"
       transform="translate(-30.053731,16.784024)">
      <path
         style="fill:#f4c224"
         d="M 51.297777,487.03818 C 34.751478,484.43347 25.086523,480.43327 17.107918,472.88744 10.442808,466.58385 9.5887,464.99355 2.439972,445.57648 -4.544041,426.6068 -5.098736,425.42901 -7.919029,423.58109 c -3.022856,-1.98066 -4.892303,-5.70506 -6.924527,-13.79538 -1.55028,-6.1717 -1.543853,-6.88895 0.106514,-11.88859 2.80198,-8.48834 10.225447,-15.71135 21.451329,-20.87207 8.268913,-3.80135 11.408963,-4.91094 19.030193,-6.72468 9.118213,-2.17 20.334367,-4.10836 25.969807,-4.48807 l 3.5,-0.23582 -0.0334,-8 c -0.0184,-4.4 -0.39449,-11.91635 -0.83586,-16.70299 l -0.80248,-8.703 -5.22368,-2.94806 c -10.785495,-6.08698 -16.952888,-16.66836 -16.976382,-29.1264 -0.01913,-10.14654 2.710514,-16.26606 10.452966,-23.43421 7.610016,-7.04553 13.230646,-8.98433 24.285926,-8.37726 9.93013,0.54529 15.15557,2.93657 21.87535,10.01065 5.12012,5.39009 8.75756,14.4369 8.75756,21.78127 0,11.28601 -7.24391,23.29873 -17.56062,29.12112 l -5.25275,2.96447 -0.70861,10.70721 c -0.38974,5.88896 -0.76923,13.4072 -0.84332,16.7072 l -0.1347,6 4,0.2325 c 10.80974,0.62832 32.814063,5.39503 38.710163,8.38564 2.04059,1.03502 4.20274,1.88186 4.80478,1.88186 2.43572,0 14.34129,8.12311 18.00372,12.28385 4.02818,4.57626 7.30101,12.23386 7.1878,16.81765 -0.15066,6.10021 -3.31591,13.77457 -7.26024,17.60295 -3.35781,3.25909 -5.00495,6.60114 -10.99774,22.31437 -3.87665,10.16465 -8.26346,20.24919 -9.74846,22.41008 -3.51659,5.11712 -12.78129,11.89659 -19.894913,14.55813 -12.6553,4.73496 -33.10807,6.96029 -45.72162,4.97467 z m 630.955273,-15.5658 c -1.4467,-1.4467 -1.57637,-8.37258 -1.32143,-70.58102 0.27438,-66.95358 0.33961,-69.01854 2.2238,-70.3959 2.71644,-1.98574 17.47502,-1.94964 20.11774,0.0492 2.70528,2.04617 4.40591,1.8951 10.60277,-0.94192 11.88801,-5.44251 28.62338,-5.5182 40.27879,-0.18218 10.73232,4.91342 23.04632,19.01675 26.57275,30.434 4.44532,14.39227 3.26283,33.59181 -2.85608,46.37287 -3.64238,7.60813 -11.3139,16.46713 -17.8769,20.6441 -11.28627,7.18304 -28.57208,8.73264 -42.2802,3.79023 -12.63507,-4.55552 -11.42291,-6.44476 -12,18.70286 -0.41069,17.89616 -0.76794,21.95724 -2,22.73469 -0.825,0.52059 -5.63036,0.95342 -10.67857,0.96184 -7.10507,0.0119 -9.54095,-0.34707 -10.78267,-1.58879 z m 58.46124,-63.56437 c 5.43536,-2.3278 12.40342,-8.87397 15.25518,-14.33153 1.44493,-2.76524 2.22841,-6.51847 2.53808,-12.15859 0.41731,-7.60054 0.22183,-8.64916 -2.85784,-15.33059 -4.88148,-10.59052 -13.00173,-16.82287 -23.2025,-17.80813 -6.47389,-0.62529 -16.58629,4.23174 -20.73527,9.95925 -11.93384,16.47419 -7.3127,40.3459 9.50235,49.08684 7.71951,4.01283 11.24486,4.11818 19.5,0.58275 z m -384.7671,24.05733 c -17.43656,-2.90438 -33.37573,-20.16011 -36.38362,-39.38886 -1.54302,-9.8642 -0.52608,-27.60139 1.98958,-34.70162 4.7344,-13.3624 12.2451,-22.02688 23.93083,-27.60702 l 7.73031,-3.69136 16,0 c 15.88877,0 16.04643,0.022 22.67961,3.16452 16.17489,7.66299 24.39126,21.19361 25.5415,42.06145 0.41234,7.4806 0.22409,10.63513 -0.70117,11.75 -1.08662,1.3093 -5.93634,1.52403 -34.41988,1.52403 -28.38944,0 -33.4745,0.22376 -35.37755,1.5567 -3.04505,2.13284 -2.78787,5.24687 0.89217,10.80271 4.69394,7.08656 15.49202,13.64059 22.47353,13.64059 5.53327,0 13.63772,-4.21621 19.44821,-10.11762 4.0596,-4.12311 6.55407,-5.88238 8.34065,-5.88238 3.15549,0 12.51079,3.60678 14.87293,5.73401 2.17392,1.95773 2.24581,6.41888 0.1738,10.78532 -2.30949,4.8669 -12.56057,14.19784 -18.64258,16.96922 -9.1335,4.16184 -25.3753,5.59452 -38.54832,3.40031 z m 31.44793,-67.50106 c 5.05702,-1.35627 3.2946,-6.07758 -4.50284,-12.06256 -5.76394,-4.42416 -13.06546,-5.84479 -19.7846,-3.84942 -5.51179,1.63682 -13.82467,8.15694 -14.95986,11.73361 -1.30758,4.11981 1.50666,4.79172 20.0076,4.77692 9.38238,-0.008 18.04024,-0.27686 19.2397,-0.59855 z m 215.42151,67.08503 c -2.96871,-0.82908 -7.9823,-3.0775 -11.14131,-4.9965 -6.58838,-4.00223 -17.01145,-14.69467 -19.96164,-20.47753 -3.23461,-6.34035 -4.96877,-15.74723 -4.98461,-27.0387 -0.0256,-18.2623 3.61026,-27.37994 15.52571,-38.93371 4.89148,-4.743 9.49023,-8.09439 14.10824,-10.28154 6.81359,-3.22701 6.93679,-3.24485 22.40313,-3.24485 l 15.55187,0 7.55631,3.73453 c 5.72697,2.83042 9.27549,5.54438 14.65756,11.2103 11.20375,11.79463 14.19259,19.70896 14.16762,37.51527 -0.0275,19.63435 -3.56136,28.52255 -16.13202,40.5749 -11.37513,10.9061 -15.80791,12.64793 -33.3532,13.10591 -9.41985,0.24588 -14.48649,-0.0758 -18.39766,-1.16808 z m 22.619,-21.98272 c 15.00711,-4.45663 24.6377,-23.58118 19.92248,-39.56233 -3.42615,-11.61215 -15.70712,-21.92778 -26.10547,-21.92778 -15.1791,0 -28.57461,14.48577 -28.66681,31 -0.0868,15.54492 13.71792,31.45964 27.69696,31.93035 1.13767,0.0383 4.35645,-0.6098 7.15284,-1.44024 z m 244.63556,22.5774 c -17.54542,-2.80768 -34.35736,-20.21655 -37.38671,-38.71417 -5.28368,-32.2628 8.40332,-59.30812 33.38,-65.95841 6.73128,-1.79227 25.63401,-1.77471 32.4138,0.0301 15.34309,4.08443 26.31661,16.1393 30.62135,33.63884 1.91271,7.77553 2.15384,20.99693 0.41466,22.73611 -0.88538,0.88538 -9.94794,1.2 -34.56574,1.2 -21.08751,0 -34.07753,0.38094 -35.3,1.03518 -6.72411,3.59864 4.57543,19.05798 17.18048,23.5053 5.52743,1.95019 7.77581,1.84655 14.49728,-0.66828 3.90276,-1.46021 7.37257,-3.81331 11.05926,-7.5 4.80918,-4.80918 5.81533,-5.37118 9.60046,-5.36243 4.88908,0.0113 14.12055,3.96418 15.07667,6.45578 1.89371,4.93493 -0.95077,10.97675 -8.5527,18.16633 -9.18731,8.68898 -16.02258,11.19247 -32.29571,11.82863 -6.05,0.23651 -13.3144,0.0597 -16.1431,-0.393 z m 32.07452,-68.39371 c 2.5948,-1.89736 1.33984,-4.82494 -4.13355,-9.64281 -4.25222,-3.74295 -11.94124,-7.03099 -16.44186,-7.03099 -4.46447,0 -12.83198,4.25026 -16.7627,8.51459 -7.7559,8.41417 -5.90593,9.41565 17.46556,9.455 13.46181,0.0227 18.52056,-0.30719 19.87255,-1.29579 z m -688.72656,65.55256 c -1.45335,-1.60593 -1.54986,-8.43731 -1.02071,-72.25 0.3648,-43.99297 0.95574,-70.94608 1.57258,-71.72636 1.24688,-1.57727 49.94546,-1.75241 59.74327,-0.21486 9.70322,1.52271 17.75,5.87374 24.7992,13.40936 8.84054,9.45056 10.43685,14.39801 10.02395,31.06722 -0.30557,12.33581 -0.49708,13.39782 -3.51949,19.51698 -3.7944,7.68213 -9.58748,13.6054 -17.79755,18.19752 -3.29664,1.84391 -6.14041,4.11339 -6.3195,5.0433 -0.17938,0.93145 5.87017,10.56926 13.47059,21.46062 19.75988,28.31579 20.3428,29.22698 20.3428,31.79892 0,4.53564 -2.28068,5.47139 -13.32143,5.46568 -7.97385,-0.004 -10.76537,-0.38319 -12.88767,-1.75 -1.49,-0.95961 -10.37343,-13.34183 -19.74096,-27.51605 -12.11218,-18.32724 -17.7754,-26.05401 -19.606,-26.75 -4.08826,-1.55436 -8.27799,-1.14464 -10.44394,1.02131 -1.89267,1.89267 -2,3.33333 -2,26.84501 0,29.9145 0.79203,28.15499 -12.67375,28.15499 -7.36271,0 -9.31065,-0.32528 -10.62139,-1.77364 z m 56.85075,-81.60006 c 9.12255,-4.24795 15.49889,-14.19178 14.05061,-21.91178 -0.8486,-4.52343 -5.6087,-11.03034 -10.34853,-14.14613 -5.12901,-3.37162 -10.91895,-4.51511 -23.00769,-4.54394 -14.69996,-0.0351 -14.25,-0.71317 -14.25,21.47555 0,22.5156 -0.76508,21.5038 16.25,21.49023 10.75363,-0.009 12.86755,-0.29733 17.30561,-2.36393 z m 185.87353,80.99293 c -2.78898,-1.29868 -6.45519,-4.04066 -8.14714,-6.09329 -5.41906,-6.57425 -6.282,-12.10941 -6.282,-40.29449 0,-16.29281 -0.39065,-25.99472 -1.11027,-27.57412 -1.37196,-3.01113 -4.81357,-4.65733 -9.73678,-4.65733 -5.41843,0 -6.15295,-1.25345 -6.15295,-10.5 0,-9.24655 0.73452,-10.5 6.15295,-10.5 4.92321,0 8.36482,-1.6462 9.73678,-4.65733 0.61065,-1.34022 1.11027,-7.0506 1.11027,-12.68972 0,-6.64118 0.42272,-10.67567 1.2,-11.45295 1.62796,-1.62796 18.97204,-1.62796 20.6,0 0.77728,0.77728 1.2,4.81177 1.2,11.45295 0,15.47164 1.55107,17.34705 14.34705,17.34705 4.30785,0 7.74022,0.48727 8.45295,1.2 0.7358,0.7358 1.2,4.33333 1.2,9.3 0,4.96667 -0.4642,8.5642 -1.2,9.3 -0.71273,0.71273 -4.1451,1.2 -8.45295,1.2 -8.29064,0 -11.65394,1.18337 -13.23678,4.65733 -0.69286,1.52067 -1.09381,9.46813 -1.0665,21.13972 0.0633,27.03477 2.31004,32.08544 14.76719,33.19626 5.45653,0.48656 5.75546,0.66259 7.52596,4.43181 1.01405,2.15881 2.08434,6.25639 2.37842,9.10573 0.78812,7.63612 -0.81117,8.47187 -16.18785,8.45938 -10.5301,-0.009 -12.6588,-0.30373 -17.09835,-2.371 z m 46.15176,0.47016 c -1.60975,-1.77875 -1.67894,-5.20053 -1.00253,-49.58104 0.59618,-39.11653 0.98117,-47.92503 2.14552,-49.08938 2.00549,-2.00549 17.16816,-1.96786 19.83498,0.0492 2.71806,2.05584 3.9766,1.90758 10.34146,-1.2182 5.10823,-2.50866 6.59392,-2.75 16.92869,-2.75 12.87719,0 14.17098,0.70121 14.17098,7.6804 0,4.31115 -3.29023,13.75219 -5.21928,14.97628 -0.7044,0.44698 -4.10767,0.81958 -7.56284,0.82801 -3.45516,0.008 -7.95516,0.71161 -10,1.56264 -4.56704,1.90075 -11.76867,8.74273 -14.15979,13.45267 -2.78428,5.48436 -3.22157,10.75339 -3.10264,37.38447 0.13491,30.20826 0.80035,28.61553 -11.95545,28.61553 -7.28451,0 -8.96968,-0.30902 -10.4191,-1.91061 z m 294.6191,-0.28939 c -1.72865,-1.72865 -1.72865,-96.87135 0,-98.6 1.62796,-1.62796 18.97204,-1.62796 20.6,0 1.72865,1.72865 1.72865,96.87135 0,98.6 -0.75751,0.75751 -4.55556,1.2 -10.3,1.2 -5.74444,0 -9.54249,-0.44249 -10.3,-1.2 z m 1.02507,-117.8042 c -4.03495,-2.46011 -5.22507,-5.42018 -5.22507,-12.9958 0,-7.57562 1.19012,-10.53569 5.22507,-12.9958 3.81821,-2.32796 13.77316,-2.73462 17.74491,-0.72489 4.30725,2.17949 7.03002,7.37646 7.03002,13.41823 0,10.2981 -5.06386,15.29498 -15.5,15.29498 -4.23662,0 -6.96249,-0.58683 -9.27493,-1.99672 z"
         id="path4846"
         inkscape:connector-curvature="0" />
      <path
         style="fill:#647bf5"
         d="M 52.016097,487.01595 C 33.219227,484.56886 17.391756,476.38085 10.780476,465.68358 9.709604,463.95087 5.84146,454.44294 2.184603,444.55484 c -5.384889,-14.56067 -7.276255,-18.54866 -9.949316,-20.97836 -3.953359,-3.59344 -4.672348,-5.00759 -6.944963,-13.65976 -1.720027,-6.5484 -1.713206,-6.75743 0.407911,-12.5 3.752832,-10.16018 8.783631,-14.27732 29.030405,-23.75809 3.032894,-1.42018 6.491099,-2.58215 7.6849,-2.58215 1.193801,0 3.378383,-0.45922 4.854626,-1.02048 2.81749,-1.07121 13.136288,-2.85278 22.446121,-3.87539 l 5.5,-0.60413 -0.0334,-8 c -0.0184,-4.4 -0.39555,-11.92903 -0.8382,-16.73118 l -0.80483,-8.73117 -5.85459,-3.55647 c -10.835929,-6.5825 -15.115405,-13.803 -15.764041,-26.59778 -0.394761,-7.78693 -0.169995,-9.21117 2.3343,-14.79149 3.504473,-7.809 11.305446,-15.2153 18.566301,-17.62697 7.74598,-2.5728 20.10444,-1.704 26.14884,1.83825 7.43214,4.35552 10.45189,7.42139 13.68759,13.8966 2.66109,5.32531 3.05803,7.17912 3.05803,14.28179 0,4.66592 -0.64778,10.05892 -1.51227,12.59028 -2.03735,5.96561 -8.60836,13.41476 -15.03062,17.03925 l -5.27048,2.97448 -0.70861,10.70721 c -0.38974,5.88896 -0.76923,13.4072 -0.84332,16.7072 l -0.1347,6 3.5,0.23582 c 10.89486,0.73408 32.231913,5.34993 38.565723,8.34294 2.23615,1.05668 4.76297,1.92124 5.61515,1.92124 0.85217,0 2.6226,0.83637 3.93427,1.8586 1.31167,1.02224 3.95986,2.66509 5.88486,3.65078 7.55153,3.86677 14.99727,15.45132 14.99919,23.33671 0.002,6.2351 -2.89603,13.85615 -6.45682,16.98256 -4.25433,3.73536 -4.09122,3.40671 -11.97073,24.12021 -8.52694,22.41549 -11.71236,26.82214 -23.98567,33.1813 -7.718033,3.99894 -13.020353,5.59162 -24.585973,7.38498 -10.25373,1.58994 -16.01416,1.68506 -25.69819,0.42433 z m 40.38309,-65.00608 c 4.096,-1.55194 7.3151,-4.92873 7.3151,-7.67345 0,-1.31528 0.453193,-3.23822 1.007093,-4.27319 0.77861,-1.45484 0.39977,-2.88722 -1.669823,-6.31356 -2.59847,-4.30195 -2.85504,-4.44931 -8.75708,-5.02965 -12.21878,-1.20145 -18.54252,2.41583 -19.26068,11.01742 -0.50104,6.00099 1.11581,9.2911 5.6944,11.58749 3.91705,1.96459 11.42726,2.29285 15.67099,0.68494 z m 589.853863,49.46251 c -1.4467,-1.4467 -1.57637,-8.37258 -1.32143,-70.58102 0.27438,-66.95358 0.33961,-69.01854 2.2238,-70.3959 2.71644,-1.98574 17.47502,-1.94964 20.11774,0.0492 2.70528,2.04617 4.40591,1.8951 10.60277,-0.94192 11.88801,-5.44251 28.62338,-5.5182 40.27879,-0.18218 10.73232,4.91342 23.04632,19.01675 26.57275,30.434 4.44532,14.39227 3.26283,33.59181 -2.85608,46.37287 -3.64238,7.60813 -11.3139,16.46713 -17.8769,20.6441 -11.28627,7.18304 -28.57208,8.73264 -42.2802,3.79023 -12.63507,-4.55552 -11.42291,-6.44476 -12,18.70286 -0.41069,17.89616 -0.76794,21.95724 -2,22.73469 -0.825,0.52059 -5.63036,0.95342 -10.67857,0.96184 -7.10507,0.0119 -9.54095,-0.34707 -10.78267,-1.58879 z m 58.46124,-63.56437 c 5.43536,-2.3278 12.40342,-8.87397 15.25518,-14.33153 1.44493,-2.76524 2.22841,-6.51847 2.53808,-12.15859 0.41731,-7.60054 0.22183,-8.64916 -2.85784,-15.33059 -4.88148,-10.59052 -13.00173,-16.82287 -23.2025,-17.80813 -6.47389,-0.62529 -16.58629,4.23174 -20.73527,9.95925 -11.93384,16.47419 -7.3127,40.3459 9.50235,49.08684 7.71951,4.01283 11.24486,4.11818 19.5,0.58275 z m -383.95733,24.09871 c -15.77801,-2.81444 -29.549,-15.24127 -35.23559,-31.79633 -1.94332,-5.65746 -2.28081,-8.69459 -2.2929,-20.63391 -0.0123,-12.18748 0.29642,-14.90626 2.38488,-21 5.93382,-17.3137 17.58564,-28.17524 33.8467,-31.55102 8.65145,-1.79603 27.43089,-0.75551 34.25424,1.89794 16.70195,6.49503 26.62598,22.11305 27.77158,43.70572 0.40358,7.60673 0.20918,9.32374 -1.21707,10.75 -1.5279,1.52789 -4.99164,1.69736 -34.69168,1.69736 -20.83147,0 -33.70735,0.3816 -34.92857,1.03518 -2.79875,1.49785 -2.42821,5.79438 0.96057,11.13793 3.51837,5.5479 8.3145,9.33864 15.05681,11.90051 6.44565,2.44916 8.6431,2.41895 15.76085,-0.21667 4.09914,-1.51786 7.30337,-3.69631 10.98369,-7.46744 2.8579,-2.92841 6.25726,-5.5907 7.55413,-5.9162 2.83933,-0.71262 13.19175,2.96875 15.86449,5.64149 6.81928,6.81928 -7.65813,24.43951 -24.1148,29.34974 -6.66198,1.98775 -24.45555,2.80384 -31.95733,1.4657 z m 32.38875,-68.25644 c 2.53947,-1.8569 1.40154,-4.65128 -3.87457,-9.51463 -4.09823,-3.77762 -11.99934,-7.15917 -16.72762,-7.15917 -4.00149,0 -12.43588,4.17896 -16.51567,8.18297 -4.42891,4.34666 -5.21324,6.51735 -3.11356,8.61703 1.78853,1.78853 37.76721,1.67568 40.23142,-0.1262 z m 213.67092,67.79903 c -2.96871,-0.82908 -7.9823,-3.0775 -11.14131,-4.9965 -6.58838,-4.00223 -17.01145,-14.69467 -19.96164,-20.47753 -3.23461,-6.34035 -4.96877,-15.74723 -4.98461,-27.0387 -0.0256,-18.2623 3.61026,-27.37994 15.52571,-38.93371 4.89148,-4.743 9.49023,-8.09439 14.10824,-10.28154 6.81359,-3.22701 6.93679,-3.24485 22.40313,-3.24485 l 15.55187,0 7.55631,3.73453 c 5.72697,2.83042 9.27549,5.54438 14.65756,11.2103 11.20375,11.79463 14.19259,19.70896 14.16762,37.51527 -0.0275,19.63435 -3.56136,28.52255 -16.13202,40.5749 -11.37513,10.9061 -15.80791,12.64793 -33.3532,13.10591 -9.41985,0.24588 -14.48649,-0.0758 -18.39766,-1.16808 z m 22.619,-21.98272 c 15.00711,-4.45663 24.6377,-23.58118 19.92248,-39.56233 -3.42615,-11.61215 -15.70712,-21.92778 -26.10547,-21.92778 -15.1791,0 -28.57461,14.48577 -28.66681,31 -0.0868,15.54492 13.71792,31.45964 27.69696,31.93035 1.13767,0.0383 4.35645,-0.6098 7.15284,-1.44024 z m -412.01648,19.73625 c -1.45335,-1.60593 -1.54986,-8.43731 -1.02071,-72.25 0.3648,-43.99297 0.95574,-70.94608 1.57258,-71.72636 1.24688,-1.57727 49.94546,-1.75241 59.74327,-0.21486 9.70322,1.52271 17.75,5.87374 24.7992,13.40936 8.84054,9.45056 10.43685,14.39801 10.02395,31.06722 -0.30557,12.33581 -0.49708,13.39782 -3.51949,19.51698 -3.7944,7.68213 -9.58748,13.6054 -17.79755,18.19752 -3.29664,1.84391 -6.14041,4.11339 -6.3195,5.0433 -0.17938,0.93145 5.87017,10.56926 13.47059,21.46062 19.75988,28.31579 20.3428,29.22698 20.3428,31.79892 0,4.53564 -2.28068,5.47139 -13.32143,5.46568 -7.97385,-0.004 -10.76537,-0.38319 -12.88767,-1.75 -1.49,-0.95961 -10.37343,-13.34183 -19.74096,-27.51605 -12.11218,-18.32724 -17.7754,-26.05401 -19.606,-26.75 -4.08826,-1.55436 -8.27799,-1.14464 -10.44394,1.02131 -1.89267,1.89267 -2,3.33333 -2,26.84501 0,29.9145 0.79203,28.15499 -12.67375,28.15499 -7.36271,0 -9.31065,-0.32528 -10.62139,-1.77364 z m 56.85075,-81.60006 c 9.12255,-4.24795 15.49889,-14.19178 14.05061,-21.91178 -0.8486,-4.52343 -5.6087,-11.03034 -10.34853,-14.14613 -5.12901,-3.37162 -10.91895,-4.51511 -23.00769,-4.54394 -14.69996,-0.0351 -14.25,-0.71317 -14.25,21.47555 0,22.5156 -0.76508,21.5038 16.25,21.49023 10.75363,-0.009 12.86755,-0.29733 17.30561,-2.36393 z m 232.02529,81.46309 c -1.60975,-1.77875 -1.67894,-5.20053 -1.00253,-49.58104 0.59618,-39.11653 0.98117,-47.92503 2.14552,-49.08938 2.00549,-2.00549 17.16816,-1.96786 19.83498,0.0492 2.71806,2.05584 3.9766,1.90758 10.34146,-1.2182 5.10823,-2.50866 6.59392,-2.75 16.92869,-2.75 12.87719,0 14.17098,0.70121 14.17098,7.6804 0,4.31115 -3.29023,13.75219 -5.21928,14.97628 -0.7044,0.44698 -4.10767,0.81958 -7.56284,0.82801 -3.45516,0.008 -7.95516,0.71161 -10,1.56264 -4.56704,1.90075 -11.76867,8.74273 -14.15979,13.45267 -2.78428,5.48436 -3.22157,10.75339 -3.10264,37.38447 0.13491,30.20826 0.80035,28.61553 -11.95545,28.61553 -7.28451,0 -8.96968,-0.30902 -10.4191,-1.91061 z m 294.99053,-0.66082 c -1.38433,-1.38433 -1.57143,-7.20996 -1.57143,-48.92857 0,-41.71862 0.1871,-47.54424 1.57143,-48.92857 2.24171,-2.24171 17.61543,-2.24171 19.85714,0 1.38433,1.38433 1.57143,7.20995 1.57143,48.92857 0,41.71861 -0.1871,47.54424 -1.57143,48.92857 -1.17786,1.17786 -3.6645,1.57143 -9.92857,1.57143 -6.26407,0 -8.75071,-0.39357 -9.92857,-1.57143 z m 1.62666,-117.10138 c -1.81605,-0.89501 -3.95355,-2.88741 -4.75,-4.42757 -1.75357,-3.39103 -1.90354,-13.80591 -0.25103,-17.43278 2.69754,-5.92044 15.79178,-8.60046 22.38298,-4.58116 8.81055,5.37266 8.41862,21.42795 -0.6417,26.28705 -4.24841,2.27845 -12.28008,2.35255 -16.74025,0.15446 z"
         id="path4844"
         inkscape:connector-curvature="0" />
      <path
         style="fill:#ea503e"
         d="M 52.016097,487.01595 C 33.219227,484.56886 17.391756,476.38085 10.780476,465.68358 9.709604,463.95087 5.84146,454.44294 2.184603,444.55484 c -5.384889,-14.56067 -7.276255,-18.54866 -9.949316,-20.97836 -3.953359,-3.59344 -4.672348,-5.00759 -6.944963,-13.65976 -1.720027,-6.5484 -1.713206,-6.75743 0.407911,-12.5 3.752832,-10.16018 8.783631,-14.27732 29.030405,-23.75809 3.032894,-1.42018 6.302188,-2.58215 7.265098,-2.58215 0.96291,0 4.331451,-0.63834 7.485647,-1.41854 14.381461,-3.55728 24.546952,-4.5036 25.843462,-2.40581 0.39963,0.64661 1.05795,5.17591 1.46295,10.06511 0.81575,9.84794 2.38839,12.75924 6.89235,12.75924 5.1083,0 6.20371,-1.85083 7.14642,-12.07478 0.47799,-5.18387 1.08459,-9.98772 1.34801,-10.67522 0.59621,-1.55605 6.90017,-1.61788 14.98151,-0.14694 11.58482,2.10864 23.084253,5.06583 27.125923,6.9757 2.23615,1.05668 4.76297,1.92124 5.61515,1.92124 0.85217,0 2.6226,0.83637 3.93427,1.8586 1.31167,1.02224 3.95986,2.66509 5.88486,3.65078 7.55153,3.86677 14.99727,15.45132 14.99919,23.33671 0.002,6.2351 -2.89603,13.85615 -6.45682,16.98256 -4.25433,3.73536 -4.09122,3.40671 -11.97073,24.12021 -8.52694,22.41549 -11.71236,26.82214 -23.98567,33.1813 -7.718033,3.99894 -13.020353,5.59162 -24.585973,7.38498 -10.25373,1.58994 -16.01416,1.68506 -25.69819,0.42433 z m 40.38309,-65.00608 c 4.096,-1.55194 7.3151,-4.92873 7.3151,-7.67345 0,-1.31528 0.453193,-3.23822 1.007093,-4.27319 0.77861,-1.45484 0.39977,-2.88722 -1.669823,-6.31356 -2.59847,-4.30195 -2.85504,-4.44931 -8.75708,-5.02965 -12.21878,-1.20145 -18.54252,2.41583 -19.26068,11.01742 -0.50104,6.00099 1.11581,9.2911 5.6944,11.58749 3.91705,1.96459 11.42726,2.29285 15.67099,0.68494 z m 264.357773,9.99685 c -15.77801,-2.81444 -29.549,-15.24127 -35.23559,-31.79633 -1.94332,-5.65746 -2.28081,-8.69459 -2.2929,-20.63391 -0.0123,-12.18748 0.29642,-14.90626 2.38488,-21 5.93382,-17.3137 17.58564,-28.17524 33.8467,-31.55102 8.65145,-1.79603 27.43089,-0.75551 34.25424,1.89794 16.70195,6.49503 26.62598,22.11305 27.77158,43.70572 0.40358,7.60673 0.20918,9.32374 -1.21707,10.75 -1.5279,1.52789 -4.99164,1.69736 -34.69168,1.69736 -20.83147,0 -33.70735,0.3816 -34.92857,1.03518 -2.79875,1.49785 -2.42821,5.79438 0.96057,11.13793 3.51837,5.5479 8.3145,9.33864 15.05681,11.90051 6.44565,2.44916 8.6431,2.41895 15.76085,-0.21667 4.09914,-1.51786 7.30337,-3.69631 10.98369,-7.46744 2.8579,-2.92841 6.25726,-5.5907 7.55413,-5.9162 2.83933,-0.71262 13.19175,2.96875 15.86449,5.64149 6.81928,6.81928 -7.65813,24.43951 -24.1148,29.34974 -6.66198,1.98775 -24.45555,2.80384 -31.95733,1.4657 z m 32.38875,-68.25644 c 2.53947,-1.8569 1.40154,-4.65128 -3.87457,-9.51463 -4.09823,-3.77762 -11.99934,-7.15917 -16.72762,-7.15917 -4.00149,0 -12.43588,4.17896 -16.51567,8.18297 -4.42891,4.34666 -5.21324,6.51735 -3.11356,8.61703 1.78853,1.78853 37.76721,1.67568 40.23142,-0.1262 z m 213.67092,67.79903 c -2.96871,-0.82908 -7.9823,-3.0775 -11.14131,-4.9965 -6.58838,-4.00223 -17.01145,-14.69467 -19.96164,-20.47753 -3.23461,-6.34035 -4.96877,-15.74723 -4.98461,-27.0387 -0.0256,-18.2623 3.61026,-27.37994 15.52571,-38.93371 4.89148,-4.743 9.49023,-8.09439 14.10824,-10.28154 6.81359,-3.22701 6.93679,-3.24485 22.40313,-3.24485 l 15.55187,0 7.55631,3.73453 c 5.72697,2.83042 9.27549,5.54438 14.65756,11.2103 11.20375,11.79463 14.19259,19.70896 14.16762,37.51527 -0.0275,19.63435 -3.56136,28.52255 -16.13202,40.5749 -11.37513,10.9061 -15.80791,12.64793 -33.3532,13.10591 -9.41985,0.24588 -14.48649,-0.0758 -18.39766,-1.16808 z m 22.619,-21.98272 c 15.00711,-4.45663 24.6377,-23.58118 19.92248,-39.56233 -3.42615,-11.61215 -15.70712,-21.92778 -26.10547,-21.92778 -15.1791,0 -28.57461,14.48577 -28.66681,31 -0.0868,15.54492 13.71792,31.45964 27.69696,31.93035 1.13767,0.0383 4.35645,-0.6098 7.15284,-1.44024 z m 171.85009,18.93846 c -1.38433,-1.38433 -1.57143,-7.20996 -1.57143,-48.92857 0,-41.71862 0.1871,-47.54424 1.57143,-48.92857 2.24171,-2.24171 17.61543,-2.24171 19.85714,0 1.38433,1.38433 1.57143,7.20995 1.57143,48.92857 0,41.71861 -0.1871,47.54424 -1.57143,48.92857 -1.17786,1.17786 -3.6645,1.57143 -9.92857,1.57143 -6.26407,0 -8.75071,-0.39357 -9.92857,-1.57143 z M 55.628977,332.20865 c -5.52437,-1.17688 -15.0075,-8.02289 -18.637757,-13.45486 -4.083994,-6.1109 -5.264568,-10.4065 -5.270567,-19.17731 -0.0064,-9.2859 3.612065,-17.17343 10.873275,-23.70188 6.945839,-6.24491 12.900549,-8.16543 23.579549,-7.60493 6.61821,0.34737 9.11784,0.95493 12.79519,3.11 7.43214,4.35552 10.45189,7.42139 13.68759,13.8966 2.66109,5.32531 3.05803,7.17912 3.05803,14.28179 0,10.26254 -1.82718,15.71206 -7.40668,22.09027 -6.24323,7.13695 -12.62087,10.32932 -21.73531,10.87976 -4.0469,0.24439 -8.9714,0.10065 -10.94332,-0.31944 z M 798.91238,311.40367 c -1.81605,-0.89501 -3.95355,-2.88741 -4.75,-4.42757 -1.75357,-3.39103 -1.90354,-13.80591 -0.25103,-17.43278 2.69754,-5.92044 15.79178,-8.60046 22.38298,-4.58116 8.81055,5.37266 8.41862,21.42795 -0.6417,26.28705 -4.24841,2.27845 -12.28008,2.35255 -16.74025,0.15446 z"
         id="path4842"
         inkscape:connector-curvature="0" />
      <path
         style="fill:#6aaa52"
         d="m 602.81663,431.54931 c -2.96871,-0.82908 -7.9823,-3.0775 -11.14131,-4.9965 -6.58838,-4.00223 -17.01145,-14.69467 -19.96164,-20.47753 -3.23461,-6.34035 -4.96877,-15.74723 -4.98461,-27.0387 -0.0256,-18.2623 3.61026,-27.37994 15.52571,-38.93371 4.89148,-4.743 9.49023,-8.09439 14.10824,-10.28154 6.81359,-3.22701 6.93679,-3.24485 22.40313,-3.24485 l 15.55187,0 7.55631,3.73453 c 5.72697,2.83042 9.27549,5.54438 14.65756,11.2103 11.20375,11.79463 14.19259,19.70896 14.16762,37.51527 -0.0275,19.63435 -3.56136,28.52255 -16.13202,40.5749 -11.37513,10.9061 -15.80791,12.64793 -33.3532,13.10591 -9.41985,0.24588 -14.48649,-0.0758 -18.39766,-1.16808 z m 22.619,-21.98272 c 15.00711,-4.45663 24.6377,-23.58118 19.92248,-39.56233 -3.42615,-11.61215 -15.70712,-21.92778 -26.10547,-21.92778 -15.1791,0 -28.57461,14.48577 -28.66681,31 -0.0868,15.54492 13.71792,31.45964 27.69696,31.93035 1.13767,0.0383 4.35645,-0.6098 7.15284,-1.44024 z m -521.42843,-0.5054 c -5.260823,-2.11787 -9.008133,-12.91127 -6.263273,-18.0401 3.669403,-6.85633 22.271323,-6.85633 25.940723,0 1.60164,2.99269 1.24318,11.30551 -0.60105,13.93852 -3.0793,4.39631 -13.02985,6.53576 -19.0764,4.10158 z"
         id="path4840"
         inkscape:connector-curvature="0" />
    </g>
  </g>
</svg>
