<?xml version="1.0" encoding="UTF-8" standalone="no"?>
<svg
   xmlns:dc="http://purl.org/dc/elements/1.1/"
   xmlns:cc="http://creativecommons.org/ns#"
   xmlns:rdf="http://www.w3.org/1999/02/22-rdf-syntax-ns#"
   xmlns:svg="http://www.w3.org/2000/svg"
   xmlns="http://www.w3.org/2000/svg"
   xml:space="preserve"
   enable-background="new -1 -1 568.929 116.145"
   viewBox="-1 -1 90.365995 504.645"
   height="504.64499"
   width="90.365997"
   y="0px"
   x="0px"
   id="Layer_1"
   version="1.1"><metadata
     id="metadata236"><rdf:RDF><cc:Work
         rdf:about=""><dc:format>image/svg+xml</dc:format><dc:type
           rdf:resource="http://purl.org/dc/dcmitype/StillImage" /><dc:title></dc:title></cc:Work></rdf:RDF></metadata><defs
     id="defs234" /><g
     transform="translate(-237.7015,196.8175)"
     id="g3"><linearGradient
       gradientTransform="translate(-24.4248,-1406.4004)"
       y2="1515.9807"
       x2="308.14401"
       y1="1410.9641"
       x1="308.14401"
       gradientUnits="userSpaceOnUse"
       id="path14_1_"><stop
         id="stop10"
         style="stop-color:#D9DDE9"
         offset="0" /><stop
         id="stop12"
         style="stop-color:#777489"
         offset="0.39" /><stop
         id="stop14"
         style="stop-color:#D9DDE9"
         offset="0.98" /></linearGradient><g
       transform="matrix(0,-1,1,0,227.3795,336.3895)"
       id="g4252"><path
         id="path16"
         d="m 309.46,13.469 -7.131,21.726 3.521,0 7.146,-20.979 c 0.26,-0.959 1.043,-1.659 1.963,-1.659 0.931,0 1.713,0.7 1.974,1.659 l 6.041,17.746 -9.479,0 0,3.232 14.105,0 -7.132,-21.726 c -0.684,-2.396 -2.893,-4.146 -5.51,-4.146 -2.607,-10e-4 -4.812,1.749 -5.498,4.147 z m 4.178,13.492 1.248,-3.706 1.301,3.706 -2.549,0 z m -0.517,-10.638 -6.387,18.872 4.117,0 2.643,-7.822 0,3.697 8.295,0 -4.926,-14.747 c -0.25,-0.821 -0.996,-3.182 -1.873,-3.182 -0.881,0 -1.627,2.36 -1.869,3.182 l 0,0 z m -22.549,-2.885 12.344,0 0,-3.53 -12.639,0 c -3.408,0 -6.172,2.771 -6.172,6.18 l 0,12.936 c 0,3.409 2.764,6.172 6.172,6.172 l 12.639,0 0,-16.47 -9.992,0 0,3.234 6.461,0 0,9.702 -8.813,0 c -1.627,0 -2.936,-1.315 -2.936,-2.938 l 0,-12.35 c -0.002,-1.619 1.309,-2.936 2.936,-2.936 z m 2.351,9.406 0,3.531 2.055,0 0,0.882 -2.055,0 c -0.486,0 -0.883,-0.396 -0.883,-0.882 l 0,-7.648 c 0,-0.486 0.396,-0.883 0.883,-0.883 l 9.992,0 0,-3.524 -11.461,0 c -1.627,0 -2.945,1.316 -2.945,2.938 l 0,10.585 c 0,1.622 1.318,2.938 2.945,2.938 l 7.055,0 0,-7.938 -5.586,0.001 0,0 z m -22.631,-9.406 12.344,0 0,-3.53 -12.641,0 c -3.408,0 -6.17,2.771 -6.17,6.18 l 0,12.792 c 0,3.408 2.762,6.179 6.17,6.179 l 12.641,0 0,-3.531 -12.344,0 c -1.621,0 -2.938,-1.314 -2.938,-2.938 l 0,-12.214 c 0,-1.621 1.317,-2.938 2.938,-2.938 l 0,0 z m 9.695,8.523 0,-3.234 -8.227,0 c 0,-0.486 0.395,-0.883 0.883,-0.883 l 9.992,0 0,-3.524 -11.461,0 c -1.621,0 -2.936,1.316 -2.936,2.938 l 0,4.703 11.749,0 0,0 z m 0,1.179 0,3.234 -8.227,0 c 0,0.485 0.395,0.882 0.883,0.882 l 9.992,0 0,3.522 -11.461,0 c -1.621,0 -2.936,-1.314 -2.936,-2.938 l 0,-4.703 11.749,0.003 0,0 z m -30.203,4.407 -7.412,0 0,3.233 11.314,0 0.145,0 c 2.123,-0.076 3.82,-1.827 3.82,-3.966 0,-2.189 -1.773,-3.972 -3.965,-3.972 l -4.459,0 c -1.803,-0.686 -3.334,-2.474 -3.334,-4.559 0,-2.679 2.467,-4.848 5.145,-4.848 l 11.027,0 0,-3.528 -11.469,0 c -4.541,0 -8.225,3.69 -8.225,8.233 0,4.55 3.979,8.234 8.521,8.234 l 0,-0.038 0.023,0.038 2.625,0 c 0.32,0 0.586,0.259 0.586,0.586 0,0.326 -0.268,0.586 -0.586,0.586 l -3.756,0 0,0.001 z m 4.862,-9.993 7.42,0 0,-3.234 -11.316,0 -0.152,0 c -2.123,0.076 -3.818,1.827 -3.818,3.966 0,2.198 1.779,3.973 3.973,3.973 l 4.459,0 c 1.803,0.692 3.326,2.473 3.326,4.558 0,2.68 -2.465,4.849 -5.146,4.849 l -11.018,0 0,3.53 11.459,0 c 4.545,0 8.234,-3.683 8.234,-8.232 0,-4.543 -3.979,-8.234 -8.523,-8.234 l 0,0.046 -0.029,-0.045 -2.619,0 c -0.328,0 -0.586,-0.259 -0.586,-0.586 0,-0.319 0.258,-0.586 0.586,-0.586 l 3.75,-0.005 0,0 z"
         style="fill:#202066;fill-opacity:1" /><g
         id="g18"
         style="fill:#202066;fill-opacity:1"><linearGradient
           id="polygon37_2_"
           gradientUnits="userSpaceOnUse"
           x1="220.79491"
           y1="1450.0256"
           x2="270.3067"
           y2="1499.5374"
           gradientTransform="translate(-24.4248,-1406.4004)"><stop
             offset="0"
             style="stop-color:#D9DDE9"
             id="stop21" /><stop
             offset="0.39"
             style="stop-color:#777489"
             id="stop23" /><stop
             offset="0.98"
             style="stop-color:#D9DDE9"
             id="stop25" /></linearGradient><polygon
           id="polygon37"
           points="209.429,61.171 209.429,99.606 191.86,99.606 191.86,47.433 210.161,47.433 243.101,66.173 243.101,47.433 260.669,47.433 260.669,99.606 243.101,99.606 243.101,80.333 "
           style="fill:#202066;fill-opacity:1" /><linearGradient
           id="polygon37_3_"
           gradientUnits="userSpaceOnUse"
           x1="221.6904"
           y1="1450.804"
           x2="269.7215"
           y2="1498.8352"
           gradientTransform="translate(-24.4248,-1406.4004)"><stop
             offset="0"
             style="stop-color:#000000"
             id="stop29" /><stop
             offset="0.11"
             style="stop-color:#181C4E"
             id="stop31" /><stop
             offset="0.22"
             style="stop-color:#181818"
             id="stop33" /><stop
             offset="0.34"
             style="stop-color:#181C4E"
             id="stop35" /><stop
             offset="0.47"
             style="stop-color:#000000"
             id="stop37" /><stop
             offset="0.59"
             style="stop-color:#181C4E"
             id="stop39" /><stop
             offset="0.72"
             style="stop-color:#000000"
             id="stop41" /><stop
             offset="0.84"
             style="stop-color:#181C4E"
             id="stop43" /><stop
             offset="0.98"
             style="stop-color:#000000"
             id="stop45" /></linearGradient></g><g
         id="g48"
         style="fill:#202066;fill-opacity:1"><linearGradient
           id="rect58_2_"
           gradientUnits="userSpaceOnUse"
           x1="449.50931"
           y1="1461.4338"
           x2="499.7514"
           y2="1514.8802"
           gradientTransform="translate(-24.4248,-1406.4004)"><stop
             offset="0"
             style="stop-color:#D9DDE9"
             id="stop51" /><stop
             offset="0.39"
             style="stop-color:#777489"
             id="stop53" /><stop
             offset="0.98"
             style="stop-color:#D9DDE9"
             id="stop55" /></linearGradient><rect
           id="rect58"
           x="433.25101"
           y="47.179001"
           width="18.261999"
           height="52.508999"
           style="fill:#202066;fill-opacity:1" /><linearGradient
           id="rect58_3_"
           gradientUnits="userSpaceOnUse"
           x1="450.21039"
           y1="1462.1799"
           x2="498.41599"
           y2="1513.46"
           gradientTransform="translate(-24.4248,-1406.4004)"><stop
             offset="0"
             style="stop-color:#000000"
             id="stop59" /><stop
             offset="0.11"
             style="stop-color:#181C4E"
             id="stop61" /><stop
             offset="0.22"
             style="stop-color:#181818"
             id="stop63" /><stop
             offset="0.34"
             style="stop-color:#181C4E"
             id="stop65" /><stop
             offset="0.47"
             style="stop-color:#000000"
             id="stop67" /><stop
             offset="0.59"
             style="stop-color:#181C4E"
             id="stop69" /><stop
             offset="0.72"
             style="stop-color:#000000"
             id="stop71" /><stop
             offset="0.84"
             style="stop-color:#181C4E"
             id="stop73" /><stop
             offset="0.98"
             style="stop-color:#000000"
             id="stop75" /></linearGradient></g><g
         id="g78"
         style="fill:#202066;fill-opacity:1"><linearGradient
           id="polygon79_2_"
           gradientUnits="userSpaceOnUse"
           x1="300.49951"
           y1="1450.3645"
           x2="350.30829"
           y2="1500.1731"
           gradientTransform="translate(-24.4248,-1406.4004)"><stop
             offset="0"
             style="stop-color:#D9DDE9"
             id="stop81" /><stop
             offset="0.39"
             style="stop-color:#777489"
             id="stop83" /><stop
             offset="0.98"
             style="stop-color:#D9DDE9"
             id="stop85" /></linearGradient><polygon
           id="polygon79"
           points="309.669,78.684 290.917,78.684 290.917,89.186 339.673,89.186 322.421,99.688 272.915,99.688 272.915,59.182 290.917,47.179 338.173,47.179 320.921,57.68 290.917,57.68 290.917,68.182 326.921,68.182 "
           style="fill:#202066;fill-opacity:1" /><linearGradient
           id="polygon79_3_"
           gradientUnits="userSpaceOnUse"
           x1="301.6196"
           y1="1451.4602"
           x2="349.57809"
           y2="1499.4187"
           gradientTransform="translate(-24.4248,-1406.4004)"><stop
             offset="0"
             style="stop-color:#000000"
             id="stop89" /><stop
             offset="0.11"
             style="stop-color:#181C4E"
             id="stop91" /><stop
             offset="0.22"
             style="stop-color:#181818"
             id="stop93" /><stop
             offset="0.34"
             style="stop-color:#181C4E"
             id="stop95" /><stop
             offset="0.47"
             style="stop-color:#000000"
             id="stop97" /><stop
             offset="0.59"
             style="stop-color:#181C4E"
             id="stop99" /><stop
             offset="0.72"
             style="stop-color:#000000"
             id="stop101" /><stop
             offset="0.84"
             style="stop-color:#181C4E"
             id="stop103" /><stop
             offset="0.98"
             style="stop-color:#000000"
             id="stop105" /></linearGradient></g><g
         id="g108"
         style="fill:#202066;fill-opacity:1"><linearGradient
           id="polygon100_2_"
           gradientUnits="userSpaceOnUse"
           x1="141.2285"
           y1="1450.637"
           x2="190.76109"
           y2="1500.1694"
           gradientTransform="translate(-24.4248,-1406.4004)"><stop
             offset="0"
             style="stop-color:#D9DDE9"
             id="stop111" /><stop
             offset="0.39"
             style="stop-color:#777489"
             id="stop113" /><stop
             offset="0.98"
             style="stop-color:#D9DDE9"
             id="stop115" /></linearGradient><polygon
           id="polygon100"
           points="150.21,78.762 131.563,78.762 131.563,89.204 180.047,89.204 162.89,99.647 113.66,99.647 113.66,59.368 131.563,47.433 178.555,47.433 161.399,57.878 131.563,57.878 131.563,68.317 167.366,68.317 "
           style="fill:#202066;fill-opacity:1" /><linearGradient
           id="polygon100_3_"
           gradientUnits="userSpaceOnUse"
           x1="142.0806"
           y1="1451.468"
           x2="190.20641"
           y2="1499.5938"
           gradientTransform="translate(-24.4248,-1406.4004)"><stop
             offset="0"
             style="stop-color:#000000"
             id="stop119" /><stop
             offset="0.11"
             style="stop-color:#181C4E"
             id="stop121" /><stop
             offset="0.22"
             style="stop-color:#181818"
             id="stop123" /><stop
             offset="0.34"
             style="stop-color:#181C4E"
             id="stop125" /><stop
             offset="0.47"
             style="stop-color:#000000"
             id="stop127" /><stop
             offset="0.59"
             style="stop-color:#181C4E"
             id="stop129" /><stop
             offset="0.72"
             style="stop-color:#000000"
             id="stop131" /><stop
             offset="0.84"
             style="stop-color:#181C4E"
             id="stop133" /><stop
             offset="0.98"
             style="stop-color:#000000"
             id="stop135" /></linearGradient></g><g
         id="g138"
         style="fill:#202066;fill-opacity:1"><linearGradient
           id="polygon121_2_"
           gradientUnits="userSpaceOnUse"
           x1="64.992203"
           y1="1454.7668"
           x2="113.8675"
           y2="1503.6422"
           gradientTransform="translate(-24.4248,-1406.4004)"><stop
             offset="0"
             style="stop-color:#D9DDE9"
             id="stop141" /><stop
             offset="0.39"
             style="stop-color:#777489"
             id="stop143" /><stop
             offset="0.98"
             style="stop-color:#D9DDE9"
             id="stop145" /></linearGradient><polygon
           id="polygon121"
           points="47.47,57.882 47.47,89.219 81.048,89.219 81.048,76.534 60.155,76.534 77.317,66.089 98.958,66.089 98.958,87.727 81.048,99.667 29.562,99.667 29.562,59.372 47.47,47.433 101.942,47.433 84.779,57.882 "
           style="fill:#202066;fill-opacity:1" /><linearGradient
           id="polygon121_3_"
           gradientUnits="userSpaceOnUse"
           x1="65.686996"
           y1="1455.4641"
           x2="113.1985"
           y2="1502.9756"
           gradientTransform="translate(-24.4248,-1406.4004)"><stop
             offset="0"
             style="stop-color:#000000"
             id="stop149" /><stop
             offset="0.11"
             style="stop-color:#181C4E"
             id="stop151" /><stop
             offset="0.22"
             style="stop-color:#181818"
             id="stop153" /><stop
             offset="0.34"
             style="stop-color:#181C4E"
             id="stop155" /><stop
             offset="0.47"
             style="stop-color:#000000"
             id="stop157" /><stop
             offset="0.59"
             style="stop-color:#181C4E"
             id="stop159" /><stop
             offset="0.72"
             style="stop-color:#000000"
             id="stop161" /><stop
             offset="0.84"
             style="stop-color:#181C4E"
             id="stop163" /><stop
             offset="0.98"
             style="stop-color:#000000"
             id="stop165" /></linearGradient></g><g
         id="g168"
         style="fill:#202066;fill-opacity:1"><polygon
           points="402.304,89.034 402.304,78.382 350.558,78.382 350.558,57.835 368.06,47.179 422.851,47.179 405.349,57.835 369.582,57.835 369.582,67.725 422.089,67.725 422.089,89.034 404.587,99.688 350.558,99.688 368.06,89.034 "
           id="polygon170"
           style="fill:#202066;fill-opacity:1" /><linearGradient
           id="polygon142_2_"
           gradientUnits="userSpaceOnUse"
           x1="350.52289"
           y1="-651.39972"
           x2="422.81589"
           y2="-651.39972"
           gradientTransform="matrix(1,0,0,-1,0.0352,-577.9663)"><stop
             offset="0"
             style="stop-color:#D9DDE9"
             id="stop173" /><stop
             offset="0.39"
             style="stop-color:#777489"
             id="stop175" /><stop
             offset="0.98"
             style="stop-color:#D9DDE9"
             id="stop177" /></linearGradient><polygon
           id="polygon142"
           points="368.06,47.179 422.851,47.179 405.349,57.835 369.582,57.835 369.582,67.725 422.089,67.725 422.089,89.034 404.587,99.688 350.558,99.688 368.06,89.034 402.304,89.034 402.304,78.382 350.558,78.382 350.558,57.835 "
           style="fill:#202066;fill-opacity:1" /><linearGradient
           id="polygon142_3_"
           gradientUnits="userSpaceOnUse"
           x1="381.4263"
           y1="1450.1321"
           x2="430.44299"
           y2="1499.1486"
           gradientTransform="translate(-24.4248,-1406.4004)"><stop
             offset="0"
             style="stop-color:#000000"
             id="stop181" /><stop
             offset="0.11"
             style="stop-color:#181C4E"
             id="stop183" /><stop
             offset="0.22"
             style="stop-color:#181818"
             id="stop185" /><stop
             offset="0.34"
             style="stop-color:#181C4E"
             id="stop187" /><stop
             offset="0.47"
             style="stop-color:#000000"
             id="stop189" /><stop
             offset="0.59"
             style="stop-color:#181C4E"
             id="stop191" /><stop
             offset="0.72"
             style="stop-color:#000000"
             id="stop193" /><stop
             offset="0.84"
             style="stop-color:#181C4E"
             id="stop195" /><stop
             offset="0.98"
             style="stop-color:#000000"
             id="stop197" /></linearGradient></g><g
         id="g200"
         style="fill:#202066;fill-opacity:1"><polygon
           points="513.662,89.034 513.662,78.382 461.914,78.382 461.914,57.835 479.417,47.179 534.207,47.179 516.705,57.835 480.939,57.835 480.939,67.725 533.447,67.725 533.447,89.034 515.945,99.688 461.914,99.688 479.417,89.034 "
           id="polygon202"
           style="fill:#202066;fill-opacity:1" /><linearGradient
           id="polygon163_2_"
           gradientUnits="userSpaceOnUse"
           x1="491.6362"
           y1="1448.9846"
           x2="542.54639"
           y2="1499.8948"
           gradientTransform="translate(-24.4248,-1406.4004)"><stop
             offset="0"
             style="stop-color:#D9DDE9"
             id="stop205" /><stop
             offset="0.39"
             style="stop-color:#777489"
             id="stop207" /><stop
             offset="0.98"
             style="stop-color:#D9DDE9"
             id="stop209" /></linearGradient><polygon
           id="polygon163"
           points="479.417,47.179 534.207,47.179 516.705,57.835 480.939,57.835 480.939,67.725 533.447,67.725 533.447,89.034 515.945,99.688 461.914,99.688 479.417,89.034 513.662,89.034 513.662,78.382 461.914,78.382 461.914,57.835 "
           style="fill:#202066;fill-opacity:1" /><linearGradient
           id="polygon163_3_"
           gradientUnits="userSpaceOnUse"
           x1="492.78171"
           y1="1450.1321"
           x2="541.79901"
           y2="1499.1493"
           gradientTransform="translate(-24.4248,-1406.4004)"><stop
             offset="0"
             style="stop-color:#000000"
             id="stop213" /><stop
             offset="0.11"
             style="stop-color:#181C4E"
             id="stop215" /><stop
             offset="0.22"
             style="stop-color:#181818"
             id="stop217" /><stop
             offset="0.34"
             style="stop-color:#181C4E"
             id="stop219" /><stop
             offset="0.47"
             style="stop-color:#000000"
             id="stop221" /><stop
             offset="0.59"
             style="stop-color:#181C4E"
             id="stop223" /><stop
             offset="0.72"
             style="stop-color:#000000"
             id="stop225" /><stop
             offset="0.84"
             style="stop-color:#181C4E"
             id="stop227" /><stop
             offset="0.98"
             style="stop-color:#000000"
             id="stop229" /></linearGradient></g></g></g></svg>