<?xml version="1.0" encoding="UTF-8" standalone="no"?>
<svg
   xmlns:dc="http://purl.org/dc/elements/1.1/"
   xmlns:cc="http://creativecommons.org/ns#"
   xmlns:rdf="http://www.w3.org/1999/02/22-rdf-syntax-ns#"
   xmlns:svg="http://www.w3.org/2000/svg"
   xmlns="http://www.w3.org/2000/svg"
   viewBox="0 0 69.02588 519.25298"
   x="0px"
   y="0px"
   version="1.1"
   width="69.026001"
   height="519.25299"
   xml:space="preserve"
   enable-background="new 0 0 566.929 104.51"
   id="svg2"><defs
     id="defs20" /><metadata
     id="metadata36"><rdf:RDF><cc:Work
         rdf:about=""><dc:format>image/svg+xml</dc:format><dc:type
           rdf:resource="http://purl.org/dc/dcmitype/StillImage" /><dc:title></dc:title></cc:Work></rdf:RDF></metadata><g
     transform="matrix(0,-1,1,0,-17.742488,543.09)"
     id="Layer_1"><g
       id="g10"><polygon
         style="fill:#ff0000"
         points="432.61,68.958 384.13,86.539 432.92,86.539 451.48,76.296 "
         id="polygon12" /><polygon
         style="fill:#ff0000"
         points="470.4,47.377 457.36,52.681 387.34,18.221 444.93,18.221 521.62,57.097 491.54,57.097 "
         id="polygon14" /><g
         style="fill:#ffcc00"
         id="g8"><polygon
           points="494.6,36.031 543.09,18.458 494.3,18.458 475.75,28.693 "
           id="polygon16" /><polygon
           points="456.82,57.613 469.86,52.308 539.89,86.768 482.29,86.768 405.6,47.892 435.68,47.892 "
           id="polygon18" /><rect
           x="23.837"
           y="17.749001"
           width="38.174999"
           height="46.650002"
           id="rect20" /><rect
           x="23.837"
           y="70.110001"
           width="97.823997"
           height="14.281"
           id="rect22" /><polygon
           points="85.87,17.749 131.21,17.749 162.23,43.926 139.81,60.375 "
           id="polygon24" /><polygon
           points="248.12,17.749 214.72,17.749 145.53,62.967 143.14,62.967 143.14,84.392 178.93,84.392 178.93,62.967 "
           id="polygon26" /><polygon
           points="252.9,24.885 291.07,48.686 291.07,84.392 252.9,84.392 "
           id="polygon28" /><polygon
           points="358.36,17.742 358.36,64.613 288.69,17.749 257.67,17.749 355.5,84.392 376.97,84.392 376.97,17.742 "
           id="polygon30" /></g></g></g></svg>