<?xml version="1.0" encoding="UTF-8" standalone="no"?>
<svg
   xmlns:dc="http://purl.org/dc/elements/1.1/"
   xmlns:cc="http://creativecommons.org/ns#"
   xmlns:rdf="http://www.w3.org/1999/02/22-rdf-syntax-ns#"
   xmlns:svg="http://www.w3.org/2000/svg"
   xmlns="http://www.w3.org/2000/svg"
   xml:space="preserve"
   enable-background="new 0 0 566.929 87.964"
   viewBox="0 0 71.286808 344.35682"
   height="344.35681"
   width="71.286812"
   y="0px"
   x="0px"
   id="Ebene_1"
   version="1.1"><metadata
     id="metadata61"><rdf:RDF><cc:Work
         rdf:about=""><dc:format>image/svg+xml</dc:format><dc:type
           rdf:resource="http://purl.org/dc/dcmitype/StillImage" /><dc:title></dc:title></cc:Work></rdf:RDF></metadata><defs
     id="defs59" /><g
     transform="matrix(0.81916268,0,0,0.81916268,-136.40776,137.079)"
     id="g4569"><g
       transform="matrix(0,-1,1,0,167.02094,253.04495)"
       id="g4159"><path
         id="path3999-4"
         d="m 333.43068,86.023995 34.39609,0 51.67494,-86.0239913326731 -34.38444,0 L 333.43068,86.023995 Z"
         style="fill:#ffffff;fill-opacity:1;stroke:#ffffff;stroke-opacity:1" /><path
         id="path3912-8"
         d="m 134.99998,23.46875 0,46.875 28.125,0 c 8.74937,-1.435037 13.75295,-6.336474 15.65625,-14.0625 0.0175,-6.255304 0.003,-12.494669 0,-18.75 -1.9033,-7.726026 -6.90688,-12.627462 -15.65625,-14.0625 l -28.125,0 z m 11,9.40625 12.46875,0 c 3.9161,0.694632 7.63206,1.922577 9.40625,7.8125 l -0.0312,12.5 c -1.7896,5.881358 -5.4902,7.117868 -9.4063,7.8125 l -12.46875,0 0.0312,-28.125 z"
         style="fill:#ffffff;fill-opacity:1;stroke:#ffffff;stroke-width:1.11043465px;stroke-linecap:butt;stroke-linejoin:miter;stroke-opacity:1" /><path
         id="path3896"
         d="m 14.639798,70.353531 0,-35.925714 -14.07128834,0 -0.004331,-10.935179 43.77975934,0 -4.693319,10.935179 -10.943856,0.0043 0,35.921377 -14.066965,3.7e-5 z"
         style="fill:#ffffff;fill-opacity:1;stroke:#ffffff;stroke-width:1.11043465px;stroke-linecap:butt;stroke-linejoin:miter;stroke-opacity:1" /><path
         id="path3900"
         d="m 49.031233,23.5 -17.1875,46.84375 14.09375,0 5.4375,-17.15625 5.46875,7.8125 9.375,0 3.125,9.34375 14.1875,0 -17.3125,-46.84375 -17.1875,0 z m 8.53125,12.46875 5.53125,14.09375 -10.9375,0 5.40625,-14.09375 z"
         style="fill:#ffffff;fill-opacity:1;stroke:#ffffff;stroke-width:1.11043465px;stroke-linecap:butt;stroke-linejoin:miter;stroke-opacity:1" /><path
         id="path3908"
         d="m 84.95721,70.353531 0,-46.860893 17.22477,0 17.19456,34.380961 0,-34.380961 10.94367,0 -0.009,46.860893 -17.19202,0 -17.196758,-34.351152 -0.0044,34.351152 -10.960822,0 z"
         style="fill:#ffffff;fill-opacity:1;stroke:#ffffff;stroke-width:1.11043465px;stroke-linecap:butt;stroke-linejoin:miter;stroke-opacity:1" /><path
         id="path3991"
         d="m 191.27104,48.512593 -18.74565,-25.019955 14.05901,0 10.19528,15.597603 10.14621,-15.597603 15.60376,0 -18.80379,24.941709 0.0346,21.919184 -12.47726,0 -0.0122,-21.840938 z"
         style="fill:#ffffff;fill-opacity:1;stroke:#ffffff;stroke-width:1.11043465px;stroke-linecap:butt;stroke-linejoin:miter;stroke-opacity:1" /><path
         id="path3999-4-5"
         d="m 288.27612,86.023995 34.39609,0 L 374.34715,0 339.96271,0 288.27612,86.023995 Z"
         style="fill:#ffffff;fill-opacity:1;stroke:none" /><path
         id="path3999-4-5-7"
         d="m 243.12157,86.024002 34.39609,0 L 329.1926,3.6673269e-6 l -34.38444,0 L 243.12157,86.024002 Z"
         style="fill:#ffffff;fill-opacity:1;stroke:#ffffff;stroke-opacity:1" /></g></g><flowRoot
     transform="translate(-230.72102,124.83027)"
     style="font-style:normal;font-weight:normal;font-size:40px;line-height:125%;font-family:'Open Sans Light';-inkscape-font-specification:'Open Sans Light';letter-spacing:0px;word-spacing:0px;fill:#000000;fill-opacity:1;stroke:none"
     id="flowRoot4066"
     xml:space="preserve"><flowRegion
       id="flowRegion4068"><rect
         y="24.963997"
         x="377"
         height="41"
         width="185.5"
         id="rect4070" /></flowRegion><flowPara
       id="flowPara4072">Cooccc</flowPara></flowRoot><text
     id="text4074"
     y="169.66075"
     x="158.89481"
     style="font-style:normal;font-weight:normal;font-size:40px;line-height:125%;font-family:'Open Sans Light';-inkscape-font-specification:'Open Sans Light';letter-spacing:0px;word-spacing:0px;fill:#000000;fill-opacity:1;stroke:none"
     xml:space="preserve"><tspan
       style="font-style:normal;font-variant:normal;font-weight:normal;font-stretch:normal;font-family:Ebrima;-inkscape-font-specification:Ebrima"
       y="169.66075"
       x="158.89481"
       id="tspan4076" /></text>
</svg>