<?xml version="1.0" encoding="UTF-8" standalone="no"?>
<svg
   xmlns:dc="http://purl.org/dc/elements/1.1/"
   xmlns:cc="http://creativecommons.org/ns#"
   xmlns:rdf="http://www.w3.org/1999/02/22-rdf-syntax-ns#"
   xmlns:svg="http://www.w3.org/2000/svg"
   xmlns="http://www.w3.org/2000/svg"
   x="0px"
   y="0px"
   version="1.1"
   width="165.92113"
   viewBox="0 0 165.92201 564.69046"
   height="564.69727"
   xml:space="preserve"
   enable-background="new 0 0 564.703 165.918"
   id="svg2"><defs
     id="defs17" /><metadata
     id="metadata25"><rdf:RDF><cc:Work
         rdf:about=""><dc:format>image/svg+xml</dc:format><dc:type
           rdf:resource="http://purl.org/dc/dcmitype/StillImage" /><dc:title></dc:title></cc:Work></rdf:RDF></metadata><g
     style="fill:#ffffff"
     transform="matrix(0,-1,1,0,0,564.70356)"
     id="g4"><path
       d="m 92.609,29.581 c 6.181,-6.782 9.402,-16.306 9.846,-29.116 L 102.465,0 102.01,0.093 C 80.298,4.534 69.087,18.14 68.684,40.532 l -0.008,0.436 0.431,-0.067 c 10.341,-1.619 18.025,-5.323 23.492,-11.32 z"
       id="path5" /><path
       d="m 17.902,144.76 0.399,0.574 c 3.588,5.176 7.703,10.211 12.229,14.971 3.447,3.623 8.938,5.617 15.46,5.617 4.78,0 9.736,-1.124 12.935,-2.934 6.618,-3.74 10.125,-3.748 12.685,-3.752 0.514,0 0.994,-0.002 1.456,-0.029 l 0.418,-0.027 c 0.554,-0.035 1.126,-0.074 1.771,-0.074 2.27,0 5.66,0.445 11.823,3.928 4.301,1.804 8.472,2.717 12.397,2.717 l 0.002,0 c 10.686,0 20.056,-6.688 28.644,-20.43 l 0.351,-0.561 -110.57,0 0.002,-0.01 z"
       id="path7" /><path
       d="m 129.74,59.003 c 1.429,-1.424 2.969,-2.828 4.623,-4.208 l 0.277,-0.231 -0.228,-0.281 C 126.357,44.347 115.327,38.989 102.515,38.787 l -0.587,-0.003 c -6.493,0 -12.235,1.217 -16.604,3.519 -5.666,2.984 -9.88,3.646 -9.921,3.652 -0.074,0.01 -0.538,0.028 -1.81,0.028 -1.544,0 -2.877,-0.025 -3.037,-0.048 L 70.454,45.922 C 68.637,45.687 64.006,44.925 60.252,42.924 55.15,40.204 49.466,38.765 43.815,38.765 l -0.372,0.002 C 28.501,38.934 16.01,46.215 8.249,59.003 l 121.5,0 z"
       id="path9" /><path
       d="m 117.21,80.245 c 1.47,-7.11 5.439,-14.013 11.911,-20.619 l 0.61,-0.623 -121.48,0 -0.108,0.177 C 4.42,65.358 1.954,72.504 0.783,80.244 l 116.43,0.001 z"
       id="path11" /><path
       d="m 120.06,101.23 c -2.938,-6.035 -4.381,-13.008 -2.919,-20.543 l 0.084,-0.437 -116.43,0 -0.042,0.31 c -0.985,6.711 -0.985,13.658 -0.074,20.668 l 119.39,0 z"
       id="path13" /><path
       d="m 6.393,123.24 133.06,0 0.779,-1.685 -0.32,-0.158 c -6.368,-3.153 -14.905,-10.055 -19.765,-19.967 l -0.101,-0.205 -119.37,0 0.055,0.414 c 0.812,6.09 2.472,13.46 5.668,21.61 z"
       id="path15" /><path
       d="m 17.904,144.76 110.56,0 c 4.221,-6.841 7.701,-14.373 10.758,-20.992 l 0.24,-0.52 -133.05,0 0.201,0.502 c 2.912,7.26 6.689,14.28 11.293,21.01 z"
       id="path17" /><path
       d="m 373.91,38.527 0,78.112 18.555,0 0,-78.113 -18.55,0 z m 122.69,0 0,10.493 10.902,0 c 1.352,0 2.447,1.127 2.447,2.516 l 0,52.112 c 0,1.391 -1.104,2.516 -2.447,2.516 l -10.902,0 0,10.514 29.365,0 0,-78.153 -29.36,0 z m 38.52,0 0,78.151 29.367,0 0,-10.514 -10.902,0 c -1.354,0 -2.447,-1.125 -2.447,-2.516 l 0,-52.114 c 0,-1.389 1.094,-2.516 2.447,-2.516 l 10.902,0 0,-10.493 -29.37,0 z M 157.16,57.298 c -8.841,0 -16.031,2.907 -22.043,8.88 -6.054,6.016 -8.912,12.669 -8.912,20.426 0,7.646 3.015,14.395 9.423,20.705 6.392,6.299 13.492,9.33 21.751,9.33 l 11.962,0 0,-13.74 -4.931,0 c -4.734,0 -8.978,-1.547 -12.291,-4.563 -3.312,-3.014 -5.113,-7.059 -5.113,-11.525 0,-4.512 1.764,-8.574 5.041,-11.471 3.258,-2.883 7.441,-4.298 12.145,-4.298 l 12.948,0 c 1.352,0 2.447,1.125 2.447,2.514 l 0,43.083 18.555,0 0,-59.342 -41,0 z m 53.16,0 0,78.114 18.573,0 0,-61.855 c 0,-1.389 1.096,-2.514 2.447,-2.514 l 12.053,0 c 5.064,0 9.608,1.756 13.167,5.162 3.29,3.152 5.131,7.128 5.131,11.433 0,4.451 -1.977,8.449 -5.534,11.205 -3.511,2.724 -7.878,4.058 -12.765,4.058 l -4.255,0 0,13.74 12.51,0 c 8.708,0 15.867,-2.806 21.916,-8.521 6.044,-5.714 8.93,-12.373 8.93,-20.576 0,-8.5 -2.894,-15.452 -8.913,-21.4 -6.027,-5.957 -13.029,-8.843 -21.477,-8.843 l -41.79,-0.003 z m 81.8,0 0,78.114 18.555,0 0,-61.855 c 0,-1.389 1.1,-2.514 2.447,-2.514 l 12.071,0 c 5.063,0 9.606,1.756 13.166,5.162 3.292,3.152 5.132,7.128 5.132,11.433 0,4.457 -1.998,8.453 -5.553,11.205 -3.507,2.72 -7.857,4.058 -12.745,4.058 l -4.256,0 0,13.74 12.51,0 c 8.707,0 15.847,-2.804 21.896,-8.521 6.045,-5.714 8.937,-12.373 8.937,-20.576 0,-8.5 -2.896,-15.452 -8.913,-21.4 -6.023,-5.958 -13.011,-8.843 -21.458,-8.843 l -41.8,-0.003 z m 146.64,0 c -9.93,0 -18.368,3.023 -25.695,9.144 -7.345,6.136 -10.72,12.707 -10.72,20.255 0,9.113 3.478,16.156 10.864,21.889 6.922,5.357 15.299,8.053 25.441,8.053 l 37.182,0 0,-13.74 -35.283,0 c -4.678,0 -8.898,-1.582 -12.234,-4.619 -3.357,-3.057 -5.188,-7.188 -5.188,-11.785 0,-4.388 1.764,-8.339 4.986,-11.189 3.25,-2.873 7.531,-4.26 12.436,-4.26 l 12.055,0 c 0.938,10e-4 1.791,0.553 2.197,1.419 0.408,0.867 0.299,1.896 -0.279,2.654 l -13.387,17.323 20.309,0 14.391,-19.708 0,-15.437 -37.07,0 z"
       id="path4012_1_" /><path
       d="m 373.69,38.42 0,78.566 18.993,0 0,-78.57 -18.99,0 z m 122.69,0 0,10.945 11.123,0 c 0.592,-0.001 1.16,0.239 1.578,0.668 0.418,0.43 0.652,1.015 0.65,1.623 l 0,52.113 c 0.002,0.604 -0.232,1.188 -0.65,1.621 -0.418,0.43 -0.986,0.67 -1.578,0.668 l -11.12,0 0,10.965 29.807,0 0,-78.6 -29.81,0 z m 38.52,0 0,78.604 29.805,0 0,-10.964 -11.121,0 c -0.592,0.002 -1.16,-0.238 -1.578,-0.668 -0.418,-0.433 -0.652,-1.015 -0.645,-1.621 l 0,-52.113 c -0.008,-0.608 0.229,-1.193 0.645,-1.623 0.418,-0.43 0.986,-0.67 1.578,-0.668 l 11.121,0 0,-10.946 -29.8,0 z M 157.16,57.194 c -8.891,0 -16.138,2.923 -22.189,8.936 -6.09,6.05 -8.985,12.775 -8.985,20.591 0,7.713 3.035,14.527 9.479,20.879 6.426,6.332 13.601,9.386 21.915,9.386 l 12.181,0 0,-14.188 -5.149,0 c -4.688,0 -8.873,-1.523 -12.145,-4.506 -3.271,-2.979 -5.041,-6.949 -5.041,-11.354 0,-4.458 1.735,-8.426 4.968,-11.286 3.214,-2.846 7.337,-4.263 11.998,-4.263 l 12.948,0 c 0.592,-10e-4 1.16,0.239 1.577,0.669 0.418,0.43 0.653,1.015 0.651,1.62 l 0,43.313 18.993,0 0,-59.796 -41.2,0 z m 52.94,0 0,78.564 19.012,0 0,-62.086 c -0.002,-0.605 0.232,-1.19 0.65,-1.62 0.418,-0.43 0.986,-0.67 1.577,-0.669 l 12.053,0 c 5.016,0 9.501,1.74 13.021,5.106 3.255,3.119 5.06,7.022 5.06,11.264 0,4.388 -1.951,8.302 -5.46,11.021 -3.47,2.688 -7.771,4.021 -12.62,4.021 l -4.475,0 0,14.189 12.729,0 c 8.756,0 15.991,-2.824 22.08,-8.582 6.084,-5.745 8.984,-12.479 8.984,-20.739 0,-8.559 -2.909,-15.583 -8.967,-21.569 -6.065,-5.995 -13.142,-8.899 -21.641,-8.899 l -42,-0.009 z m 81.8,0 0,78.564 18.993,0 0,-62.086 c -10e-4,-0.605 0.231,-1.19 0.649,-1.62 0.42,-0.43 0.983,-0.67 1.58,-0.669 l 12.066,0 c 5.02,0 9.501,1.74 13.021,5.106 3.254,3.119 5.06,7.022 5.061,11.264 -10e-4,4.396 -1.973,8.304 -5.479,11.021 -3.469,2.687 -7.754,4.021 -12.604,4.021 l -4.479,0 0,14.189 12.729,0 c 8.757,0 15.974,-2.822 22.062,-8.582 6.086,-5.745 8.984,-12.479 8.984,-20.739 0,-8.559 -2.906,-15.583 -8.967,-21.569 -6.064,-5.997 -13.124,-8.899 -21.623,-8.899 l -41.99,-0.009 z m 146.86,0 c -9.973,0 -18.477,3.027 -25.842,9.18 -7.381,6.166 -10.793,12.823 -10.793,20.442 0,9.178 3.506,16.309 10.938,22.078 6.964,5.387 15.402,8.092 25.588,8.092 l 37.398,0 0,-14.193 -35.51,0 c -4.633,0 -8.795,-1.561 -12.09,-4.561 -3.314,-3.021 -5.113,-7.082 -5.113,-11.623 0,-4.329 1.734,-8.188 4.912,-11 3.205,-2.834 7.428,-4.225 12.291,-4.225 l 12.055,0 c 0.855,-0.002 1.641,0.503 2.01,1.296 0.371,0.794 0.264,1.736 -0.273,2.422 l -13.662,17.685 20.875,0 14.502,-19.862 0,-15.728 -37.3,0 z"
       id="path4019_1_" /></g></svg>