<?xml version="1.0" encoding="UTF-8" standalone="no"?>
<svg
   xmlns:dc="http://purl.org/dc/elements/1.1/"
   xmlns:cc="http://creativecommons.org/ns#"
   xmlns:rdf="http://www.w3.org/1999/02/22-rdf-syntax-ns#"
   xmlns:svg="http://www.w3.org/2000/svg"
   xmlns="http://www.w3.org/2000/svg"
   xml:space="preserve"
   enable-background="new 0 0 566.929 458.929"
   viewBox="0 0 454.95833 562.95778"
   height="562.95776"
   width="454.95834"
   y="0px"
   x="0px"
   id="Ebene_1"
   version="1.1"><metadata
     id="metadata33"><rdf:RDF><cc:Work
         rdf:about=""><dc:format>image/svg+xml</dc:format><dc:type
           rdf:resource="http://purl.org/dc/dcmitype/StillImage" /><dc:title></dc:title></cc:Work></rdf:RDF></metadata><defs
     id="defs31" /><g
     transform="translate(-55.985715,52.014058)"
     id="g3"><g
       transform="matrix(0,-1,1,0,54.000062,512.92972)"
       id="g4140"><g
         id="g5"><path
           d="m 564.898,182.695 c 0.103,-1.35 0,-2.745 0,-3.875 0.015,-25.821 0.018,-51.642 -0.007,-77.463 -10e-4,-1.341 -0.074,-2.729 -0.417,-4.015 C 557.024,69.363 543.532,44.982 521.178,26.124 502.825,10.643 481.743,2.007 457.451,2.011 393.43,2.022 329.409,2.015 265.387,2.015 179.219,2.015 93.052,2.014 6.885,2.025 c -1.591,0 -3.182,-0.08 -4.898,0 0,19.744 0,39.258 0,58.69 1.204,0.469 2.251,0.942 3.338,1.29 7.92,2.53 15.849,5.035 23.776,7.545 79.821,25.273 159.644,50.542 239.464,75.823 37.698,11.939 75.383,23.919 113.091,35.826 2.366,0.747 4.884,1.441 7.333,1.444 57.348,0.081 114.696,0.064 172.045,0.052 1.128,0 2.515,0.104 3.864,0 z m -222.241,-3.722 c -51.406,-16.294 -102.396,-32.456 -154.027,-48.82 0,76.025 0,151.292 0,226.685 -22.218,11.208 -44.116,22.253 -65.864,33.224 0,22.504 0,44.586 0,66.882 89.945,0 179.608,0 269.52,0 0,-43.316 0,-86.366 0,-129.985 -16.6,0 -32.95,0 -49.629,0 0,-49.564 0,-98.559 0,-147.986 z m 17.448,17.717 c 0,38.089 0,75.92 0,114.012 68.267,0 136.274,0 204.543,0 0,-38.089 0,-75.92 0,-114.012 -68.267,0 -136.273,0 -204.543,0 z"
           id="path7"
           style="clip-rule:evenodd;fill:#ffffff;fill-opacity:1;fill-rule:evenodd" /></g><g
         id="g11"><path
           d="M 564.898,182.695 386.128,182.643 1.986,60.904 c 0,0 0,-39.136 0,-58.88 1.717,-0.08 177.233,-0.01 263.401,-0.01 64.021,0 128.043,0.007 192.064,-0.003 24.292,-0.004 45.374,8.632 63.727,24.113 22.354,18.858 35.846,43.239 43.296,71.218 0.343,1.286 0.416,2.673 0.417,4.015 0.025,25.822 0.007,81.338 0.007,81.338 z"
           id="path13"
           style="clip-rule:evenodd;fill:#ffffff;fill-opacity:1;fill-rule:evenodd" /></g><g
         id="g17"><path
           d="m 342.657,178.973 c 0,49.428 0,98.422 0,147.984 16.679,0 33.029,0 49.629,0 0,43.619 0,86.669 0,129.985 -89.912,0 -179.575,0 -269.52,0 0,-22.296 0,-44.378 0,-66.882 21.748,-10.971 43.646,-22.016 65.864,-33.224 0,-75.393 0,-150.66 0,-226.685 51.631,16.366 102.62,32.527 154.027,48.822 z"
           id="path19"
           style="clip-rule:evenodd;fill:#ffffff;fill-opacity:1;fill-rule:evenodd" /></g><g
         id="g23" /></g></g></svg>