<?xml version="1.0" encoding="UTF-8" standalone="no"?>
<svg
   xmlns:dc="http://purl.org/dc/elements/1.1/"
   xmlns:cc="http://creativecommons.org/ns#"
   xmlns:rdf="http://www.w3.org/1999/02/22-rdf-syntax-ns#"
   xmlns:svg="http://www.w3.org/2000/svg"
   xmlns="http://www.w3.org/2000/svg"
   x="0px"
   y="0px"
   version="1.1"
   width="454.95721"
   viewBox="0 0 454.95642 562.95551"
   height="562.95673"
   xml:space="preserve"
   enable-background="new 0 0 566.929 458.929"
   id="Ebene_1"><defs
     id="defs19" /><metadata
     id="metadata33"><rdf:RDF><cc:Work
         rdf:about=""><dc:format>image/svg+xml</dc:format><dc:type
           rdf:resource="http://purl.org/dc/dcmitype/StillImage" /><dc:title></dc:title></cc:Work></rdf:RDF></metadata><g
     transform="translate(-55.989688,52.019908)"
     id="g3"><g
       transform="matrix(0,-0.99999988,1.0000001,0,54.010035,512.92568)"
       id="g4139"><g
         id="g5"><path
           style="clip-rule:evenodd;fill:#cf8a61;fill-rule:evenodd"
           id="path7"
           d="m 564.9,182.7 c 0.103,-1.35 0,-2.745 0,-3.875 0.015,-25.821 0.018,-51.642 -0.007,-77.463 -10e-4,-1.341 -0.074,-2.729 -0.417,-4.015 C 557.026,69.368 543.534,44.987 521.18,26.129 502.827,10.648 481.745,2.012 457.453,2.016 c -64.01,0.008 -128.03,10e-4 -192.05,10e-4 -86.168,0 -172.34,-10e-4 -258.5,0.01 -1.591,0 -3.182,-0.08 -4.898,0 l 0,58.69 c 1.204,0.469 2.251,0.942 3.338,1.29 7.92,2.53 15.849,5.035 23.776,7.545 79.821,25.273 159.64,50.542 239.46,75.823 37.698,11.939 75.383,23.919 113.09,35.826 2.366,0.747 4.884,1.441 7.333,1.444 57.348,0.081 114.7,0.064 172.04,0.052 1.13,0.01 2.52,0.11 3.87,0.01 z M 342.66,178.97 C 291.254,162.676 240.26,146.514 188.63,130.15 l 0,226.68 c -22.218,11.208 -44.116,22.253 -65.864,33.224 l 0,66.882 269.52,0 0,-129.98 -49.629,0 0,-147.98 z m 17.44,17.72 0,114.01 204.54,0 0,-114.01 -204.54,0 z" /></g><g
         id="g11"><path
           style="clip-rule:evenodd;fill:#cf8a61;fill-rule:evenodd"
           id="path13"
           d="M 564.9,182.7 386.13,182.648 1.99,60.898 l 0,-58.88 c 1.717,-0.08 177.23,-0.01 263.4,-0.01 64.021,0 128.04,0.007 192.06,-0.003 24.292,-0.004 45.374,8.632 63.727,24.113 22.354,18.858 35.846,43.239 43.296,71.218 0.343,1.286 0.416,2.673 0.417,4.015 0.02,25.83 0,81.35 0,81.35 z" /></g><g
         id="g17"><path
           style="clip-rule:evenodd;fill:#cf8a61;fill-rule:evenodd"
           id="path19"
           d="m 342.66,178.97 0,147.98 49.629,0 0,129.98 -269.52,0 0,-66.882 c 21.748,-10.971 43.646,-22.016 65.864,-33.224 l 0,-226.68 c 51.63,16.37 102.62,32.53 154.03,48.82 z" /></g></g></g></svg>