<?xml version="1.0" encoding="UTF-8" standalone="no"?>
<svg
   xmlns:dc="http://purl.org/dc/elements/1.1/"
   xmlns:cc="http://creativecommons.org/ns#"
   xmlns:rdf="http://www.w3.org/1999/02/22-rdf-syntax-ns#"
   xmlns:svg="http://www.w3.org/2000/svg"
   xmlns="http://www.w3.org/2000/svg"
   xml:space="preserve"
   enable-background="new 0 0 566.929 178.654"
   viewBox="0 0 163.88099 553.64097"
   height="553.64099"
   width="163.881"
   y="0px"
   x="0px"
   id="Ebene_1"
   version="1.1"><metadata
     id="metadata26"><rdf:RDF><cc:Work
         rdf:about=""><dc:format>image/svg+xml</dc:format><dc:type
           rdf:resource="http://purl.org/dc/dcmitype/StillImage" /><dc:title></dc:title></cc:Work></rdf:RDF></metadata><defs
     id="defs24" /><g
     transform="translate(-202.262,187.499)"
     id="g3"><linearGradient
       gradientTransform="translate(-0.0947,-757.002)"
       y2="846.32373"
       x2="561.11768"
       y1="846.32373"
       x1="7.4766002"
       gradientUnits="userSpaceOnUse"
       id="SVGID_1_"><stop
         id="stop8"
         style="stop-color:#F090A7"
         offset="0" /><stop
         id="stop10"
         style="stop-color:#EF7B75"
         offset="0.1495" /><stop
         id="stop12"
         style="stop-color:#EE6E5E"
         offset="0.2564" /><stop
         id="stop14"
         style="stop-color:#FCE72C"
         offset="0.5894" /><stop
         id="stop16"
         style="stop-color:#ACDEE4"
         offset="0.8131" /><stop
         id="stop18"
         style="stop-color:#A3DDF2"
         offset="1" /></linearGradient><path
       style="fill:#ffffff;fill-opacity:1"
       id="path20"
       d="m 286.417,93.751 22.885,0 0,64.96 c 0,7.426 7.381,7.01 7.381,0 0,0 0,-28.543 0,-42.814 0,-33.358 49.458,-33.348 49.458,0 0,22.392 0,67.174 0,67.174 l -22.145,0 c 0,0 0,-42.814 0,-64.221 0,-7.687 -7.382,-7.166 -7.382,0 0,13.287 0,39.861 0,39.861 0,34.278 -50.197,34.157 -50.197,0 0,-21.653 0,-64.96 0,-64.96 z m 0,-149.115 0,-76.033 c 0,-13.646 10.596,-25.805 25.1,-25.836 l 54.625,0 0,27.313 -47.242,0 c -7.886,0 -9.484,4.689 -9.597,10.336 l 0,36.908 56.839,0 0,27.314 -79.725,0 0,-0.002 z m 22.234,71.603 c 0.043,7.258 4.6,10.336 10.246,10.336 l 14.764,0 c 6.133,0 10.334,-5.273 10.334,-10.336 l 0,-30.266 c 0,-3.59 -2.43,-9.598 -10.334,-9.598 l -14.764,0 c -4.968,0 -10.463,3.021 -10.427,9.598 l 0.181,30.266 z m -22.234,10.336 0,-50.936 c 0,-16.17 11.012,-26.574 24.359,-26.574 l 29.525,0 c 20.938,0 25.838,18.09 25.838,26.574 l 0,50.936 c 0,19.133 -15.396,27.313 -25.838,27.313 l -29.525,0 c -17.002,0 -24.359,-15.215 -24.359,-27.313 z m 0,59.793 0,-27.313 79.724,0 0,27.313 -79.724,0 z m 0,131.399 0,-27.313 79.724,0 0,27.313 -79.724,0 z m 0,124.016 0,-30.266 51.673,-29.527 -51.673,-34.695 0,-25.099 79.726,47.244 0,24.815 -79.726,47.528 z m -84.154,-243.604 0,-86.367 19.932,0 0,59.793 7.382,0 0,-59.793 19.932,0 0,59.793 c 7.327,0 10.334,-5.384 10.334,-11.072 l 0,-48.721 21.407,0 0,62.746 c 0,14.059 -11.67,23.724 -24.359,23.691 l -54.628,-0.07 z m 0,69.391 0,-26.575 47.244,0 c 6.786,0 10.404,-5.115 10.334,-11.073 l 0,-28.79 21.407,0 0,41.339 c 0,11.737 -5.275,25.098 -24.359,25.098 l -54.626,0.001 0,0 z m -0.001,-245.081 0,59.795 c 0,17.203 15.824,24.32 24.359,24.359 l 29.527,0 c 19.149,0 25.948,-15.754 25.837,-24.359 l 0,-59.795 -22.145,0 0,45.77 c 0,3.258 -2.411,11.072 -9.597,11.072 l -15.501,0 c -7.384,0 -10.335,-5.559 -10.335,-11.072 l 0,-45.77 -22.145,0 0,0 z m 22.235,-42.814 c 0.042,7.258 4.6,10.336 10.245,10.336 l 14.765,0 c 6.133,0 10.334,-5.273 10.334,-10.336 l 0,-30.266 c 0,-3.59 -2.431,-9.598 -10.334,-9.598 l -14.763,0 c -4.965,0 -10.463,3.025 -10.424,9.598 l 0.177,30.266 z m -22.234,10.336 0,-50.938 c 0,-16.166 11.012,-26.572 24.359,-26.572 l 29.527,0 c 20.938,0 25.837,18.09 25.837,26.572 l 0,50.938 c 0,19.131 -15.395,27.313 -25.837,27.313 l -29.527,0 c -17.001,-0.001 -24.359,-15.216 -24.359,-27.313 l 0,0 z m 22.234,349.902 c 0.043,7.257 4.6,10.334 10.246,10.334 l 14.765,0 c 6.133,0 10.334,-5.273 10.334,-10.334 l 0,-30.266 c 0,-3.588 -2.431,-9.596 -10.334,-9.596 l -14.764,0 c -4.965,0 -10.463,3.025 -10.424,9.596 l 0.177,30.266 z m -22.234,10.334 0,-50.935 c 0,-16.167 11.012,-26.576 24.359,-26.576 l 29.527,0 c 20.938,0 25.837,18.091 25.837,26.576 l 0,50.935 c 0,19.132 -15.395,26.575 -25.837,26.575 l -29.527,0 c -17.001,0 -24.359,-14.477 -24.359,-26.575 z m 0,31.742 0,59.793 c 0,17.204 15.824,24.321 24.359,24.36 l 29.527,0 c 19.149,0 25.948,-15.753 25.837,-24.36 l 0,-59.793 -22.144,0 0,46.506 c 0,3.256 -2.412,11.073 -9.597,11.073 l -15.501,0 c -7.384,0 -10.335,-5.559 -10.335,-11.073 l 0,-46.506 -22.146,0 z" /></g></svg>