<?xml version="1.0" encoding="UTF-8" standalone="no"?>
<svg
   xmlns:dc="http://purl.org/dc/elements/1.1/"
   xmlns:cc="http://creativecommons.org/ns#"
   xmlns:rdf="http://www.w3.org/1999/02/22-rdf-syntax-ns#"
   xmlns:svg="http://www.w3.org/2000/svg"
   xmlns="http://www.w3.org/2000/svg"
   xml:space="preserve"
   enable-background="new 0 0 566.929 98.441"
   viewBox="0 0 89.616995 566.92699"
   height="566.927"
   width="89.616997"
   y="0px"
   x="0px"
   id="Ebene_1"
   version="1.1"><metadata
     id="metadata30"><rdf:RDF><cc:Work
         rdf:about=""><dc:format>image/svg+xml</dc:format><dc:type
           rdf:resource="http://purl.org/dc/dcmitype/StillImage" /><dc:title></dc:title></cc:Work></rdf:RDF></metadata><defs
     id="defs28" /><g
     transform="matrix(0,-1,1,0,-8.826,566.927)"
     id="Ebene_1_1_"><g
       id="g4"><path
         id="path6"
         d="m 12,98.442 c -6.627,0 -12,-5.373 -12,-12 L 0,31.906 c 0,-6.628 5.373,-12 12,-12 6.627,0 12,5.371 12,12 l 0,54.535 c 0,6.628 -5.373,12.001 -12,12.001 z" /></g><path
       id="path8"
       d="m 174.735,48.034 -36.223,0 0,-6.528 36.223,0 c 5.964,0 10.799,-4.835 10.799,-10.799 0,-5.965 -4.835,-10.8 -10.799,-10.8 l -49.423,0 c -5.965,0 -10.8,4.835 -10.8,10.8 0,0.203 0,55.735 0,55.735 0,6.627 5.373,12 12,12 6.627,0 12,-5.373 12,-12 l 0,-16.81 36.223,0 c 5.964,0 10.799,-4.835 10.799,-10.8 0.001,-5.963 -4.834,-10.798 -10.799,-10.798 z" /><path
       id="path10"
       d="M 540.859,82.934 525.324,28.756 c -0.918,-3.207 -3.068,-5.724 -5.787,-7.196 -1.66,-1.041 -3.619,-1.652 -5.723,-1.652 l -57,0 c -0.373,0 -0.742,0.019 -1.105,0.056 -6.107,0.558 -10.895,5.688 -10.895,11.944 l 0,54.535 c 0,6.627 5.371,12 12,12 6.627,0 12,-5.373 12,-12 l 0,-44.937 5.314,0 0,44.937 c 0,6.627 5.373,12 12,12 6.625,0 11.998,-5.373 11.998,-12 l 0,-44.937 6.041,0 13.766,48.002 c 1.5,5.233 6.271,8.642 11.457,8.642 1.088,0 2.193,-0.149 3.293,-0.465 6.33,-1.817 9.992,-8.42 8.176,-14.751 z" /><path
       id="path12"
       d="m 250.508,19.907 -40.751,0 c -11.338,0 -20.615,9.276 -20.615,20.614 l 0,37.306 c 0,11.338 9.277,20.614 20.615,20.614 l 40.751,0 c 11.339,0 20.615,-9.276 20.615,-20.614 l 0,-37.305 c 0,-11.338 -9.276,-20.615 -20.615,-20.615 z m -2.65,53.848 c 0,1.32 -1.08,2.4 -2.4,2.4 l -30.652,0 c -1.32,0 -2.4,-1.08 -2.4,-2.4 l 0,-29.162 c 0,-1.32 1.08,-2.4 2.4,-2.4 l 30.652,0 c 1.32,0 2.4,1.08 2.4,2.4 l 0,29.162 z" /><path
       id="path14"
       d="m 419.321,19.907 -40.751,0 c -11.337,0 -20.615,9.276 -20.615,20.614 l 0,37.306 c 0,11.338 9.278,20.614 20.615,20.614 l 40.751,0 c 11.339,0 20.614,-9.276 20.614,-20.614 l 0,-37.305 c 0,-11.338 -9.275,-20.615 -20.614,-20.615 z m -2.65,53.848 c 0,1.32 -1.08,2.4 -2.399,2.4 l -30.651,0 c -1.32,0 -2.4,-1.08 -2.4,-2.4 l 0,-29.162 c 0,-1.32 1.08,-2.4 2.4,-2.4 l 30.651,0 c 1.319,0 2.399,1.08 2.399,2.4 l 0,29.162 z" /><path
       id="path16"
       d="m 105.464,19.907 -70.722,0 c -3.005,0 -5.441,2.436 -5.441,5.44 l 0,61.095 c 0,6.627 5.373,12 12,12 6.627,0 11.861,-5.373 11.861,-12 l 0,-41.859 c 0,-1.32 1.08,-2.4 2.4,-2.4 l 28.855,0 c 1.32,0 2.488,1.08 2.488,2.4 l 0,41.858 c 0,6.627 5.373,12 12,12 6.627,0 12,-5.373 12,-12 l 0,-45.455 0,-15.638 c 0,-3.005 -2.436,-5.441 -5.441,-5.441 z" /><path
       id="path18"
       d="m 345.042,76.156 -42.9,0 c -1.32,0 -2.4,-1.08 -2.4,-2.4 l 0,-29.163 c 0,-1.32 1.08,-2.4 2.4,-2.4 l 42.9,0 c 6.153,0 11.145,-4.988 11.145,-11.143 0,-6.155 -4.99,-11.144 -11.145,-11.144 l -15.545,0 -30.553,0 -2.566,0 c -11.279,0 -20.507,9.228 -20.507,20.507 l 0,37.521 c 0,11.278 9.228,20.507 20.507,20.507 l 2.566,0 30.553,0 15.545,0 c 6.153,0 11.145,-4.988 11.145,-11.144 0,-6.156 -4.991,-11.141 -11.145,-11.141 z" /><g
       id="g20"><path
         id="path22"
         d="m 541.027,11.729 -4.131,0 0,-2.903 11.752,0 0,2.903 -4.176,0 0,12.387 -3.445,0 0,-12.387 z" /><path
         id="path24"
         d="m 563.324,18.263 c -0.07,-1.838 -0.139,-4.038 -0.139,-6.285 l -0.045,0 c -0.5,1.951 -1.135,4.129 -1.725,5.921 l -1.859,5.967 -2.701,0 -1.633,-5.898 c -0.5,-1.814 -0.998,-3.97 -1.385,-5.989 l -0.045,0 c -0.066,2.065 -0.158,4.424 -0.248,6.33 l -0.297,5.809 -3.197,0 0.977,-15.29 4.604,0 1.496,5.127 c 0.5,1.747 0.955,3.651 1.295,5.444 l 0.09,0 c 0.408,-1.77 0.932,-3.766 1.451,-5.489 l 1.611,-5.082 4.539,0 0.814,15.29 -3.355,0 -0.248,-5.855 z" /></g></g></svg>