<?xml version="1.0" encoding="UTF-8" standalone="no"?>
<svg
   xmlns:dc="http://purl.org/dc/elements/1.1/"
   xmlns:cc="http://creativecommons.org/ns#"
   xmlns:rdf="http://www.w3.org/1999/02/22-rdf-syntax-ns#"
   xmlns:svg="http://www.w3.org/2000/svg"
   xmlns="http://www.w3.org/2000/svg"
   xml:space="preserve"
   enable-background="new 0 0 566.929 97.854"
   viewBox="0 0 97.853993 566.92904"
   height="566.92902"
   width="97.853996"
   y="0px"
   x="0px"
   id="Ebene_2"
   version="1.1"><metadata
     id="metadata107"><rdf:RDF><cc:Work
         rdf:about=""><dc:format>image/svg+xml</dc:format><dc:type
           rdf:resource="http://purl.org/dc/dcmitype/StillImage" /><dc:title></dc:title></cc:Work></rdf:RDF></metadata><defs
     id="defs105" /><g
     transform="matrix(0,-1,1,0,0,566.929)"
     id="g3"><path
       id="path5"
       d="M 90.931,60.036 57.737,40.1 72.492,40.092 c 9.917,0 17.957,-8.04 17.957,-17.957 l 0,-3.965 c 0,-9.917 -8.04,-17.957 -17.957,-17.957 l -72.465,0 0,59.907 11.551,0 0,-49.56 43.087,0 16.165,-0.012 c 4.777,0 8.649,3.873 8.649,8.649 l 0,1.91 c 0,4.776 -3.873,8.649 -8.649,8.649 l -50.389,0 50.415,30.28 20.075,0 z" /><path
       id="path7"
       d="m 11.578,10.56 43.087,0 16.165,-0.012" /><path
       id="path9"
       d="m 72.492,0.213 -72.465,0" /><polygon
       id="polygon11"
       points="143.374,60.12 198.012,60.12 236.769,60.108 236.769,49.772 154.925,49.772 154.925,10.56 198.012,10.56 236.769,10.548 236.769,0.213 143.374,0.213 " /><polygon
       id="polygon13"
       points="539.89,49.772 458.047,49.772 458.047,0.213 446.496,0.213 446.496,60.12 501.134,60.12 539.89,60.108 " /><polygon
       id="polygon15"
       points="162.728,24.993 221.418,24.993 221.418,35.328 162.728,35.34 " /><path
       style="fill:none;stroke:#000000;stroke-width:0.1;stroke-miterlimit:10"
       id="path17"
       d="M 326.284,0.986"
       stroke-miterlimit="10" /><polygon
       id="polygon19"
       points="364.022,34.509 331.321,34.509 320.401,44.845 320.401,44.845 375.657,44.845 392.531,59.834 408.094,59.834 340.735,0 277.603,59.834 292.628,59.834 340.962,14.025 " /><rect
       style="fill:#f01b20"
       id="rect21"
       height="19.004"
       width="19.004"
       y="19.406"
       x="109.409" /><rect
       style="fill:#23b14d"
       id="rect23"
       height="19.004"
       width="19.004"
       y="19.406"
       x="255.743" /><rect
       style="fill:#2993c3"
       id="rect25"
       height="19.004"
       width="19.004999"
       y="19.406"
       x="405.87799" /><rect
       x="0"
       id="rect27"
       height="3.8010001"
       width="539.86298"
       y="70.814003" /><g
       id="g29"><path
         id="path31"
         d="m 321.311,82.527 7.139,0 5.255,9.757 5.255,-9.757 7.139,0 0,15.158 -4.522,0 0,-10.886 -0.042,0 -6.092,10.887 -3.476,0 -6.092,-10.887 -0.042,0 0,10.887 -4.522,0 0,-15.159 z" /><path
         id="path33"
         d="m 350.077,82.527 4.648,0 0,8.752 c 0,1.926 0.69,2.68 2.596,2.68 l 4.606,0 c 1.905,0 2.596,-0.754 2.596,-2.68 l 0,-8.752 4.648,0 0,9.757 c 0,3.769 -1.947,5.569 -6.219,5.569 l -6.657,0 c -4.271,0 -6.219,-1.801 -6.219,-5.569 l 0,-9.757 z" /><path
         id="path35"
         d="m 373.147,82.527 4.648,0 0,11.264 10.448,0 0,3.895 -15.097,0 0,-15.159 z" /><path
         id="path37"
         d="m 387.614,82.527 17.713,0 0,3.769 -6.532,0 0,11.39 -4.648,0 0,-11.39 -6.532,0 0,-3.769 z" /><path
         id="path39"
         d="m 408.445,82.527 4.648,0 0,15.158 -4.648,0 0,-15.158 z" /><path
         id="path41"
         d="m 417.322,82.527 12.667,0 c 4.418,0 5.485,2.22 5.485,5.192 l 0,1.298 c 0,2.262 -0.984,4.857 -4.271,4.857 l -9.233,0 0,3.811 -4.648,0 0,-15.158 z m 4.648,7.579 7.223,0 c 1.089,0 1.508,-0.712 1.508,-1.612 l 0,-0.586 c 0,-1.025 -0.503,-1.612 -1.905,-1.612 l -6.825,0 0,3.81 z" /><path
         id="path43"
         d="m 438.823,82.527 4.648,0 0,11.264 10.447,0 0,3.895 -15.096,0 0,-15.159 z" /><path
         id="path45"
         d="m 463.444,82.527 6.051,0 8.333,15.158 -5.172,0 -1.444,-2.68 -9.422,0 -1.36,2.68 -5.193,0 8.207,-15.158 z m 0.083,9.212 5.946,0 -3.015,-5.694 -2.931,5.694 z" /><path
         id="path47"
         d="m 484.588,92.409 -8.396,-9.882 5.611,0 5.108,6.197 5.108,-6.197 5.611,0 -8.396,9.882 0,5.276 -4.648,0 0,-5.276 z" /><path
         id="path49"
         d="m 500.185,82.527 16.582,0 0,3.518 -11.934,0 0,2.429 11.306,0 0,3.14 -11.306,0 0,2.43 12.205,0 0,3.643 -16.854,0 0,-15.16 z" /><path
         id="path51"
         d="m 520.681,82.527 14.028,0 c 3.58,0 4.543,1.779 4.543,4.502 l 0,0.963 c 0,2.03 -0.461,3.224 -2.597,3.727 l 0,0.042 c 1.382,0.251 2.533,0.858 2.533,3.35 l 0,2.575 -4.647,0 0,-1.821 c 0,-1.592 -0.461,-2.115 -1.905,-2.115 l -7.307,0 0,3.937 -4.648,0 0,-15.16 z m 4.649,7.453 7.684,0 c 1.256,0 1.717,-0.502 1.717,-1.591 l 0,-0.503 c 0,-1.34 -0.67,-1.591 -2.136,-1.591 l -7.265,0 0,3.685 z" /></g><g
       id="g53"><path
         id="path55"
         d="m 90.971,82.527 4.648,0 0,15.158 -4.648,0 0,-15.158 z" /><path
         id="path57"
         d="m 99.848,82.527 7.202,0 8.73,11.013 0.042,0 0,-11.013 4.647,0 0,15.158 -7.202,0 -8.73,-11.013 -0.042,0 0,11.013 -4.648,0 0,-15.158 z" /><path
         id="path59"
         d="m 123.338,82.527 17.712,0 0,3.769 -6.532,0 0,11.39 -4.648,0 0,-11.39 -6.532,0 0,-3.769 z" /><path
         id="path61"
         d="m 143.917,82.527 16.583,0 0,3.518 -11.934,0 0,2.429 11.306,0 0,3.14 -11.306,0 0,2.43 12.206,0 0,3.643 -16.854,0 0,-15.16 z" /><path
         id="path63"
         d="m 164.414,82.527 14.028,0 c 3.58,0 4.543,1.779 4.543,4.502 l 0,0.963 c 0,2.03 -0.461,3.224 -2.596,3.727 l 0,0.042 c 1.382,0.251 2.533,0.858 2.533,3.35 l 0,2.575 -4.648,0 0,-1.821 c 0,-1.592 -0.461,-2.115 -1.905,-2.115 l -7.307,0 0,3.937 -4.648,0 0,-15.16 z m 4.648,7.453 7.683,0 c 1.257,0 1.717,-0.502 1.717,-1.591 l 0,-0.503 c 0,-1.34 -0.67,-1.591 -2.135,-1.591 l -7.265,0 0,3.685 z" /><path
         id="path65"
         d="m 193.682,82.527 6.051,0 8.333,15.158 -5.171,0 -1.445,-2.68 -9.422,0 -1.36,2.68 -5.193,0 8.207,-15.158 z m 0.083,9.212 5.946,0 -3.015,-5.694 -2.931,5.694 z" /><path
         id="path67"
         d="m 210.22,87.845 c 0,-4.438 2.491,-5.485 6.679,-5.485 l 5.465,0 c 6.616,0 7.474,1.424 7.433,5.717 l -4.648,0 0,-0.419 c 0,-1.089 -0.795,-1.403 -2.177,-1.403 l -5.067,0 c -2.449,0 -2.91,1.152 -2.91,3.036 l 0,1.633 c 0,2.198 0.461,3.036 2.659,3.036 l 4.962,0 c 2.094,0 2.722,-0.21 2.722,-2.094 l 4.647,0 0,1.424 c 0,2.555 -0.921,4.564 -5.59,4.564 l -7.496,0 c -4.188,0 -6.679,-1.047 -6.679,-5.485 l 0,-4.524 z" /><path
         id="path69"
         d="m 232.517,82.527 17.712,0 0,3.769 -6.532,0 0,11.39 -4.648,0 0,-11.39 -6.532,0 0,-3.769 z" /><path
         id="path71"
         d="m 253.347,82.527 4.648,0 0,15.158 -4.648,0 0,-15.158 z" /><path
         id="path73"
         d="m 260.758,82.527 5.088,0 5.925,11.264 5.925,-11.264 5.088,0 -8.145,15.158 -5.737,0 -8.144,-15.158 z" /><path
         id="path75"
         d="m 285.295,82.527 16.583,0 0,3.518 -11.934,0 0,2.429 11.306,0 0,3.14 -11.306,0 0,2.43 12.207,0 0,3.643 -16.855,0 0,-15.16 z" /></g><g
       id="g77"><path
         id="path79"
         d="m 0.027,92.305 4.396,0 0,0.67 c 0,1.277 0.398,1.612 2.01,1.612 l 5.548,0 c 1.445,0 1.613,-0.397 1.613,-1.424 0,-1.005 -0.252,-1.465 -1.675,-1.465 l -4.773,0 0,-3.142 4.334,0 c 1.507,0 1.779,-0.376 1.779,-1.465 0,-1.173 -0.732,-1.466 -2.114,-1.466 l -4.606,0 c -1.507,0 -1.968,0.314 -1.968,1.444 l 0,0.649 -4.397,0 0,-0.837 c 0,-4.083 1.989,-4.523 7.684,-4.523 l 3.119,0 c 5.402,0 6.679,0.838 6.679,4.188 0,2.555 -0.439,2.869 -2.512,3.497 l 0,0.063 c 2.45,0.419 2.848,1.193 2.848,3.602 0,2.993 -1.047,4.146 -5.255,4.146 l -7.727,0 c -2.701,0 -4.983,-0.774 -4.983,-3.937 l 0,-1.612 z" /><path
         id="path81"
         d="m 21.926,82.527 14.028,0 c 4.648,0 6.281,1.528 6.281,5.276 l 0,4.605 c 0,3.748 -1.633,5.276 -6.281,5.276 l -14.028,0 0,-15.157 z m 4.648,11.264 8.25,0 c 1.989,0 2.763,-0.565 2.763,-2.722 l 0,-2.052 c 0,-2.156 -0.774,-2.722 -2.763,-2.722 l -8.25,0 0,7.496 z" /><path
         id="path83"
         d="m 45.542,87.845 c 0,-4.438 2.491,-5.485 6.679,-5.485 l 7.454,0 c 4.188,0 6.679,1.048 6.679,5.485 l 0,4.523 c 0,4.438 -2.491,5.485 -6.679,5.485 l -7.455,0 c -4.188,0 -6.679,-1.047 -6.679,-5.485 l 0,-4.523 z m 4.773,3.078 c 0,2.198 0.461,3.036 2.659,3.036 l 5.946,0 c 2.198,0 2.659,-0.838 2.659,-3.036 l 0,-1.633 c 0,-1.884 -0.46,-3.036 -2.91,-3.036 l -5.444,0 c -2.449,0 -2.91,1.152 -2.91,3.036 l 0,1.633 z" /></g><g
       id="g85"><path
         id="path87"
         d="m 72.804,90.508 -2.173,0 0,-6.258 -2.086,0 0,-1.891 6.454,0 0,1.891 -2.195,0 0,6.258 z" /><path
         id="path89"
         d="m 78.267,90.508 -2.173,0 0,-8.148 3.444,0 1.554,5.117 0.076,0 1.478,-5.117 3.531,0 0,8.148 -2.173,0 0.217,-6.246 -0.076,0 -2.064,6.246 -1.879,0 -2.086,-6.246 -0.065,0 0.216,6.246 z" /></g><g
       id="g91"><path
         id="path93"
         d="m 548.798,90.676 -2.173,0 0,-6.258 -2.086,0 0,-1.891 6.453,0 0,1.891 -2.194,0 0,6.258 z" /><path
         id="path95"
         d="m 554.26,90.676 -2.173,0 0,-8.148 3.444,0 1.554,5.117 0.076,0 1.478,-5.117 3.531,0 0,8.148 -2.173,0 0.217,-6.247 -0.076,0 -2.064,6.247 -1.879,0 -2.087,-6.247 -0.064,0 0.216,6.247 z" /></g><g
       id="g97"><path
         id="path99"
         d="m 549.946,60.12 -2.758,0 0,-7.947 -2.648,0 0,-2.4 8.195,0 0,2.4 -2.789,0 0,7.947 z" /><path
         id="path101"
         d="m 556.884,60.12 -2.758,0 0,-10.348 4.373,0 1.973,6.498 0.097,0 1.876,-6.498 4.484,0 0,10.348 -2.758,0 0.275,-7.933 -0.098,0 -2.62,7.933 -2.388,0 -2.648,-7.933 -0.083,0 0.275,7.933 z" /></g></g></svg>