<?xml version="1.0" encoding="UTF-8" standalone="no"?>
<svg
   xmlns:ns="&amp;#38;ns_sfw;"
   xmlns:dc="http://purl.org/dc/elements/1.1/"
   xmlns:cc="http://creativecommons.org/ns#"
   xmlns:rdf="http://www.w3.org/1999/02/22-rdf-syntax-ns#"
   xmlns:svg="http://www.w3.org/2000/svg"
   xmlns="http://www.w3.org/2000/svg"
   xml:space="preserve"
   viewBox="15.349 117.018 100.82601 567.15505"
   height="567.15503"
   width="100.826"
   y="0px"
   x="0px"
   id="Layer_2"
   version="1.2"><defs
     id="defs79" /><metadata
     id="metadata3"><ns:sfw><ns:slices /><ns:sliceSourceBounds
         bottomLeftOrigin="true"
         x="676.753"
         y="496.785"
         width="567.154"
         height="100.826" /></ns:sfw><rdf:RDF><cc:Work
         rdf:about=""><dc:format>image/svg+xml</dc:format><dc:type
           rdf:resource="http://purl.org/dc/dcmitype/StillImage" /><dc:title></dc:title></cc:Work></rdf:RDF></metadata><g
     transform="matrix(0,-1,1,0,-101.669,699.521)"
     id="g4168"><g
       id="g5"
       style="fill:#ffffff;fill-opacity:1"><path
         d="m 176.916,152.213 c 1.66,1.15 2.906,2.396 3.737,3.736 0.894,1.598 1.437,3.386 1.629,5.365 l 0,44.169 c 0,2.684 -0.495,4.775 -1.485,6.277 -0.99,1.5 -2.093,2.697 -3.306,3.592 -1.405,1.021 -3.002,1.725 -4.79,2.107 l -29.798,0 0,-67.165 26.923,0 c 3.067,0.131 5.43,0.769 7.09,1.919 z m 2.108,8.91 c -0.191,-1.404 -0.606,-2.682 -1.245,-3.832 -0.512,-0.958 -1.31,-1.836 -2.396,-2.635 -1.086,-0.799 -2.556,-1.134 -4.407,-1.007 l -25.008,0.096 0,60.649 25.391,0 c 1.341,-0.254 2.555,-0.701 3.641,-1.34 0.895,-0.512 1.757,-1.277 2.587,-2.301 0.83,-1.021 1.31,-2.426 1.438,-4.215 l 0,-45.415 z m -14.084,3.881 c 0.574,0.543 1.021,1.134 1.341,1.772 0.319,0.703 0.511,1.501 0.575,2.395 l 0,27.786 c 0.063,1.598 -0.08,2.828 -0.432,3.689 -0.352,0.863 -0.782,1.484 -1.293,1.867 -0.575,0.512 -1.214,0.799 -1.916,0.863 l -5.749,0 -0.191,-39.379 5.174,0 c 1.086,0.129 1.916,0.464 2.491,1.007 z m -1.15,4.167 c -0.128,-0.51 -0.319,-0.925 -0.574,-1.245 -0.575,-0.702 -1.565,-0.894 -2.971,-0.575 l 0,32.959 c 0.574,0.191 1.117,0.256 1.629,0.191 0.447,-0.063 0.846,-0.254 1.197,-0.574 0.352,-0.318 0.591,-0.926 0.719,-1.82 l 0,-28.936 z"
         id="path7"
         style="fill:#ffffff;fill-opacity:1" /><path
         d="m 205.086,150.584 0,66.685 -18.588,0 0,-66.685 18.588,0 z m -3.258,3.832 -12.264,0 0,59.212 12.264,0 0,-59.212 z"
         id="path9"
         style="fill:#ffffff;fill-opacity:1" /><path
         d="m 229.519,172.429 0,-2.778 c 0.063,-1.277 -0.224,-2.044 -0.862,-2.3 -0.256,-0.127 -0.607,-0.127 -1.054,0 -0.512,0 -0.879,0.112 -1.103,0.336 -0.224,0.224 -0.367,0.495 -0.431,0.814 -0.129,0.319 -0.129,0.702 0,1.149 l 0,3.641 14.755,9.582 c 1.852,1.021 3.273,2.107 4.264,3.258 0.991,1.151 1.677,2.236 2.06,3.258 0.447,1.15 0.671,2.363 0.671,3.641 l 0,14.658 c -0.128,2.109 -0.671,3.818 -1.629,5.127 -0.958,1.311 -2.044,2.316 -3.258,3.018 -1.405,0.83 -2.97,1.438 -4.694,1.82 l -19.354,0 c -2.428,-0.064 -4.328,-0.67 -5.701,-1.82 -1.373,-1.148 -2.379,-2.363 -3.018,-3.641 -0.767,-1.533 -1.246,-3.258 -1.438,-5.174 l 0,-21.846 17.438,10.637 0,3.736 c 0,0.574 0.079,1.006 0.239,1.293 0.159,0.287 0.367,0.496 0.623,0.623 0.255,0.191 0.574,0.287 0.958,0.287 0.958,-0.064 1.501,-0.447 1.629,-1.15 0.063,-0.254 0.031,-0.605 -0.096,-1.053 l 0,-4.408 -12.743,-7.664 c -2.236,-1.213 -3.913,-2.508 -5.03,-3.881 -1.118,-1.373 -1.933,-2.604 -2.443,-3.689 -0.575,-1.277 -0.862,-2.555 -0.862,-3.832 l 0,-15.713 c 0.127,-2.427 0.702,-4.311 1.725,-5.652 1.021,-1.342 2.172,-2.332 3.449,-2.971 1.469,-0.702 3.098,-1.117 4.887,-1.245 l 17.15,0 c 2.938,0.128 5.205,0.671 6.803,1.629 1.597,0.958 2.811,2.044 3.641,3.257 0.895,1.406 1.469,2.971 1.725,4.695 l 0,24.432 -18.301,-12.074 z m -1.534,-8.335 c 1.021,0.128 1.805,0.367 2.348,0.719 0.543,0.352 0.974,0.75 1.293,1.197 0.319,0.512 0.543,1.086 0.671,1.725 l 0,2.778 12.456,7.473 -0.192,-16.383 c 0.063,-1.66 -0.304,-3.018 -1.102,-4.072 -0.799,-1.054 -1.677,-1.868 -2.635,-2.443 -1.15,-0.702 -2.46,-1.149 -3.929,-1.342 l -18.587,0 c -1.47,0.129 -2.62,0.528 -3.45,1.198 -0.83,0.671 -1.469,1.357 -1.916,2.06 -0.512,0.895 -0.862,1.854 -1.054,2.875 l 0,15.521 c -0.064,1.278 0.191,2.395 0.767,3.354 0.574,0.957 1.213,1.787 1.916,2.49 0.767,0.83 1.693,1.564 2.779,2.203 l 15.713,10.156 0,6.229 c 0,1.213 -0.256,2.156 -0.767,2.826 -0.512,0.672 -1.086,1.166 -1.725,1.484 -0.703,0.385 -1.533,0.641 -2.491,0.768 -1.214,-0.127 -2.14,-0.398 -2.778,-0.814 -0.639,-0.414 -1.118,-0.877 -1.438,-1.389 -0.384,-0.574 -0.64,-1.246 -0.767,-2.014 l 0,-3.064 -11.21,-6.707 -0.191,15.713 c 0.063,1.852 0.463,3.273 1.197,4.264 0.734,0.991 1.549,1.74 2.443,2.252 1.021,0.574 2.203,0.926 3.545,1.053 l 18.684,0 c 1.852,-0.063 3.241,-0.479 4.168,-1.244 0.926,-0.768 1.612,-1.598 2.06,-2.492 0.511,-1.086 0.767,-2.299 0.767,-3.641 l 0,-14.277 c 0.063,-0.768 -0.128,-1.533 -0.575,-2.301 -0.447,-0.766 -0.958,-1.436 -1.532,-2.012 -0.703,-0.703 -1.47,-1.373 -2.3,-2.012 l -17.055,-11.019 0,-7.09 c 0.063,-1.086 0.367,-1.884 0.91,-2.395 0.543,-0.511 1.102,-0.895 1.677,-1.15 0.704,-0.254 1.47,-0.413 2.3,-0.477 z"
         id="path11"
         style="fill:#ffffff;fill-opacity:1" /><path
         d="m 288.923,175.687 -6.898,7.951 6.898,8.432 0,25.199 -17.726,0 0,-18.588 -2.491,-2.299 0,21.078 -17.917,0 0,-66.972 17.917,0 0,21.078 2.491,-2.97 0,-18.108 17.726,0 0,25.199 z m -3.067,-21.367 -11.114,0 -0.096,16.001 -9.007,9.198 -0.383,-25.582 -11.21,0 0,59.595 11.114,0 0,-24.721 8.719,8.24 0,16.576 11.785,0 0,-21.174 -7.569,-8.816 7.761,-9.005 0,-20.312 z"
         id="path13"
         style="fill:#ffffff;fill-opacity:1" /><path
         d="m 340.949,172.429 0,-2.778 c 0.064,-1.277 -0.223,-2.044 -0.861,-2.3 -0.256,-0.127 -0.607,-0.127 -1.055,0 -0.512,0 -0.879,0.112 -1.102,0.336 -0.225,0.224 -0.367,0.495 -0.432,0.814 -0.129,0.319 -0.129,0.702 0,1.149 l 0,3.641 14.756,9.582 c 1.852,1.021 3.273,2.107 4.264,3.258 0.991,1.151 1.676,2.236 2.059,3.258 0.447,1.15 0.672,2.363 0.672,3.641 l 0,14.658 c -0.129,2.109 -0.672,3.818 -1.629,5.127 -0.959,1.311 -2.045,2.316 -3.258,3.018 -1.406,0.83 -2.971,1.438 -4.695,1.82 l -19.354,0 c -2.428,-0.064 -4.328,-0.67 -5.701,-1.82 -1.373,-1.148 -2.379,-2.363 -3.018,-3.641 -0.768,-1.533 -1.246,-3.258 -1.438,-5.174 l 0,-21.846 17.438,10.637 0,3.736 c 0,0.574 0.08,1.006 0.24,1.293 0.158,0.287 0.367,0.496 0.623,0.623 0.254,0.191 0.574,0.287 0.957,0.287 0.959,-0.064 1.502,-0.447 1.629,-1.15 0.064,-0.254 0.031,-0.605 -0.096,-1.053 l 0,-4.408 -12.742,-7.664 c -2.236,-1.213 -3.914,-2.508 -5.031,-3.881 -1.117,-1.373 -1.932,-2.604 -2.443,-3.689 -0.574,-1.277 -0.861,-2.555 -0.861,-3.832 l 0,-15.713 c 0.127,-2.427 0.701,-4.311 1.725,-5.652 1.021,-1.342 2.172,-2.332 3.449,-2.971 1.469,-0.702 3.098,-1.117 4.887,-1.245 l 17.15,0 c 2.938,0.128 5.205,0.671 6.803,1.629 1.596,0.958 2.811,2.044 3.641,3.257 0.895,1.406 1.469,2.971 1.725,4.695 l 0,24.432 -18.302,-12.074 z m -1.533,-8.335 c 1.021,0.128 1.805,0.367 2.348,0.719 0.543,0.352 0.975,0.75 1.293,1.197 0.32,0.512 0.543,1.086 0.672,1.725 l 0,2.778 12.455,7.473 -0.191,-16.383 c 0.063,-1.66 -0.305,-3.018 -1.102,-4.072 -0.799,-1.054 -1.678,-1.868 -2.635,-2.443 -1.15,-0.702 -2.461,-1.149 -3.93,-1.342 l -18.586,0 c -1.471,0.129 -2.621,0.528 -3.451,1.198 -0.83,0.671 -1.469,1.357 -1.916,2.06 -0.512,0.895 -0.861,1.854 -1.053,2.875 l 0,15.521 c -0.064,1.278 0.191,2.395 0.766,3.354 0.574,0.957 1.213,1.787 1.916,2.49 0.768,0.83 1.693,1.564 2.779,2.203 l 15.713,10.156 0,6.229 c 0,1.213 -0.256,2.156 -0.766,2.826 -0.512,0.672 -1.086,1.166 -1.725,1.484 -0.703,0.385 -1.533,0.641 -2.492,0.768 -1.213,-0.127 -2.139,-0.398 -2.777,-0.814 -0.639,-0.414 -1.119,-0.877 -1.438,-1.389 -0.385,-0.574 -0.641,-1.246 -0.768,-2.014 l 0,-3.064 -11.209,-6.707 -0.191,15.713 c 0.063,1.852 0.463,3.273 1.197,4.264 0.734,0.991 1.549,1.74 2.443,2.252 1.021,0.574 2.203,0.926 3.545,1.053 l 18.684,0 c 1.852,-0.063 3.24,-0.479 4.168,-1.244 0.926,-0.768 1.611,-1.598 2.059,-2.492 0.512,-1.086 0.768,-2.299 0.768,-3.641 l 0,-14.277 c 0.063,-0.768 -0.129,-1.533 -0.576,-2.301 -0.447,-0.766 -0.957,-1.436 -1.531,-2.012 -0.703,-0.703 -1.471,-1.373 -2.301,-2.012 l -17.055,-11.019 0,-7.09 c 0.064,-1.086 0.367,-1.884 0.91,-2.395 0.543,-0.511 1.102,-0.895 1.678,-1.15 0.703,-0.254 1.469,-0.413 2.299,-0.477 z"
         id="path15"
         style="fill:#ffffff;fill-opacity:1" /><path
         d="m 402.461,150.68 0,56.912 c -0.064,2.236 -0.527,4.01 -1.389,5.318 -0.863,1.311 -1.836,2.316 -2.922,3.018 -1.215,0.768 -2.619,1.311 -4.217,1.629 l -28.263,0 0,-16.287 18.012,0 0,-3.162 -12.264,0 c -2.363,-0.127 -4.152,-0.703 -5.365,-1.725 -1.215,-1.021 -2.076,-2.172 -2.588,-3.449 -0.639,-1.469 -0.957,-3.098 -0.957,-4.887 l 0,-37.367 18.396,0 0,30.564 3.162,0 0,-30.564 18.395,0 z m -3.162,3.545 -11.592,0 0,26.158 c -0.064,0.83 -0.289,1.564 -0.672,2.203 -0.32,0.574 -0.814,1.086 -1.484,1.533 -0.672,0.447 -1.645,0.703 -2.922,0.766 -0.959,0.064 -1.789,-0.031 -2.492,-0.287 -0.639,-0.256 -1.213,-0.703 -1.725,-1.342 -0.512,-0.639 -0.799,-1.66 -0.861,-3.066 l 0,-25.964 -11.211,0 0,34.013 c 0.064,1.277 0.352,2.428 0.863,3.449 0.447,0.895 1.133,1.709 2.059,2.443 0.926,0.734 2.283,1.102 4.072,1.102 l 14.277,0 0,4.982 c -0.129,0.83 -0.416,1.564 -0.863,2.203 -0.383,0.512 -0.959,0.99 -1.725,1.438 -0.768,0.447 -1.789,0.672 -3.066,0.672 l -12.838,0 0,9.484 24.432,0 c 1.086,-0.127 2.045,-0.445 2.875,-0.957 0.701,-0.447 1.355,-1.117 1.963,-2.012 0.608,-0.895 0.91,-2.109 0.91,-3.643 l 0,-53.175 z"
         id="path17"
         style="fill:#ffffff;fill-opacity:1" /><path
         d="m 426.799,172.429 0,-2.778 c 0.063,-1.277 -0.225,-2.044 -0.863,-2.3 -0.256,-0.127 -0.607,-0.127 -1.053,0 -0.512,0 -0.879,0.112 -1.104,0.336 -0.223,0.224 -0.367,0.495 -0.43,0.814 -0.129,0.319 -0.129,0.702 0,1.149 l 0,3.641 14.754,9.582 c 1.852,1.021 3.273,2.107 4.264,3.258 0.991,1.151 1.678,2.236 2.061,3.258 0.447,1.15 0.67,2.363 0.67,3.641 l 0,14.658 c -0.127,2.109 -0.67,3.818 -1.629,5.127 -0.957,1.311 -2.043,2.316 -3.258,3.018 -1.404,0.83 -2.969,1.438 -4.693,1.82 l -19.355,0 c -2.428,-0.064 -4.328,-0.67 -5.701,-1.82 -1.373,-1.148 -2.379,-2.363 -3.018,-3.641 -0.766,-1.533 -1.246,-3.258 -1.438,-5.174 l 0,-21.846 17.439,10.637 0,3.736 c 0,0.574 0.078,1.006 0.238,1.293 0.16,0.287 0.367,0.496 0.623,0.623 0.256,0.191 0.574,0.287 0.959,0.287 0.957,-0.064 1.5,-0.447 1.629,-1.15 0.063,-0.254 0.031,-0.605 -0.096,-1.053 l 0,-4.408 -12.744,-7.664 c -2.236,-1.213 -3.912,-2.508 -5.029,-3.881 -1.119,-1.373 -1.934,-2.604 -2.443,-3.689 -0.576,-1.277 -0.863,-2.555 -0.863,-3.832 l 0,-15.713 c 0.127,-2.427 0.703,-4.311 1.725,-5.652 1.022,-1.341 2.172,-2.332 3.449,-2.971 1.469,-0.702 3.098,-1.117 4.887,-1.245 l 17.15,0 c 2.938,0.128 5.205,0.671 6.803,1.629 1.598,0.958 2.811,2.044 3.641,3.257 0.895,1.406 1.469,2.971 1.725,4.695 l 0,24.432 -18.3,-12.074 z m -1.533,-8.335 c 1.021,0.128 1.805,0.367 2.348,0.719 0.543,0.352 0.973,0.75 1.293,1.197 0.318,0.512 0.543,1.086 0.67,1.725 l 0,2.778 12.457,7.473 -0.193,-16.383 c 0.064,-1.66 -0.303,-3.018 -1.102,-4.072 -0.799,-1.054 -1.676,-1.868 -2.635,-2.443 -1.15,-0.702 -2.459,-1.149 -3.928,-1.342 l -18.588,0 c -1.469,0.129 -2.619,0.528 -3.449,1.198 -0.83,0.671 -1.469,1.357 -1.916,2.06 -0.512,0.895 -0.863,1.854 -1.055,2.875 l 0,15.521 c -0.064,1.278 0.191,2.395 0.768,3.354 0.574,0.957 1.213,1.787 1.916,2.49 0.766,0.83 1.693,1.564 2.779,2.203 l 15.713,10.156 0,6.229 c 0,1.213 -0.256,2.156 -0.768,2.826 -0.512,0.672 -1.086,1.166 -1.725,1.484 -0.703,0.385 -1.533,0.641 -2.49,0.768 -1.215,-0.127 -2.141,-0.398 -2.779,-0.814 -0.639,-0.414 -1.117,-0.877 -1.438,-1.389 -0.383,-0.574 -0.639,-1.246 -0.766,-2.014 l 0,-3.064 -11.211,-6.707 -0.191,15.713 c 0.064,1.852 0.463,3.273 1.197,4.264 0.734,0.991 1.549,1.74 2.443,2.252 1.021,0.574 2.203,0.926 3.545,1.053 l 18.684,0 c 1.852,-0.063 3.242,-0.479 4.168,-1.244 0.926,-0.768 1.613,-1.598 2.061,-2.492 0.51,-1.086 0.766,-2.299 0.766,-3.641 l 0,-14.277 c 0.064,-0.768 -0.127,-1.533 -0.574,-2.301 -0.447,-0.766 -0.959,-1.436 -1.533,-2.012 -0.703,-0.703 -1.469,-1.373 -2.299,-2.012 l -17.055,-11.019 0,-7.09 c 0.063,-1.086 0.367,-1.884 0.91,-2.395 0.543,-0.511 1.102,-0.895 1.676,-1.15 0.703,-0.254 1.471,-0.413 2.301,-0.477 z"
         id="path19"
         style="fill:#ffffff;fill-opacity:1" /><path
         d="m 483.424,150.871 0,17.438 -8.24,0 0,49.152 -19.354,0 0,-49.152 -7.857,0 0,-17.82 35.451,0.382 z m -3.736,3.449 -28.266,0 0,10.156 8.049,0 0,49.535 11.689,0 0,-49.248 8.527,0 0,-10.443 z"
         id="path21"
         style="fill:#ffffff;fill-opacity:1" /><path
         d="m 505.27,168.117 0,7.761 12.264,0 0,17.438 -12.646,0 0,7.377 12.646,0 0,17.055 -31.139,-0.191 0,-67.068 31.521,0 0,17.629 -12.646,0 z m -3.737,11.306 0,-14.851 12.646,0 0,-10.156 -24.24,0 0,60.554 24.24,0 0,-10.635 -12.838,0 0,-14.564 13.029,0 0,-10.348 -12.837,0 z"
         id="path23"
         style="fill:#ffffff;fill-opacity:1" /><path
         d="m 578.949,152.932 c 1.277,1.054 2.172,2.155 2.684,3.305 0.639,1.342 0.926,2.812 0.861,4.407 l 0,57.2 -18.205,0 0,-48.097 c -0.064,-0.702 -0.318,-1.149 -0.766,-1.341 -0.256,-0.064 -0.512,-0.097 -0.768,-0.097 -0.383,0 -0.686,0.097 -0.91,0.288 -0.223,0.191 -0.398,0.383 -0.525,0.574 -0.193,0.256 -0.289,0.512 -0.289,0.767 l 0,47.714 -18.011,0 0,-47.619 c 0,-0.702 -0.256,-1.245 -0.766,-1.628 -0.256,-0.191 -0.512,-0.319 -0.768,-0.384 -0.447,0 -0.799,0.097 -1.055,0.288 -0.256,0.191 -0.447,0.415 -0.574,0.67 -0.191,0.256 -0.287,0.575 -0.287,0.958 l 0,47.427 -17.438,0 0,-66.781 22.324,0 c 1.404,-0.128 2.635,-0.017 3.688,0.335 1.055,0.352 1.965,0.783 2.732,1.294 0.83,0.575 1.596,1.246 2.299,2.012 0.383,-0.702 0.861,-1.261 1.438,-1.677 0.574,-0.415 1.148,-0.75 1.725,-1.006 0.639,-0.256 1.309,-0.479 2.012,-0.671 l 15.043,0 c 2.425,0.321 4.279,1.008 5.556,2.062 z m 0.192,7.233 c -0.064,-1.086 -0.318,-2.044 -0.766,-2.874 -0.385,-0.703 -1.039,-1.357 -1.965,-1.965 -0.926,-0.606 -2.221,-0.91 -3.881,-0.91 l -13.125,0 c -1.023,0.064 -1.98,0.319 -2.875,0.767 -0.768,0.384 -1.549,0.959 -2.348,1.725 -0.799,0.767 -1.422,1.789 -1.869,3.066 -0.512,-1.213 -1.117,-2.268 -1.82,-3.162 -0.703,-0.766 -1.564,-1.469 -2.586,-2.107 -1.023,-0.639 -2.365,-0.927 -4.025,-0.862 l -17.916,0.191 0,59.978 10.635,0 0,-44.457 c -0.064,-0.895 0.096,-1.692 0.479,-2.396 0.32,-0.639 0.848,-1.213 1.582,-1.725 0.734,-0.511 1.836,-0.767 3.305,-0.767 0.768,0 1.502,0.192 2.205,0.575 0.51,0.319 1.006,0.878 1.484,1.677 0.478,0.799 0.719,1.964 0.719,3.497 l 0,43.594 11.307,0 0,-44.457 c 0,-0.766 0.191,-1.501 0.574,-2.204 0.318,-0.574 0.83,-1.102 1.533,-1.58 0.701,-0.479 1.756,-0.719 3.162,-0.719 0.766,-0.063 1.5,0.032 2.203,0.287 0.574,0.256 1.102,0.703 1.58,1.342 0.478,0.639 0.719,1.661 0.719,3.065 l 0,44.265 11.689,0 0,-53.844 z"
         id="path25"
         style="fill:#ffffff;fill-opacity:1" /></g><polygon
       points="147.211,126.067 154.833,126.067 154.833,130.288 147.211,130.288 147.211,139.104 143.1,139.104 143.1,117.018 154.833,117.018 154.833,121.107 147.211,121.107 "
       id="polygon27"
       style="fill:#ffffff;fill-opacity:1" /><path
       d="m 168.176,139.104 -3.997,0 0,-3.439 -7.742,0 -2.294,3.439 -4.707,0 15.485,-22.086 3.255,0 0,22.086 z m -3.997,-7.612 0,-6.444 -4.729,6.444 4.729,0 z"
       id="path29"
       style="fill:#ffffff;fill-opacity:1" /><polygon
       points="192.182,117.018 192.182,139.104 188.055,139.104 188.055,127.969 182.956,139.104 178.783,139.104 173.869,127.969 173.869,139.104 169.743,139.104 169.743,117.018 174.379,117.018 180.916,131.864 187.499,117.018 "
       id="polygon31"
       style="fill:#ffffff;fill-opacity:1" /><polygon
       points="291.559,117.018 291.559,139.104 287.432,139.104 287.432,127.969 282.332,139.104 278.16,139.104 273.245,127.969 273.245,139.104 269.119,139.104 269.119,117.018 273.756,117.018 280.292,131.864 286.876,117.018 "
       id="polygon33"
       style="fill:#ffffff;fill-opacity:1" /><rect
       x="193.483"
       y="117.018"
       width="4.2709999"
       height="22.086"
       id="rect35"
       style="fill:#ffffff;fill-opacity:1" /><polygon
       points="208.765,139.104 198.93,139.104 198.93,117.018 203.2,117.018 203.2,135.077 208.765,135.077 "
       id="polygon37"
       style="fill:#ffffff;fill-opacity:1" /><polygon
       points="222.31,117.018 215.235,131.066 215.235,139.104 211.095,139.104 211.095,131.066 204.02,117.018 208.765,117.018 213.251,126.067 217.608,117.018 "
       id="polygon39"
       style="fill:#ffffff;fill-opacity:1" /><path
       d="M 245.582,133.402"
       id="path41"
       style="fill:#ffffff;fill-opacity:1;stroke:#231f20;stroke-width:0.34509999" /><path
       d="m 245.521,123.109 c -1.875,-3.573 -5.621,-6.011 -9.937,-6.011 -6.194,0 -11.216,5.021 -11.216,11.216 0,6.195 5.021,11.215 11.216,11.215 4.346,0 8.115,-2.472 9.977,-6.087 l -5.082,0.042 c -1.253,1.155 -2.927,1.861 -4.766,1.861 -3.884,0 -7.031,-3.148 -7.031,-7.032 0,-3.884 3.147,-7.031 7.031,-7.031 1.813,0 3.466,0.686 4.712,1.813 l 5.096,0.014 z"
       id="path43"
       style="fill:#ffffff;fill-opacity:1" /><path
       d="m 256.619,139.588 c -6.226,0 -11.273,-5.048 -11.273,-11.274 0,-6.226 5.048,-11.274 11.273,-11.274 6.228,0 11.275,5.048 11.275,11.274 10e-4,6.227 -5.047,11.274 -11.275,11.274 z m 7.178,-11.274 c 0,-3.939 -3.195,-7.133 -7.134,-7.133 -3.939,0 -7.133,3.194 -7.133,7.133 0,3.939 3.193,7.133 7.133,7.133 3.939,0 7.134,-3.194 7.134,-7.133 z"
       id="path45"
       style="fill:#ffffff;fill-opacity:1" /><path
       d="m 300.354,117.021 c 3.737,0.3 6.677,3.429 6.677,7.244 0,3.814 -2.939,6.943 -6.677,7.243 l -3.229,-0.015 0,7.611 -4.141,0 0,-22.086 4.141,0 3.229,0.003 z m -3.228,4.248 0,5.991 3.229,-0.003 c 1.412,-0.264 2.481,-1.503 2.481,-2.992 0,-1.49 -1.069,-2.729 -2.481,-2.993 l -3.229,-0.003 z"
       id="path47"
       style="fill:#ffffff;fill-opacity:1" /><path
       d="m 352.528,139.391 -4.099,0 0,-22.183 5.695,-0.008 3.228,0.002 c 3.737,0.3 6.677,3.429 6.677,7.244 0,3.116 -1.963,5.775 -4.719,6.807 l 4.778,8.137 -4.485,0 -6.697,-11.442 -0.378,0 0,11.443 z m -2.545,-0.105 m 4.142,0 m 3.229,-11.848 c 1.412,-0.264 2.481,-1.504 2.481,-2.992 0,-1.49 -1.069,-2.729 -2.481,-2.993 l -4.825,0 0,5.989 4.825,-0.004 z"
       id="path49"
       style="fill:#ffffff;fill-opacity:1" /><path
       d="m 318.43,125.638 m 0,0 m -5.987,0 m -0.015,4.142 m 0,0 0.003,3.229 c 0.265,1.413 1.503,2.481 2.992,2.481 1.489,0 2.729,-1.069 2.993,-2.481 l 0.003,-3.229 0.011,-12.571 4.24,0 0,12.571 -0.004,3.229 c -0.3,3.738 -3.428,6.676 -7.243,6.676 -3.814,0 -6.942,-2.938 -7.243,-6.676 l 0.015,-3.229 -0.007,-12.571 4.256,0 -0.016,12.571 z"
       id="path51"
       style="fill:#ffffff;fill-opacity:1" /><polygon
       points="334.842,117.208 323.281,117.208 323.281,121.389 326.905,121.389 326.905,139.391 331.09,139.391 331.09,121.389 334.842,121.389 "
       id="polygon53"
       style="fill:#ffffff;fill-opacity:1" /><polygon
       points="347.352,121.269 339.976,121.269 339.976,126.536 347.352,126.536 347.352,130.678 339.976,130.678 339.976,135.293 347.352,135.293 347.352,139.391 335.855,139.391 335.855,117.208 347.352,117.208 "
       id="polygon55"
       style="fill:#ffffff;fill-opacity:1" /><path
       d="M 352.528,127.969"
       id="path57"
       style="fill:#ffffff;fill-opacity:1;stroke:#231f20;stroke-width:0.34509999" /><g
       id="g59"
       style="fill:#ffffff;fill-opacity:1"><g
         id="g61"
         style="fill:#ffffff;fill-opacity:1"><path
           d="m 71.735,203.853 c 6.338,0 11.477,5.137 11.477,11.475 l 30.341,0 c 4.949,0 8.961,-4.012 8.961,-8.959 0,-4.068 -2.712,-7.506 -6.426,-8.6 l -0.021,-0.039 c 0,-2.811 0,-5.877 0,-9.313 l 0.045,-0.097 c 5.534,-2.48 9.388,-8.038 9.388,-14.495 0,-6.424 -3.816,-11.959 -9.306,-14.458 l -0.127,-0.083 c 0,-14.469 0,-27.019 0,-29.32 0,-5.644 -4.575,-10.219 -10.218,-10.219 l -68.333,0 c -5.644,0 -10.219,4.575 -10.219,10.219 0,2.301 0,14.851 0,29.32 l -0.126,0.083 c -5.49,2.499 -9.307,8.034 -9.307,14.458 0,6.457 3.854,12.015 9.388,14.495 l 0.045,0.097 c 0,3.437 0,6.503 0,9.313 l -0.02,0.039 c -3.714,1.094 -6.426,4.531 -6.426,8.6 0,4.947 4.013,8.959 8.961,8.959 l 30.341,0 c 0,-6.338 5.138,-11.475 11.477,-11.475 l 0.105,0 z"
           id="path63"
           style="fill:#ffffff;fill-opacity:1" /><path
           d="m 18.335,206.369 c 0.005,-4.535 2.627,-8.455 6.445,-10.319 l 0,0 c 0,-1.921 0,-3.964 0,-6.157 l 0,0 c -5.626,-3.145 -9.43,-9.164 -9.432,-16.067 l 0,0 c 0.002,-6.903 3.806,-12.923 9.432,-16.066 l 0,0 c 0,-13.82 0,-25.576 0,-27.795 l 0,0 c 0.003,-7.034 5.701,-12.733 12.734,-12.734 l 0,0 68.333,0 c 7.034,0.001 12.733,5.701 12.734,12.734 l 0,0 c 0,2.219 0,13.977 0,27.795 l 0,0 c 5.626,3.143 9.43,9.163 9.432,16.066 l 0,0 c -0.002,6.903 -3.805,12.923 -9.432,16.067 l 0,0 c 0,2.193 0,4.236 0,6.157 l 0,0 c 3.819,1.864 6.442,5.784 6.445,10.319 l 0,0 c -10e-4,6.338 -5.136,11.473 -11.476,11.475 l 0,0 -32.854,0 0,-2.516 c -0.009,-4.947 -4.013,-8.951 -8.96,-8.961 l 0,0 0,-2.516 0,-2.516 c 6.869,0.002 12.58,4.951 13.765,11.479 l 0,0 28.052,0 c 3.558,-0.008 6.439,-2.889 6.444,-6.445 l 0,0 c 0.005,-2.928 -1.956,-5.398 -4.62,-6.186 l 0,0 -1.042,-0.307 -0.783,-1.545 0,-0.602 c -0.001,-2.812 -0.001,-5.879 -0.001,-9.314 l 0,0 0,-0.56 0.679,-1.45 0.854,-0.381 c 4.657,-2.092 7.903,-6.764 7.901,-12.2 l 0,0 c 0.002,-5.41 -3.213,-10.062 -7.833,-12.169 l 0,0 -0.183,-0.083 -1.418,-0.937 0,-1.352 c 0,-14.47 0,-27.019 0,-29.32 l 0,0 c -0.008,-4.254 -3.449,-7.695 -7.703,-7.704 l 0,0 -68.333,0 c -4.254,0.008 -7.695,3.45 -7.703,7.704 l 0,0 c 0,2.301 0,14.851 0,29.32 l 0,0 0,1.352 -1.129,0.746 -0.291,0.192 -0.18,0.082 c -4.621,2.108 -7.835,6.76 -7.833,12.169 l 0,0 c -0.003,5.437 3.244,10.108 7.901,12.2 l 0,0 0.852,0.381 0.679,1.45 0,0.56 c 0,3.436 0,6.503 0,9.314 l 0,0 0,0.602 -0.784,1.545 -1.042,0.307 c -2.665,0.787 -4.625,3.258 -4.62,6.186 l 0,0 c 0.005,3.557 2.886,6.438 6.445,6.445 l 0,0 28.051,0 c 1.187,-6.527 6.897,-11.477 13.767,-11.479 l 0,0 0.105,0 0,2.516 0,2.516 -0.103,0 c -4.949,0.01 -8.952,4.014 -8.961,8.961 l 0,0 0,2.516 -32.856,0 c -6.339,-0.003 -11.476,-5.137 -11.478,-11.475 l 0,0 z"
           id="path65"
           style="fill:#ffffff;fill-opacity:1" /></g><path
         d="M 27.297,208.673"
         id="path67"
         style="fill:#ffffff;fill-opacity:1" /><path
         d="m 31.96,155.326 c 10e-4,-10.448 8.47,-18.916 18.918,-18.917 l 0,0 c 10.448,0.001 18.917,8.469 18.917,18.917 l 0,0 c -0.001,10.448 -8.47,18.916 -18.917,18.916 l 0,0 c -10.447,0 -18.916,-8.468 -18.918,-18.916 l 0,0 z m 3.145,0 c 0.015,8.712 7.062,15.757 15.773,15.772 l 0,0 c 8.711,-0.015 15.758,-7.061 15.773,-15.772 l 0,0 c -0.016,-8.71 -7.063,-15.757 -15.773,-15.773 l 0,0 c -8.711,0.016 -15.758,7.063 -15.773,15.773 l 0,0 z"
         id="path69"
         style="fill:#ffffff;fill-opacity:1" /><circle
         cx="63.089001"
         cy="155.38"
         r="4.402"
         id="circle71"
         style="fill:#ffffff;fill-opacity:1" /><path
         d="m 73.569,155.326 0,0 c 0,-10.448 8.469,-18.916 18.917,-18.917 l 0,0 c 10.447,0.001 18.916,8.469 18.917,18.917 l 0,0 c -0.001,10.448 -8.47,18.916 -18.917,18.916 l 0,0 c -10.448,0 -18.917,-8.468 -18.917,-18.916 l 0,0 z m 18.917,15.773 c 8.71,-0.015 15.757,-7.061 15.772,-15.772 l 0,0 c -0.016,-8.71 -7.062,-15.757 -15.772,-15.773 l 0,0 c -8.71,0.016 -15.759,7.063 -15.774,15.773 l 0,0 c 0.016,8.711 7.064,15.756 15.774,15.772 l 0,0 z"
         id="path73"
         style="fill:#ffffff;fill-opacity:1" /><circle
         cx="80.276001"
         cy="155.38"
         r="4.402"
         id="circle75"
         style="fill:#ffffff;fill-opacity:1" /></g></g></svg>