<?xml version="1.0" encoding="UTF-8" standalone="no"?>
<svg
   xmlns:dc="http://purl.org/dc/elements/1.1/"
   xmlns:cc="http://creativecommons.org/ns#"
   xmlns:rdf="http://www.w3.org/1999/02/22-rdf-syntax-ns#"
   xmlns:svg="http://www.w3.org/2000/svg"
   xmlns="http://www.w3.org/2000/svg"
   xml:space="preserve"
   enable-background="new 0 0 566.929 102.84"
   viewBox="0 0 102.842 566.92904"
   height="566.92902"
   width="102.842"
   y="0px"
   x="0px"
   id="Layer_1"
   version="1.1"><metadata
     id="metadata50"><rdf:RDF><cc:Work
         rdf:about=""><dc:format>image/svg+xml</dc:format><dc:type
           rdf:resource="http://purl.org/dc/dcmitype/StillImage" /><dc:title></dc:title></cc:Work></rdf:RDF></metadata><defs
     id="defs48" /><g
     transform="matrix(0,-1,1,0,0,566.929)"
     id="g3"><g
       id="g5"><g
         id="layer2"><polygon
           style="fill:#0222a9"
           points="65.865,28.707 65.865,5.553 51.491,11.127 39.613,32.324 51.491,27.772 62.829,32.113 "
           id="polygon3542" /><polygon
           style="fill:#011da9"
           points="51.491,39.606 66.938,33.69 88.391,64.354 88.391,25.369 102.98,19.742 102.98,81.161 88.391,87.288 66.938,59.29 66.938,96.307 51.491,102.842 "
           id="polygon3558" /><polygon
           style="fill:#0222a9"
           points="28.277,81.227 14.589,54.653 14.589,87.288 "
           id="polygon3560" /></g><g
         id="layer3"><polygon
           style="fill:#069330"
           points="37.117,5.535 29.178,19.742 36.044,33.689 39.613,32.324 51.491,11.127 "
           id="polygon3538" /><polygon
           style="fill:#069330"
           points="66.938,33.69 62.829,32.113 73.807,19.742 88.391,25.369 88.391,64.354 "
           id="polygon3540" /><polygon
           style="fill:#069330"
           points="14.589,54.653 36.044,96.307 51.491,102.842 51.491,39.606 36.044,33.689 36.044,65.792 14.589,25.369 0,19.742 0,81.161 14.589,87.288 "
           id="polygon3552" /></g><g
         id="layer4"><polygon
           style="fill:#fe2015"
           points="36.044,33.689 36.044,65.792 14.589,25.369 29.178,19.742 "
           id="polygon3554" /><polygon
           style="fill:#fe2015"
           points="88.391,87.288 66.938,59.29 66.938,74.586 71.321,80.731 "
           id="polygon3556" /></g><g
         id="layer5"><polygon
           style="fill:#ffc001"
           points="66.938,33.689 51.491,39.606 36.044,33.689 51.491,27.772 "
           id="polygon3544" /><polygon
           style="fill:#ffc001"
           points="73.802,19.742 88.391,14.129 102.98,19.742 88.391,25.369 "
           id="polygon3546" /><polygon
           style="fill:#ffc001"
           points="0,19.742 14.589,14.129 29.178,19.742 14.589,25.369 "
           id="polygon3548" /><polygon
           style="fill:#ffc001"
           points="65.865,5.553 51.491,0 37.117,5.535 51.491,11.127 "
           id="polygon3550" /></g></g><g
       id="g23"><g
         id="g3516"><polygon
           style="fill:#7b7692"
           points="160.984,60.989 160.859,60.989 151.323,33.752 129.948,33.752 129.948,81.252 144.403,81.252 144.403,53.834 144.533,53.834 154.07,81.252 175.447,81.252 175.447,33.752 160.984,33.752 "
           id="polygon3518" /><polygon
           style="fill:#7b7692"
           points="241.636,60.989 241.505,60.989 231.968,33.752 210.595,33.752 210.595,81.252 225.056,81.252 225.056,53.834 225.181,53.834 234.714,81.252 256.089,81.252 256.089,33.752 241.636,33.752 "
           id="polygon3520" /><polygon
           style="fill:#7b7692"
           points="380.498,60.989 380.369,60.989 370.833,33.752 349.457,33.752 349.457,81.252 363.914,81.252 363.914,53.834 364.041,53.834 373.578,81.252 394.957,81.252 394.957,33.752 380.498,33.752 "
           id="polygon3522" /><polygon
           style="fill:#7b7692"
           points="184.179,33.752 202.009,33.752 202.009,81.252 184.179,81.252 "
           id="polygon3524" /><polygon
           style="fill:#7b7692"
           points="301.784,46.655 290.416,46.655 290.416,81.252 272.591,81.252 272.591,46.655 261.261,46.655 261.261,33.752 301.784,33.752 "
           id="polygon3526" /><polygon
           style="fill:#7b7692"
           points="324.597,51.27 340.906,51.27 340.906,63.448 324.597,63.448 324.597,68.778 342.875,68.778 342.875,81.237 307.05,81.237 307.05,33.739 342.31,33.739 342.31,46.303 324.597,46.303 "
           id="polygon3536" /></g><g
         id="layer6"><path
           style="fill:#0124a6"
           d="m 402.63,33.752 21.123,0 c 18.016,0 23.75,10.197 23.75,24.276 0,14.342 -8.848,23.225 -22.684,23.225 l -22.189,0 0,-47.501 0,0 z m 17.453,36.707 1.738,0 c 2.869,0 4.789,-0.879 5.912,-2.787 1.184,-1.975 1.318,-5.572 1.318,-10.172 0,-4.604 -0.135,-8.194 -1.318,-10.172 -1.123,-1.91 -3.043,-2.789 -5.912,-2.789 l -1.738,0 0,25.92 0,0 z"
           id="path3528" /><path
           style="fill:#0124a6"
           d="m 475.451,32.506 c 15.521,0 23.244,10.193 23.244,24.995 0,14.805 -7.725,25.002 -23.244,25.002 -15.523,0 -23.246,-10.197 -23.246,-25.002 0,-14.802 7.72,-24.995 23.246,-24.995 l 0,0 z m 0,37.959 c 2.738,0 4.801,-1.346 4.801,-12.965 0,-11.357 -1.939,-12.961 -4.801,-12.961 -2.865,0 -4.801,1.604 -4.801,12.961 0,11.62 2.058,12.965 4.801,12.965 l 0,0 z"
           id="path3530" /><path
           style="fill:#0124a6"
           d="m 507.025,71.231 c -3.107,0 -5.629,2.521 -5.629,5.633 0,3.115 2.521,5.639 5.629,5.639 3.115,0 5.641,-2.523 5.641,-5.639 -0.002,-3.112 -2.526,-5.633 -5.641,-5.633 l 0,0 z m 0,10.283 c -2.563,0 -4.637,-2.078 -4.637,-4.65 0,-2.568 2.072,-4.646 4.637,-4.646 2.574,0 4.656,2.08 4.656,4.646 0,2.572 -2.082,4.65 -4.656,4.65 l 0,0 z"
           id="path3562" /><path
           style="fill:#0124a6"
           d="m 506.109,79.961 -1.328,0 0,-6.199 2.635,0 c 1.068,0.018 2.154,0.357 2.154,1.615 0,0.803 -0.52,1.342 -1.287,1.504 l 0,0.014 c 1.021,0.119 1.021,0.74 1.135,1.602 0.059,0.391 0.105,1.123 0.359,1.465 l -1.469,0 c -0.111,-0.549 -0.174,-1.107 -0.232,-1.662 -0.035,-0.344 -0.117,-0.818 -0.559,-0.836 l -1.408,0 0,2.497 0,0 z m 0,-3.527 1.119,0 c 0.582,-0.008 0.928,-0.305 0.928,-0.85 0,-0.547 -0.346,-0.781 -0.928,-0.789 l -1.119,0 0,1.639 0,0 z"
           id="path3564" /><polygon
           style="fill:#0124a6"
           points="160.984,60.989 160.859,60.989 151.323,33.752 129.948,33.752 129.948,81.252 144.403,81.252 144.403,53.834 144.533,53.834 154.07,81.252 175.447,81.252 175.447,33.752 160.984,33.752 "
           id="polygon3566" /><polygon
           style="fill:#0124a6"
           points="241.636,60.989 241.505,60.989 231.968,33.752 210.595,33.752 210.595,81.252 225.056,81.252 225.056,53.834 225.181,53.834 234.714,81.252 256.089,81.252 256.089,33.752 241.636,33.752 "
           id="polygon3568" /><polygon
           style="fill:#0124a6"
           points="380.498,60.989 380.369,60.989 370.833,33.752 349.457,33.752 349.457,81.252 363.914,81.252 363.914,53.834 364.041,53.834 373.578,81.252 394.957,81.252 394.957,33.752 380.498,33.752 "
           id="polygon3570" /><polygon
           style="fill:#0124a6"
           points="184.179,33.752 202.009,33.752 202.009,81.252 184.179,81.252 "
           id="polygon3572" /><polygon
           style="fill:#0124a6"
           points="301.784,46.655 290.416,46.655 290.416,81.252 272.591,81.252 272.591,46.655 261.261,46.655 261.261,33.752 301.784,33.752 "
           id="polygon3574" /><polygon
           style="fill:#0124a6"
           points="324.597,51.27 340.906,51.27 340.906,63.448 324.597,63.448 324.597,68.778 342.875,68.778 342.875,81.237 307.05,81.237 307.05,33.739 342.31,33.739 342.31,46.303 324.597,46.303 "
           id="polygon3576" /></g><g
         id="layer7"><path
           style="fill:#ff2d1e"
           d="m 530.583,27.436 c -0.949,-0.083 -1.871,-0.044 -3.158,0.014 -7.521,0.348 -10.563,3.553 -11.594,7.174 l 0.182,0 c 1.873,-1.637 4.188,-2.401 7.289,-2.401 5.965,0 11.414,4.338 11.414,12.476 0,7.788 -5.986,13.852 -14.02,13.852 -10.584,0 -15.186,-8.083 -15.186,-16.75 0,-7.041 2.498,-13.004 6.598,-16.85 3.902,-3.615 8.932,-5.441 15.09,-5.582 1.631,-0.094 2.6,0 3.385,0.071 l 0,7.996 0,0 z m -10.021,23.456 c 2.439,0 3.918,-2.491 3.918,-5.673 -0.02,-2.686 -1.25,-5.613 -4.52,-5.613 -1.998,0 -3.555,1.266 -4.143,2.795 -0.227,0.469 -0.313,1.137 -0.313,2.27 0.209,3.035 1.672,6.222 4.998,6.222 l 0.06,0 0,-10e-4 z"
           id="path3532" /><path
           style="fill:#ff2d1e"
           d="m 553.365,57.911 0,-8.524 -15.846,0 0,-6.811 12.723,-22.671 12.66,0 0,21.673 4.027,0 0,7.809 -4.027,0 0,8.524 -9.537,0 0,0 z m 0,-16.333 0,-6.531 c 0,-2.414 0.145,-4.922 0.268,-7.565 l -0.207,0 c -1.178,2.565 -2.203,5.007 -3.543,7.657 l -3.113,6.326 -0.035,0.115 6.63,-0.002 0,0 z"
           id="path3534" /></g></g></g></svg>