<?xml version="1.0" encoding="UTF-8" standalone="no"?>
<svg
   xmlns:dc="http://purl.org/dc/elements/1.1/"
   xmlns:cc="http://creativecommons.org/ns#"
   xmlns:rdf="http://www.w3.org/1999/02/22-rdf-syntax-ns#"
   xmlns:svg="http://www.w3.org/2000/svg"
   xmlns="http://www.w3.org/2000/svg"
   xml:space="preserve"
   enable-background="new 0 0 566.929 226.773"
   viewBox="0 0 226.774 566.92903"
   height="566.92902"
   width="226.774"
   y="0px"
   x="0px"
   id="Ebene_1"
   version="1.1"><metadata
     id="metadata9"><rdf:RDF><cc:Work
         rdf:about=""><dc:format>image/svg+xml</dc:format><dc:type
           rdf:resource="http://purl.org/dc/dcmitype/StillImage" /><dc:title></dc:title></cc:Work></rdf:RDF></metadata><defs
     id="defs7" /><path
     style="fill:#ffffff;fill-opacity:1"
     id="path3"
     d="m 0,566.929 15.517,0 0,-110.352 -15.517,0 0,110.352 z m 0,-125.986 15.517,0 0,-157.257 c 0,0 -15.517,16.064 -15.517,37.338 l 0,119.919 z m 0,-188.105 15.517,0 0,-95.139 L 0,163.346 0,252.838 Z M 0,89.49 15.517,95.136 15.517,0.863 0,0.863 0,89.49 Z m 30.173,477.439 15.517,0 0,-110.352 -15.517,0 0,110.352 z m 0.022,-125.986 15.493,0 0,-175.506 c 0,0 -11.941,2.052 -15.493,5.625 l 0,169.881 z m 0,-188.105 15.493,0 0,-105.57 -15.493,5.229 0,100.341 z m 0,-152.053 15.493,5.227 0,-105.146 -15.493,0 0,99.919 z m 30.151,434.432 15.535,0 0,-47.791 -15.535,0 0,47.791 z m 0,-125.987 15.535,0 0,-47.79 -15.535,0 0,47.79 z m 0,-94.275 15.535,0 0,-47.79 c 0,0 -8.205,-3.034 -15.535,-3.034 l 0,50.824 z m 0,-93.83 15.535,0 0,-84.73 -15.535,5.648 0,79.082 z m 0,-109.932 15.535,5.67 0,-85.15 -15.535,0 0,79.48 z m 30.196,424.024 15.517,0 0,-47.791 -15.517,0 0,47.791 z m 0,-125.987 15.517,0 0,-122.067 c 0,0 -7.961,-10.211 -15.517,-13.465 l 0,135.532 z m 0,-188.105 15.517,0 0,-47.791 -8.639,0 8.638,-3.033 0,-87.543 -8.638,-3.256 8.638,0 0,-47.789 -15.516,0 0,89.711 13.144,4.762 -13.144,4.783 0,90.156 z m 30.173,314.092 15.517,0 0,-47.791 -15.517,0 0,47.791 z m 0,-125.987 15.517,0 0,-135.533 c -7.529,3.256 -15.517,13.465 -15.517,13.465 l 0,122.068 z m 0,-188.105 15.517,0 0,-47.791 -15.517,0 0,47.791 z m 0,-56.473 15.517,-5.779 0,-65.641 -15.517,-5.492 0,76.912 z m 0,-85.15 15.517,0 0,-47.789 -15.517,0 0,47.789 z m 30.173,455.715 15.515,0 0,-47.791 -15.515,0 0,47.791 z m 0,-125.987 15.515,0 0,-47.79 -15.515,0 0,47.79 z m 0,-94.275 15.515,0 0,-50.824 c -7.322,0 -15.515,3.034 -15.515,3.034 l 0,47.79 z m 0,-93.83 15.515,0 0,-47.791 -15.515,0 0,47.791 z m 0,-67.324 15.515,-5.602 0,-44.006 -15.515,-5.645 0,55.253 z m 0,-74.299 15.515,0 0,-47.789 -15.515,0 0,47.789 z m 30.175,486.564 15.537,0 0,-110.353 -15.537,0 0,110.353 z m 0,-125.123 15.537,0 0,-169.881 c -3.561,-3.573 -15.537,-5.625 -15.537,-5.625 l 0,175.506 z m 0,-188.971 15.537,0 0,-78.641 -15.537,0 0,78.641 z m 0,-109.044 15.537,-5.758 0,-22.389 -15.537,-5.404 0,33.551 z m 0,-63.426 15.537,0 0,-79.502 -15.537,0 0,79.502 z m 30.194,486.564 15.517,0 0,-110.353 -15.517,0 0,110.353 z m 0,-125.123 15.493,0 0,-119.919 c 0,-21.275 -15.493,-37.338 -15.493,-37.338 l 0,157.257 z m 0,-188.971 15.517,0 0,-78.641 -15.517,0 0,78.641 z m 0,-119.962 15.474,-5.535 0.021,-0.953 -15.493,-5.625 -0.002,12.113 0,0 z m 0,-52.508 15.517,0 0,-79.502 -15.517,0 0,79.502 z" /></svg>