<?xml version="1.0" encoding="UTF-8" standalone="no"?>
<svg
   xmlns:dc="http://purl.org/dc/elements/1.1/"
   xmlns:cc="http://creativecommons.org/ns#"
   xmlns:rdf="http://www.w3.org/1999/02/22-rdf-syntax-ns#"
   xmlns:svg="http://www.w3.org/2000/svg"
   xmlns="http://www.w3.org/2000/svg"
   xml:space="preserve"
   viewBox="0 0 185.059 566.929"
   height="566.92902"
   width="185.05901"
   y="0px"
   x="0px"
   id="svg4237"
   version="1.2"><metadata
     id="metadata30"><rdf:RDF><cc:Work
         rdf:about=""><dc:format>image/svg+xml</dc:format><dc:type
           rdf:resource="http://purl.org/dc/dcmitype/StillImage" /><dc:title></dc:title></cc:Work></rdf:RDF></metadata><defs
     id="defs28" /><g
     transform="translate(-188.613,-299.79)"
     id="layer1"><g
       transform="matrix(0,-1,1,0,-302.112,864.397)"
       id="g4158"><path
         style="fill:#0895ff"
         id="path6905"
         d="m 100.923,651.636 c 5.332,0 8.531,-1.087 8.531,-6.155 0,-3.752 -2.327,-5.76 -7.658,-5.76 l -7.368,0 0,11.915 6.495,0 z m -9.306,15.655 0,-29.984 10.955,0 c 7.755,0 9.792,3.878 9.792,8.375 0,6.699 -6.011,8.366 -11.537,8.366 l -6.399,0 0,13.242 -2.811,0.001" /><path
         style="fill:#0895ff"
         id="path6907"
         d="m 116.143,667.291 2.424,0 0,-29.984 -2.424,0 0,29.984 z" /><path
         style="fill:#0895ff"
         id="path6909"
         d="m 138.925,655.958 c -2.132,0.872 -4.362,1.047 -6.494,1.213 -3.782,0.289 -6.107,1.666 -6.107,4.575 0,2.637 2.327,3.878 4.654,3.878 3.974,0 7.949,-1.92 7.949,-6.292 l -0.002,-3.374 0,0 z m -4.265,-1.241 c 0.969,-0.087 2.521,-0.339 3.296,-0.718 0.873,-0.369 0.969,-1.492 0.969,-2.238 0,-2.54 -1.551,-4.372 -5.428,-4.372 -3.393,0 -5.816,1.124 -6.302,4.867 l -2.521,0 c 0.388,-5.081 4.168,-7.126 8.919,-7.126 4.362,0 7.756,1.716 7.756,6.708 l 0,11.741 c 0,1.957 0.581,2.414 2.617,1.666 l 0,1.959 c -0.291,0.126 -1.163,0.416 -1.938,0.416 -0.389,0 -0.679,-0.038 -1.066,-0.125 -1.745,-0.242 -2.037,-1.706 -2.037,-3.21 -2.037,2.338 -4.944,3.588 -8.046,3.588 -3.781,0 -7.175,-2.046 -7.175,-6.204 0,-3.616 2.521,-5.826 7.562,-6.495 l 3.394,-0.457" /><path
         style="fill:#0895ff"
         id="path6911"
         d="m 147.553,673.156 c 0.679,0.126 1.356,0.262 2.036,0.262 2.909,0 3.296,-4.09 4.265,-5.962 l -8.434,-21.735 2.812,0 6.98,18.536 6.882,-18.536 2.715,0 -8.047,21.279 c -2.037,5.409 -3.393,8.784 -6.883,8.784 -0.873,0 -1.648,-0.125 -2.327,-0.29 l 0.001,-2.338" /><path
         style="fill:#0895ff"
         id="path6913"
         d="m 170.722,658.334 c 0.485,5.37 3.976,7.328 8.628,7.328 5.332,0 7.562,-2.906 7.562,-6.204 0,-9.287 -18.226,-3.121 -18.226,-14.898 0,-4.171 3.393,-8.038 10.179,-8.038 6.689,0 10.082,4.071 9.985,8.959 l -2.617,0 c 0,-4.587 -3.587,-6.544 -7.368,-6.544 -5.817,0 -7.853,3.537 -7.368,6.62 1.26,7.736 18.323,2.161 18.323,13.775 0,5.508 -4.072,8.746 -10.955,8.746 -6.302,0 -10.955,-3.238 -10.955,-9.743 l 2.812,-0.001" /><path
         style="fill:#0895ff"
         id="path6915"
         d="m 202.812,667.37 c -0.582,0.125 -1.648,0.504 -2.909,0.504 -2.424,0 -3.781,-1.086 -3.781,-4.294 l 0,-15.783 -3.103,0 0,-2.074 3.103,0 0,-6.001 2.521,0 0,6.001 3.975,0 0,2.074 -3.975,0 0,14.785 c 0,2.133 0,3.043 2.132,3.043 0.679,0 1.356,-0.126 2.037,-0.29 l 0,2.035" /><path
         style="fill:#0895ff"
         id="path6917"
         d="m 221.52,655.958 c -2.132,0.872 -4.264,1.047 -6.398,1.213 -3.78,0.289 -6.107,1.666 -6.107,4.575 0,2.637 2.327,3.878 4.655,3.878 3.974,0 7.851,-1.92 7.851,-6.292 l -10e-4,-3.374 0,0 z m -4.168,-1.241 c 0.873,-0.087 2.425,-0.339 3.297,-0.718 0.776,-0.369 0.872,-1.492 0.872,-2.238 0,-2.54 -1.454,-4.372 -5.332,-4.372 -3.489,0 -5.816,1.124 -6.301,4.867 l -2.521,0 c 0.387,-5.081 4.168,-7.126 8.821,-7.126 4.364,0 7.853,1.716 7.853,6.708 l 0,11.741 c 0,1.957 0.486,2.414 2.619,1.666 l 0,1.959 c -0.389,0.126 -1.262,0.416 -1.939,0.416 -0.388,0 -0.775,-0.038 -1.164,-0.125 -1.648,-0.242 -1.939,-1.706 -1.939,-3.21 -2.134,2.338 -4.943,3.588 -8.046,3.588 -3.781,0 -7.271,-2.046 -7.271,-6.204 0,-3.616 2.521,-5.826 7.562,-6.495 l 3.489,-0.457" /><path
         style="fill:#0895ff"
         id="path6919"
         d="m 238.778,667.37 c -0.581,0.125 -1.649,0.504 -2.908,0.504 -2.423,0 -3.781,-1.086 -3.781,-4.294 l 0,-15.783 -3.006,0 0,-2.074 3.006,0 0,-6.001 2.521,0 0,6.001 3.975,0 0,2.074 -3.975,0 0,14.785 c 0,2.133 0,3.043 2.132,3.043 0.678,0 1.358,-0.126 2.037,-0.29 l 0,2.035" /><path
         style="fill:#0895ff"
         id="path6921"
         d="m 246.243,667.291 -2.425,0 0,-21.569 2.425,0 0,21.569 z m -2.619,-26.283 0,-3.701 2.812,0 0,3.701 -2.812,0" /><path
         style="fill:#0895ff"
         id="path6923"
         d="m 260.978,647.389 c -5.235,0 -7.271,4.449 -7.271,9.112 0,5.371 2.521,9.122 7.271,9.122 5.234,0 7.368,-4.498 7.368,-9.122 0,-5.08 -2.036,-9.112 -7.368,-9.112 z m -9.985,9.111 c 0,-6.281 3.393,-11.371 9.985,-11.371 6.785,0 10.082,5.04 10.082,11.371 0,6.837 -3.975,11.372 -10.082,11.372 -5.429,-0.086 -9.985,-3.829 -9.985,-11.372" /><path
         style="fill:#0895ff"
         id="path6925"
         d="m 277.071,667.291 -2.521,0 0,-21.569 2.521,0 0,2.995 c 1.938,-2.123 3.975,-3.587 6.883,-3.587 2.713,0 5.041,0.833 6.592,3.083 1.064,1.552 1.162,3.169 1.162,4.953 l 0,14.124 -2.521,0 0,-14.076 c 0,-3.866 -1.647,-5.825 -5.623,-5.825 -3.103,0 -5.235,1.996 -6.01,4.196 -0.486,1.377 -0.486,2.59 -0.486,4.092 l 0,11.614" /><path
         style="fill:#0895ff"
         id="path6927"
         d="m 301.499,660.283 c -0.291,-0.136 -0.678,-0.204 -1.258,-0.204 l -0.777,0 0,1.997 0.875,0 c 0.386,0 0.773,-0.038 0.968,-0.114 0.387,-0.155 0.582,-0.445 0.582,-0.873 0,-0.399 -0.195,-0.671 -0.39,-0.806 z m -1.065,-0.883 c 0.681,0 1.164,0.059 1.551,0.193 0.582,0.243 0.775,0.708 0.775,1.416 0,0.494 -0.099,0.854 -0.484,1.086 -0.194,0.126 -0.483,0.215 -0.774,0.271 0.387,0.067 0.678,0.262 0.871,0.553 0.194,0.301 0.291,0.593 0.291,0.873 l 0,0.407 c 0,0.135 0,0.281 0.098,0.418 0,0.154 0,0.251 0,0.299 l 0,0.068 -0.873,0 c 0,-0.021 0,-0.039 0,-0.049 0,-0.021 0,-0.05 0,-0.078 l -0.096,-0.173 0,-0.447 c 0,-0.658 -0.195,-1.086 -0.486,-1.289 -0.193,-0.126 -0.58,-0.185 -1.066,-0.185 l -0.773,0 0,2.221 -0.971,0 0,-5.584 1.937,0 0,0 0,0 z m -3.004,-0.29 c -0.873,0.853 -1.263,1.89 -1.263,3.091 0,1.231 0.39,2.27 1.263,3.123 0.872,0.863 1.841,1.289 3.103,1.289 1.262,0 2.229,-0.426 3.103,-1.289 0.872,-0.854 1.263,-1.891 1.263,-3.123 0,-1.201 -0.391,-2.238 -1.263,-3.091 -0.872,-0.854 -1.841,-1.281 -3.103,-1.281 -1.262,-10e-4 -2.231,0.426 -3.103,1.281 z m 6.689,6.687 c -0.97,0.99 -2.229,1.493 -3.586,1.493 -1.359,0 -2.619,-0.504 -3.586,-1.493 -0.972,-0.987 -1.455,-2.189 -1.455,-3.597 0,-1.386 0.483,-2.588 1.455,-3.567 0.967,-0.998 2.227,-1.482 3.586,-1.482 1.356,0 2.616,0.483 3.586,1.482 0.969,0.97 1.455,2.172 1.455,3.567 0,1.409 -0.487,2.61 -1.455,3.597" /><path
         style="fill:#0895ff"
         id="path6929"
         d="m 322.634,651.636 c 5.332,0 8.627,-1.087 8.627,-6.155 0,-3.752 -2.422,-5.76 -7.754,-5.76 l -7.369,0 0,11.915 6.496,0 z m -9.304,15.655 0,-29.984 10.955,0 c 7.756,0 9.789,3.878 9.789,8.375 0,6.699 -5.914,8.366 -11.535,8.366 l -6.4,0 0,13.242 -2.809,0.001" /><path
         style="fill:#0895ff"
         id="path6931"
         d="m 345.222,647.389 c -5.234,0 -7.365,4.449 -7.365,9.112 0,5.371 2.615,9.122 7.365,9.122 5.236,0 7.369,-4.498 7.369,-9.122 -0.097,-5.08 -2.037,-9.112 -7.369,-9.112 z m -9.984,9.111 c 0,-6.281 3.297,-11.371 9.984,-11.371 6.787,0 9.986,5.04 9.986,11.371 0,6.837 -3.975,11.372 -9.986,11.372 -5.525,-0.086 -9.984,-3.829 -9.984,-11.372" /><path
         style="fill:#0895ff"
         id="path6933"
         d="m 361.414,667.291 -2.521,0 0,-21.569 2.521,0 0,4.044 0.098,0 c 1.354,-3.463 3.393,-4.635 6.98,-4.635 l 0,2.716 c -5.625,-0.126 -7.076,4.032 -7.076,8.86 l 0,10.584" /><path
         style="fill:#0895ff"
         id="path6935"
         d="m 382.451,667.37 c -0.582,0.125 -1.648,0.504 -2.813,0.504 -2.52,0 -3.879,-1.086 -3.879,-4.294 l 0,-15.783 -3.004,0 0,-2.074 3.004,0 0,-6.001 2.521,0 0,6.001 4.072,0 0,2.074 -4.072,0 0,14.785 c 0,2.133 0.098,3.043 2.133,3.043 0.682,0 1.455,-0.126 2.037,-0.29 l 0,2.035" /><path
         style="fill:#0895ff"
         id="path6937"
         d="m 400.384,655.958 c -2.133,0.872 -4.266,1.047 -6.398,1.213 -3.781,0.289 -6.107,1.666 -6.107,4.575 0,2.637 2.328,3.878 4.652,3.878 3.977,0 7.854,-1.92 7.854,-6.292 l 0,-3.374 -10e-4,0 z m -4.17,-1.241 c 0.871,-0.087 2.424,-0.339 3.297,-0.718 0.777,-0.369 0.873,-1.492 0.873,-2.238 0,-2.54 -1.455,-4.372 -5.332,-4.372 -3.488,0 -5.816,1.124 -6.301,4.867 l -2.521,0 c 0.387,-5.081 4.17,-7.126 8.822,-7.126 4.363,0 7.854,1.716 7.854,6.708 l 0,11.741 c 0,1.957 0.482,2.414 2.617,1.666 l 0,1.959 c -0.389,0.126 -1.262,0.416 -1.938,0.416 -0.389,0 -0.777,-0.038 -1.164,-0.125 -1.646,-0.242 -1.938,-1.706 -1.938,-3.21 -2.135,2.338 -4.945,3.588 -8.051,3.588 -3.777,0 -7.27,-2.046 -7.27,-6.204 0,-3.616 2.52,-5.826 7.561,-6.495 l 3.491,-0.457" /><path
         style="fill:#0895ff"
         id="path6939"
         d="m 420.162,665.623 c 4.168,0 7.27,-3.043 7.369,-8.452 0.191,-5.41 -2.23,-9.782 -7.369,-9.782 -4.557,0 -7.271,4.158 -7.271,9.026 -0.003,5.214 2.521,9.208 7.271,9.208 z m -7.274,1.668 -2.52,0 0,-29.984 2.52,0 0,11.865 c 1.555,-2.618 4.654,-4.043 7.66,-4.043 6.59,0 9.598,5.38 9.598,11.42 0,6.359 -2.715,11.323 -9.693,11.323 -2.813,0 -6.01,-1.541 -7.561,-4.372 l 0,0 0,3.791" /><path
         style="fill:#0895ff"
         id="path6941"
         d="m 435.673,667.291 2.52,0 0,-29.984 -2.52,0 0,29.984 z" /><path
         style="fill:#0895ff"
         id="path6943"
         d="m 459.908,654.999 c 0,-4.198 -2.326,-7.61 -6.785,-7.61 -4.459,0 -6.787,3.538 -7.271,7.61 l 14.056,0 z m -14.057,2.093 c 0,4.654 2.521,8.532 7.271,8.532 3.199,0 5.816,-1.794 6.494,-4.953 l 2.811,0 c -1.26,4.07 -3.779,7.203 -9.305,7.203 -6.885,0 -9.891,-4.915 -9.891,-11.282 0,-6.293 3.686,-11.461 9.891,-11.461 5.914,0 9.5,4.218 9.5,11.962 l -16.771,-10e-4" /><path
         style="fill:#0895ff"
         id="path6945"
         d="m -2.322,490.726 176.632,0 0,52.38 -169.653,0 0,45.398 -6.979,0 0,-52.38 169.652,0 0,-38.42 -169.652,0 0,-6.978" /><path
         style="fill:#0895ff"
         id="path6947"
         d="m 394.956,543.106 0,45.398 -6.98,0 0,-52.38 169.65,0 0,-38.42 -169.65,0 0,-6.979 176.631,0 0,52.38 -169.651,0" /><path
         style="fill:#0895ff"
         id="path6949"
         d="m 264.371,490.726 0,90.798 -90.061,0 0,6.98 97.428,0 0,-90.8 90.062,0 0,-6.979 -97.429,0" /></g></g></svg>