<?xml version="1.0" encoding="UTF-8" standalone="no"?>
<svg
   xmlns:dc="http://purl.org/dc/elements/1.1/"
   xmlns:cc="http://creativecommons.org/ns#"
   xmlns:rdf="http://www.w3.org/1999/02/22-rdf-syntax-ns#"
   xmlns:svg="http://www.w3.org/2000/svg"
   xmlns="http://www.w3.org/2000/svg"
   xml:space="preserve"
   enable-background="new -27.464 0 566.929 234.744"
   viewBox="-27.464 0 170.11399 496.40301"
   height="496.40302"
   width="170.114"
   y="0px"
   x="0px"
   id="svg2"
   version="1.1"><metadata
     id="metadata10"><rdf:RDF><cc:Work
         rdf:about=""><dc:format>image/svg+xml</dc:format><dc:type
           rdf:resource="http://purl.org/dc/dcmitype/StillImage" /><dc:title></dc:title></cc:Work></rdf:RDF></metadata><defs
     id="defs3" /><path
     style="fill:#000000;fill-opacity:1"
     d="m 142.047,496.403 -169.511001,-43.064 0,-39.932 73.991,-20.749 -73.991,-21.531 0,-37.583 124.883,-35.233 -0.162,-85.964 c -0.088,-9.024 -18.749,-9.578 -18.744,0.668 l -0.668,50.063 c 0.207,21.497 -23.05,44.167 -54.025,43.063 -28.4119997,-0.229 -50.786,-25.004 -50.778,-56.698 l -0.114,-127.69 44.238,-32.494 -44.629,-31.71 0.392,-52.85 81.428,57.938 L 142.65,0 142.488,52.573 91.825999,89.029 142.488,123.71 l -0.047,53.633 -87.301001,-61.072 -38.757,26.622 0.162,110.999 c 0.111,12.114 19.169,11.669 18.812,-0.095 l 0.716,-46.768 c 0.127,-19.767 20.668,-47.604 52.736,-46.911 C 126.089,159.816 143.121,193.393 142.211,209.559 l 0.163,122.419 -76.272001,20.357 76.109001,20.357 0,38.644 -75.718001,21.255 75.833001,18.677 -0.279,45.135 z"
     id="path2830" /></svg>