<?xml version="1.0" encoding="UTF-8" standalone="no"?>
<!-- Generator: Adobe Illustrator 16.0.3, SVG Export Plug-In . SVG Version: 6.00 Build 0)  -->

<svg
   xmlns:dc="http://purl.org/dc/elements/1.1/"
   xmlns:cc="http://creativecommons.org/ns#"
   xmlns:rdf="http://www.w3.org/1999/02/22-rdf-syntax-ns#"
   xmlns:svg="http://www.w3.org/2000/svg"
   xmlns="http://www.w3.org/2000/svg"
   xmlns:sodipodi="http://sodipodi.sourceforge.net/DTD/sodipodi-0.dtd"
   xmlns:inkscape="http://www.inkscape.org/namespaces/inkscape"
   version="1.1"
   id="Ebene_1"
   x="0px"
   y="0px"
   width="164.01303"
   height="542.10858"
   viewBox="0 0 164.01303 542.10857"
   enable-background="new 0 0 566.929 180.921"
   xml:space="preserve"
   inkscape:version="0.91 r"
   sodipodi:docname="logo-vertical.svg"><metadata
     id="metadata34"><rdf:RDF><cc:Work
         rdf:about=""><dc:format>image/svg+xml</dc:format><dc:type
           rdf:resource="http://purl.org/dc/dcmitype/StillImage" /><dc:title></dc:title></cc:Work></rdf:RDF></metadata><defs
     id="defs32" /><sodipodi:namedview
     pagecolor="#ffffff"
     bordercolor="#666666"
     borderopacity="1"
     objecttolerance="10"
     gridtolerance="10"
     guidetolerance="10"
     inkscape:pageopacity="0"
     inkscape:pageshadow="2"
     inkscape:window-width="722"
     inkscape:window-height="480"
     id="namedview30"
     showgrid="false"
     inkscape:zoom="0.93662519"
     inkscape:cx="-68.667736"
     inkscape:cy="374.21901"
     inkscape:current-layer="g3"
     inkscape:window-x="0"
     inkscape:window-y="0"
     inkscape:window-maximized="0"
     fit-margin-top="0"
     fit-margin-left="0"
     fit-margin-right="0"
     fit-margin-bottom="0" /><g
     id="g3"
     transform="translate(-201.45954,176.6018)"><linearGradient
       id="SVGID_1_"
       gradientUnits="userSpaceOnUse"
       x1="426.18311"
       y1="1339.6851"
       x2="426.18311"
       y2="1431.8866"
       gradientTransform="translate(-172.1245,-1255.0713)"><stop
         offset="0"
         style="stop-color:#F57E25"
         id="stop24" /><stop
         offset="1"
         style="stop-color:#FCD660"
         id="stop26" /></linearGradient><g
       id="g4145"
       transform="matrix(0,-1,1,0,189.01357,377.91854)"><path
         style="fill:#ffffff;fill-opacity:1"
         id="path7"
         d="M 82.539,36.625 C 73.353,24.2 71.162,25.472 65.829,25.472 l -23.438,0 -26.126,0 c -3.994,0 -4.882,2.99 -2.669,5.963 1.245,1.688 3.922,4.414 6.061,6.54 l 51.718,51.871 50.978,0 C 110.738,74.491 97.542,56.919 82.539,36.625 Z m 7.412,40.505 c -1.556,0.023 -4.109,0.079 -5.639,0.055 -1.736,-0.028 -2.228,-0.421 -3.307,-1.621 L 57.359,49.249 c -1.063,-1.184 -0.938,-2.53 1.025,-2.532 l 7.278,-0.007 c 0.98,-10e-4 1.451,0.099 3.262,2.289 l 21.288,25.729 c 1.204,1.454 0.403,2.395 -0.261,2.402 z"
         inkscape:connector-curvature="0" /><path
         style="fill:#ffffff;fill-opacity:1"
         id="path9"
         d="m 87.845,25.479 26.117,0 16.336,0 c 5.327,0 10.485,-1.854 16.696,11.139 l 25.448,53.229 -45.032,0 -23.684,-32.743 c -0.976,-1.35 -1.107,-1.527 -1.712,-2.553 -0.528,-0.894 0.136,-1.907 1.549,-1.995 5.75,-0.055 11.499,-0.11 17.248,-0.165 2.824,0.051 3.818,0.084 5.401,2.714 4.537,6.723 8.598,13.684 13.135,20.408 0.901,1.666 2.217,1.735 4.94,1.768 3.145,0.038 5.026,-0.345 3.094,-3.572 L 132.46,48.785 c -2.243,-3.747 -8.857,-3.116 -9.838,-3.116 l -22.301,0 c -2.63,0 -4.637,0.158 -6.288,-2.005 L 85.156,31.428 c -2.167,-2.99 -1.307,-5.949 2.689,-5.949 l 0,0 z"
         inkscape:connector-curvature="0" /><path
         style="fill:#ffffff;fill-opacity:1"
         id="path11"
         d="m 153.214,25.479 c 6.792,0 14.116,0 20.907,0 1.08,0.105 1.691,0.444 1.833,1.021 3.115,7.735 5.468,15.47 8.585,23.205 0.578,1.492 1.098,2.161 1.913,2.007 1.733,0.011 3.168,0.022 4.902,0.035 1.584,-0.063 2.022,-0.951 1.492,-2.662 -2.021,-7.354 -4.26,-14.269 -6.282,-21.624 -0.543,-1.814 0.561,-1.984 2.433,-1.984 l 14.314,0 c 7.166,0 8.325,-1.046 10.993,11.139 2.106,9.618 4.035,19.238 6.141,28.858 0.498,3.184 -0.794,5.764 -4.306,5.67 l -6.695,-0.023 5.114,18.725 -24.798,0 -7.53,-18.679 c -2.896,0.002 -4.413,0.003 -7.309,0.004 -4.363,-0.032 -6.525,-2.871 -8.329,-6.739 L 150.907,31.428 c -1.424,-2.998 -1.688,-5.949 2.307,-5.949 l 0,0 z"
         inkscape:connector-curvature="0" /><path
         style="fill:#ffffff;fill-opacity:1"
         id="path13"
         d="m 225.108,25.479 27.481,0 23.326,0 c 5.327,0 9.167,-0.538 8.528,7.315 l -0.589,7.269 c -0.098,1.19 -0.203,2.255 -0.51,3.381 -0.67,2.458 -2.959,2.829 -5.507,2.868 l -28.796,0 c -1.307,0 -1.741,0.074 -1.745,0.97 l -0.026,4.467 c -0.006,1.014 0.705,0.878 2.325,0.878 l 22.025,0 c 1.612,0 3.183,-0.076 4.766,0.304 2.953,0.708 4.545,2.445 5.364,4.669 0.681,1.854 0.402,3.382 0.245,5.316 l -2.188,26.93 -49.454,0 -1.566,-8.994 c -0.273,-1.565 0.208,-2.545 2.109,-2.545 l 26.066,0 c 4.525,-0.654 4.675,-3.78 4.218,-7.263 l -27.814,0 c -2.85,0.129 -4.684,-0.744 -5.905,-2.153 -1.131,-1.303 -1.198,-2.506 -1.483,-4.15 l -5.47,-31.406 c -0.804,-4.612 0.606,-7.856 4.6,-7.856 l 0,0 z"
         inkscape:connector-curvature="0" /><path
         style="fill:#ffffff;fill-opacity:1"
         id="path15"
         d="m 298.869,25.479 25.791,0 22.715,0 c 5.188,0 9.025,-0.526 6.508,7.123 l -2.553,7.743 c -0.387,1.16 -0.752,2.195 -1.326,3.292 -1.254,2.393 -3.571,2.754 -6.063,2.792 l -25.66,0 c -1.271,0 -1.705,0.072 -1.938,0.944 l -1.313,4.92 c -0.261,0.986 0.474,0.855 2.05,0.855 l 19.067,0 c 1.567,0 3.115,-0.072 4.563,0.296 2.697,0.689 3.826,2.38 4.076,4.546 0.207,1.805 -0.438,3.293 -1.064,5.175 l -9.508,26.68 -47.4,0 1.032,-8.678 c 0.12,-1.524 0.823,-2.479 2.68,-2.478 l 19.616,0 c 4.563,-0.638 5.479,-3.682 5.889,-7.072 l -17.722,0 c -6.374,0.284 -9.358,-3.927 -8.944,-9.532 l 2.133,-28.96 c 0.332,-4.488 3.482,-7.649 7.371,-7.649 l 0.002,0 0,0.003 -0.002,0 z"
         inkscape:connector-curvature="0" /><path
         style="fill:#ffffff;fill-opacity:1"
         id="path17"
         d="m 370.328,25.479 27.232,0 23.979,0 c 5.477,0 9.674,-0.526 4.943,7.123 l -4.791,7.743 c -0.723,1.16 -1.389,2.195 -2.291,3.292 -1.977,2.393 -4.523,2.754 -7.162,2.792 l -20.459,0 c -1.344,0 -3.1,-0.127 -3.061,0.629 l 0.205,4.084 c 0.043,0.858 0.929,1.521 2.595,1.521 l 11.157,0 7.805,0.053 c 1.717,0.012 2.43,1.576 1.621,2.928 l -3.092,5.176 -7.245,11.194 c -0.306,0.016 -0.612,0.025 -0.921,0.029 l -21.869,0 c -1.396,0 -3.229,-0.127 -3.174,0.844 l 0.212,3.869 c 0.05,0.857 0.964,1.521 2.69,1.521 l 12.219,0 6.76,0.045 -7.457,11.522 -49.66,0 c 4.773,-12.022 4.592,-12.785 19.908,-56.718 1.565,-4.486 5.749,-7.647 9.856,-7.647 l 0,0 z"
         inkscape:connector-curvature="0" /><path
         style="fill:#ffffff;fill-opacity:1"
         id="path19"
         d="m 505.251,25.479 c -7.457,0 -15.498,0 -22.955,0 -1.229,0.105 -2.047,0.444 -2.443,1.021 -6.693,7.735 -12.553,15.47 -19.244,23.205 -1.268,1.492 -2.121,2.161 -2.949,2.007 -1.91,0.011 -3.488,0.022 -5.398,0.035 -1.711,-0.063 -1.813,-0.951 -0.51,-2.662 5.332,-7.354 10.717,-14.269 16.047,-21.624 1.363,-1.814 0.229,-1.984 -1.83,-1.984 l -17.324,0 c -7.861,0 -8.691,-1.046 -16.779,11.139 -6.381,9.618 -12.57,19.238 -18.953,28.858 -1.896,3.184 -1.568,5.764 2.326,5.67 l 8.969,-0.023 -13.539,18.725 27.225,0 16.172,-18.679 c 3.18,0.002 4.846,0.003 8.023,0.004 4.803,-0.032 8.381,-2.871 11.998,-6.739 l 31.188,-33.005 c 2.826,-2.997 4.363,-5.948 -0.024,-5.948 l 0,0 z"
         inkscape:connector-curvature="0" /><path
         style="fill:#ffffff;fill-opacity:1"
         id="path21"
         d="m 540.396,38.507 c -1.484,1.387 -2.932,2.818 -4.385,4.237 -1.156,1.132 -2.041,0.882 -3.672,0.882 l -23.922,0 c -1.426,0 -2.381,-0.085 -2.898,-0.494 -0.758,-0.597 -0.586,-1.702 0.396,-2.691 3.715,-3.944 7.436,-7.889 11.15,-11.832 1.775,-1.632 3.43,-3.309 6.813,-4.407 2.068,-0.67 3.9,-0.827 6.041,-0.827 l 9.855,0 c 2.434,0.228 4.672,-4.551 2.074,-5.461 l -16.138,0 c -2.123,0.151 -2.729,-0.605 -1.82,-2.276 1.75,-2.042 2.777,-3.29 3.643,-3.186 l 18.721,0 c 1.891,0 4.592,0.198 6.137,1.482 3.311,2.743 2.307,7.848 0.063,11.148 -1.939,2.844 -6.27,4.823 -9.564,4.935 l -12.869,0 c -3.145,0.228 -7.238,6.708 -1.572,6.783 l 11.287,0 c 1.623,0.001 1.664,0.77 0.66,1.707"
         inkscape:connector-curvature="0" /><path
         style="fill:#ffffff;fill-opacity:1"
         id="path28"
         d="m 118.668,84.97 c 14.685,19.412 30.529,40.164 40.607,53.508 11.277,14.945 20.692,27.43 28.656,37.979 l -30.208,0 c -8.839,-8.867 -18.978,-19.033 -30.696,-30.789 L 66.513,84.97 l 52.155,0 z m 322.935,0.59 -27.41,-0.589 -66.154,91.488 14.856,0 78.708,-90.899 z m -99.142,-0.59 c -4.017,10.109 -13.427,33.064 -36.628,91.488 l 28.34,0 58.456,-90.331 -50.168,-1.157 z m -7.125,1.725 -48.177,0.241 -10.642,89.522 26.841,0 31.978,-89.763 z m -55.316,0.53 -50.03,0.536 15.444,88.698 27.331,0 7.255,-89.234 z m -66.377,-0.73 -25.234,0 36.271,89.963 13.532,0 -23.656,-86.61 -0.913,-3.353 z m -43.533,-1.525 -46.228,0 66.173,91.488 23.795,0 -41.407,-86.61"
         inkscape:connector-curvature="0" /></g></g></svg>